%TF.GenerationSoftware,KiCad,Pcbnew,5.1.2*%
%TF.CreationDate,2019-07-26T15:54:53+10:00*%
%TF.ProjectId,bike_pov,62696b65-5f70-46f7-962e-6b696361645f,rev?*%
%TF.SameCoordinates,Original*%
%TF.FileFunction,Soldermask,Bot*%
%TF.FilePolarity,Negative*%
%FSLAX46Y46*%
G04 Gerber Fmt 4.6, Leading zero omitted, Abs format (unit mm)*
G04 Created by KiCad (PCBNEW 5.1.2) date 2019-07-26 15:54:53*
%MOMM*%
%LPD*%
G04 APERTURE LIST*
%ADD10C,0.100000*%
G04 APERTURE END LIST*
D10*
G36*
X142715222Y-114182073D02*
G01*
X143170192Y-114370528D01*
X143170194Y-114370529D01*
X143186676Y-114381542D01*
X143579656Y-114644123D01*
X143927877Y-114992344D01*
X144201472Y-115401808D01*
X144389927Y-115856778D01*
X144486000Y-116339770D01*
X144486000Y-116832230D01*
X144389927Y-117315222D01*
X144201472Y-117770192D01*
X144201471Y-117770194D01*
X143927876Y-118179657D01*
X143579657Y-118527876D01*
X143170194Y-118801471D01*
X143170193Y-118801472D01*
X143170192Y-118801472D01*
X142715222Y-118989927D01*
X142232230Y-119086000D01*
X141739770Y-119086000D01*
X141256778Y-118989927D01*
X140801808Y-118801472D01*
X140801807Y-118801472D01*
X140801806Y-118801471D01*
X140392343Y-118527876D01*
X140044124Y-118179657D01*
X139770529Y-117770194D01*
X139770528Y-117770192D01*
X139582073Y-117315222D01*
X139486000Y-116832230D01*
X139486000Y-116339770D01*
X139582073Y-115856778D01*
X139770528Y-115401808D01*
X140044123Y-114992344D01*
X140392344Y-114644123D01*
X140785324Y-114381542D01*
X140801806Y-114370529D01*
X140801808Y-114370528D01*
X141256778Y-114182073D01*
X141739770Y-114086000D01*
X142232230Y-114086000D01*
X142715222Y-114182073D01*
X142715222Y-114182073D01*
G37*
G36*
X128745222Y-114182073D02*
G01*
X129200192Y-114370528D01*
X129200194Y-114370529D01*
X129216676Y-114381542D01*
X129609656Y-114644123D01*
X129957877Y-114992344D01*
X130231472Y-115401808D01*
X130419927Y-115856778D01*
X130516000Y-116339770D01*
X130516000Y-116832230D01*
X130419927Y-117315222D01*
X130231472Y-117770192D01*
X130231471Y-117770194D01*
X129957876Y-118179657D01*
X129609657Y-118527876D01*
X129200194Y-118801471D01*
X129200193Y-118801472D01*
X129200192Y-118801472D01*
X128745222Y-118989927D01*
X128262230Y-119086000D01*
X127769770Y-119086000D01*
X127286778Y-118989927D01*
X126831808Y-118801472D01*
X126831807Y-118801472D01*
X126831806Y-118801471D01*
X126422343Y-118527876D01*
X126074124Y-118179657D01*
X125800529Y-117770194D01*
X125800528Y-117770192D01*
X125612073Y-117315222D01*
X125516000Y-116832230D01*
X125516000Y-116339770D01*
X125612073Y-115856778D01*
X125800528Y-115401808D01*
X126074123Y-114992344D01*
X126422344Y-114644123D01*
X126815324Y-114381542D01*
X126831806Y-114370529D01*
X126831808Y-114370528D01*
X127286778Y-114182073D01*
X127769770Y-114086000D01*
X128262230Y-114086000D01*
X128745222Y-114182073D01*
X128745222Y-114182073D01*
G37*
G36*
X92911196Y-111881458D02*
G01*
X93147781Y-111979455D01*
X93360702Y-112121724D01*
X93541776Y-112302798D01*
X93670267Y-112495099D01*
X93684046Y-112515721D01*
X93712748Y-112585014D01*
X93781671Y-112751408D01*
X93782042Y-112752305D01*
X93830753Y-112997189D01*
X93832000Y-113003461D01*
X93832000Y-113259539D01*
X93782042Y-113510696D01*
X93684045Y-113747281D01*
X93541776Y-113960202D01*
X93360702Y-114141276D01*
X93147781Y-114283545D01*
X92911196Y-114381542D01*
X92660040Y-114431500D01*
X92403960Y-114431500D01*
X92152804Y-114381542D01*
X91916219Y-114283545D01*
X91703298Y-114141276D01*
X91522224Y-113960202D01*
X91379955Y-113747281D01*
X91281958Y-113510696D01*
X91232000Y-113259539D01*
X91232000Y-113003461D01*
X91233248Y-112997189D01*
X91281958Y-112752305D01*
X91282330Y-112751408D01*
X91351252Y-112585014D01*
X91379954Y-112515721D01*
X91393733Y-112495099D01*
X91522224Y-112302798D01*
X91703298Y-112121724D01*
X91916219Y-111979455D01*
X92152804Y-111881458D01*
X92403960Y-111831500D01*
X92660040Y-111831500D01*
X92911196Y-111881458D01*
X92911196Y-111881458D01*
G37*
G36*
X154653222Y-108594073D02*
G01*
X155108192Y-108782528D01*
X155108194Y-108782529D01*
X155314315Y-108920255D01*
X155517656Y-109056123D01*
X155865877Y-109404344D01*
X156139472Y-109813808D01*
X156327927Y-110268778D01*
X156424000Y-110751770D01*
X156424000Y-111244230D01*
X156327927Y-111727222D01*
X156139472Y-112182192D01*
X155865877Y-112591656D01*
X155517656Y-112939877D01*
X155422497Y-113003460D01*
X155108194Y-113213471D01*
X155108193Y-113213472D01*
X155108192Y-113213472D01*
X154653222Y-113401927D01*
X154170230Y-113498000D01*
X153677770Y-113498000D01*
X153194778Y-113401927D01*
X152739808Y-113213472D01*
X152739807Y-113213472D01*
X152739806Y-113213471D01*
X152425503Y-113003460D01*
X152330344Y-112939877D01*
X151982123Y-112591656D01*
X151708528Y-112182192D01*
X151520073Y-111727222D01*
X151424000Y-111244230D01*
X151424000Y-110751770D01*
X151520073Y-110268778D01*
X151708528Y-109813808D01*
X151982123Y-109404344D01*
X152330344Y-109056123D01*
X152533685Y-108920255D01*
X152739806Y-108782529D01*
X152739808Y-108782528D01*
X153194778Y-108594073D01*
X153677770Y-108498000D01*
X154170230Y-108498000D01*
X154653222Y-108594073D01*
X154653222Y-108594073D01*
G37*
G36*
X138163999Y-110267999D02*
G01*
X138164001Y-110268001D01*
X138164605Y-110274137D01*
X138164605Y-112139055D01*
X138167007Y-112163441D01*
X138171727Y-112187170D01*
X138172936Y-112199448D01*
X138172936Y-112336552D01*
X138171727Y-112348830D01*
X138144981Y-112483293D01*
X138141400Y-112495099D01*
X138088932Y-112621765D01*
X138083116Y-112632646D01*
X138006953Y-112746632D01*
X138003037Y-112751404D01*
X138003034Y-112751408D01*
X138003031Y-112751411D01*
X137999122Y-112756174D01*
X137902174Y-112853122D01*
X137897411Y-112857031D01*
X137897408Y-112857034D01*
X137897404Y-112857037D01*
X137892632Y-112860953D01*
X137778646Y-112937116D01*
X137767765Y-112942932D01*
X137641099Y-112995400D01*
X137629293Y-112998981D01*
X137494830Y-113025727D01*
X137482552Y-113026936D01*
X137345448Y-113026936D01*
X137333170Y-113025727D01*
X137198707Y-112998981D01*
X137186901Y-112995400D01*
X137060235Y-112942932D01*
X137049354Y-112937116D01*
X136935368Y-112860953D01*
X136930596Y-112857037D01*
X136930592Y-112857034D01*
X136930589Y-112857031D01*
X136925826Y-112853122D01*
X136828878Y-112756174D01*
X136824969Y-112751411D01*
X136824966Y-112751408D01*
X136824963Y-112751404D01*
X136821047Y-112746632D01*
X136744884Y-112632646D01*
X136739068Y-112621765D01*
X136686600Y-112495099D01*
X136683019Y-112483293D01*
X136656273Y-112348830D01*
X136655064Y-112336552D01*
X136655064Y-112199448D01*
X136656273Y-112187170D01*
X136660993Y-112163441D01*
X136663395Y-112139055D01*
X136663395Y-110274137D01*
X136663999Y-110268001D01*
X136664001Y-110267999D01*
X136670137Y-110267395D01*
X138157863Y-110267395D01*
X138163999Y-110267999D01*
X138163999Y-110267999D01*
G37*
G36*
X135623999Y-110267999D02*
G01*
X135624001Y-110268001D01*
X135624605Y-110274137D01*
X135624605Y-112139055D01*
X135627007Y-112163441D01*
X135631727Y-112187170D01*
X135632936Y-112199448D01*
X135632936Y-112336552D01*
X135631727Y-112348830D01*
X135604981Y-112483293D01*
X135601400Y-112495099D01*
X135548932Y-112621765D01*
X135543116Y-112632646D01*
X135466953Y-112746632D01*
X135463037Y-112751404D01*
X135463034Y-112751408D01*
X135463031Y-112751411D01*
X135459122Y-112756174D01*
X135362174Y-112853122D01*
X135357411Y-112857031D01*
X135357408Y-112857034D01*
X135357404Y-112857037D01*
X135352632Y-112860953D01*
X135238646Y-112937116D01*
X135227765Y-112942932D01*
X135101099Y-112995400D01*
X135089293Y-112998981D01*
X134954830Y-113025727D01*
X134942552Y-113026936D01*
X134805448Y-113026936D01*
X134793170Y-113025727D01*
X134658707Y-112998981D01*
X134646901Y-112995400D01*
X134520235Y-112942932D01*
X134509354Y-112937116D01*
X134395368Y-112860953D01*
X134390596Y-112857037D01*
X134390592Y-112857034D01*
X134390589Y-112857031D01*
X134385826Y-112853122D01*
X134288878Y-112756174D01*
X134284969Y-112751411D01*
X134284966Y-112751408D01*
X134284963Y-112751404D01*
X134281047Y-112746632D01*
X134204884Y-112632646D01*
X134199068Y-112621765D01*
X134146600Y-112495099D01*
X134143019Y-112483293D01*
X134116273Y-112348830D01*
X134115064Y-112336552D01*
X134115064Y-112199448D01*
X134116273Y-112187170D01*
X134120993Y-112163441D01*
X134123395Y-112139055D01*
X134123395Y-110274137D01*
X134123999Y-110268001D01*
X134124001Y-110267999D01*
X134130137Y-110267395D01*
X135617863Y-110267395D01*
X135623999Y-110267999D01*
X135623999Y-110267999D01*
G37*
G36*
X133083999Y-110267999D02*
G01*
X133084001Y-110268001D01*
X133084605Y-110274137D01*
X133084605Y-112139055D01*
X133087007Y-112163441D01*
X133091727Y-112187170D01*
X133092936Y-112199448D01*
X133092936Y-112336552D01*
X133091727Y-112348830D01*
X133064981Y-112483293D01*
X133061400Y-112495099D01*
X133008932Y-112621765D01*
X133003116Y-112632646D01*
X132926953Y-112746632D01*
X132923037Y-112751404D01*
X132923034Y-112751408D01*
X132923031Y-112751411D01*
X132919122Y-112756174D01*
X132822174Y-112853122D01*
X132817411Y-112857031D01*
X132817408Y-112857034D01*
X132817404Y-112857037D01*
X132812632Y-112860953D01*
X132698646Y-112937116D01*
X132687765Y-112942932D01*
X132561099Y-112995400D01*
X132549293Y-112998981D01*
X132414830Y-113025727D01*
X132402552Y-113026936D01*
X132265448Y-113026936D01*
X132253170Y-113025727D01*
X132118707Y-112998981D01*
X132106901Y-112995400D01*
X131980235Y-112942932D01*
X131969354Y-112937116D01*
X131855368Y-112860953D01*
X131850596Y-112857037D01*
X131850592Y-112857034D01*
X131850589Y-112857031D01*
X131845826Y-112853122D01*
X131748878Y-112756174D01*
X131744969Y-112751411D01*
X131744966Y-112751408D01*
X131744963Y-112751404D01*
X131741047Y-112746632D01*
X131664884Y-112632646D01*
X131659068Y-112621765D01*
X131606600Y-112495099D01*
X131603019Y-112483293D01*
X131576273Y-112348830D01*
X131575064Y-112336552D01*
X131575064Y-112199448D01*
X131576273Y-112187170D01*
X131580993Y-112163441D01*
X131583395Y-112139055D01*
X131583395Y-110274137D01*
X131583999Y-110268001D01*
X131584001Y-110267999D01*
X131590137Y-110267395D01*
X133077863Y-110267395D01*
X133083999Y-110267999D01*
X133083999Y-110267999D01*
G37*
G36*
X126910182Y-111402400D02*
G01*
X127037573Y-111455167D01*
X127037574Y-111455168D01*
X127152224Y-111531774D01*
X127249726Y-111629276D01*
X127249727Y-111629278D01*
X127326333Y-111743927D01*
X127379100Y-111871318D01*
X127406000Y-112006555D01*
X127406000Y-112144445D01*
X127379100Y-112279682D01*
X127326333Y-112407073D01*
X127326332Y-112407074D01*
X127249726Y-112521724D01*
X127152224Y-112619226D01*
X127148424Y-112621765D01*
X127037573Y-112695833D01*
X126910182Y-112748600D01*
X126774945Y-112775500D01*
X126637055Y-112775500D01*
X126501818Y-112748600D01*
X126374427Y-112695833D01*
X126263576Y-112621765D01*
X126259776Y-112619226D01*
X126162274Y-112521724D01*
X126085668Y-112407074D01*
X126085667Y-112407073D01*
X126032900Y-112279682D01*
X126006000Y-112144445D01*
X126006000Y-112006555D01*
X126032900Y-111871318D01*
X126085667Y-111743927D01*
X126162273Y-111629278D01*
X126162274Y-111629276D01*
X126259776Y-111531774D01*
X126374426Y-111455168D01*
X126374427Y-111455167D01*
X126501818Y-111402400D01*
X126637055Y-111375500D01*
X126774945Y-111375500D01*
X126910182Y-111402400D01*
X126910182Y-111402400D01*
G37*
G36*
X124410182Y-111402400D02*
G01*
X124537573Y-111455167D01*
X124537574Y-111455168D01*
X124652224Y-111531774D01*
X124749726Y-111629276D01*
X124749727Y-111629278D01*
X124826333Y-111743927D01*
X124879100Y-111871318D01*
X124906000Y-112006555D01*
X124906000Y-112144445D01*
X124879100Y-112279682D01*
X124826333Y-112407073D01*
X124826332Y-112407074D01*
X124749726Y-112521724D01*
X124652224Y-112619226D01*
X124648424Y-112621765D01*
X124537573Y-112695833D01*
X124410182Y-112748600D01*
X124274945Y-112775500D01*
X124137055Y-112775500D01*
X124001818Y-112748600D01*
X123874427Y-112695833D01*
X123763576Y-112621765D01*
X123759776Y-112619226D01*
X123662274Y-112521724D01*
X123585668Y-112407074D01*
X123585667Y-112407073D01*
X123532900Y-112279682D01*
X123506000Y-112144445D01*
X123506000Y-112006555D01*
X123532900Y-111871318D01*
X123585667Y-111743927D01*
X123662273Y-111629278D01*
X123662274Y-111629276D01*
X123759776Y-111531774D01*
X123874426Y-111455168D01*
X123874427Y-111455167D01*
X124001818Y-111402400D01*
X124137055Y-111375500D01*
X124274945Y-111375500D01*
X124410182Y-111402400D01*
X124410182Y-111402400D01*
G37*
G36*
X129410182Y-111402400D02*
G01*
X129537573Y-111455167D01*
X129537574Y-111455168D01*
X129652224Y-111531774D01*
X129749726Y-111629276D01*
X129749727Y-111629278D01*
X129826333Y-111743927D01*
X129879100Y-111871318D01*
X129906000Y-112006555D01*
X129906000Y-112144445D01*
X129879100Y-112279682D01*
X129826333Y-112407073D01*
X129826332Y-112407074D01*
X129749726Y-112521724D01*
X129652224Y-112619226D01*
X129648424Y-112621765D01*
X129537573Y-112695833D01*
X129410182Y-112748600D01*
X129274945Y-112775500D01*
X129137055Y-112775500D01*
X129001818Y-112748600D01*
X128874427Y-112695833D01*
X128763576Y-112621765D01*
X128759776Y-112619226D01*
X128662274Y-112521724D01*
X128585668Y-112407074D01*
X128585667Y-112407073D01*
X128532900Y-112279682D01*
X128506000Y-112144445D01*
X128506000Y-112006555D01*
X128532900Y-111871318D01*
X128585667Y-111743927D01*
X128662273Y-111629278D01*
X128662274Y-111629276D01*
X128759776Y-111531774D01*
X128874426Y-111455168D01*
X128874427Y-111455167D01*
X129001818Y-111402400D01*
X129137055Y-111375500D01*
X129274945Y-111375500D01*
X129410182Y-111402400D01*
X129410182Y-111402400D01*
G37*
G36*
X163809351Y-109974743D02*
G01*
X163954941Y-110035048D01*
X164085970Y-110122599D01*
X164197401Y-110234030D01*
X164284952Y-110365059D01*
X164345257Y-110510649D01*
X164376000Y-110665206D01*
X164376000Y-110822794D01*
X164345257Y-110977351D01*
X164284952Y-111122941D01*
X164197401Y-111253970D01*
X164085970Y-111365401D01*
X163954941Y-111452952D01*
X163809351Y-111513257D01*
X163654794Y-111544000D01*
X163497206Y-111544000D01*
X163342649Y-111513257D01*
X163197059Y-111452952D01*
X163066030Y-111365401D01*
X162954599Y-111253970D01*
X162867048Y-111122941D01*
X162806743Y-110977351D01*
X162776000Y-110822794D01*
X162776000Y-110665206D01*
X162806743Y-110510649D01*
X162867048Y-110365059D01*
X162954599Y-110234030D01*
X163066030Y-110122599D01*
X163197059Y-110035048D01*
X163342649Y-109974743D01*
X163497206Y-109944000D01*
X163654794Y-109944000D01*
X163809351Y-109974743D01*
X163809351Y-109974743D01*
G37*
G36*
X168809351Y-109974743D02*
G01*
X168954941Y-110035048D01*
X169085970Y-110122599D01*
X169197401Y-110234030D01*
X169284952Y-110365059D01*
X169345257Y-110510649D01*
X169376000Y-110665206D01*
X169376000Y-110822794D01*
X169345257Y-110977351D01*
X169284952Y-111122941D01*
X169197401Y-111253970D01*
X169085970Y-111365401D01*
X168954941Y-111452952D01*
X168809351Y-111513257D01*
X168654794Y-111544000D01*
X168497206Y-111544000D01*
X168342649Y-111513257D01*
X168197059Y-111452952D01*
X168066030Y-111365401D01*
X167954599Y-111253970D01*
X167867048Y-111122941D01*
X167806743Y-110977351D01*
X167776000Y-110822794D01*
X167776000Y-110665206D01*
X167806743Y-110510649D01*
X167867048Y-110365059D01*
X167954599Y-110234030D01*
X168066030Y-110122599D01*
X168197059Y-110035048D01*
X168342649Y-109974743D01*
X168497206Y-109944000D01*
X168654794Y-109944000D01*
X168809351Y-109974743D01*
X168809351Y-109974743D01*
G37*
G36*
X124906000Y-109475500D02*
G01*
X123506000Y-109475500D01*
X123506000Y-108075500D01*
X124906000Y-108075500D01*
X124906000Y-109475500D01*
X124906000Y-109475500D01*
G37*
G36*
X126910182Y-108102400D02*
G01*
X127037573Y-108155167D01*
X127037574Y-108155168D01*
X127152224Y-108231774D01*
X127249726Y-108329276D01*
X127249727Y-108329278D01*
X127326333Y-108443927D01*
X127379100Y-108571318D01*
X127406000Y-108706555D01*
X127406000Y-108844445D01*
X127379100Y-108979682D01*
X127326333Y-109107073D01*
X127326332Y-109107074D01*
X127249726Y-109221724D01*
X127152224Y-109319226D01*
X127094510Y-109357789D01*
X127037573Y-109395833D01*
X126910182Y-109448600D01*
X126774945Y-109475500D01*
X126637055Y-109475500D01*
X126501818Y-109448600D01*
X126374427Y-109395833D01*
X126317490Y-109357789D01*
X126259776Y-109319226D01*
X126162274Y-109221724D01*
X126085668Y-109107074D01*
X126085667Y-109107073D01*
X126032900Y-108979682D01*
X126006000Y-108844445D01*
X126006000Y-108706555D01*
X126032900Y-108571318D01*
X126085667Y-108443927D01*
X126162273Y-108329278D01*
X126162274Y-108329276D01*
X126259776Y-108231774D01*
X126374426Y-108155168D01*
X126374427Y-108155167D01*
X126501818Y-108102400D01*
X126637055Y-108075500D01*
X126774945Y-108075500D01*
X126910182Y-108102400D01*
X126910182Y-108102400D01*
G37*
G36*
X129410182Y-108102400D02*
G01*
X129537573Y-108155167D01*
X129537574Y-108155168D01*
X129652224Y-108231774D01*
X129749726Y-108329276D01*
X129749727Y-108329278D01*
X129826333Y-108443927D01*
X129879100Y-108571318D01*
X129906000Y-108706555D01*
X129906000Y-108844445D01*
X129879100Y-108979682D01*
X129826333Y-109107073D01*
X129826332Y-109107074D01*
X129749726Y-109221724D01*
X129652224Y-109319226D01*
X129594510Y-109357789D01*
X129537573Y-109395833D01*
X129410182Y-109448600D01*
X129274945Y-109475500D01*
X129137055Y-109475500D01*
X129001818Y-109448600D01*
X128874427Y-109395833D01*
X128817490Y-109357789D01*
X128759776Y-109319226D01*
X128662274Y-109221724D01*
X128585668Y-109107074D01*
X128585667Y-109107073D01*
X128532900Y-108979682D01*
X128506000Y-108844445D01*
X128506000Y-108706555D01*
X128532900Y-108571318D01*
X128585667Y-108443927D01*
X128662273Y-108329278D01*
X128662274Y-108329276D01*
X128759776Y-108231774D01*
X128874426Y-108155168D01*
X128874427Y-108155167D01*
X129001818Y-108102400D01*
X129137055Y-108075500D01*
X129274945Y-108075500D01*
X129410182Y-108102400D01*
X129410182Y-108102400D01*
G37*
G36*
X163406000Y-108034000D02*
G01*
X161206000Y-108034000D01*
X161206000Y-105834000D01*
X163406000Y-105834000D01*
X163406000Y-108034000D01*
X163406000Y-108034000D01*
G37*
G36*
X170060837Y-105841958D02*
G01*
X170141638Y-105849916D01*
X170295034Y-105896449D01*
X170348992Y-105912817D01*
X170540084Y-106014957D01*
X170707581Y-106152419D01*
X170845043Y-106319916D01*
X170947183Y-106511008D01*
X170947184Y-106511012D01*
X171010084Y-106718362D01*
X171031322Y-106934000D01*
X171010084Y-107149638D01*
X170986395Y-107227728D01*
X170947183Y-107356992D01*
X170845043Y-107548084D01*
X170707581Y-107715581D01*
X170540084Y-107853043D01*
X170348992Y-107955183D01*
X170295034Y-107971551D01*
X170141638Y-108018084D01*
X170060837Y-108026042D01*
X169980038Y-108034000D01*
X169871962Y-108034000D01*
X169791163Y-108026042D01*
X169710362Y-108018084D01*
X169556966Y-107971551D01*
X169503008Y-107955183D01*
X169311916Y-107853043D01*
X169144419Y-107715581D01*
X169006957Y-107548084D01*
X168904817Y-107356992D01*
X168865605Y-107227728D01*
X168841916Y-107149638D01*
X168820678Y-106934000D01*
X168841916Y-106718362D01*
X168904816Y-106511012D01*
X168904817Y-106511008D01*
X169006957Y-106319916D01*
X169144419Y-106152419D01*
X169311916Y-106014957D01*
X169503008Y-105912817D01*
X169556966Y-105896449D01*
X169710362Y-105849916D01*
X169791163Y-105841958D01*
X169871962Y-105834000D01*
X169980038Y-105834000D01*
X170060837Y-105841958D01*
X170060837Y-105841958D01*
G37*
G36*
X148280857Y-105112272D02*
G01*
X148481043Y-105195192D01*
X148481045Y-105195193D01*
X148571738Y-105255792D01*
X148661208Y-105315574D01*
X148814426Y-105468792D01*
X148874208Y-105558262D01*
X148923479Y-105632001D01*
X148934808Y-105648957D01*
X149017728Y-105849143D01*
X149060000Y-106061658D01*
X149060000Y-106278342D01*
X149017728Y-106490857D01*
X149000651Y-106532084D01*
X148934807Y-106691045D01*
X148814425Y-106871209D01*
X148661209Y-107024425D01*
X148481045Y-107144807D01*
X148481044Y-107144808D01*
X148481043Y-107144808D01*
X148280857Y-107227728D01*
X148068342Y-107270000D01*
X147851658Y-107270000D01*
X147639143Y-107227728D01*
X147438957Y-107144808D01*
X147438956Y-107144808D01*
X147438955Y-107144807D01*
X147258791Y-107024425D01*
X147105575Y-106871209D01*
X146985193Y-106691045D01*
X146919349Y-106532084D01*
X146902272Y-106490857D01*
X146860000Y-106278342D01*
X146860000Y-106061658D01*
X146902272Y-105849143D01*
X146985192Y-105648957D01*
X146996522Y-105632001D01*
X147045792Y-105558262D01*
X147105574Y-105468792D01*
X147258792Y-105315574D01*
X147348262Y-105255792D01*
X147438955Y-105195193D01*
X147438957Y-105195192D01*
X147639143Y-105112272D01*
X147851658Y-105070000D01*
X148068342Y-105070000D01*
X148280857Y-105112272D01*
X148280857Y-105112272D01*
G37*
G36*
X175090000Y-107018000D02*
G01*
X172890000Y-107018000D01*
X172890000Y-104818000D01*
X175090000Y-104818000D01*
X175090000Y-107018000D01*
X175090000Y-107018000D01*
G37*
G36*
X181744837Y-104825958D02*
G01*
X181825638Y-104833916D01*
X181979034Y-104880449D01*
X182032992Y-104896817D01*
X182224084Y-104998957D01*
X182391581Y-105136419D01*
X182529043Y-105303916D01*
X182631183Y-105495008D01*
X182631184Y-105495012D01*
X182694084Y-105702362D01*
X182715322Y-105918000D01*
X182694084Y-106133638D01*
X182650188Y-106278341D01*
X182631183Y-106340992D01*
X182529043Y-106532084D01*
X182391581Y-106699581D01*
X182224084Y-106837043D01*
X182032992Y-106939183D01*
X181979034Y-106955551D01*
X181825638Y-107002084D01*
X181744837Y-107010042D01*
X181664038Y-107018000D01*
X181555962Y-107018000D01*
X181475163Y-107010042D01*
X181394362Y-107002084D01*
X181240966Y-106955551D01*
X181187008Y-106939183D01*
X180995916Y-106837043D01*
X180828419Y-106699581D01*
X180690957Y-106532084D01*
X180588817Y-106340992D01*
X180569812Y-106278341D01*
X180525916Y-106133638D01*
X180504678Y-105918000D01*
X180525916Y-105702362D01*
X180588816Y-105495012D01*
X180588817Y-105495008D01*
X180690957Y-105303916D01*
X180828419Y-105136419D01*
X180995916Y-104998957D01*
X181187008Y-104896817D01*
X181240966Y-104880449D01*
X181394362Y-104833916D01*
X181475163Y-104825958D01*
X181555962Y-104818000D01*
X181664038Y-104818000D01*
X181744837Y-104825958D01*
X181744837Y-104825958D01*
G37*
G36*
X121492830Y-102874273D02*
G01*
X121627293Y-102901019D01*
X121639099Y-102904600D01*
X121765765Y-102957068D01*
X121776646Y-102962884D01*
X121890632Y-103039047D01*
X121895404Y-103042963D01*
X121895408Y-103042966D01*
X121895411Y-103042969D01*
X121900174Y-103046878D01*
X121997122Y-103143826D01*
X122001031Y-103148589D01*
X122001034Y-103148592D01*
X122001037Y-103148596D01*
X122004953Y-103153368D01*
X122081116Y-103267354D01*
X122086932Y-103278235D01*
X122139400Y-103404901D01*
X122142981Y-103416707D01*
X122169727Y-103551170D01*
X122170936Y-103563448D01*
X122170936Y-103700552D01*
X122169727Y-103712830D01*
X122165007Y-103736559D01*
X122162605Y-103760945D01*
X122162605Y-105625863D01*
X122162001Y-105631999D01*
X122161999Y-105632001D01*
X122155863Y-105632605D01*
X120668137Y-105632605D01*
X120662001Y-105632001D01*
X120661999Y-105631999D01*
X120661395Y-105625863D01*
X120661395Y-103760945D01*
X120658993Y-103736559D01*
X120654273Y-103712830D01*
X120653064Y-103700552D01*
X120653064Y-103563448D01*
X120654273Y-103551170D01*
X120681019Y-103416707D01*
X120684600Y-103404901D01*
X120737068Y-103278235D01*
X120742884Y-103267354D01*
X120819047Y-103153368D01*
X120822963Y-103148596D01*
X120822966Y-103148592D01*
X120822969Y-103148589D01*
X120826878Y-103143826D01*
X120923826Y-103046878D01*
X120928589Y-103042969D01*
X120928592Y-103042966D01*
X120928596Y-103042963D01*
X120933368Y-103039047D01*
X121047354Y-102962884D01*
X121058235Y-102957068D01*
X121184901Y-102904600D01*
X121196707Y-102901019D01*
X121331170Y-102874273D01*
X121343448Y-102873064D01*
X121480552Y-102873064D01*
X121492830Y-102874273D01*
X121492830Y-102874273D01*
G37*
G36*
X129112830Y-102874273D02*
G01*
X129247293Y-102901019D01*
X129259099Y-102904600D01*
X129385765Y-102957068D01*
X129396646Y-102962884D01*
X129510632Y-103039047D01*
X129515404Y-103042963D01*
X129515408Y-103042966D01*
X129515411Y-103042969D01*
X129520174Y-103046878D01*
X129617122Y-103143826D01*
X129621031Y-103148589D01*
X129621034Y-103148592D01*
X129621037Y-103148596D01*
X129624953Y-103153368D01*
X129701116Y-103267354D01*
X129706932Y-103278235D01*
X129759400Y-103404901D01*
X129762981Y-103416707D01*
X129789727Y-103551170D01*
X129790936Y-103563448D01*
X129790936Y-103700552D01*
X129789727Y-103712830D01*
X129785007Y-103736559D01*
X129782605Y-103760945D01*
X129782605Y-105625863D01*
X129782001Y-105631999D01*
X129781999Y-105632001D01*
X129775863Y-105632605D01*
X128288137Y-105632605D01*
X128282001Y-105632001D01*
X128281999Y-105631999D01*
X128281395Y-105625863D01*
X128281395Y-103760945D01*
X128278993Y-103736559D01*
X128274273Y-103712830D01*
X128273064Y-103700552D01*
X128273064Y-103563448D01*
X128274273Y-103551170D01*
X128301019Y-103416707D01*
X128304600Y-103404901D01*
X128357068Y-103278235D01*
X128362884Y-103267354D01*
X128439047Y-103153368D01*
X128442963Y-103148596D01*
X128442966Y-103148592D01*
X128442969Y-103148589D01*
X128446878Y-103143826D01*
X128543826Y-103046878D01*
X128548589Y-103042969D01*
X128548592Y-103042966D01*
X128548596Y-103042963D01*
X128553368Y-103039047D01*
X128667354Y-102962884D01*
X128678235Y-102957068D01*
X128804901Y-102904600D01*
X128816707Y-102901019D01*
X128951170Y-102874273D01*
X128963448Y-102873064D01*
X129100552Y-102873064D01*
X129112830Y-102874273D01*
X129112830Y-102874273D01*
G37*
G36*
X131652830Y-102874273D02*
G01*
X131787293Y-102901019D01*
X131799099Y-102904600D01*
X131925765Y-102957068D01*
X131936646Y-102962884D01*
X132050632Y-103039047D01*
X132055404Y-103042963D01*
X132055408Y-103042966D01*
X132055411Y-103042969D01*
X132060174Y-103046878D01*
X132157122Y-103143826D01*
X132161031Y-103148589D01*
X132161034Y-103148592D01*
X132161037Y-103148596D01*
X132164953Y-103153368D01*
X132241116Y-103267354D01*
X132246932Y-103278235D01*
X132299400Y-103404901D01*
X132302981Y-103416707D01*
X132329727Y-103551170D01*
X132330936Y-103563448D01*
X132330936Y-103700552D01*
X132329727Y-103712830D01*
X132325007Y-103736559D01*
X132322605Y-103760945D01*
X132322605Y-105625863D01*
X132322001Y-105631999D01*
X132321999Y-105632001D01*
X132315863Y-105632605D01*
X130828137Y-105632605D01*
X130822001Y-105632001D01*
X130821999Y-105631999D01*
X130821395Y-105625863D01*
X130821395Y-103760945D01*
X130818993Y-103736559D01*
X130814273Y-103712830D01*
X130813064Y-103700552D01*
X130813064Y-103563448D01*
X130814273Y-103551170D01*
X130841019Y-103416707D01*
X130844600Y-103404901D01*
X130897068Y-103278235D01*
X130902884Y-103267354D01*
X130979047Y-103153368D01*
X130982963Y-103148596D01*
X130982966Y-103148592D01*
X130982969Y-103148589D01*
X130986878Y-103143826D01*
X131083826Y-103046878D01*
X131088589Y-103042969D01*
X131088592Y-103042966D01*
X131088596Y-103042963D01*
X131093368Y-103039047D01*
X131207354Y-102962884D01*
X131218235Y-102957068D01*
X131344901Y-102904600D01*
X131356707Y-102901019D01*
X131491170Y-102874273D01*
X131503448Y-102873064D01*
X131640552Y-102873064D01*
X131652830Y-102874273D01*
X131652830Y-102874273D01*
G37*
G36*
X148280857Y-101552272D02*
G01*
X148481043Y-101635192D01*
X148481045Y-101635193D01*
X148661209Y-101755575D01*
X148814425Y-101908791D01*
X148931101Y-102083408D01*
X148934808Y-102088957D01*
X149017728Y-102289143D01*
X149060000Y-102501658D01*
X149060000Y-102718342D01*
X149017728Y-102930857D01*
X148969670Y-103046878D01*
X148934807Y-103131045D01*
X148814425Y-103311209D01*
X148661209Y-103464425D01*
X148481045Y-103584807D01*
X148481044Y-103584808D01*
X148481043Y-103584808D01*
X148280857Y-103667728D01*
X148068342Y-103710000D01*
X147851658Y-103710000D01*
X147639143Y-103667728D01*
X147438957Y-103584808D01*
X147438956Y-103584808D01*
X147438955Y-103584807D01*
X147258791Y-103464425D01*
X147105575Y-103311209D01*
X146985193Y-103131045D01*
X146950330Y-103046878D01*
X146902272Y-102930857D01*
X146860000Y-102718342D01*
X146860000Y-102501658D01*
X146902272Y-102289143D01*
X146985192Y-102088957D01*
X146988900Y-102083408D01*
X147105575Y-101908791D01*
X147258791Y-101755575D01*
X147438955Y-101635193D01*
X147438957Y-101635192D01*
X147639143Y-101552272D01*
X147851658Y-101510000D01*
X148068342Y-101510000D01*
X148280857Y-101552272D01*
X148280857Y-101552272D01*
G37*
G36*
X162384471Y-102073859D02*
G01*
X162462827Y-102081576D01*
X162613628Y-102127321D01*
X162613630Y-102127322D01*
X162752605Y-102201606D01*
X162874422Y-102301578D01*
X162974394Y-102423395D01*
X163016227Y-102501659D01*
X163048679Y-102562372D01*
X163094424Y-102713173D01*
X163109870Y-102870000D01*
X163094424Y-103026827D01*
X163057487Y-103148592D01*
X163048678Y-103177630D01*
X162974394Y-103316605D01*
X162874422Y-103438422D01*
X162752605Y-103538394D01*
X162613630Y-103612678D01*
X162613628Y-103612679D01*
X162462827Y-103658424D01*
X162384471Y-103666141D01*
X162345294Y-103670000D01*
X162266706Y-103670000D01*
X162227529Y-103666141D01*
X162149173Y-103658424D01*
X161998372Y-103612679D01*
X161998370Y-103612678D01*
X161859395Y-103538394D01*
X161737578Y-103438422D01*
X161637606Y-103316605D01*
X161563322Y-103177630D01*
X161554513Y-103148592D01*
X161517576Y-103026827D01*
X161502130Y-102870000D01*
X161517576Y-102713173D01*
X161563321Y-102562372D01*
X161595773Y-102501659D01*
X161637606Y-102423395D01*
X161737578Y-102301578D01*
X161859395Y-102201606D01*
X161998370Y-102127322D01*
X161998372Y-102127321D01*
X162149173Y-102081576D01*
X162227529Y-102073859D01*
X162266706Y-102070000D01*
X162345294Y-102070000D01*
X162384471Y-102073859D01*
X162384471Y-102073859D01*
G37*
G36*
X173560471Y-102073859D02*
G01*
X173638827Y-102081576D01*
X173789628Y-102127321D01*
X173789630Y-102127322D01*
X173928605Y-102201606D01*
X174050422Y-102301578D01*
X174150394Y-102423395D01*
X174192227Y-102501659D01*
X174224679Y-102562372D01*
X174270424Y-102713173D01*
X174285870Y-102870000D01*
X174270424Y-103026827D01*
X174233487Y-103148592D01*
X174224678Y-103177630D01*
X174150394Y-103316605D01*
X174050422Y-103438422D01*
X173928605Y-103538394D01*
X173789630Y-103612678D01*
X173789628Y-103612679D01*
X173638827Y-103658424D01*
X173560471Y-103666141D01*
X173521294Y-103670000D01*
X173442706Y-103670000D01*
X173403529Y-103666141D01*
X173325173Y-103658424D01*
X173174372Y-103612679D01*
X173174370Y-103612678D01*
X173035395Y-103538394D01*
X172913578Y-103438422D01*
X172813606Y-103316605D01*
X172739322Y-103177630D01*
X172730513Y-103148592D01*
X172693576Y-103026827D01*
X172678130Y-102870000D01*
X172693576Y-102713173D01*
X172739321Y-102562372D01*
X172771773Y-102501659D01*
X172813606Y-102423395D01*
X172913578Y-102301578D01*
X173035395Y-102201606D01*
X173174370Y-102127322D01*
X173174372Y-102127321D01*
X173325173Y-102081576D01*
X173403529Y-102073859D01*
X173442706Y-102070000D01*
X173521294Y-102070000D01*
X173560471Y-102073859D01*
X173560471Y-102073859D01*
G37*
G36*
X170726000Y-103670000D02*
G01*
X169126000Y-103670000D01*
X169126000Y-102070000D01*
X170726000Y-102070000D01*
X170726000Y-103670000D01*
X170726000Y-103670000D01*
G37*
G36*
X158195830Y-100842273D02*
G01*
X158219559Y-100846993D01*
X158243945Y-100849395D01*
X160108863Y-100849395D01*
X160114999Y-100849999D01*
X160115001Y-100850001D01*
X160115605Y-100856137D01*
X160115605Y-102343863D01*
X160115001Y-102349999D01*
X160114999Y-102350001D01*
X160108863Y-102350605D01*
X158243945Y-102350605D01*
X158219559Y-102353007D01*
X158195830Y-102357727D01*
X158183552Y-102358936D01*
X158046448Y-102358936D01*
X158034170Y-102357727D01*
X157899707Y-102330981D01*
X157887901Y-102327400D01*
X157761235Y-102274932D01*
X157750354Y-102269116D01*
X157636368Y-102192953D01*
X157631596Y-102189037D01*
X157631592Y-102189034D01*
X157631589Y-102189031D01*
X157626826Y-102185122D01*
X157529878Y-102088174D01*
X157525969Y-102083411D01*
X157525966Y-102083408D01*
X157525963Y-102083404D01*
X157522047Y-102078632D01*
X157445884Y-101964646D01*
X157440068Y-101953765D01*
X157387600Y-101827099D01*
X157384019Y-101815293D01*
X157357273Y-101680830D01*
X157356064Y-101668552D01*
X157356064Y-101531448D01*
X157357273Y-101519170D01*
X157384019Y-101384707D01*
X157387600Y-101372901D01*
X157440068Y-101246235D01*
X157445884Y-101235354D01*
X157522047Y-101121368D01*
X157525963Y-101116596D01*
X157525966Y-101116592D01*
X157525969Y-101116589D01*
X157529878Y-101111826D01*
X157626826Y-101014878D01*
X157631589Y-101010969D01*
X157631592Y-101010966D01*
X157631596Y-101010963D01*
X157636368Y-101007047D01*
X157750354Y-100930884D01*
X157761235Y-100925068D01*
X157887901Y-100872600D01*
X157899707Y-100869019D01*
X158034170Y-100842273D01*
X158046448Y-100841064D01*
X158183552Y-100841064D01*
X158195830Y-100842273D01*
X158195830Y-100842273D01*
G37*
G36*
X137875830Y-100842273D02*
G01*
X138010293Y-100869019D01*
X138022099Y-100872600D01*
X138148765Y-100925068D01*
X138159646Y-100930884D01*
X138273632Y-101007047D01*
X138278404Y-101010963D01*
X138278408Y-101010966D01*
X138278411Y-101010969D01*
X138283174Y-101014878D01*
X138380122Y-101111826D01*
X138384031Y-101116589D01*
X138384034Y-101116592D01*
X138384037Y-101116596D01*
X138387953Y-101121368D01*
X138464116Y-101235354D01*
X138469932Y-101246235D01*
X138522400Y-101372901D01*
X138525981Y-101384707D01*
X138552727Y-101519170D01*
X138553936Y-101531448D01*
X138553936Y-101668552D01*
X138552727Y-101680830D01*
X138525981Y-101815293D01*
X138522400Y-101827099D01*
X138469932Y-101953765D01*
X138464116Y-101964646D01*
X138387953Y-102078632D01*
X138384037Y-102083404D01*
X138384034Y-102083408D01*
X138384031Y-102083411D01*
X138380122Y-102088174D01*
X138283174Y-102185122D01*
X138278411Y-102189031D01*
X138278408Y-102189034D01*
X138278404Y-102189037D01*
X138273632Y-102192953D01*
X138159646Y-102269116D01*
X138148765Y-102274932D01*
X138022099Y-102327400D01*
X138010293Y-102330981D01*
X137875830Y-102357727D01*
X137863552Y-102358936D01*
X137726448Y-102358936D01*
X137714170Y-102357727D01*
X137690441Y-102353007D01*
X137666055Y-102350605D01*
X135801137Y-102350605D01*
X135795001Y-102350001D01*
X135794999Y-102349999D01*
X135794395Y-102343863D01*
X135794395Y-100856137D01*
X135794999Y-100850001D01*
X135795001Y-100849999D01*
X135801137Y-100849395D01*
X137666055Y-100849395D01*
X137690441Y-100846993D01*
X137714170Y-100842273D01*
X137726448Y-100841064D01*
X137863552Y-100841064D01*
X137875830Y-100842273D01*
X137875830Y-100842273D01*
G37*
G36*
X170004471Y-99533859D02*
G01*
X170082827Y-99541576D01*
X170233628Y-99587321D01*
X170233630Y-99587322D01*
X170372605Y-99661606D01*
X170477001Y-99747281D01*
X170494422Y-99761578D01*
X170594393Y-99883394D01*
X170668679Y-100022372D01*
X170714424Y-100173173D01*
X170729870Y-100330000D01*
X170714424Y-100486827D01*
X170668679Y-100637628D01*
X170668678Y-100637630D01*
X170594394Y-100776605D01*
X170494422Y-100898422D01*
X170372605Y-100998394D01*
X170233630Y-101072678D01*
X170233628Y-101072679D01*
X170082827Y-101118424D01*
X170004471Y-101126141D01*
X169965294Y-101130000D01*
X169886706Y-101130000D01*
X169847529Y-101126141D01*
X169769173Y-101118424D01*
X169618372Y-101072679D01*
X169618370Y-101072678D01*
X169479395Y-100998394D01*
X169357578Y-100898422D01*
X169257606Y-100776605D01*
X169183322Y-100637630D01*
X169183321Y-100637628D01*
X169137576Y-100486827D01*
X169122130Y-100330000D01*
X169137576Y-100173173D01*
X169183321Y-100022372D01*
X169257607Y-99883394D01*
X169357578Y-99761578D01*
X169374999Y-99747281D01*
X169479395Y-99661606D01*
X169618370Y-99587322D01*
X169618372Y-99587321D01*
X169769173Y-99541576D01*
X169847529Y-99533859D01*
X169886706Y-99530000D01*
X169965294Y-99530000D01*
X170004471Y-99533859D01*
X170004471Y-99533859D01*
G37*
G36*
X162384471Y-99533859D02*
G01*
X162462827Y-99541576D01*
X162613628Y-99587321D01*
X162613630Y-99587322D01*
X162752605Y-99661606D01*
X162857001Y-99747281D01*
X162874422Y-99761578D01*
X162974393Y-99883394D01*
X163048679Y-100022372D01*
X163094424Y-100173173D01*
X163109870Y-100330000D01*
X163094424Y-100486827D01*
X163048679Y-100637628D01*
X163048678Y-100637630D01*
X162974394Y-100776605D01*
X162874422Y-100898422D01*
X162752605Y-100998394D01*
X162613630Y-101072678D01*
X162613628Y-101072679D01*
X162462827Y-101118424D01*
X162384471Y-101126141D01*
X162345294Y-101130000D01*
X162266706Y-101130000D01*
X162227529Y-101126141D01*
X162149173Y-101118424D01*
X161998372Y-101072679D01*
X161998370Y-101072678D01*
X161859395Y-100998394D01*
X161737578Y-100898422D01*
X161637606Y-100776605D01*
X161563322Y-100637630D01*
X161563321Y-100637628D01*
X161517576Y-100486827D01*
X161502130Y-100330000D01*
X161517576Y-100173173D01*
X161563321Y-100022372D01*
X161637607Y-99883394D01*
X161737578Y-99761578D01*
X161754999Y-99747281D01*
X161859395Y-99661606D01*
X161998370Y-99587322D01*
X161998372Y-99587321D01*
X162149173Y-99541576D01*
X162227529Y-99533859D01*
X162266706Y-99530000D01*
X162345294Y-99530000D01*
X162384471Y-99533859D01*
X162384471Y-99533859D01*
G37*
G36*
X176643452Y-97242653D02*
G01*
X176697319Y-97247958D01*
X176769984Y-97270001D01*
X176800998Y-97279409D01*
X176896538Y-97330476D01*
X176980290Y-97399210D01*
X177049024Y-97482962D01*
X177100091Y-97578502D01*
X177100092Y-97578506D01*
X177131542Y-97682181D01*
X177142161Y-97790000D01*
X177131542Y-97897819D01*
X177116676Y-97946825D01*
X177100091Y-98001498D01*
X177049024Y-98097038D01*
X176980290Y-98180790D01*
X176896538Y-98249524D01*
X176800998Y-98300591D01*
X176785200Y-98305383D01*
X176762561Y-98314761D01*
X176742187Y-98328374D01*
X176724860Y-98345701D01*
X176711246Y-98366076D01*
X176701869Y-98388714D01*
X176697088Y-98412748D01*
X176697088Y-98437252D01*
X176701868Y-98461285D01*
X176711246Y-98483924D01*
X176724859Y-98504298D01*
X176742186Y-98521625D01*
X176762561Y-98535239D01*
X176785200Y-98544617D01*
X176800998Y-98549409D01*
X176896538Y-98600476D01*
X176980290Y-98669210D01*
X177049024Y-98752962D01*
X177100091Y-98848502D01*
X177100092Y-98848506D01*
X177131542Y-98952181D01*
X177142161Y-99060000D01*
X177131542Y-99167819D01*
X177131383Y-99168342D01*
X177100091Y-99271498D01*
X177049024Y-99367038D01*
X177049022Y-99367041D01*
X177049021Y-99367042D01*
X176980290Y-99450790D01*
X176896542Y-99519521D01*
X176849317Y-99544763D01*
X176828946Y-99558375D01*
X176811619Y-99575702D01*
X176798005Y-99596076D01*
X176788628Y-99618715D01*
X176783847Y-99642748D01*
X176783847Y-99667252D01*
X176788627Y-99691286D01*
X176798004Y-99713925D01*
X176811618Y-99734299D01*
X176828945Y-99751626D01*
X176849319Y-99765240D01*
X176871958Y-99774617D01*
X176895991Y-99779398D01*
X176908244Y-99780000D01*
X177139500Y-99780000D01*
X177139500Y-100880000D01*
X175539500Y-100880000D01*
X175539500Y-99780000D01*
X175770756Y-99780000D01*
X175795142Y-99777598D01*
X175818591Y-99770485D01*
X175840202Y-99758934D01*
X175859144Y-99743389D01*
X175874689Y-99724447D01*
X175886240Y-99702836D01*
X175893353Y-99679387D01*
X175895755Y-99655001D01*
X175893353Y-99630615D01*
X175886240Y-99607166D01*
X175874689Y-99585555D01*
X175859144Y-99566613D01*
X175840202Y-99551068D01*
X175829687Y-99544765D01*
X175782458Y-99519521D01*
X175698710Y-99450790D01*
X175629979Y-99367042D01*
X175629978Y-99367041D01*
X175629976Y-99367038D01*
X175578909Y-99271498D01*
X175547617Y-99168342D01*
X175547458Y-99167819D01*
X175536839Y-99060000D01*
X175547458Y-98952181D01*
X175578908Y-98848506D01*
X175578909Y-98848502D01*
X175629976Y-98752962D01*
X175698710Y-98669210D01*
X175782462Y-98600476D01*
X175878002Y-98549409D01*
X175893800Y-98544617D01*
X175916439Y-98535239D01*
X175936813Y-98521626D01*
X175954140Y-98504299D01*
X175967754Y-98483924D01*
X175977131Y-98461286D01*
X175981912Y-98437252D01*
X175981912Y-98412748D01*
X175977132Y-98388715D01*
X175967754Y-98366076D01*
X175954141Y-98345702D01*
X175936814Y-98328375D01*
X175916439Y-98314761D01*
X175893800Y-98305383D01*
X175878002Y-98300591D01*
X175782462Y-98249524D01*
X175698710Y-98180790D01*
X175629976Y-98097038D01*
X175578909Y-98001498D01*
X175562324Y-97946825D01*
X175547458Y-97897819D01*
X175536839Y-97790000D01*
X175547458Y-97682181D01*
X175578908Y-97578506D01*
X175578909Y-97578502D01*
X175629976Y-97482962D01*
X175698710Y-97399210D01*
X175782462Y-97330476D01*
X175878002Y-97279409D01*
X175909016Y-97270001D01*
X175981681Y-97247958D01*
X176035548Y-97242653D01*
X176062481Y-97240000D01*
X176616519Y-97240000D01*
X176643452Y-97242653D01*
X176643452Y-97242653D01*
G37*
G36*
X115111196Y-97881458D02*
G01*
X115347781Y-97979455D01*
X115560702Y-98121724D01*
X115741776Y-98302798D01*
X115884045Y-98515719D01*
X115884046Y-98515721D01*
X115910018Y-98578424D01*
X115976591Y-98739143D01*
X115982042Y-98752305D01*
X116032000Y-99003460D01*
X116032000Y-99259540D01*
X116027692Y-99281197D01*
X115982042Y-99510696D01*
X115884045Y-99747281D01*
X115741776Y-99960202D01*
X115560702Y-100141276D01*
X115347781Y-100283545D01*
X115111196Y-100381542D01*
X114985617Y-100406521D01*
X114860040Y-100431500D01*
X114603960Y-100431500D01*
X114352804Y-100381542D01*
X114116219Y-100283545D01*
X113903298Y-100141276D01*
X113722224Y-99960202D01*
X113579955Y-99747281D01*
X113481958Y-99510696D01*
X113436308Y-99281197D01*
X113432000Y-99259540D01*
X113432000Y-99003460D01*
X113481958Y-98752305D01*
X113487410Y-98739143D01*
X113553982Y-98578424D01*
X113579954Y-98515721D01*
X113579955Y-98515719D01*
X113722224Y-98302798D01*
X113903298Y-98121724D01*
X114116219Y-97979455D01*
X114352804Y-97881458D01*
X114603960Y-97831500D01*
X114860040Y-97831500D01*
X115111196Y-97881458D01*
X115111196Y-97881458D01*
G37*
G36*
X148280857Y-98002272D02*
G01*
X148481043Y-98085192D01*
X148481045Y-98085193D01*
X148661209Y-98205575D01*
X148814425Y-98358791D01*
X148930614Y-98532679D01*
X148934808Y-98538957D01*
X149017728Y-98739143D01*
X149060000Y-98951658D01*
X149060000Y-99168342D01*
X149017728Y-99380857D01*
X148948423Y-99548174D01*
X148934807Y-99581045D01*
X148885391Y-99655001D01*
X148823732Y-99747281D01*
X148814425Y-99761209D01*
X148661209Y-99914425D01*
X148481045Y-100034807D01*
X148481044Y-100034808D01*
X148481043Y-100034808D01*
X148280857Y-100117728D01*
X148068342Y-100160000D01*
X147851658Y-100160000D01*
X147639143Y-100117728D01*
X147438957Y-100034808D01*
X147438956Y-100034808D01*
X147438955Y-100034807D01*
X147258791Y-99914425D01*
X147105575Y-99761209D01*
X147096269Y-99747281D01*
X147034609Y-99655001D01*
X146985193Y-99581045D01*
X146971577Y-99548174D01*
X146902272Y-99380857D01*
X146860000Y-99168342D01*
X146860000Y-98951658D01*
X146902272Y-98739143D01*
X146985192Y-98538957D01*
X146989387Y-98532679D01*
X147105575Y-98358791D01*
X147258791Y-98205575D01*
X147438955Y-98085193D01*
X147438957Y-98085192D01*
X147639143Y-98002272D01*
X147851658Y-97960000D01*
X148068342Y-97960000D01*
X148280857Y-98002272D01*
X148280857Y-98002272D01*
G37*
G36*
X158195830Y-98302273D02*
G01*
X158219559Y-98306993D01*
X158243945Y-98309395D01*
X160108863Y-98309395D01*
X160114999Y-98309999D01*
X160115001Y-98310001D01*
X160115605Y-98316137D01*
X160115605Y-99803863D01*
X160115001Y-99809999D01*
X160114999Y-99810001D01*
X160108863Y-99810605D01*
X158243945Y-99810605D01*
X158219559Y-99813007D01*
X158195830Y-99817727D01*
X158183552Y-99818936D01*
X158046448Y-99818936D01*
X158034170Y-99817727D01*
X157899707Y-99790981D01*
X157887901Y-99787400D01*
X157761235Y-99734932D01*
X157750354Y-99729116D01*
X157636368Y-99652953D01*
X157631596Y-99649037D01*
X157631592Y-99649034D01*
X157631589Y-99649031D01*
X157626826Y-99645122D01*
X157529878Y-99548174D01*
X157525969Y-99543411D01*
X157525966Y-99543408D01*
X157525963Y-99543404D01*
X157522047Y-99538632D01*
X157445884Y-99424646D01*
X157440068Y-99413765D01*
X157387600Y-99287099D01*
X157384019Y-99275293D01*
X157357273Y-99140830D01*
X157356064Y-99128552D01*
X157356064Y-98991448D01*
X157357273Y-98979170D01*
X157384019Y-98844707D01*
X157387600Y-98832901D01*
X157440068Y-98706235D01*
X157445884Y-98695354D01*
X157522047Y-98581368D01*
X157525963Y-98576596D01*
X157525966Y-98576592D01*
X157525969Y-98576589D01*
X157529878Y-98571826D01*
X157626826Y-98474878D01*
X157631589Y-98470969D01*
X157631592Y-98470966D01*
X157631596Y-98470963D01*
X157636368Y-98467047D01*
X157750354Y-98390884D01*
X157761235Y-98385068D01*
X157887901Y-98332600D01*
X157899707Y-98329019D01*
X158034170Y-98302273D01*
X158046448Y-98301064D01*
X158183552Y-98301064D01*
X158195830Y-98302273D01*
X158195830Y-98302273D01*
G37*
G36*
X137875830Y-98302273D02*
G01*
X138010293Y-98329019D01*
X138022099Y-98332600D01*
X138148765Y-98385068D01*
X138159646Y-98390884D01*
X138273632Y-98467047D01*
X138278404Y-98470963D01*
X138278408Y-98470966D01*
X138278411Y-98470969D01*
X138283174Y-98474878D01*
X138380122Y-98571826D01*
X138384031Y-98576589D01*
X138384034Y-98576592D01*
X138384037Y-98576596D01*
X138387953Y-98581368D01*
X138464116Y-98695354D01*
X138469932Y-98706235D01*
X138522400Y-98832901D01*
X138525981Y-98844707D01*
X138552727Y-98979170D01*
X138553936Y-98991448D01*
X138553936Y-99128552D01*
X138552727Y-99140830D01*
X138525981Y-99275293D01*
X138522400Y-99287099D01*
X138469932Y-99413765D01*
X138464116Y-99424646D01*
X138387953Y-99538632D01*
X138384037Y-99543404D01*
X138384034Y-99543408D01*
X138384031Y-99543411D01*
X138380122Y-99548174D01*
X138283174Y-99645122D01*
X138278411Y-99649031D01*
X138278408Y-99649034D01*
X138278404Y-99649037D01*
X138273632Y-99652953D01*
X138159646Y-99729116D01*
X138148765Y-99734932D01*
X138022099Y-99787400D01*
X138010293Y-99790981D01*
X137875830Y-99817727D01*
X137863552Y-99818936D01*
X137726448Y-99818936D01*
X137714170Y-99817727D01*
X137690441Y-99813007D01*
X137666055Y-99810605D01*
X135801137Y-99810605D01*
X135795001Y-99810001D01*
X135794999Y-99809999D01*
X135794395Y-99803863D01*
X135794395Y-98316137D01*
X135794999Y-98310001D01*
X135795001Y-98309999D01*
X135801137Y-98309395D01*
X137666055Y-98309395D01*
X137690441Y-98306993D01*
X137714170Y-98302273D01*
X137726448Y-98301064D01*
X137863552Y-98301064D01*
X137875830Y-98302273D01*
X137875830Y-98302273D01*
G37*
G36*
X170004471Y-96993859D02*
G01*
X170082827Y-97001576D01*
X170233628Y-97047321D01*
X170233630Y-97047322D01*
X170372605Y-97121606D01*
X170494422Y-97221578D01*
X170541882Y-97279408D01*
X170594393Y-97343394D01*
X170668679Y-97482372D01*
X170714424Y-97633173D01*
X170729870Y-97790000D01*
X170714424Y-97946827D01*
X170668679Y-98097628D01*
X170668678Y-98097630D01*
X170594394Y-98236605D01*
X170494422Y-98358422D01*
X170372605Y-98458394D01*
X170254307Y-98521626D01*
X170233628Y-98532679D01*
X170082827Y-98578424D01*
X170004471Y-98586141D01*
X169965294Y-98590000D01*
X169886706Y-98590000D01*
X169847529Y-98586141D01*
X169769173Y-98578424D01*
X169618372Y-98532679D01*
X169597693Y-98521626D01*
X169479395Y-98458394D01*
X169357578Y-98358422D01*
X169257606Y-98236605D01*
X169183322Y-98097630D01*
X169183321Y-98097628D01*
X169137576Y-97946827D01*
X169122130Y-97790000D01*
X169137576Y-97633173D01*
X169183321Y-97482372D01*
X169257607Y-97343394D01*
X169310119Y-97279408D01*
X169357578Y-97221578D01*
X169479395Y-97121606D01*
X169618370Y-97047322D01*
X169618372Y-97047321D01*
X169769173Y-97001576D01*
X169847529Y-96993859D01*
X169886706Y-96990000D01*
X169965294Y-96990000D01*
X170004471Y-96993859D01*
X170004471Y-96993859D01*
G37*
G36*
X162384471Y-96993859D02*
G01*
X162462827Y-97001576D01*
X162613628Y-97047321D01*
X162613630Y-97047322D01*
X162752605Y-97121606D01*
X162874422Y-97221578D01*
X162921882Y-97279408D01*
X162974393Y-97343394D01*
X163048679Y-97482372D01*
X163094424Y-97633173D01*
X163109870Y-97790000D01*
X163094424Y-97946827D01*
X163048679Y-98097628D01*
X163048678Y-98097630D01*
X162974394Y-98236605D01*
X162874422Y-98358422D01*
X162752605Y-98458394D01*
X162634307Y-98521626D01*
X162613628Y-98532679D01*
X162462827Y-98578424D01*
X162384471Y-98586141D01*
X162345294Y-98590000D01*
X162266706Y-98590000D01*
X162227529Y-98586141D01*
X162149173Y-98578424D01*
X161998372Y-98532679D01*
X161977693Y-98521626D01*
X161859395Y-98458394D01*
X161737578Y-98358422D01*
X161637606Y-98236605D01*
X161563322Y-98097630D01*
X161563321Y-98097628D01*
X161517576Y-97946827D01*
X161502130Y-97790000D01*
X161517576Y-97633173D01*
X161563321Y-97482372D01*
X161637607Y-97343394D01*
X161690119Y-97279408D01*
X161737578Y-97221578D01*
X161859395Y-97121606D01*
X161998370Y-97047322D01*
X161998372Y-97047321D01*
X162149173Y-97001576D01*
X162227529Y-96993859D01*
X162266706Y-96990000D01*
X162345294Y-96990000D01*
X162384471Y-96993859D01*
X162384471Y-96993859D01*
G37*
G36*
X158195830Y-95762273D02*
G01*
X158219559Y-95766993D01*
X158243945Y-95769395D01*
X160108863Y-95769395D01*
X160114999Y-95769999D01*
X160115001Y-95770001D01*
X160115605Y-95776137D01*
X160115605Y-97263863D01*
X160115001Y-97269999D01*
X160114999Y-97270001D01*
X160108863Y-97270605D01*
X158243945Y-97270605D01*
X158219559Y-97273007D01*
X158195830Y-97277727D01*
X158183552Y-97278936D01*
X158046448Y-97278936D01*
X158034170Y-97277727D01*
X157899707Y-97250981D01*
X157887901Y-97247400D01*
X157761235Y-97194932D01*
X157750354Y-97189116D01*
X157636368Y-97112953D01*
X157631596Y-97109037D01*
X157631592Y-97109034D01*
X157631589Y-97109031D01*
X157626826Y-97105122D01*
X157529878Y-97008174D01*
X157525969Y-97003411D01*
X157525966Y-97003408D01*
X157525963Y-97003404D01*
X157522047Y-96998632D01*
X157445884Y-96884646D01*
X157440068Y-96873765D01*
X157387600Y-96747099D01*
X157384019Y-96735293D01*
X157357273Y-96600830D01*
X157356064Y-96588552D01*
X157356064Y-96451448D01*
X157357273Y-96439170D01*
X157384019Y-96304707D01*
X157387600Y-96292901D01*
X157440068Y-96166235D01*
X157445884Y-96155354D01*
X157522047Y-96041368D01*
X157525963Y-96036596D01*
X157525966Y-96036592D01*
X157525969Y-96036589D01*
X157529878Y-96031826D01*
X157626826Y-95934878D01*
X157631589Y-95930969D01*
X157631592Y-95930966D01*
X157631596Y-95930963D01*
X157636368Y-95927047D01*
X157750354Y-95850884D01*
X157761235Y-95845068D01*
X157887901Y-95792600D01*
X157899707Y-95789019D01*
X158034170Y-95762273D01*
X158046448Y-95761064D01*
X158183552Y-95761064D01*
X158195830Y-95762273D01*
X158195830Y-95762273D01*
G37*
G36*
X137875830Y-95762273D02*
G01*
X138010293Y-95789019D01*
X138022099Y-95792600D01*
X138148765Y-95845068D01*
X138159646Y-95850884D01*
X138273632Y-95927047D01*
X138278404Y-95930963D01*
X138278408Y-95930966D01*
X138278411Y-95930969D01*
X138283174Y-95934878D01*
X138380122Y-96031826D01*
X138384031Y-96036589D01*
X138384034Y-96036592D01*
X138384037Y-96036596D01*
X138387953Y-96041368D01*
X138464116Y-96155354D01*
X138469932Y-96166235D01*
X138522400Y-96292901D01*
X138525981Y-96304707D01*
X138552727Y-96439170D01*
X138553936Y-96451448D01*
X138553936Y-96588552D01*
X138552727Y-96600830D01*
X138525981Y-96735293D01*
X138522400Y-96747099D01*
X138469932Y-96873765D01*
X138464116Y-96884646D01*
X138387953Y-96998632D01*
X138384037Y-97003404D01*
X138384034Y-97003408D01*
X138384031Y-97003411D01*
X138380122Y-97008174D01*
X138283174Y-97105122D01*
X138278411Y-97109031D01*
X138278408Y-97109034D01*
X138278404Y-97109037D01*
X138273632Y-97112953D01*
X138159646Y-97189116D01*
X138148765Y-97194932D01*
X138022099Y-97247400D01*
X138010293Y-97250981D01*
X137875830Y-97277727D01*
X137863552Y-97278936D01*
X137726448Y-97278936D01*
X137714170Y-97277727D01*
X137690441Y-97273007D01*
X137666055Y-97270605D01*
X135801137Y-97270605D01*
X135795001Y-97270001D01*
X135794999Y-97269999D01*
X135794395Y-97263863D01*
X135794395Y-95776137D01*
X135794999Y-95770001D01*
X135795001Y-95769999D01*
X135801137Y-95769395D01*
X137666055Y-95769395D01*
X137690441Y-95766993D01*
X137714170Y-95762273D01*
X137726448Y-95761064D01*
X137863552Y-95761064D01*
X137875830Y-95762273D01*
X137875830Y-95762273D01*
G37*
G36*
X148280857Y-94452272D02*
G01*
X148481043Y-94535192D01*
X148481045Y-94535193D01*
X148489809Y-94541049D01*
X148661208Y-94655574D01*
X148814426Y-94808792D01*
X148934808Y-94988957D01*
X149017728Y-95189143D01*
X149060000Y-95401658D01*
X149060000Y-95618342D01*
X149017728Y-95830857D01*
X148964669Y-95958952D01*
X148934807Y-96031045D01*
X148814425Y-96211209D01*
X148661209Y-96364425D01*
X148481045Y-96484807D01*
X148481044Y-96484808D01*
X148481043Y-96484808D01*
X148280857Y-96567728D01*
X148068342Y-96610000D01*
X147851658Y-96610000D01*
X147639143Y-96567728D01*
X147438957Y-96484808D01*
X147438956Y-96484808D01*
X147438955Y-96484807D01*
X147258791Y-96364425D01*
X147105575Y-96211209D01*
X146985193Y-96031045D01*
X146955331Y-95958952D01*
X146902272Y-95830857D01*
X146860000Y-95618342D01*
X146860000Y-95401658D01*
X146902272Y-95189143D01*
X146985192Y-94988957D01*
X147105574Y-94808792D01*
X147258792Y-94655574D01*
X147430191Y-94541049D01*
X147438955Y-94535193D01*
X147438957Y-94535192D01*
X147639143Y-94452272D01*
X147851658Y-94410000D01*
X148068342Y-94410000D01*
X148280857Y-94452272D01*
X148280857Y-94452272D01*
G37*
G36*
X170004471Y-94453859D02*
G01*
X170082827Y-94461576D01*
X170233628Y-94507321D01*
X170233630Y-94507322D01*
X170372605Y-94581606D01*
X170494422Y-94681578D01*
X170594394Y-94803395D01*
X170630561Y-94871058D01*
X170668679Y-94942372D01*
X170714424Y-95093173D01*
X170729870Y-95250000D01*
X170714424Y-95406827D01*
X170668679Y-95557628D01*
X170668678Y-95557630D01*
X170594394Y-95696605D01*
X170494422Y-95818422D01*
X170372605Y-95918394D01*
X170233630Y-95992678D01*
X170233628Y-95992679D01*
X170082827Y-96038424D01*
X170004471Y-96046141D01*
X169965294Y-96050000D01*
X169886706Y-96050000D01*
X169847529Y-96046141D01*
X169769173Y-96038424D01*
X169618372Y-95992679D01*
X169618370Y-95992678D01*
X169479395Y-95918394D01*
X169357578Y-95818422D01*
X169257606Y-95696605D01*
X169183322Y-95557630D01*
X169183321Y-95557628D01*
X169137576Y-95406827D01*
X169122130Y-95250000D01*
X169137576Y-95093173D01*
X169183321Y-94942372D01*
X169221439Y-94871058D01*
X169257606Y-94803395D01*
X169357578Y-94681578D01*
X169479395Y-94581606D01*
X169618370Y-94507322D01*
X169618372Y-94507321D01*
X169769173Y-94461576D01*
X169847529Y-94453859D01*
X169886706Y-94450000D01*
X169965294Y-94450000D01*
X170004471Y-94453859D01*
X170004471Y-94453859D01*
G37*
G36*
X173715351Y-94480743D02*
G01*
X173860941Y-94541048D01*
X173991970Y-94628599D01*
X174103401Y-94740030D01*
X174190952Y-94871059D01*
X174251257Y-95016649D01*
X174282000Y-95171206D01*
X174282000Y-95328794D01*
X174251257Y-95483351D01*
X174190952Y-95628941D01*
X174103401Y-95759970D01*
X173991970Y-95871401D01*
X173860941Y-95958952D01*
X173715351Y-96019257D01*
X173560794Y-96050000D01*
X173403206Y-96050000D01*
X173248649Y-96019257D01*
X173103059Y-95958952D01*
X172972030Y-95871401D01*
X172860599Y-95759970D01*
X172773048Y-95628941D01*
X172712743Y-95483351D01*
X172682000Y-95328794D01*
X172682000Y-95171206D01*
X172712743Y-95016649D01*
X172773048Y-94871059D01*
X172860599Y-94740030D01*
X172972030Y-94628599D01*
X173103059Y-94541048D01*
X173248649Y-94480743D01*
X173403206Y-94450000D01*
X173560794Y-94450000D01*
X173715351Y-94480743D01*
X173715351Y-94480743D01*
G37*
G36*
X162384471Y-94453859D02*
G01*
X162462827Y-94461576D01*
X162613628Y-94507321D01*
X162613630Y-94507322D01*
X162752605Y-94581606D01*
X162874422Y-94681578D01*
X162974394Y-94803395D01*
X163010561Y-94871058D01*
X163048679Y-94942372D01*
X163094424Y-95093173D01*
X163109870Y-95250000D01*
X163094424Y-95406827D01*
X163048679Y-95557628D01*
X163048678Y-95557630D01*
X162974394Y-95696605D01*
X162874422Y-95818422D01*
X162752605Y-95918394D01*
X162613630Y-95992678D01*
X162613628Y-95992679D01*
X162462827Y-96038424D01*
X162384471Y-96046141D01*
X162345294Y-96050000D01*
X162266706Y-96050000D01*
X162227529Y-96046141D01*
X162149173Y-96038424D01*
X161998372Y-95992679D01*
X161998370Y-95992678D01*
X161859395Y-95918394D01*
X161737578Y-95818422D01*
X161637606Y-95696605D01*
X161563322Y-95557630D01*
X161563321Y-95557628D01*
X161517576Y-95406827D01*
X161502130Y-95250000D01*
X161517576Y-95093173D01*
X161563321Y-94942372D01*
X161601439Y-94871058D01*
X161637606Y-94803395D01*
X161737578Y-94681578D01*
X161859395Y-94581606D01*
X161998370Y-94507322D01*
X161998372Y-94507321D01*
X162149173Y-94461576D01*
X162227529Y-94453859D01*
X162266706Y-94450000D01*
X162345294Y-94450000D01*
X162384471Y-94453859D01*
X162384471Y-94453859D01*
G37*
G36*
X148280857Y-90892272D02*
G01*
X148481043Y-90975192D01*
X148481045Y-90975193D01*
X148508286Y-90993395D01*
X148661208Y-91095574D01*
X148814426Y-91248792D01*
X148934808Y-91428957D01*
X149017728Y-91629143D01*
X149060000Y-91841658D01*
X149060000Y-92058342D01*
X149017728Y-92270857D01*
X148949592Y-92435351D01*
X148934807Y-92471045D01*
X148909025Y-92509630D01*
X148814426Y-92651208D01*
X148661208Y-92804426D01*
X148571738Y-92864208D01*
X148481045Y-92924807D01*
X148481044Y-92924808D01*
X148481043Y-92924808D01*
X148280857Y-93007728D01*
X148068342Y-93050000D01*
X147851658Y-93050000D01*
X147639143Y-93007728D01*
X147438957Y-92924808D01*
X147438956Y-92924808D01*
X147438955Y-92924807D01*
X147348262Y-92864208D01*
X147258792Y-92804426D01*
X147105574Y-92651208D01*
X147010975Y-92509630D01*
X146985193Y-92471045D01*
X146970408Y-92435351D01*
X146902272Y-92270857D01*
X146860000Y-92058342D01*
X146860000Y-91841658D01*
X146902272Y-91629143D01*
X146985192Y-91428957D01*
X147105574Y-91248792D01*
X147258792Y-91095574D01*
X147411714Y-90993395D01*
X147438955Y-90975193D01*
X147438957Y-90975192D01*
X147639143Y-90892272D01*
X147851658Y-90850000D01*
X148068342Y-90850000D01*
X148280857Y-90892272D01*
X148280857Y-90892272D01*
G37*
G36*
X181843351Y-91432743D02*
G01*
X181988941Y-91493048D01*
X182119970Y-91580599D01*
X182231401Y-91692030D01*
X182318952Y-91823059D01*
X182379257Y-91968649D01*
X182410000Y-92123206D01*
X182410000Y-92280794D01*
X182379257Y-92435351D01*
X182318952Y-92580941D01*
X182231401Y-92711970D01*
X182119970Y-92823401D01*
X181988941Y-92910952D01*
X181843351Y-92971257D01*
X181688794Y-93002000D01*
X181531206Y-93002000D01*
X181376649Y-92971257D01*
X181231059Y-92910952D01*
X181100030Y-92823401D01*
X180988599Y-92711970D01*
X180901048Y-92580941D01*
X180840743Y-92435351D01*
X180810000Y-92280794D01*
X180810000Y-92123206D01*
X180840743Y-91968649D01*
X180901048Y-91823059D01*
X180988599Y-91692030D01*
X181100030Y-91580599D01*
X181231059Y-91493048D01*
X181376649Y-91432743D01*
X181531206Y-91402000D01*
X181688794Y-91402000D01*
X181843351Y-91432743D01*
X181843351Y-91432743D01*
G37*
G36*
X174068471Y-91405859D02*
G01*
X174146827Y-91413576D01*
X174297628Y-91459321D01*
X174297630Y-91459322D01*
X174436605Y-91533606D01*
X174558422Y-91633578D01*
X174658394Y-91755395D01*
X174728528Y-91886606D01*
X174732679Y-91894372D01*
X174778424Y-92045173D01*
X174793870Y-92202000D01*
X174778424Y-92358827D01*
X174744383Y-92471045D01*
X174732678Y-92509630D01*
X174658394Y-92648605D01*
X174558422Y-92770422D01*
X174436605Y-92870394D01*
X174334806Y-92924807D01*
X174297628Y-92944679D01*
X174146827Y-92990424D01*
X174068471Y-92998141D01*
X174029294Y-93002000D01*
X173950706Y-93002000D01*
X173911529Y-92998141D01*
X173833173Y-92990424D01*
X173682372Y-92944679D01*
X173645194Y-92924807D01*
X173543395Y-92870394D01*
X173421578Y-92770422D01*
X173321606Y-92648605D01*
X173247322Y-92509630D01*
X173235617Y-92471045D01*
X173201576Y-92358827D01*
X173186130Y-92202000D01*
X173201576Y-92045173D01*
X173247321Y-91894372D01*
X173251472Y-91886606D01*
X173321606Y-91755395D01*
X173421578Y-91633578D01*
X173543395Y-91533606D01*
X173682370Y-91459322D01*
X173682372Y-91459321D01*
X173833173Y-91413576D01*
X173911529Y-91405859D01*
X173950706Y-91402000D01*
X174029294Y-91402000D01*
X174068471Y-91405859D01*
X174068471Y-91405859D01*
G37*
G36*
X170159351Y-90670743D02*
G01*
X170304941Y-90731048D01*
X170435970Y-90818599D01*
X170547401Y-90930030D01*
X170634952Y-91061059D01*
X170695257Y-91206649D01*
X170726000Y-91361206D01*
X170726000Y-91518794D01*
X170695257Y-91673351D01*
X170634952Y-91818941D01*
X170547401Y-91949970D01*
X170435970Y-92061401D01*
X170304941Y-92148952D01*
X170159351Y-92209257D01*
X170004794Y-92240000D01*
X169847206Y-92240000D01*
X169692649Y-92209257D01*
X169547059Y-92148952D01*
X169416030Y-92061401D01*
X169304599Y-91949970D01*
X169217048Y-91818941D01*
X169156743Y-91673351D01*
X169126000Y-91518794D01*
X169126000Y-91361206D01*
X169156743Y-91206649D01*
X169217048Y-91061059D01*
X169304599Y-90930030D01*
X169416030Y-90818599D01*
X169547059Y-90731048D01*
X169692649Y-90670743D01*
X169847206Y-90640000D01*
X170004794Y-90640000D01*
X170159351Y-90670743D01*
X170159351Y-90670743D01*
G37*
G36*
X162384471Y-90643859D02*
G01*
X162462827Y-90651576D01*
X162613628Y-90697321D01*
X162613630Y-90697322D01*
X162752605Y-90771606D01*
X162874422Y-90871578D01*
X162974394Y-90993395D01*
X163048678Y-91132370D01*
X163048679Y-91132372D01*
X163094424Y-91283173D01*
X163109870Y-91440000D01*
X163094424Y-91596827D01*
X163065544Y-91692030D01*
X163048678Y-91747630D01*
X162974394Y-91886605D01*
X162874422Y-92008422D01*
X162752605Y-92108394D01*
X162613630Y-92182678D01*
X162613628Y-92182679D01*
X162462827Y-92228424D01*
X162384471Y-92236141D01*
X162345294Y-92240000D01*
X162266706Y-92240000D01*
X162227529Y-92236141D01*
X162149173Y-92228424D01*
X161998372Y-92182679D01*
X161998370Y-92182678D01*
X161859395Y-92108394D01*
X161737578Y-92008422D01*
X161637606Y-91886605D01*
X161563322Y-91747630D01*
X161546456Y-91692030D01*
X161517576Y-91596827D01*
X161502130Y-91440000D01*
X161517576Y-91283173D01*
X161563321Y-91132372D01*
X161563322Y-91132370D01*
X161637606Y-90993395D01*
X161737578Y-90871578D01*
X161859395Y-90771606D01*
X161998370Y-90697322D01*
X161998372Y-90697321D01*
X162149173Y-90651576D01*
X162227529Y-90643859D01*
X162266706Y-90640000D01*
X162345294Y-90640000D01*
X162384471Y-90643859D01*
X162384471Y-90643859D01*
G37*
G36*
X181843351Y-88130743D02*
G01*
X181988941Y-88191048D01*
X182119970Y-88278599D01*
X182231401Y-88390030D01*
X182318952Y-88521059D01*
X182379257Y-88666649D01*
X182410000Y-88821206D01*
X182410000Y-88978794D01*
X182379257Y-89133351D01*
X182318952Y-89278941D01*
X182231401Y-89409970D01*
X182119970Y-89521401D01*
X181988941Y-89608952D01*
X181843351Y-89669257D01*
X181688794Y-89700000D01*
X181531206Y-89700000D01*
X181376649Y-89669257D01*
X181231059Y-89608952D01*
X181100030Y-89521401D01*
X180988599Y-89409970D01*
X180901048Y-89278941D01*
X180840743Y-89133351D01*
X180810000Y-88978794D01*
X180810000Y-88821206D01*
X180840743Y-88666649D01*
X180901048Y-88521059D01*
X180988599Y-88390030D01*
X181100030Y-88278599D01*
X181231059Y-88191048D01*
X181376649Y-88130743D01*
X181531206Y-88100000D01*
X181688794Y-88100000D01*
X181843351Y-88130743D01*
X181843351Y-88130743D01*
G37*
G36*
X174068471Y-88103859D02*
G01*
X174146827Y-88111576D01*
X174297628Y-88157321D01*
X174297630Y-88157322D01*
X174436605Y-88231606D01*
X174558422Y-88331578D01*
X174658394Y-88453395D01*
X174668782Y-88472830D01*
X174732679Y-88592372D01*
X174778424Y-88743173D01*
X174793870Y-88900000D01*
X174778424Y-89056827D01*
X174749876Y-89150936D01*
X174732678Y-89207630D01*
X174658394Y-89346605D01*
X174558422Y-89468422D01*
X174436605Y-89568394D01*
X174297630Y-89642678D01*
X174297628Y-89642679D01*
X174146827Y-89688424D01*
X174068471Y-89696141D01*
X174029294Y-89700000D01*
X173950706Y-89700000D01*
X173911529Y-89696141D01*
X173833173Y-89688424D01*
X173682372Y-89642679D01*
X173682370Y-89642678D01*
X173543395Y-89568394D01*
X173421578Y-89468422D01*
X173321606Y-89346605D01*
X173247322Y-89207630D01*
X173230124Y-89150936D01*
X173201576Y-89056827D01*
X173186130Y-88900000D01*
X173201576Y-88743173D01*
X173247321Y-88592372D01*
X173311218Y-88472830D01*
X173321606Y-88453395D01*
X173421578Y-88331578D01*
X173543395Y-88231606D01*
X173682370Y-88157322D01*
X173682372Y-88157321D01*
X173833173Y-88111576D01*
X173911529Y-88103859D01*
X173950706Y-88100000D01*
X174029294Y-88100000D01*
X174068471Y-88103859D01*
X174068471Y-88103859D01*
G37*
G36*
X154653222Y-84718073D02*
G01*
X155108192Y-84906528D01*
X155108194Y-84906529D01*
X155253261Y-85003460D01*
X155517656Y-85180123D01*
X155865877Y-85528344D01*
X156139472Y-85937808D01*
X156327927Y-86392778D01*
X156424000Y-86875770D01*
X156424000Y-87368230D01*
X156327927Y-87851222D01*
X156170366Y-88231607D01*
X156139471Y-88306194D01*
X156083453Y-88390030D01*
X155865877Y-88715656D01*
X155517656Y-89063877D01*
X155413681Y-89133351D01*
X155108194Y-89337471D01*
X155108193Y-89337472D01*
X155108192Y-89337472D01*
X154653222Y-89525927D01*
X154170230Y-89622000D01*
X153677770Y-89622000D01*
X153194778Y-89525927D01*
X152739808Y-89337472D01*
X152739807Y-89337472D01*
X152739806Y-89337471D01*
X152434319Y-89133351D01*
X152330344Y-89063877D01*
X151982123Y-88715656D01*
X151764547Y-88390030D01*
X151708529Y-88306194D01*
X151677634Y-88231607D01*
X151520073Y-87851222D01*
X151424000Y-87368230D01*
X151424000Y-86875770D01*
X151520073Y-86392778D01*
X151708528Y-85937808D01*
X151982123Y-85528344D01*
X152330344Y-85180123D01*
X152594739Y-85003460D01*
X152739806Y-84906529D01*
X152739808Y-84906528D01*
X153194778Y-84718073D01*
X153677770Y-84622000D01*
X154170230Y-84622000D01*
X154653222Y-84718073D01*
X154653222Y-84718073D01*
G37*
G36*
X129781999Y-86391999D02*
G01*
X129782001Y-86392001D01*
X129782605Y-86398137D01*
X129782605Y-88263055D01*
X129785007Y-88287441D01*
X129789727Y-88311170D01*
X129790936Y-88323448D01*
X129790936Y-88460552D01*
X129789727Y-88472830D01*
X129762981Y-88607293D01*
X129759400Y-88619099D01*
X129706932Y-88745765D01*
X129701116Y-88756646D01*
X129624953Y-88870632D01*
X129621037Y-88875404D01*
X129621034Y-88875408D01*
X129621031Y-88875411D01*
X129617122Y-88880174D01*
X129520174Y-88977122D01*
X129515411Y-88981031D01*
X129515408Y-88981034D01*
X129515404Y-88981037D01*
X129510632Y-88984953D01*
X129396646Y-89061116D01*
X129385765Y-89066932D01*
X129259099Y-89119400D01*
X129247293Y-89122981D01*
X129112830Y-89149727D01*
X129100552Y-89150936D01*
X128963448Y-89150936D01*
X128951170Y-89149727D01*
X128816707Y-89122981D01*
X128804901Y-89119400D01*
X128678235Y-89066932D01*
X128667354Y-89061116D01*
X128553368Y-88984953D01*
X128548596Y-88981037D01*
X128548592Y-88981034D01*
X128548589Y-88981031D01*
X128543826Y-88977122D01*
X128446878Y-88880174D01*
X128442969Y-88875411D01*
X128442966Y-88875408D01*
X128442963Y-88875404D01*
X128439047Y-88870632D01*
X128362884Y-88756646D01*
X128357068Y-88745765D01*
X128304600Y-88619099D01*
X128301019Y-88607293D01*
X128274273Y-88472830D01*
X128273064Y-88460552D01*
X128273064Y-88323448D01*
X128274273Y-88311170D01*
X128278993Y-88287441D01*
X128281395Y-88263055D01*
X128281395Y-86398137D01*
X128281999Y-86392001D01*
X128282001Y-86391999D01*
X128288137Y-86391395D01*
X129775863Y-86391395D01*
X129781999Y-86391999D01*
X129781999Y-86391999D01*
G37*
G36*
X122161999Y-86391999D02*
G01*
X122162001Y-86392001D01*
X122162605Y-86398137D01*
X122162605Y-88263055D01*
X122165007Y-88287441D01*
X122169727Y-88311170D01*
X122170936Y-88323448D01*
X122170936Y-88460552D01*
X122169727Y-88472830D01*
X122142981Y-88607293D01*
X122139400Y-88619099D01*
X122086932Y-88745765D01*
X122081116Y-88756646D01*
X122004953Y-88870632D01*
X122001037Y-88875404D01*
X122001034Y-88875408D01*
X122001031Y-88875411D01*
X121997122Y-88880174D01*
X121900174Y-88977122D01*
X121895411Y-88981031D01*
X121895408Y-88981034D01*
X121895404Y-88981037D01*
X121890632Y-88984953D01*
X121776646Y-89061116D01*
X121765765Y-89066932D01*
X121639099Y-89119400D01*
X121627293Y-89122981D01*
X121492830Y-89149727D01*
X121480552Y-89150936D01*
X121343448Y-89150936D01*
X121331170Y-89149727D01*
X121196707Y-89122981D01*
X121184901Y-89119400D01*
X121058235Y-89066932D01*
X121047354Y-89061116D01*
X120933368Y-88984953D01*
X120928596Y-88981037D01*
X120928592Y-88981034D01*
X120928589Y-88981031D01*
X120923826Y-88977122D01*
X120826878Y-88880174D01*
X120822969Y-88875411D01*
X120822966Y-88875408D01*
X120822963Y-88875404D01*
X120819047Y-88870632D01*
X120742884Y-88756646D01*
X120737068Y-88745765D01*
X120684600Y-88619099D01*
X120681019Y-88607293D01*
X120654273Y-88472830D01*
X120653064Y-88460552D01*
X120653064Y-88323448D01*
X120654273Y-88311170D01*
X120658993Y-88287441D01*
X120661395Y-88263055D01*
X120661395Y-86398137D01*
X120661999Y-86392001D01*
X120662001Y-86391999D01*
X120668137Y-86391395D01*
X122155863Y-86391395D01*
X122161999Y-86391999D01*
X122161999Y-86391999D01*
G37*
G36*
X168889351Y-86860743D02*
G01*
X169034941Y-86921048D01*
X169165970Y-87008599D01*
X169277401Y-87120030D01*
X169364952Y-87251059D01*
X169425257Y-87396649D01*
X169456000Y-87551206D01*
X169456000Y-87708794D01*
X169425257Y-87863351D01*
X169364952Y-88008941D01*
X169277401Y-88139970D01*
X169165970Y-88251401D01*
X169034941Y-88338952D01*
X168889351Y-88399257D01*
X168734794Y-88430000D01*
X168577206Y-88430000D01*
X168422649Y-88399257D01*
X168277059Y-88338952D01*
X168146030Y-88251401D01*
X168034599Y-88139970D01*
X167947048Y-88008941D01*
X167886743Y-87863351D01*
X167856000Y-87708794D01*
X167856000Y-87551206D01*
X167886743Y-87396649D01*
X167947048Y-87251059D01*
X168034599Y-87120030D01*
X168146030Y-87008599D01*
X168277059Y-86921048D01*
X168422649Y-86860743D01*
X168577206Y-86830000D01*
X168734794Y-86830000D01*
X168889351Y-86860743D01*
X168889351Y-86860743D01*
G37*
G36*
X163889351Y-86860743D02*
G01*
X164034941Y-86921048D01*
X164165970Y-87008599D01*
X164277401Y-87120030D01*
X164364952Y-87251059D01*
X164425257Y-87396649D01*
X164456000Y-87551206D01*
X164456000Y-87708794D01*
X164425257Y-87863351D01*
X164364952Y-88008941D01*
X164277401Y-88139970D01*
X164165970Y-88251401D01*
X164034941Y-88338952D01*
X163889351Y-88399257D01*
X163734794Y-88430000D01*
X163577206Y-88430000D01*
X163422649Y-88399257D01*
X163277059Y-88338952D01*
X163146030Y-88251401D01*
X163034599Y-88139970D01*
X162947048Y-88008941D01*
X162886743Y-87863351D01*
X162856000Y-87708794D01*
X162856000Y-87551206D01*
X162886743Y-87396649D01*
X162947048Y-87251059D01*
X163034599Y-87120030D01*
X163146030Y-87008599D01*
X163277059Y-86921048D01*
X163422649Y-86860743D01*
X163577206Y-86830000D01*
X163734794Y-86830000D01*
X163889351Y-86860743D01*
X163889351Y-86860743D01*
G37*
G36*
X132478330Y-85094273D02*
G01*
X132612793Y-85121019D01*
X132624599Y-85124600D01*
X132751265Y-85177068D01*
X132762146Y-85182884D01*
X132876132Y-85259047D01*
X132880904Y-85262963D01*
X132880908Y-85262966D01*
X132880911Y-85262969D01*
X132885674Y-85266878D01*
X132982622Y-85363826D01*
X132986531Y-85368589D01*
X132986534Y-85368592D01*
X132986537Y-85368596D01*
X132990453Y-85373368D01*
X133066616Y-85487354D01*
X133072432Y-85498235D01*
X133124900Y-85624901D01*
X133128481Y-85636707D01*
X133155227Y-85771170D01*
X133156436Y-85783448D01*
X133156436Y-85920552D01*
X133155227Y-85932830D01*
X133150507Y-85956559D01*
X133148105Y-85980945D01*
X133148105Y-87845863D01*
X133147501Y-87851999D01*
X133147499Y-87852001D01*
X133141363Y-87852605D01*
X131653637Y-87852605D01*
X131647501Y-87852001D01*
X131647499Y-87851999D01*
X131646895Y-87845863D01*
X131646895Y-85980945D01*
X131644493Y-85956559D01*
X131639773Y-85932830D01*
X131638564Y-85920552D01*
X131638564Y-85783448D01*
X131639773Y-85771170D01*
X131666519Y-85636707D01*
X131670100Y-85624901D01*
X131722568Y-85498235D01*
X131728384Y-85487354D01*
X131804547Y-85373368D01*
X131808463Y-85368596D01*
X131808466Y-85368592D01*
X131808469Y-85368589D01*
X131812378Y-85363826D01*
X131909326Y-85266878D01*
X131914089Y-85262969D01*
X131914092Y-85262966D01*
X131914096Y-85262963D01*
X131918868Y-85259047D01*
X132032854Y-85182884D01*
X132043735Y-85177068D01*
X132170401Y-85124600D01*
X132182207Y-85121019D01*
X132316670Y-85094273D01*
X132328948Y-85093064D01*
X132466052Y-85093064D01*
X132478330Y-85094273D01*
X132478330Y-85094273D01*
G37*
G36*
X135018330Y-85094273D02*
G01*
X135152793Y-85121019D01*
X135164599Y-85124600D01*
X135291265Y-85177068D01*
X135302146Y-85182884D01*
X135416132Y-85259047D01*
X135420904Y-85262963D01*
X135420908Y-85262966D01*
X135420911Y-85262969D01*
X135425674Y-85266878D01*
X135522622Y-85363826D01*
X135526531Y-85368589D01*
X135526534Y-85368592D01*
X135526537Y-85368596D01*
X135530453Y-85373368D01*
X135606616Y-85487354D01*
X135612432Y-85498235D01*
X135664900Y-85624901D01*
X135668481Y-85636707D01*
X135695227Y-85771170D01*
X135696436Y-85783448D01*
X135696436Y-85920552D01*
X135695227Y-85932830D01*
X135690507Y-85956559D01*
X135688105Y-85980945D01*
X135688105Y-87845863D01*
X135687501Y-87851999D01*
X135687499Y-87852001D01*
X135681363Y-87852605D01*
X134193637Y-87852605D01*
X134187501Y-87852001D01*
X134187499Y-87851999D01*
X134186895Y-87845863D01*
X134186895Y-85980945D01*
X134184493Y-85956559D01*
X134179773Y-85932830D01*
X134178564Y-85920552D01*
X134178564Y-85783448D01*
X134179773Y-85771170D01*
X134206519Y-85636707D01*
X134210100Y-85624901D01*
X134262568Y-85498235D01*
X134268384Y-85487354D01*
X134344547Y-85373368D01*
X134348463Y-85368596D01*
X134348466Y-85368592D01*
X134348469Y-85368589D01*
X134352378Y-85363826D01*
X134449326Y-85266878D01*
X134454089Y-85262969D01*
X134454092Y-85262966D01*
X134454096Y-85262963D01*
X134458868Y-85259047D01*
X134572854Y-85182884D01*
X134583735Y-85177068D01*
X134710401Y-85124600D01*
X134722207Y-85121019D01*
X134856670Y-85094273D01*
X134868948Y-85093064D01*
X135006052Y-85093064D01*
X135018330Y-85094273D01*
X135018330Y-85094273D01*
G37*
G36*
X137558330Y-85094273D02*
G01*
X137692793Y-85121019D01*
X137704599Y-85124600D01*
X137831265Y-85177068D01*
X137842146Y-85182884D01*
X137956132Y-85259047D01*
X137960904Y-85262963D01*
X137960908Y-85262966D01*
X137960911Y-85262969D01*
X137965674Y-85266878D01*
X138062622Y-85363826D01*
X138066531Y-85368589D01*
X138066534Y-85368592D01*
X138066537Y-85368596D01*
X138070453Y-85373368D01*
X138146616Y-85487354D01*
X138152432Y-85498235D01*
X138204900Y-85624901D01*
X138208481Y-85636707D01*
X138235227Y-85771170D01*
X138236436Y-85783448D01*
X138236436Y-85920552D01*
X138235227Y-85932830D01*
X138230507Y-85956559D01*
X138228105Y-85980945D01*
X138228105Y-87845863D01*
X138227501Y-87851999D01*
X138227499Y-87852001D01*
X138221363Y-87852605D01*
X136733637Y-87852605D01*
X136727501Y-87852001D01*
X136727499Y-87851999D01*
X136726895Y-87845863D01*
X136726895Y-85980945D01*
X136724493Y-85956559D01*
X136719773Y-85932830D01*
X136718564Y-85920552D01*
X136718564Y-85783448D01*
X136719773Y-85771170D01*
X136746519Y-85636707D01*
X136750100Y-85624901D01*
X136802568Y-85498235D01*
X136808384Y-85487354D01*
X136884547Y-85373368D01*
X136888463Y-85368596D01*
X136888466Y-85368592D01*
X136888469Y-85368589D01*
X136892378Y-85363826D01*
X136989326Y-85266878D01*
X136994089Y-85262969D01*
X136994092Y-85262966D01*
X136994096Y-85262963D01*
X136998868Y-85259047D01*
X137112854Y-85182884D01*
X137123735Y-85177068D01*
X137250401Y-85124600D01*
X137262207Y-85121019D01*
X137396670Y-85094273D01*
X137408948Y-85093064D01*
X137546052Y-85093064D01*
X137558330Y-85094273D01*
X137558330Y-85094273D01*
G37*
G36*
X174124837Y-84505958D02*
G01*
X174205638Y-84513916D01*
X174359034Y-84560449D01*
X174412992Y-84576817D01*
X174604084Y-84678957D01*
X174771581Y-84816419D01*
X174909043Y-84983916D01*
X175011183Y-85175008D01*
X175012735Y-85180124D01*
X175074084Y-85382362D01*
X175095322Y-85598000D01*
X175074084Y-85813638D01*
X175041651Y-85920552D01*
X175011183Y-86020992D01*
X174909043Y-86212084D01*
X174771581Y-86379581D01*
X174604084Y-86517043D01*
X174412992Y-86619183D01*
X174359034Y-86635551D01*
X174205638Y-86682084D01*
X174124837Y-86690042D01*
X174044038Y-86698000D01*
X173935962Y-86698000D01*
X173855163Y-86690042D01*
X173774362Y-86682084D01*
X173620966Y-86635551D01*
X173567008Y-86619183D01*
X173375916Y-86517043D01*
X173208419Y-86379581D01*
X173070957Y-86212084D01*
X172968817Y-86020992D01*
X172938349Y-85920552D01*
X172905916Y-85813638D01*
X172884678Y-85598000D01*
X172905916Y-85382362D01*
X172967265Y-85180124D01*
X172968817Y-85175008D01*
X173070957Y-84983916D01*
X173208419Y-84816419D01*
X173375916Y-84678957D01*
X173567008Y-84576817D01*
X173620966Y-84560449D01*
X173774362Y-84513916D01*
X173855163Y-84505958D01*
X173935962Y-84498000D01*
X174044038Y-84498000D01*
X174124837Y-84505958D01*
X174124837Y-84505958D01*
G37*
G36*
X182710000Y-86698000D02*
G01*
X180510000Y-86698000D01*
X180510000Y-84498000D01*
X182710000Y-84498000D01*
X182710000Y-86698000D01*
X182710000Y-86698000D01*
G37*
G36*
X92785617Y-83856479D02*
G01*
X92911196Y-83881458D01*
X93147781Y-83979455D01*
X93360702Y-84121724D01*
X93541776Y-84302798D01*
X93684045Y-84515719D01*
X93751661Y-84678957D01*
X93782042Y-84752305D01*
X93832000Y-85003460D01*
X93832000Y-85259540D01*
X93830540Y-85266878D01*
X93782042Y-85510696D01*
X93684045Y-85747281D01*
X93541776Y-85960202D01*
X93360702Y-86141276D01*
X93147781Y-86283545D01*
X92911196Y-86381542D01*
X92827767Y-86398137D01*
X92660040Y-86431500D01*
X92403960Y-86431500D01*
X92236233Y-86398137D01*
X92152804Y-86381542D01*
X91916219Y-86283545D01*
X91703298Y-86141276D01*
X91522224Y-85960202D01*
X91379955Y-85747281D01*
X91281958Y-85510696D01*
X91233460Y-85266878D01*
X91232000Y-85259540D01*
X91232000Y-85003460D01*
X91281958Y-84752305D01*
X91312340Y-84678957D01*
X91379955Y-84515719D01*
X91522224Y-84302798D01*
X91703298Y-84121724D01*
X91916219Y-83979455D01*
X92152804Y-83881458D01*
X92278383Y-83856479D01*
X92403960Y-83831500D01*
X92660040Y-83831500D01*
X92785617Y-83856479D01*
X92785617Y-83856479D01*
G37*
G36*
X142715222Y-79130073D02*
G01*
X143170192Y-79318528D01*
X143170194Y-79318529D01*
X143376315Y-79456255D01*
X143579656Y-79592123D01*
X143927877Y-79940344D01*
X144201472Y-80349808D01*
X144389927Y-80804778D01*
X144486000Y-81287770D01*
X144486000Y-81780230D01*
X144389927Y-82263222D01*
X144201472Y-82718192D01*
X144201471Y-82718194D01*
X143927876Y-83127657D01*
X143579657Y-83475876D01*
X143170194Y-83749471D01*
X143170193Y-83749472D01*
X143170192Y-83749472D01*
X142715222Y-83937927D01*
X142232230Y-84034000D01*
X141739770Y-84034000D01*
X141256778Y-83937927D01*
X140801808Y-83749472D01*
X140801807Y-83749472D01*
X140801806Y-83749471D01*
X140392343Y-83475876D01*
X140044124Y-83127657D01*
X139770529Y-82718194D01*
X139770528Y-82718192D01*
X139582073Y-82263222D01*
X139486000Y-81780230D01*
X139486000Y-81287770D01*
X139582073Y-80804778D01*
X139770528Y-80349808D01*
X140044123Y-79940344D01*
X140392344Y-79592123D01*
X140595685Y-79456255D01*
X140801806Y-79318529D01*
X140801808Y-79318528D01*
X141256778Y-79130073D01*
X141739770Y-79034000D01*
X142232230Y-79034000D01*
X142715222Y-79130073D01*
X142715222Y-79130073D01*
G37*
G36*
X128745222Y-79130073D02*
G01*
X129200192Y-79318528D01*
X129200194Y-79318529D01*
X129406315Y-79456255D01*
X129609656Y-79592123D01*
X129957877Y-79940344D01*
X130231472Y-80349808D01*
X130419927Y-80804778D01*
X130516000Y-81287770D01*
X130516000Y-81780230D01*
X130419927Y-82263222D01*
X130231472Y-82718192D01*
X130231471Y-82718194D01*
X129957876Y-83127657D01*
X129609657Y-83475876D01*
X129200194Y-83749471D01*
X129200193Y-83749472D01*
X129200192Y-83749472D01*
X128745222Y-83937927D01*
X128262230Y-84034000D01*
X127769770Y-84034000D01*
X127286778Y-83937927D01*
X126831808Y-83749472D01*
X126831807Y-83749472D01*
X126831806Y-83749471D01*
X126422343Y-83475876D01*
X126074124Y-83127657D01*
X125800529Y-82718194D01*
X125800528Y-82718192D01*
X125612073Y-82263222D01*
X125516000Y-81780230D01*
X125516000Y-81287770D01*
X125612073Y-80804778D01*
X125800528Y-80349808D01*
X126074123Y-79940344D01*
X126422344Y-79592123D01*
X126625685Y-79456255D01*
X126831806Y-79318529D01*
X126831808Y-79318528D01*
X127286778Y-79130073D01*
X127769770Y-79034000D01*
X128262230Y-79034000D01*
X128745222Y-79130073D01*
X128745222Y-79130073D01*
G37*
G36*
X97719534Y-72789143D02*
G01*
X97992515Y-72902216D01*
X97992517Y-72902217D01*
X98238194Y-73066374D01*
X98447126Y-73275306D01*
X98560513Y-73445000D01*
X98611284Y-73520985D01*
X98724357Y-73793966D01*
X98782000Y-74083762D01*
X98782000Y-74379238D01*
X98724357Y-74669034D01*
X98611284Y-74942015D01*
X98611283Y-74942017D01*
X98569086Y-75005169D01*
X98475654Y-75145000D01*
X98447126Y-75187694D01*
X98238194Y-75396626D01*
X97992517Y-75560783D01*
X97992516Y-75560784D01*
X97992515Y-75560784D01*
X97719534Y-75673857D01*
X97429738Y-75731500D01*
X97134262Y-75731500D01*
X96844466Y-75673857D01*
X96571485Y-75560784D01*
X96571484Y-75560784D01*
X96571483Y-75560783D01*
X96325806Y-75396626D01*
X96116874Y-75187694D01*
X96088347Y-75145000D01*
X95994914Y-75005169D01*
X95952717Y-74942017D01*
X95952716Y-74942015D01*
X95839643Y-74669034D01*
X95782000Y-74379238D01*
X95782000Y-74083762D01*
X95839643Y-73793966D01*
X95952716Y-73520985D01*
X96003488Y-73445000D01*
X96116874Y-73275306D01*
X96325806Y-73066374D01*
X96571483Y-72902217D01*
X96571485Y-72902216D01*
X96844466Y-72789143D01*
X97134262Y-72731500D01*
X97429738Y-72731500D01*
X97719534Y-72789143D01*
X97719534Y-72789143D01*
G37*
G36*
X111482000Y-75731500D02*
G01*
X108482000Y-75731500D01*
X108482000Y-72731500D01*
X111482000Y-72731500D01*
X111482000Y-75731500D01*
X111482000Y-75731500D01*
G37*
G36*
X105117000Y-75145000D02*
G01*
X103417000Y-75145000D01*
X103417000Y-73445000D01*
X105117000Y-73445000D01*
X105117000Y-75145000D01*
X105117000Y-75145000D01*
G37*
G36*
X101893627Y-73457299D02*
G01*
X101973742Y-73481601D01*
X102053855Y-73505903D01*
X102053857Y-73505904D01*
X102201518Y-73584831D01*
X102330949Y-73691051D01*
X102437169Y-73820482D01*
X102516096Y-73968143D01*
X102564701Y-74128373D01*
X102581112Y-74295000D01*
X102564701Y-74461627D01*
X102516096Y-74621857D01*
X102437169Y-74769518D01*
X102330949Y-74898949D01*
X102201518Y-75005169D01*
X102053857Y-75084096D01*
X102053855Y-75084097D01*
X101973742Y-75108399D01*
X101893627Y-75132701D01*
X101768752Y-75145000D01*
X101685248Y-75145000D01*
X101560373Y-75132701D01*
X101480258Y-75108398D01*
X101400145Y-75084097D01*
X101400143Y-75084096D01*
X101252482Y-75005169D01*
X101123051Y-74898949D01*
X101016831Y-74769518D01*
X100937904Y-74621857D01*
X100889299Y-74461627D01*
X100872888Y-74295000D01*
X100889299Y-74128373D01*
X100937904Y-73968143D01*
X101016831Y-73820482D01*
X101123051Y-73691051D01*
X101252482Y-73584831D01*
X101400143Y-73505904D01*
X101400145Y-73505903D01*
X101480258Y-73481601D01*
X101560373Y-73457299D01*
X101685248Y-73445000D01*
X101768752Y-73445000D01*
X101893627Y-73457299D01*
X101893627Y-73457299D01*
G37*
M02*
