M48
; DRILL file {KiCad 5.1.2} date Fri 26 Jul 2019 03:54:56 PM AEST
; FORMAT={-:-/ absolute / inch / decimal}
; #@! TF.CreationDate,2019-07-26T15:54:56+10:00
; #@! TF.GenerationSoftware,Kicad,Pcbnew,5.1.2
FMAT,2
INCH
T1C0.0300
T2C0.0315
T3C0.0354
T4C0.0394
T5C0.0433
T6C0.0945
T7C0.0866
T8C0.1024
T9C0.1969
%
G90
G05
T1
X5.21Y-4.42
X5.425Y-3.8
X5.425Y-3.9
X5.425Y-4.0
X4.78Y-3.48
X4.78Y-4.08
X5.08Y-3.48
X5.08Y-4.08
X5.18Y-4.08
X6.225Y-3.8
X6.225Y-3.9
X6.225Y-4.0
X5.31Y-4.42
X5.41Y-4.42
X5.2125Y-3.38
X5.3125Y-3.38
X5.4125Y-3.38
T2
X6.39Y-3.75
X6.39Y-3.85
X6.39Y-3.95
X6.39Y-4.05
X6.69Y-3.75
X6.69Y-3.85
X6.69Y-3.95
X6.69Y-4.05
X6.83Y-3.75
X6.83Y-4.05
X6.4431Y-3.45
X6.64Y-3.45
X6.44Y-4.36
X6.6369Y-4.36
X6.85Y-3.63
X7.15Y-3.63
X6.39Y-3.6
X6.69Y-3.6
X6.9425Y-3.85
X6.9425Y-3.9
X6.9425Y-3.95
X6.85Y-3.5
X7.15Y-3.5
T3
X4.89Y-4.2825
X4.89Y-4.4124
X4.9884Y-4.2825
X4.9884Y-4.4124
X5.0869Y-4.2825
X5.0869Y-4.4124
T4
X4.005Y-2.925
X4.105Y-2.925
T5
X6.85Y-3.37
X7.15Y-3.37
X6.85Y-4.17
X7.15Y-4.17
X6.39Y-4.21
X6.69Y-4.21
T6
X3.83Y-2.9225
X4.33Y-2.9225
T7
X5.8252Y-3.7602
X5.8252Y-4.0398
X5.8252Y-3.6201
X5.8252Y-4.1799
X5.8252Y-3.9
T8
X3.643Y-3.3516
X3.643Y-4.454
X4.517Y-3.9028
T9
X5.04Y-4.59
X5.04Y-3.21
X6.06Y-3.43
X5.59Y-4.59
X5.59Y-3.21
X6.06Y-4.37
T0
M30
