%TF.GenerationSoftware,KiCad,Pcbnew,5.1.2*%
%TF.CreationDate,2019-07-27T12:22:43+10:00*%
%TF.ProjectId,bikePov,62696b65-506f-4762-9e6b-696361645f70,rev?*%
%TF.SameCoordinates,Original*%
%TF.FileFunction,Legend,Top*%
%TF.FilePolarity,Positive*%
%FSLAX46Y46*%
G04 Gerber Fmt 4.6, Leading zero omitted, Abs format (unit mm)*
G04 Created by KiCad (PCBNEW 5.1.2) date 2019-07-27 12:22:43*
%MOMM*%
%LPD*%
G04 APERTURE LIST*
%ADD10C,0.150000*%
%ADD11C,0.120000*%
%ADD12C,0.010000*%
G04 APERTURE END LIST*
D10*
X132334000Y-103378000D02*
X120650000Y-103378000D01*
X120650000Y-103378000D02*
X120650000Y-88646000D01*
X120650000Y-88646000D02*
X132334000Y-88646000D01*
X132334000Y-88646000D02*
X132334000Y-103378000D01*
X140843000Y-102616000D02*
X137033000Y-102616000D01*
X137033000Y-102616000D02*
X137033000Y-95504000D01*
X137033000Y-95504000D02*
X140843000Y-95504000D01*
X140843000Y-95504000D02*
X140843000Y-102616000D01*
D11*
X88532000Y-125631500D02*
X88532000Y-71131500D01*
X88532000Y-71131500D02*
X118732000Y-71131500D01*
X118732000Y-71131500D02*
X118732000Y-125631500D01*
X118732000Y-125631500D02*
X88532000Y-125631500D01*
X105597000Y-72965000D02*
X100397000Y-72965000D01*
X105597000Y-73025000D02*
X105597000Y-72965000D01*
X100397000Y-75625000D02*
X100397000Y-72965000D01*
X105597000Y-73025000D02*
X102997000Y-73025000D01*
X102997000Y-73025000D02*
X102997000Y-75625000D01*
X102997000Y-75625000D02*
X100397000Y-75625000D01*
X105597000Y-74295000D02*
X105597000Y-75625000D01*
X105597000Y-75625000D02*
X104267000Y-75625000D01*
X168826000Y-89351000D02*
X163486000Y-89351000D01*
X168826000Y-85909000D02*
X163486000Y-85909000D01*
X168826000Y-89351000D02*
X168826000Y-88685000D01*
X168826000Y-86575000D02*
X168826000Y-85909000D01*
X163486000Y-89351000D02*
X163486000Y-88685000D01*
X163486000Y-86575000D02*
X163486000Y-85909000D01*
X168746000Y-111799000D02*
X168746000Y-112465000D01*
X168746000Y-109023000D02*
X168746000Y-109689000D01*
X163406000Y-111799000D02*
X163406000Y-112465000D01*
X163406000Y-109023000D02*
X163406000Y-109689000D01*
X163406000Y-112465000D02*
X168746000Y-112465000D01*
X163406000Y-109023000D02*
X168746000Y-109023000D01*
X180520000Y-86938000D02*
X180520000Y-87068000D01*
X180520000Y-87068000D02*
X175080000Y-87068000D01*
X175080000Y-87068000D02*
X175080000Y-86938000D01*
X180520000Y-84258000D02*
X180520000Y-84128000D01*
X180520000Y-84128000D02*
X175080000Y-84128000D01*
X175080000Y-84128000D02*
X175080000Y-84258000D01*
X179620000Y-87068000D02*
X179620000Y-84128000D01*
X179500000Y-87068000D02*
X179500000Y-84128000D01*
X179740000Y-87068000D02*
X179740000Y-84128000D01*
X175860000Y-104448000D02*
X175860000Y-107388000D01*
X176100000Y-104448000D02*
X176100000Y-107388000D01*
X175980000Y-104448000D02*
X175980000Y-107388000D01*
X180520000Y-107388000D02*
X180520000Y-107258000D01*
X175080000Y-107388000D02*
X180520000Y-107388000D01*
X175080000Y-107258000D02*
X175080000Y-107388000D01*
X180520000Y-104448000D02*
X180520000Y-104578000D01*
X175080000Y-104448000D02*
X180520000Y-104448000D01*
X175080000Y-104578000D02*
X175080000Y-104448000D01*
D10*
X155067000Y-102616000D02*
X155067000Y-95504000D01*
X158877000Y-102616000D02*
X155067000Y-102616000D01*
X158877000Y-95504000D02*
X158877000Y-102616000D01*
X155067000Y-95504000D02*
X158877000Y-95504000D01*
D11*
X181864000Y-109034000D02*
X181484000Y-109034000D01*
X181864000Y-113084000D02*
X181864000Y-113344000D01*
X181864000Y-109034000D02*
X181864000Y-110804000D01*
X174244000Y-109034000D02*
X174624000Y-109034000D01*
X174244000Y-110804000D02*
X174244000Y-109034000D01*
X174244000Y-113344000D02*
X174244000Y-113084000D01*
X181070000Y-89940000D02*
X181070000Y-90270000D01*
X181070000Y-90270000D02*
X174530000Y-90270000D01*
X174530000Y-90270000D02*
X174530000Y-89940000D01*
X181070000Y-87860000D02*
X181070000Y-87530000D01*
X181070000Y-87530000D02*
X174530000Y-87530000D01*
X174530000Y-87530000D02*
X174530000Y-87860000D01*
X174530000Y-90832000D02*
X174530000Y-91162000D01*
X181070000Y-90832000D02*
X174530000Y-90832000D01*
X181070000Y-91162000D02*
X181070000Y-90832000D01*
X174530000Y-93572000D02*
X174530000Y-93242000D01*
X181070000Y-93572000D02*
X174530000Y-93572000D01*
X181070000Y-93242000D02*
X181070000Y-93572000D01*
X172112000Y-102330000D02*
X172442000Y-102330000D01*
X172112000Y-95790000D02*
X172112000Y-102330000D01*
X172442000Y-95790000D02*
X172112000Y-95790000D01*
X174852000Y-102330000D02*
X174522000Y-102330000D01*
X174852000Y-95790000D02*
X174852000Y-102330000D01*
X174522000Y-95790000D02*
X174852000Y-95790000D01*
X162846000Y-90070000D02*
X162846000Y-90400000D01*
X169386000Y-90070000D02*
X162846000Y-90070000D01*
X169386000Y-90400000D02*
X169386000Y-90070000D01*
X162846000Y-92810000D02*
X162846000Y-92480000D01*
X169386000Y-92810000D02*
X162846000Y-92810000D01*
X169386000Y-92480000D02*
X169386000Y-92810000D01*
X121806000Y-108025500D02*
X121806000Y-109225500D01*
X123006000Y-108025500D02*
X121806000Y-108025500D01*
X131306000Y-112525500D02*
X130106000Y-112525500D01*
X131306000Y-108325500D02*
X131306000Y-112525500D01*
X130106000Y-108325500D02*
X131306000Y-108325500D01*
X122106000Y-112525500D02*
X123306000Y-112525500D01*
X122106000Y-108325500D02*
X122106000Y-112525500D01*
X123306000Y-108325500D02*
X122106000Y-108325500D01*
X165116000Y-104200000D02*
G75*
G02X167116000Y-104200000I1000000J0D01*
G01*
X167116000Y-104200000D02*
X168766000Y-104200000D01*
X168766000Y-104200000D02*
X168766000Y-93920000D01*
X168766000Y-93920000D02*
X163466000Y-93920000D01*
X163466000Y-93920000D02*
X163466000Y-104200000D01*
X163466000Y-104200000D02*
X165116000Y-104200000D01*
X175489500Y-96895000D02*
X175489500Y-97260000D01*
X176339500Y-101225000D02*
X175489500Y-101225000D01*
X175489500Y-96895000D02*
X176339500Y-96895000D01*
X177249500Y-98320000D02*
X177249500Y-98530000D01*
X175489500Y-98320000D02*
X175489500Y-98530000D01*
D10*
X131381500Y-82804000D02*
X138493500Y-82804000D01*
X131381500Y-86614000D02*
X131381500Y-82804000D01*
X138493500Y-86614000D02*
X131381500Y-86614000D01*
X138493500Y-82804000D02*
X138493500Y-86614000D01*
X131318000Y-115316000D02*
X131318000Y-111506000D01*
X131318000Y-111506000D02*
X138430000Y-111506000D01*
X138430000Y-111506000D02*
X138430000Y-115316000D01*
X138430000Y-115316000D02*
X131318000Y-115316000D01*
D12*
G36*
X135250964Y-73744018D02*
G01*
X135307812Y-74045570D01*
X135727338Y-74218512D01*
X135978984Y-74047395D01*
X136049458Y-73999750D01*
X136113163Y-73957210D01*
X136167126Y-73921715D01*
X136208373Y-73895210D01*
X136233934Y-73879636D01*
X136240895Y-73876278D01*
X136253435Y-73884914D01*
X136280231Y-73908792D01*
X136318280Y-73944859D01*
X136364579Y-73990067D01*
X136416123Y-74041364D01*
X136469909Y-74095701D01*
X136522935Y-74150028D01*
X136572195Y-74201295D01*
X136614687Y-74246451D01*
X136647407Y-74282446D01*
X136667351Y-74306230D01*
X136672119Y-74314190D01*
X136665257Y-74328865D01*
X136646020Y-74361014D01*
X136616430Y-74407492D01*
X136578510Y-74465156D01*
X136534282Y-74530860D01*
X136508654Y-74568336D01*
X136461941Y-74636768D01*
X136420432Y-74698520D01*
X136386140Y-74750519D01*
X136361080Y-74789692D01*
X136347264Y-74812965D01*
X136345188Y-74817855D01*
X136349895Y-74831755D01*
X136362723Y-74864150D01*
X136381738Y-74910485D01*
X136405003Y-74966206D01*
X136430584Y-75026758D01*
X136456545Y-75087586D01*
X136480950Y-75144136D01*
X136501863Y-75191852D01*
X136517349Y-75226181D01*
X136525472Y-75242568D01*
X136525952Y-75243212D01*
X136538707Y-75246341D01*
X136572677Y-75253321D01*
X136624340Y-75263467D01*
X136690176Y-75276092D01*
X136766664Y-75290509D01*
X136811290Y-75298823D01*
X136893021Y-75314384D01*
X136966843Y-75329192D01*
X137029021Y-75342436D01*
X137075822Y-75353305D01*
X137103509Y-75360989D01*
X137109074Y-75363427D01*
X137114526Y-75379930D01*
X137118924Y-75417200D01*
X137122272Y-75470880D01*
X137124574Y-75536612D01*
X137125832Y-75610037D01*
X137126048Y-75686796D01*
X137125227Y-75762532D01*
X137123371Y-75832886D01*
X137120482Y-75893500D01*
X137116565Y-75940016D01*
X137111622Y-75968075D01*
X137108657Y-75973916D01*
X137090934Y-75980917D01*
X137053381Y-75990927D01*
X137000964Y-76002769D01*
X136938652Y-76015267D01*
X136916900Y-76019310D01*
X136812024Y-76038520D01*
X136729180Y-76053991D01*
X136665630Y-76066337D01*
X136618637Y-76076173D01*
X136585463Y-76084114D01*
X136563371Y-76090776D01*
X136549624Y-76096773D01*
X136541484Y-76102719D01*
X136540345Y-76103894D01*
X136528977Y-76122826D01*
X136511635Y-76159669D01*
X136490050Y-76209913D01*
X136465954Y-76269046D01*
X136441079Y-76332556D01*
X136417157Y-76395932D01*
X136395919Y-76454662D01*
X136379097Y-76504235D01*
X136368422Y-76540139D01*
X136365627Y-76557862D01*
X136365860Y-76558483D01*
X136375331Y-76572970D01*
X136396818Y-76604844D01*
X136428063Y-76650789D01*
X136466807Y-76707485D01*
X136510793Y-76771617D01*
X136523319Y-76789842D01*
X136567984Y-76855914D01*
X136607288Y-76916200D01*
X136639088Y-76967235D01*
X136661245Y-77005560D01*
X136671617Y-77027711D01*
X136672119Y-77030432D01*
X136663405Y-77044736D01*
X136639325Y-77073072D01*
X136602976Y-77112396D01*
X136557453Y-77159661D01*
X136505852Y-77211823D01*
X136451267Y-77265835D01*
X136396794Y-77318653D01*
X136345529Y-77367231D01*
X136300567Y-77408523D01*
X136265004Y-77439485D01*
X136241935Y-77457070D01*
X136235554Y-77459941D01*
X136220699Y-77453178D01*
X136190286Y-77434939D01*
X136149268Y-77408297D01*
X136117709Y-77386852D01*
X136060525Y-77347503D01*
X135992806Y-77301171D01*
X135924880Y-77254913D01*
X135888361Y-77230155D01*
X135764752Y-77146547D01*
X135660991Y-77202650D01*
X135613720Y-77227228D01*
X135573523Y-77246331D01*
X135546326Y-77257227D01*
X135539402Y-77258743D01*
X135531077Y-77247549D01*
X135514654Y-77215917D01*
X135491357Y-77166765D01*
X135462414Y-77103010D01*
X135429050Y-77027571D01*
X135392491Y-76943364D01*
X135353964Y-76853308D01*
X135314694Y-76760321D01*
X135275908Y-76667320D01*
X135238830Y-76577223D01*
X135204689Y-76492948D01*
X135174708Y-76417413D01*
X135150116Y-76353534D01*
X135132136Y-76304231D01*
X135121997Y-76272421D01*
X135120366Y-76261496D01*
X135133291Y-76247561D01*
X135161589Y-76224940D01*
X135199346Y-76198333D01*
X135202515Y-76196228D01*
X135300100Y-76118114D01*
X135378786Y-76026982D01*
X135437891Y-75925745D01*
X135476732Y-75817318D01*
X135494628Y-75704614D01*
X135490897Y-75590548D01*
X135464857Y-75478034D01*
X135415825Y-75369985D01*
X135401400Y-75346345D01*
X135326369Y-75250887D01*
X135237730Y-75174232D01*
X135138549Y-75116780D01*
X135031895Y-75078929D01*
X134920836Y-75061078D01*
X134808439Y-75063625D01*
X134697773Y-75086970D01*
X134591906Y-75131510D01*
X134493905Y-75197645D01*
X134463590Y-75224487D01*
X134386438Y-75308512D01*
X134330218Y-75396966D01*
X134291653Y-75496115D01*
X134270174Y-75594303D01*
X134264872Y-75704697D01*
X134282552Y-75815640D01*
X134321419Y-75923381D01*
X134379677Y-76024169D01*
X134455531Y-76114256D01*
X134547183Y-76189892D01*
X134559228Y-76197864D01*
X134597389Y-76223974D01*
X134626399Y-76246595D01*
X134640268Y-76261039D01*
X134640469Y-76261496D01*
X134637492Y-76277121D01*
X134625689Y-76312582D01*
X134606286Y-76364962D01*
X134580512Y-76431345D01*
X134549591Y-76508814D01*
X134514751Y-76594450D01*
X134477217Y-76685337D01*
X134438217Y-76778559D01*
X134398977Y-76871197D01*
X134360724Y-76960335D01*
X134324683Y-77043055D01*
X134292083Y-77116441D01*
X134264148Y-77177575D01*
X134242105Y-77223541D01*
X134227182Y-77251421D01*
X134221172Y-77258743D01*
X134202809Y-77253041D01*
X134168448Y-77237749D01*
X134124016Y-77215599D01*
X134099583Y-77202650D01*
X133995822Y-77146547D01*
X133872213Y-77230155D01*
X133809114Y-77272987D01*
X133740030Y-77320122D01*
X133675293Y-77364503D01*
X133642866Y-77386852D01*
X133597259Y-77417477D01*
X133558640Y-77441747D01*
X133532048Y-77456587D01*
X133523410Y-77459724D01*
X133510839Y-77451261D01*
X133483016Y-77427636D01*
X133442639Y-77391302D01*
X133392405Y-77344711D01*
X133335012Y-77290317D01*
X133298714Y-77255392D01*
X133235210Y-77192996D01*
X133180327Y-77137188D01*
X133136286Y-77090354D01*
X133105305Y-77054882D01*
X133089602Y-77033161D01*
X133088095Y-77028752D01*
X133095086Y-77011985D01*
X133114406Y-76978082D01*
X133143909Y-76930476D01*
X133181455Y-76872599D01*
X133224900Y-76807884D01*
X133237255Y-76789842D01*
X133282273Y-76724267D01*
X133322660Y-76665228D01*
X133356160Y-76616042D01*
X133380514Y-76580028D01*
X133393464Y-76560502D01*
X133394715Y-76558483D01*
X133392844Y-76542922D01*
X133382913Y-76508709D01*
X133366653Y-76460355D01*
X133345795Y-76402371D01*
X133322073Y-76339270D01*
X133297216Y-76275563D01*
X133272958Y-76215761D01*
X133251029Y-76164376D01*
X133233162Y-76125919D01*
X133221087Y-76104902D01*
X133220229Y-76103894D01*
X133212846Y-76097888D01*
X133200375Y-76091948D01*
X133180080Y-76085460D01*
X133149222Y-76077809D01*
X133105066Y-76068380D01*
X133044874Y-76056559D01*
X132965907Y-76041729D01*
X132865430Y-76023277D01*
X132843675Y-76019310D01*
X132779198Y-76006853D01*
X132722989Y-75994666D01*
X132680013Y-75983926D01*
X132655240Y-75975809D01*
X132651918Y-75973916D01*
X132646444Y-75957138D01*
X132641994Y-75919645D01*
X132638572Y-75865794D01*
X132636181Y-75799944D01*
X132634823Y-75726453D01*
X132634501Y-75649680D01*
X132635219Y-75573983D01*
X132636979Y-75503720D01*
X132639784Y-75443250D01*
X132643638Y-75396930D01*
X132648543Y-75369119D01*
X132651500Y-75363427D01*
X132667963Y-75357686D01*
X132705449Y-75348345D01*
X132760225Y-75336215D01*
X132828555Y-75322107D01*
X132906706Y-75306830D01*
X132949284Y-75298823D01*
X133030071Y-75283721D01*
X133102113Y-75270040D01*
X133161889Y-75258467D01*
X133205879Y-75249687D01*
X133230561Y-75244387D01*
X133234623Y-75243212D01*
X133241489Y-75229965D01*
X133256002Y-75198057D01*
X133276229Y-75152047D01*
X133300234Y-75096492D01*
X133326082Y-75035953D01*
X133351840Y-74974986D01*
X133375573Y-74918151D01*
X133395346Y-74870006D01*
X133409224Y-74835110D01*
X133415274Y-74818021D01*
X133415386Y-74817274D01*
X133408528Y-74803793D01*
X133389302Y-74772770D01*
X133359728Y-74727289D01*
X133321827Y-74670432D01*
X133277620Y-74605283D01*
X133251921Y-74567862D01*
X133205093Y-74499247D01*
X133163501Y-74436952D01*
X133129175Y-74384129D01*
X133104143Y-74343927D01*
X133090435Y-74319500D01*
X133088456Y-74314024D01*
X133096966Y-74301278D01*
X133120493Y-74274063D01*
X133156032Y-74235428D01*
X133200577Y-74188423D01*
X133251123Y-74136095D01*
X133304664Y-74081495D01*
X133358195Y-74027670D01*
X133408711Y-73977670D01*
X133453206Y-73934543D01*
X133488675Y-73901339D01*
X133512113Y-73881106D01*
X133519954Y-73876278D01*
X133532720Y-73883067D01*
X133563256Y-73902142D01*
X133608590Y-73931561D01*
X133665756Y-73969381D01*
X133731784Y-74013661D01*
X133781590Y-74047395D01*
X134033236Y-74218512D01*
X134242999Y-74132041D01*
X134452763Y-74045570D01*
X134509611Y-73744018D01*
X134566460Y-73442466D01*
X135194115Y-73442466D01*
X135250964Y-73744018D01*
X135250964Y-73744018D01*
G37*
X135250964Y-73744018D02*
X135307812Y-74045570D01*
X135727338Y-74218512D01*
X135978984Y-74047395D01*
X136049458Y-73999750D01*
X136113163Y-73957210D01*
X136167126Y-73921715D01*
X136208373Y-73895210D01*
X136233934Y-73879636D01*
X136240895Y-73876278D01*
X136253435Y-73884914D01*
X136280231Y-73908792D01*
X136318280Y-73944859D01*
X136364579Y-73990067D01*
X136416123Y-74041364D01*
X136469909Y-74095701D01*
X136522935Y-74150028D01*
X136572195Y-74201295D01*
X136614687Y-74246451D01*
X136647407Y-74282446D01*
X136667351Y-74306230D01*
X136672119Y-74314190D01*
X136665257Y-74328865D01*
X136646020Y-74361014D01*
X136616430Y-74407492D01*
X136578510Y-74465156D01*
X136534282Y-74530860D01*
X136508654Y-74568336D01*
X136461941Y-74636768D01*
X136420432Y-74698520D01*
X136386140Y-74750519D01*
X136361080Y-74789692D01*
X136347264Y-74812965D01*
X136345188Y-74817855D01*
X136349895Y-74831755D01*
X136362723Y-74864150D01*
X136381738Y-74910485D01*
X136405003Y-74966206D01*
X136430584Y-75026758D01*
X136456545Y-75087586D01*
X136480950Y-75144136D01*
X136501863Y-75191852D01*
X136517349Y-75226181D01*
X136525472Y-75242568D01*
X136525952Y-75243212D01*
X136538707Y-75246341D01*
X136572677Y-75253321D01*
X136624340Y-75263467D01*
X136690176Y-75276092D01*
X136766664Y-75290509D01*
X136811290Y-75298823D01*
X136893021Y-75314384D01*
X136966843Y-75329192D01*
X137029021Y-75342436D01*
X137075822Y-75353305D01*
X137103509Y-75360989D01*
X137109074Y-75363427D01*
X137114526Y-75379930D01*
X137118924Y-75417200D01*
X137122272Y-75470880D01*
X137124574Y-75536612D01*
X137125832Y-75610037D01*
X137126048Y-75686796D01*
X137125227Y-75762532D01*
X137123371Y-75832886D01*
X137120482Y-75893500D01*
X137116565Y-75940016D01*
X137111622Y-75968075D01*
X137108657Y-75973916D01*
X137090934Y-75980917D01*
X137053381Y-75990927D01*
X137000964Y-76002769D01*
X136938652Y-76015267D01*
X136916900Y-76019310D01*
X136812024Y-76038520D01*
X136729180Y-76053991D01*
X136665630Y-76066337D01*
X136618637Y-76076173D01*
X136585463Y-76084114D01*
X136563371Y-76090776D01*
X136549624Y-76096773D01*
X136541484Y-76102719D01*
X136540345Y-76103894D01*
X136528977Y-76122826D01*
X136511635Y-76159669D01*
X136490050Y-76209913D01*
X136465954Y-76269046D01*
X136441079Y-76332556D01*
X136417157Y-76395932D01*
X136395919Y-76454662D01*
X136379097Y-76504235D01*
X136368422Y-76540139D01*
X136365627Y-76557862D01*
X136365860Y-76558483D01*
X136375331Y-76572970D01*
X136396818Y-76604844D01*
X136428063Y-76650789D01*
X136466807Y-76707485D01*
X136510793Y-76771617D01*
X136523319Y-76789842D01*
X136567984Y-76855914D01*
X136607288Y-76916200D01*
X136639088Y-76967235D01*
X136661245Y-77005560D01*
X136671617Y-77027711D01*
X136672119Y-77030432D01*
X136663405Y-77044736D01*
X136639325Y-77073072D01*
X136602976Y-77112396D01*
X136557453Y-77159661D01*
X136505852Y-77211823D01*
X136451267Y-77265835D01*
X136396794Y-77318653D01*
X136345529Y-77367231D01*
X136300567Y-77408523D01*
X136265004Y-77439485D01*
X136241935Y-77457070D01*
X136235554Y-77459941D01*
X136220699Y-77453178D01*
X136190286Y-77434939D01*
X136149268Y-77408297D01*
X136117709Y-77386852D01*
X136060525Y-77347503D01*
X135992806Y-77301171D01*
X135924880Y-77254913D01*
X135888361Y-77230155D01*
X135764752Y-77146547D01*
X135660991Y-77202650D01*
X135613720Y-77227228D01*
X135573523Y-77246331D01*
X135546326Y-77257227D01*
X135539402Y-77258743D01*
X135531077Y-77247549D01*
X135514654Y-77215917D01*
X135491357Y-77166765D01*
X135462414Y-77103010D01*
X135429050Y-77027571D01*
X135392491Y-76943364D01*
X135353964Y-76853308D01*
X135314694Y-76760321D01*
X135275908Y-76667320D01*
X135238830Y-76577223D01*
X135204689Y-76492948D01*
X135174708Y-76417413D01*
X135150116Y-76353534D01*
X135132136Y-76304231D01*
X135121997Y-76272421D01*
X135120366Y-76261496D01*
X135133291Y-76247561D01*
X135161589Y-76224940D01*
X135199346Y-76198333D01*
X135202515Y-76196228D01*
X135300100Y-76118114D01*
X135378786Y-76026982D01*
X135437891Y-75925745D01*
X135476732Y-75817318D01*
X135494628Y-75704614D01*
X135490897Y-75590548D01*
X135464857Y-75478034D01*
X135415825Y-75369985D01*
X135401400Y-75346345D01*
X135326369Y-75250887D01*
X135237730Y-75174232D01*
X135138549Y-75116780D01*
X135031895Y-75078929D01*
X134920836Y-75061078D01*
X134808439Y-75063625D01*
X134697773Y-75086970D01*
X134591906Y-75131510D01*
X134493905Y-75197645D01*
X134463590Y-75224487D01*
X134386438Y-75308512D01*
X134330218Y-75396966D01*
X134291653Y-75496115D01*
X134270174Y-75594303D01*
X134264872Y-75704697D01*
X134282552Y-75815640D01*
X134321419Y-75923381D01*
X134379677Y-76024169D01*
X134455531Y-76114256D01*
X134547183Y-76189892D01*
X134559228Y-76197864D01*
X134597389Y-76223974D01*
X134626399Y-76246595D01*
X134640268Y-76261039D01*
X134640469Y-76261496D01*
X134637492Y-76277121D01*
X134625689Y-76312582D01*
X134606286Y-76364962D01*
X134580512Y-76431345D01*
X134549591Y-76508814D01*
X134514751Y-76594450D01*
X134477217Y-76685337D01*
X134438217Y-76778559D01*
X134398977Y-76871197D01*
X134360724Y-76960335D01*
X134324683Y-77043055D01*
X134292083Y-77116441D01*
X134264148Y-77177575D01*
X134242105Y-77223541D01*
X134227182Y-77251421D01*
X134221172Y-77258743D01*
X134202809Y-77253041D01*
X134168448Y-77237749D01*
X134124016Y-77215599D01*
X134099583Y-77202650D01*
X133995822Y-77146547D01*
X133872213Y-77230155D01*
X133809114Y-77272987D01*
X133740030Y-77320122D01*
X133675293Y-77364503D01*
X133642866Y-77386852D01*
X133597259Y-77417477D01*
X133558640Y-77441747D01*
X133532048Y-77456587D01*
X133523410Y-77459724D01*
X133510839Y-77451261D01*
X133483016Y-77427636D01*
X133442639Y-77391302D01*
X133392405Y-77344711D01*
X133335012Y-77290317D01*
X133298714Y-77255392D01*
X133235210Y-77192996D01*
X133180327Y-77137188D01*
X133136286Y-77090354D01*
X133105305Y-77054882D01*
X133089602Y-77033161D01*
X133088095Y-77028752D01*
X133095086Y-77011985D01*
X133114406Y-76978082D01*
X133143909Y-76930476D01*
X133181455Y-76872599D01*
X133224900Y-76807884D01*
X133237255Y-76789842D01*
X133282273Y-76724267D01*
X133322660Y-76665228D01*
X133356160Y-76616042D01*
X133380514Y-76580028D01*
X133393464Y-76560502D01*
X133394715Y-76558483D01*
X133392844Y-76542922D01*
X133382913Y-76508709D01*
X133366653Y-76460355D01*
X133345795Y-76402371D01*
X133322073Y-76339270D01*
X133297216Y-76275563D01*
X133272958Y-76215761D01*
X133251029Y-76164376D01*
X133233162Y-76125919D01*
X133221087Y-76104902D01*
X133220229Y-76103894D01*
X133212846Y-76097888D01*
X133200375Y-76091948D01*
X133180080Y-76085460D01*
X133149222Y-76077809D01*
X133105066Y-76068380D01*
X133044874Y-76056559D01*
X132965907Y-76041729D01*
X132865430Y-76023277D01*
X132843675Y-76019310D01*
X132779198Y-76006853D01*
X132722989Y-75994666D01*
X132680013Y-75983926D01*
X132655240Y-75975809D01*
X132651918Y-75973916D01*
X132646444Y-75957138D01*
X132641994Y-75919645D01*
X132638572Y-75865794D01*
X132636181Y-75799944D01*
X132634823Y-75726453D01*
X132634501Y-75649680D01*
X132635219Y-75573983D01*
X132636979Y-75503720D01*
X132639784Y-75443250D01*
X132643638Y-75396930D01*
X132648543Y-75369119D01*
X132651500Y-75363427D01*
X132667963Y-75357686D01*
X132705449Y-75348345D01*
X132760225Y-75336215D01*
X132828555Y-75322107D01*
X132906706Y-75306830D01*
X132949284Y-75298823D01*
X133030071Y-75283721D01*
X133102113Y-75270040D01*
X133161889Y-75258467D01*
X133205879Y-75249687D01*
X133230561Y-75244387D01*
X133234623Y-75243212D01*
X133241489Y-75229965D01*
X133256002Y-75198057D01*
X133276229Y-75152047D01*
X133300234Y-75096492D01*
X133326082Y-75035953D01*
X133351840Y-74974986D01*
X133375573Y-74918151D01*
X133395346Y-74870006D01*
X133409224Y-74835110D01*
X133415274Y-74818021D01*
X133415386Y-74817274D01*
X133408528Y-74803793D01*
X133389302Y-74772770D01*
X133359728Y-74727289D01*
X133321827Y-74670432D01*
X133277620Y-74605283D01*
X133251921Y-74567862D01*
X133205093Y-74499247D01*
X133163501Y-74436952D01*
X133129175Y-74384129D01*
X133104143Y-74343927D01*
X133090435Y-74319500D01*
X133088456Y-74314024D01*
X133096966Y-74301278D01*
X133120493Y-74274063D01*
X133156032Y-74235428D01*
X133200577Y-74188423D01*
X133251123Y-74136095D01*
X133304664Y-74081495D01*
X133358195Y-74027670D01*
X133408711Y-73977670D01*
X133453206Y-73934543D01*
X133488675Y-73901339D01*
X133512113Y-73881106D01*
X133519954Y-73876278D01*
X133532720Y-73883067D01*
X133563256Y-73902142D01*
X133608590Y-73931561D01*
X133665756Y-73969381D01*
X133731784Y-74013661D01*
X133781590Y-74047395D01*
X134033236Y-74218512D01*
X134242999Y-74132041D01*
X134452763Y-74045570D01*
X134509611Y-73744018D01*
X134566460Y-73442466D01*
X135194115Y-73442466D01*
X135250964Y-73744018D01*
G36*
X136673460Y-77912030D02*
G01*
X136716711Y-77925245D01*
X136744558Y-77941941D01*
X136753629Y-77955145D01*
X136751132Y-77970797D01*
X136734931Y-77995385D01*
X136721232Y-78012800D01*
X136692992Y-78044283D01*
X136671775Y-78057529D01*
X136653688Y-78056664D01*
X136600035Y-78043010D01*
X136560630Y-78043630D01*
X136528632Y-78059104D01*
X136517890Y-78068161D01*
X136483505Y-78100027D01*
X136483505Y-78516179D01*
X136345188Y-78516179D01*
X136345188Y-77912614D01*
X136414347Y-77912614D01*
X136455869Y-77914256D01*
X136477291Y-77920087D01*
X136483502Y-77931461D01*
X136483505Y-77931798D01*
X136486439Y-77943713D01*
X136499704Y-77942159D01*
X136518084Y-77933563D01*
X136556046Y-77917568D01*
X136586872Y-77907945D01*
X136626536Y-77905478D01*
X136673460Y-77912030D01*
X136673460Y-77912030D01*
G37*
X136673460Y-77912030D02*
X136716711Y-77925245D01*
X136744558Y-77941941D01*
X136753629Y-77955145D01*
X136751132Y-77970797D01*
X136734931Y-77995385D01*
X136721232Y-78012800D01*
X136692992Y-78044283D01*
X136671775Y-78057529D01*
X136653688Y-78056664D01*
X136600035Y-78043010D01*
X136560630Y-78043630D01*
X136528632Y-78059104D01*
X136517890Y-78068161D01*
X136483505Y-78100027D01*
X136483505Y-78516179D01*
X136345188Y-78516179D01*
X136345188Y-77912614D01*
X136414347Y-77912614D01*
X136455869Y-77914256D01*
X136477291Y-77920087D01*
X136483502Y-77931461D01*
X136483505Y-77931798D01*
X136486439Y-77943713D01*
X136499704Y-77942159D01*
X136518084Y-77933563D01*
X136556046Y-77917568D01*
X136586872Y-77907945D01*
X136626536Y-77905478D01*
X136673460Y-77912030D01*
G36*
X134119988Y-77923002D02*
G01*
X134151283Y-77937950D01*
X134181591Y-77959541D01*
X134204682Y-77984391D01*
X134221500Y-78016087D01*
X134232994Y-78058214D01*
X134240109Y-78114358D01*
X134243793Y-78188106D01*
X134244992Y-78283044D01*
X134245011Y-78292985D01*
X134245287Y-78516179D01*
X134106970Y-78516179D01*
X134106970Y-78310418D01*
X134106872Y-78234189D01*
X134106191Y-78178939D01*
X134104349Y-78140501D01*
X134100767Y-78114706D01*
X134094868Y-78097384D01*
X134086073Y-78084368D01*
X134073820Y-78071507D01*
X134030953Y-78043873D01*
X133984157Y-78038745D01*
X133939576Y-78056217D01*
X133924072Y-78069221D01*
X133912690Y-78081447D01*
X133904519Y-78094540D01*
X133899026Y-78112615D01*
X133895680Y-78139787D01*
X133893949Y-78180170D01*
X133893303Y-78237879D01*
X133893208Y-78308132D01*
X133893208Y-78516179D01*
X133754891Y-78516179D01*
X133754891Y-77912614D01*
X133824050Y-77912614D01*
X133865572Y-77914256D01*
X133886994Y-77920087D01*
X133893205Y-77931461D01*
X133893208Y-77931798D01*
X133896090Y-77942938D01*
X133908801Y-77941674D01*
X133934074Y-77929434D01*
X133991395Y-77911424D01*
X134056963Y-77909421D01*
X134119988Y-77923002D01*
X134119988Y-77923002D01*
G37*
X134119988Y-77923002D02*
X134151283Y-77937950D01*
X134181591Y-77959541D01*
X134204682Y-77984391D01*
X134221500Y-78016087D01*
X134232994Y-78058214D01*
X134240109Y-78114358D01*
X134243793Y-78188106D01*
X134244992Y-78283044D01*
X134245011Y-78292985D01*
X134245287Y-78516179D01*
X134106970Y-78516179D01*
X134106970Y-78310418D01*
X134106872Y-78234189D01*
X134106191Y-78178939D01*
X134104349Y-78140501D01*
X134100767Y-78114706D01*
X134094868Y-78097384D01*
X134086073Y-78084368D01*
X134073820Y-78071507D01*
X134030953Y-78043873D01*
X133984157Y-78038745D01*
X133939576Y-78056217D01*
X133924072Y-78069221D01*
X133912690Y-78081447D01*
X133904519Y-78094540D01*
X133899026Y-78112615D01*
X133895680Y-78139787D01*
X133893949Y-78180170D01*
X133893303Y-78237879D01*
X133893208Y-78308132D01*
X133893208Y-78516179D01*
X133754891Y-78516179D01*
X133754891Y-77912614D01*
X133824050Y-77912614D01*
X133865572Y-77914256D01*
X133886994Y-77920087D01*
X133893205Y-77931461D01*
X133893208Y-77931798D01*
X133896090Y-77942938D01*
X133908801Y-77941674D01*
X133934074Y-77929434D01*
X133991395Y-77911424D01*
X134056963Y-77909421D01*
X134119988Y-77923002D01*
G36*
X137551898Y-77910457D02*
G01*
X137584096Y-77918279D01*
X137645825Y-77946921D01*
X137698610Y-77990667D01*
X137735141Y-78043117D01*
X137740160Y-78054893D01*
X137747045Y-78085740D01*
X137751864Y-78131371D01*
X137753505Y-78177492D01*
X137753505Y-78264693D01*
X137571178Y-78264693D01*
X137495979Y-78264978D01*
X137443003Y-78266704D01*
X137409325Y-78271181D01*
X137392020Y-78279720D01*
X137388163Y-78293630D01*
X137394829Y-78314222D01*
X137406770Y-78338315D01*
X137440080Y-78378525D01*
X137486368Y-78398558D01*
X137542944Y-78397905D01*
X137607031Y-78376101D01*
X137662417Y-78349193D01*
X137708375Y-78385532D01*
X137754333Y-78421872D01*
X137711096Y-78461819D01*
X137653374Y-78499563D01*
X137582386Y-78522320D01*
X137506029Y-78528688D01*
X137432199Y-78517268D01*
X137420287Y-78513393D01*
X137355399Y-78479506D01*
X137307130Y-78428986D01*
X137274465Y-78360325D01*
X137256385Y-78272014D01*
X137256175Y-78270121D01*
X137254556Y-78173878D01*
X137261100Y-78139542D01*
X137388852Y-78139542D01*
X137400584Y-78144822D01*
X137432438Y-78148867D01*
X137479397Y-78151176D01*
X137509154Y-78151525D01*
X137564648Y-78151306D01*
X137599346Y-78149916D01*
X137617601Y-78146251D01*
X137623766Y-78139210D01*
X137622195Y-78127690D01*
X137620878Y-78123233D01*
X137598382Y-78081355D01*
X137563003Y-78047604D01*
X137531780Y-78032773D01*
X137490301Y-78033668D01*
X137448269Y-78052164D01*
X137413012Y-78082786D01*
X137391854Y-78120062D01*
X137388852Y-78139542D01*
X137261100Y-78139542D01*
X137270690Y-78089229D01*
X137302698Y-78018191D01*
X137348701Y-77962779D01*
X137406821Y-77925009D01*
X137475180Y-77906896D01*
X137551898Y-77910457D01*
X137551898Y-77910457D01*
G37*
X137551898Y-77910457D02*
X137584096Y-77918279D01*
X137645825Y-77946921D01*
X137698610Y-77990667D01*
X137735141Y-78043117D01*
X137740160Y-78054893D01*
X137747045Y-78085740D01*
X137751864Y-78131371D01*
X137753505Y-78177492D01*
X137753505Y-78264693D01*
X137571178Y-78264693D01*
X137495979Y-78264978D01*
X137443003Y-78266704D01*
X137409325Y-78271181D01*
X137392020Y-78279720D01*
X137388163Y-78293630D01*
X137394829Y-78314222D01*
X137406770Y-78338315D01*
X137440080Y-78378525D01*
X137486368Y-78398558D01*
X137542944Y-78397905D01*
X137607031Y-78376101D01*
X137662417Y-78349193D01*
X137708375Y-78385532D01*
X137754333Y-78421872D01*
X137711096Y-78461819D01*
X137653374Y-78499563D01*
X137582386Y-78522320D01*
X137506029Y-78528688D01*
X137432199Y-78517268D01*
X137420287Y-78513393D01*
X137355399Y-78479506D01*
X137307130Y-78428986D01*
X137274465Y-78360325D01*
X137256385Y-78272014D01*
X137256175Y-78270121D01*
X137254556Y-78173878D01*
X137261100Y-78139542D01*
X137388852Y-78139542D01*
X137400584Y-78144822D01*
X137432438Y-78148867D01*
X137479397Y-78151176D01*
X137509154Y-78151525D01*
X137564648Y-78151306D01*
X137599346Y-78149916D01*
X137617601Y-78146251D01*
X137623766Y-78139210D01*
X137622195Y-78127690D01*
X137620878Y-78123233D01*
X137598382Y-78081355D01*
X137563003Y-78047604D01*
X137531780Y-78032773D01*
X137490301Y-78033668D01*
X137448269Y-78052164D01*
X137413012Y-78082786D01*
X137391854Y-78120062D01*
X137388852Y-78139542D01*
X137261100Y-78139542D01*
X137270690Y-78089229D01*
X137302698Y-78018191D01*
X137348701Y-77962779D01*
X137406821Y-77925009D01*
X137475180Y-77906896D01*
X137551898Y-77910457D01*
G36*
X137091226Y-77917880D02*
G01*
X137164080Y-77948830D01*
X137187027Y-77963895D01*
X137216354Y-77987048D01*
X137234764Y-78005253D01*
X137237961Y-78011183D01*
X137228935Y-78024340D01*
X137205837Y-78046667D01*
X137187344Y-78062250D01*
X137136728Y-78102926D01*
X137096760Y-78069295D01*
X137065874Y-78047584D01*
X137035759Y-78040090D01*
X137001292Y-78041920D01*
X136946561Y-78055528D01*
X136908886Y-78083772D01*
X136885991Y-78129433D01*
X136875597Y-78195289D01*
X136875595Y-78195331D01*
X136876494Y-78268939D01*
X136890463Y-78322946D01*
X136918328Y-78359716D01*
X136937325Y-78372168D01*
X136987776Y-78387673D01*
X137041663Y-78387683D01*
X137088546Y-78372638D01*
X137099644Y-78365287D01*
X137127476Y-78346511D01*
X137149236Y-78343434D01*
X137172704Y-78357409D01*
X137198649Y-78382510D01*
X137239716Y-78424880D01*
X137194121Y-78462464D01*
X137123674Y-78504882D01*
X137044233Y-78525785D01*
X136961215Y-78524272D01*
X136906694Y-78510411D01*
X136842970Y-78476135D01*
X136792005Y-78422212D01*
X136768851Y-78384149D01*
X136750099Y-78329536D01*
X136740715Y-78260369D01*
X136740643Y-78185407D01*
X136749824Y-78113409D01*
X136768199Y-78053137D01*
X136771093Y-78046958D01*
X136813952Y-77986351D01*
X136871979Y-77942224D01*
X136940591Y-77915493D01*
X137015201Y-77907073D01*
X137091226Y-77917880D01*
X137091226Y-77917880D01*
G37*
X137091226Y-77917880D02*
X137164080Y-77948830D01*
X137187027Y-77963895D01*
X137216354Y-77987048D01*
X137234764Y-78005253D01*
X137237961Y-78011183D01*
X137228935Y-78024340D01*
X137205837Y-78046667D01*
X137187344Y-78062250D01*
X137136728Y-78102926D01*
X137096760Y-78069295D01*
X137065874Y-78047584D01*
X137035759Y-78040090D01*
X137001292Y-78041920D01*
X136946561Y-78055528D01*
X136908886Y-78083772D01*
X136885991Y-78129433D01*
X136875597Y-78195289D01*
X136875595Y-78195331D01*
X136876494Y-78268939D01*
X136890463Y-78322946D01*
X136918328Y-78359716D01*
X136937325Y-78372168D01*
X136987776Y-78387673D01*
X137041663Y-78387683D01*
X137088546Y-78372638D01*
X137099644Y-78365287D01*
X137127476Y-78346511D01*
X137149236Y-78343434D01*
X137172704Y-78357409D01*
X137198649Y-78382510D01*
X137239716Y-78424880D01*
X137194121Y-78462464D01*
X137123674Y-78504882D01*
X137044233Y-78525785D01*
X136961215Y-78524272D01*
X136906694Y-78510411D01*
X136842970Y-78476135D01*
X136792005Y-78422212D01*
X136768851Y-78384149D01*
X136750099Y-78329536D01*
X136740715Y-78260369D01*
X136740643Y-78185407D01*
X136749824Y-78113409D01*
X136768199Y-78053137D01*
X136771093Y-78046958D01*
X136813952Y-77986351D01*
X136871979Y-77942224D01*
X136940591Y-77915493D01*
X137015201Y-77907073D01*
X137091226Y-77917880D01*
G36*
X135867367Y-78108342D02*
G01*
X135868555Y-78200563D01*
X135872897Y-78270610D01*
X135881558Y-78321381D01*
X135895704Y-78355772D01*
X135916500Y-78376679D01*
X135945110Y-78387000D01*
X135980535Y-78389636D01*
X136017636Y-78386682D01*
X136045818Y-78375889D01*
X136066243Y-78354360D01*
X136080079Y-78319199D01*
X136088491Y-78267510D01*
X136092643Y-78196394D01*
X136093703Y-78108342D01*
X136093703Y-77912614D01*
X136232020Y-77912614D01*
X136232020Y-78516179D01*
X136162862Y-78516179D01*
X136121170Y-78514489D01*
X136099701Y-78508556D01*
X136093703Y-78497293D01*
X136090091Y-78487261D01*
X136075714Y-78489383D01*
X136046736Y-78503580D01*
X135980319Y-78525480D01*
X135909875Y-78523928D01*
X135842377Y-78500147D01*
X135810233Y-78481362D01*
X135785715Y-78461022D01*
X135767804Y-78435573D01*
X135755479Y-78401458D01*
X135747723Y-78355121D01*
X135743516Y-78293007D01*
X135741840Y-78211561D01*
X135741624Y-78148578D01*
X135741624Y-77912614D01*
X135867367Y-77912614D01*
X135867367Y-78108342D01*
X135867367Y-78108342D01*
G37*
X135867367Y-78108342D02*
X135868555Y-78200563D01*
X135872897Y-78270610D01*
X135881558Y-78321381D01*
X135895704Y-78355772D01*
X135916500Y-78376679D01*
X135945110Y-78387000D01*
X135980535Y-78389636D01*
X136017636Y-78386682D01*
X136045818Y-78375889D01*
X136066243Y-78354360D01*
X136080079Y-78319199D01*
X136088491Y-78267510D01*
X136092643Y-78196394D01*
X136093703Y-78108342D01*
X136093703Y-77912614D01*
X136232020Y-77912614D01*
X136232020Y-78516179D01*
X136162862Y-78516179D01*
X136121170Y-78514489D01*
X136099701Y-78508556D01*
X136093703Y-78497293D01*
X136090091Y-78487261D01*
X136075714Y-78489383D01*
X136046736Y-78503580D01*
X135980319Y-78525480D01*
X135909875Y-78523928D01*
X135842377Y-78500147D01*
X135810233Y-78481362D01*
X135785715Y-78461022D01*
X135767804Y-78435573D01*
X135755479Y-78401458D01*
X135747723Y-78355121D01*
X135743516Y-78293007D01*
X135741840Y-78211561D01*
X135741624Y-78148578D01*
X135741624Y-77912614D01*
X135867367Y-77912614D01*
X135867367Y-78108342D01*
G36*
X135484762Y-77920055D02*
G01*
X135548363Y-77954692D01*
X135598123Y-78009372D01*
X135621568Y-78053842D01*
X135631634Y-78093121D01*
X135638156Y-78149116D01*
X135640951Y-78213621D01*
X135639836Y-78278429D01*
X135634626Y-78335334D01*
X135628541Y-78365727D01*
X135608014Y-78407306D01*
X135572463Y-78451468D01*
X135529619Y-78490087D01*
X135487211Y-78515034D01*
X135486177Y-78515430D01*
X135433553Y-78526331D01*
X135371188Y-78526601D01*
X135311924Y-78516676D01*
X135289040Y-78508722D01*
X135230102Y-78475300D01*
X135187890Y-78431511D01*
X135160156Y-78373538D01*
X135144651Y-78297565D01*
X135141143Y-78257771D01*
X135141590Y-78207766D01*
X135276376Y-78207766D01*
X135280917Y-78280732D01*
X135293986Y-78336334D01*
X135314756Y-78371861D01*
X135329552Y-78382020D01*
X135367464Y-78389104D01*
X135412527Y-78387007D01*
X135451487Y-78376812D01*
X135461704Y-78371204D01*
X135488659Y-78338538D01*
X135506451Y-78288545D01*
X135514024Y-78227705D01*
X135510325Y-78162497D01*
X135502057Y-78123253D01*
X135478320Y-78077805D01*
X135440849Y-78049396D01*
X135395720Y-78039573D01*
X135349011Y-78049887D01*
X135313132Y-78075112D01*
X135294277Y-78095925D01*
X135283272Y-78116439D01*
X135278026Y-78144203D01*
X135276449Y-78186762D01*
X135276376Y-78207766D01*
X135141590Y-78207766D01*
X135142094Y-78151580D01*
X135159388Y-78064501D01*
X135193029Y-77996530D01*
X135243018Y-77947664D01*
X135309356Y-77917899D01*
X135323601Y-77914448D01*
X135409210Y-77906345D01*
X135484762Y-77920055D01*
X135484762Y-77920055D01*
G37*
X135484762Y-77920055D02*
X135548363Y-77954692D01*
X135598123Y-78009372D01*
X135621568Y-78053842D01*
X135631634Y-78093121D01*
X135638156Y-78149116D01*
X135640951Y-78213621D01*
X135639836Y-78278429D01*
X135634626Y-78335334D01*
X135628541Y-78365727D01*
X135608014Y-78407306D01*
X135572463Y-78451468D01*
X135529619Y-78490087D01*
X135487211Y-78515034D01*
X135486177Y-78515430D01*
X135433553Y-78526331D01*
X135371188Y-78526601D01*
X135311924Y-78516676D01*
X135289040Y-78508722D01*
X135230102Y-78475300D01*
X135187890Y-78431511D01*
X135160156Y-78373538D01*
X135144651Y-78297565D01*
X135141143Y-78257771D01*
X135141590Y-78207766D01*
X135276376Y-78207766D01*
X135280917Y-78280732D01*
X135293986Y-78336334D01*
X135314756Y-78371861D01*
X135329552Y-78382020D01*
X135367464Y-78389104D01*
X135412527Y-78387007D01*
X135451487Y-78376812D01*
X135461704Y-78371204D01*
X135488659Y-78338538D01*
X135506451Y-78288545D01*
X135514024Y-78227705D01*
X135510325Y-78162497D01*
X135502057Y-78123253D01*
X135478320Y-78077805D01*
X135440849Y-78049396D01*
X135395720Y-78039573D01*
X135349011Y-78049887D01*
X135313132Y-78075112D01*
X135294277Y-78095925D01*
X135283272Y-78116439D01*
X135278026Y-78144203D01*
X135276449Y-78186762D01*
X135276376Y-78207766D01*
X135141590Y-78207766D01*
X135142094Y-78151580D01*
X135159388Y-78064501D01*
X135193029Y-77996530D01*
X135243018Y-77947664D01*
X135309356Y-77917899D01*
X135323601Y-77914448D01*
X135409210Y-77906345D01*
X135484762Y-77920055D01*
G36*
X134888017Y-77910452D02*
G01*
X134935634Y-77919482D01*
X134985034Y-77938370D01*
X134990312Y-77940777D01*
X135027774Y-77960476D01*
X135053717Y-77978781D01*
X135062103Y-77990508D01*
X135054117Y-78009632D01*
X135034720Y-78037850D01*
X135026110Y-78048384D01*
X134990628Y-78089847D01*
X134944885Y-78062858D01*
X134901350Y-78044878D01*
X134851050Y-78035267D01*
X134802812Y-78034660D01*
X134765467Y-78043691D01*
X134756505Y-78049327D01*
X134739437Y-78075171D01*
X134737363Y-78104941D01*
X134750134Y-78128197D01*
X134757688Y-78132708D01*
X134780325Y-78138309D01*
X134820115Y-78144892D01*
X134869166Y-78151183D01*
X134878215Y-78152170D01*
X134956996Y-78165798D01*
X135014136Y-78188946D01*
X135052030Y-78223752D01*
X135073079Y-78272354D01*
X135079635Y-78331718D01*
X135070577Y-78399198D01*
X135041164Y-78452188D01*
X134991278Y-78490783D01*
X134920800Y-78515081D01*
X134842565Y-78524667D01*
X134778766Y-78524552D01*
X134727016Y-78515845D01*
X134691673Y-78503825D01*
X134647017Y-78482880D01*
X134605747Y-78458574D01*
X134591079Y-78447876D01*
X134553357Y-78417084D01*
X134598852Y-78371049D01*
X134644347Y-78325013D01*
X134696072Y-78359243D01*
X134747952Y-78384952D01*
X134803351Y-78398399D01*
X134856605Y-78399818D01*
X134902049Y-78389443D01*
X134934016Y-78367507D01*
X134944338Y-78348998D01*
X134942789Y-78319314D01*
X134917140Y-78296615D01*
X134867460Y-78280940D01*
X134813031Y-78273695D01*
X134729264Y-78259873D01*
X134667033Y-78233796D01*
X134625507Y-78194699D01*
X134603853Y-78141820D01*
X134600853Y-78079126D01*
X134615671Y-78013642D01*
X134649454Y-77964144D01*
X134702505Y-77930408D01*
X134775126Y-77912207D01*
X134828928Y-77908639D01*
X134888017Y-77910452D01*
X134888017Y-77910452D01*
G37*
X134888017Y-77910452D02*
X134935634Y-77919482D01*
X134985034Y-77938370D01*
X134990312Y-77940777D01*
X135027774Y-77960476D01*
X135053717Y-77978781D01*
X135062103Y-77990508D01*
X135054117Y-78009632D01*
X135034720Y-78037850D01*
X135026110Y-78048384D01*
X134990628Y-78089847D01*
X134944885Y-78062858D01*
X134901350Y-78044878D01*
X134851050Y-78035267D01*
X134802812Y-78034660D01*
X134765467Y-78043691D01*
X134756505Y-78049327D01*
X134739437Y-78075171D01*
X134737363Y-78104941D01*
X134750134Y-78128197D01*
X134757688Y-78132708D01*
X134780325Y-78138309D01*
X134820115Y-78144892D01*
X134869166Y-78151183D01*
X134878215Y-78152170D01*
X134956996Y-78165798D01*
X135014136Y-78188946D01*
X135052030Y-78223752D01*
X135073079Y-78272354D01*
X135079635Y-78331718D01*
X135070577Y-78399198D01*
X135041164Y-78452188D01*
X134991278Y-78490783D01*
X134920800Y-78515081D01*
X134842565Y-78524667D01*
X134778766Y-78524552D01*
X134727016Y-78515845D01*
X134691673Y-78503825D01*
X134647017Y-78482880D01*
X134605747Y-78458574D01*
X134591079Y-78447876D01*
X134553357Y-78417084D01*
X134598852Y-78371049D01*
X134644347Y-78325013D01*
X134696072Y-78359243D01*
X134747952Y-78384952D01*
X134803351Y-78398399D01*
X134856605Y-78399818D01*
X134902049Y-78389443D01*
X134934016Y-78367507D01*
X134944338Y-78348998D01*
X134942789Y-78319314D01*
X134917140Y-78296615D01*
X134867460Y-78280940D01*
X134813031Y-78273695D01*
X134729264Y-78259873D01*
X134667033Y-78233796D01*
X134625507Y-78194699D01*
X134603853Y-78141820D01*
X134600853Y-78079126D01*
X134615671Y-78013642D01*
X134649454Y-77964144D01*
X134702505Y-77930408D01*
X134775126Y-77912207D01*
X134828928Y-77908639D01*
X134888017Y-77910452D01*
G36*
X133517301Y-77926614D02*
G01*
X133529832Y-77932514D01*
X133573201Y-77964283D01*
X133614210Y-78010646D01*
X133644832Y-78061696D01*
X133653541Y-78085166D01*
X133661488Y-78127091D01*
X133666226Y-78177757D01*
X133666801Y-78198679D01*
X133666871Y-78264693D01*
X133286917Y-78264693D01*
X133295017Y-78299273D01*
X133314896Y-78340170D01*
X133349653Y-78375514D01*
X133391002Y-78398282D01*
X133417351Y-78403010D01*
X133453084Y-78397273D01*
X133495718Y-78382882D01*
X133510201Y-78376262D01*
X133563760Y-78349513D01*
X133609467Y-78384376D01*
X133635842Y-78407955D01*
X133649876Y-78427417D01*
X133650586Y-78433129D01*
X133638049Y-78446973D01*
X133610572Y-78468012D01*
X133585634Y-78484425D01*
X133518336Y-78513930D01*
X133442890Y-78527284D01*
X133368112Y-78523812D01*
X133308505Y-78505663D01*
X133247059Y-78466784D01*
X133203392Y-78415595D01*
X133176074Y-78349367D01*
X133163678Y-78265371D01*
X133162579Y-78226936D01*
X133166978Y-78138861D01*
X133167518Y-78136299D01*
X133293418Y-78136299D01*
X133296885Y-78144558D01*
X133311137Y-78149113D01*
X133340530Y-78151065D01*
X133389425Y-78151517D01*
X133408252Y-78151525D01*
X133465533Y-78150843D01*
X133501859Y-78148364D01*
X133521396Y-78143443D01*
X133528310Y-78135434D01*
X133528555Y-78132862D01*
X133520664Y-78112423D01*
X133500915Y-78083789D01*
X133492425Y-78073763D01*
X133460906Y-78045408D01*
X133428051Y-78034259D01*
X133410349Y-78033327D01*
X133362461Y-78044981D01*
X133322301Y-78076285D01*
X133296827Y-78121752D01*
X133296375Y-78123233D01*
X133293418Y-78136299D01*
X133167518Y-78136299D01*
X133181608Y-78069510D01*
X133207962Y-78014025D01*
X133240193Y-77974639D01*
X133299783Y-77931931D01*
X133369832Y-77909109D01*
X133444339Y-77907046D01*
X133517301Y-77926614D01*
X133517301Y-77926614D01*
G37*
X133517301Y-77926614D02*
X133529832Y-77932514D01*
X133573201Y-77964283D01*
X133614210Y-78010646D01*
X133644832Y-78061696D01*
X133653541Y-78085166D01*
X133661488Y-78127091D01*
X133666226Y-78177757D01*
X133666801Y-78198679D01*
X133666871Y-78264693D01*
X133286917Y-78264693D01*
X133295017Y-78299273D01*
X133314896Y-78340170D01*
X133349653Y-78375514D01*
X133391002Y-78398282D01*
X133417351Y-78403010D01*
X133453084Y-78397273D01*
X133495718Y-78382882D01*
X133510201Y-78376262D01*
X133563760Y-78349513D01*
X133609467Y-78384376D01*
X133635842Y-78407955D01*
X133649876Y-78427417D01*
X133650586Y-78433129D01*
X133638049Y-78446973D01*
X133610572Y-78468012D01*
X133585634Y-78484425D01*
X133518336Y-78513930D01*
X133442890Y-78527284D01*
X133368112Y-78523812D01*
X133308505Y-78505663D01*
X133247059Y-78466784D01*
X133203392Y-78415595D01*
X133176074Y-78349367D01*
X133163678Y-78265371D01*
X133162579Y-78226936D01*
X133166978Y-78138861D01*
X133167518Y-78136299D01*
X133293418Y-78136299D01*
X133296885Y-78144558D01*
X133311137Y-78149113D01*
X133340530Y-78151065D01*
X133389425Y-78151517D01*
X133408252Y-78151525D01*
X133465533Y-78150843D01*
X133501859Y-78148364D01*
X133521396Y-78143443D01*
X133528310Y-78135434D01*
X133528555Y-78132862D01*
X133520664Y-78112423D01*
X133500915Y-78083789D01*
X133492425Y-78073763D01*
X133460906Y-78045408D01*
X133428051Y-78034259D01*
X133410349Y-78033327D01*
X133362461Y-78044981D01*
X133322301Y-78076285D01*
X133296827Y-78121752D01*
X133296375Y-78123233D01*
X133293418Y-78136299D01*
X133167518Y-78136299D01*
X133181608Y-78069510D01*
X133207962Y-78014025D01*
X133240193Y-77974639D01*
X133299783Y-77931931D01*
X133369832Y-77909109D01*
X133444339Y-77907046D01*
X133517301Y-77926614D01*
G36*
X132335739Y-77919148D02*
G01*
X132401521Y-77948231D01*
X132451460Y-77996793D01*
X132485626Y-78064908D01*
X132504093Y-78152651D01*
X132505417Y-78166351D01*
X132506454Y-78262939D01*
X132493007Y-78347602D01*
X132465892Y-78416221D01*
X132451373Y-78438294D01*
X132400799Y-78485011D01*
X132336391Y-78515268D01*
X132264334Y-78527824D01*
X132190815Y-78521439D01*
X132134928Y-78501772D01*
X132086868Y-78468629D01*
X132047588Y-78425175D01*
X132046908Y-78424158D01*
X132030956Y-78397338D01*
X132020590Y-78370368D01*
X132014312Y-78336332D01*
X132010627Y-78288310D01*
X132009003Y-78248931D01*
X132008328Y-78213219D01*
X132134045Y-78213219D01*
X132135274Y-78248770D01*
X132139734Y-78296094D01*
X132147603Y-78326465D01*
X132161793Y-78348072D01*
X132175083Y-78360694D01*
X132222198Y-78387122D01*
X132271495Y-78390653D01*
X132317407Y-78371639D01*
X132340362Y-78350331D01*
X132356904Y-78328859D01*
X132366579Y-78308313D01*
X132370826Y-78281574D01*
X132371080Y-78241523D01*
X132369772Y-78204638D01*
X132366957Y-78151947D01*
X132362495Y-78117772D01*
X132354452Y-78095480D01*
X132340897Y-78078442D01*
X132330155Y-78068703D01*
X132285223Y-78043123D01*
X132236751Y-78041847D01*
X132196106Y-78056999D01*
X132161433Y-78088642D01*
X132140776Y-78140620D01*
X132134045Y-78213219D01*
X132008328Y-78213219D01*
X132007521Y-78170621D01*
X132010052Y-78112056D01*
X132017638Y-78068007D01*
X132031319Y-78033248D01*
X132052135Y-78002551D01*
X132059853Y-77993436D01*
X132108111Y-77948021D01*
X132159872Y-77921493D01*
X132223172Y-77910379D01*
X132254039Y-77909471D01*
X132335739Y-77919148D01*
X132335739Y-77919148D01*
G37*
X132335739Y-77919148D02*
X132401521Y-77948231D01*
X132451460Y-77996793D01*
X132485626Y-78064908D01*
X132504093Y-78152651D01*
X132505417Y-78166351D01*
X132506454Y-78262939D01*
X132493007Y-78347602D01*
X132465892Y-78416221D01*
X132451373Y-78438294D01*
X132400799Y-78485011D01*
X132336391Y-78515268D01*
X132264334Y-78527824D01*
X132190815Y-78521439D01*
X132134928Y-78501772D01*
X132086868Y-78468629D01*
X132047588Y-78425175D01*
X132046908Y-78424158D01*
X132030956Y-78397338D01*
X132020590Y-78370368D01*
X132014312Y-78336332D01*
X132010627Y-78288310D01*
X132009003Y-78248931D01*
X132008328Y-78213219D01*
X132134045Y-78213219D01*
X132135274Y-78248770D01*
X132139734Y-78296094D01*
X132147603Y-78326465D01*
X132161793Y-78348072D01*
X132175083Y-78360694D01*
X132222198Y-78387122D01*
X132271495Y-78390653D01*
X132317407Y-78371639D01*
X132340362Y-78350331D01*
X132356904Y-78328859D01*
X132366579Y-78308313D01*
X132370826Y-78281574D01*
X132371080Y-78241523D01*
X132369772Y-78204638D01*
X132366957Y-78151947D01*
X132362495Y-78117772D01*
X132354452Y-78095480D01*
X132340897Y-78078442D01*
X132330155Y-78068703D01*
X132285223Y-78043123D01*
X132236751Y-78041847D01*
X132196106Y-78056999D01*
X132161433Y-78088642D01*
X132140776Y-78140620D01*
X132134045Y-78213219D01*
X132008328Y-78213219D01*
X132007521Y-78170621D01*
X132010052Y-78112056D01*
X132017638Y-78068007D01*
X132031319Y-78033248D01*
X132052135Y-78002551D01*
X132059853Y-77993436D01*
X132108111Y-77948021D01*
X132159872Y-77921493D01*
X132223172Y-77910379D01*
X132254039Y-77909471D01*
X132335739Y-77919148D01*
G36*
X136906581Y-78858970D02*
G01*
X136966685Y-78874597D01*
X137017021Y-78906848D01*
X137041393Y-78930940D01*
X137081345Y-78987895D01*
X137104242Y-79053965D01*
X137112108Y-79135182D01*
X137112148Y-79141748D01*
X137112218Y-79207763D01*
X136732264Y-79207763D01*
X136740363Y-79242342D01*
X136754987Y-79273659D01*
X136780581Y-79306291D01*
X136785935Y-79311500D01*
X136831943Y-79339694D01*
X136884410Y-79344475D01*
X136944803Y-79325926D01*
X136955040Y-79320931D01*
X136986439Y-79305745D01*
X137007470Y-79297094D01*
X137011139Y-79296293D01*
X137023948Y-79304063D01*
X137048378Y-79323072D01*
X137060779Y-79333460D01*
X137086476Y-79357321D01*
X137094915Y-79373077D01*
X137089058Y-79387571D01*
X137085928Y-79391534D01*
X137064725Y-79408879D01*
X137029738Y-79429959D01*
X137005337Y-79442265D01*
X136936072Y-79463946D01*
X136859388Y-79470971D01*
X136786765Y-79462647D01*
X136766426Y-79456686D01*
X136703476Y-79422952D01*
X136656815Y-79371045D01*
X136626173Y-79300459D01*
X136611282Y-79210692D01*
X136609647Y-79163753D01*
X136614421Y-79095413D01*
X136734990Y-79095413D01*
X136746652Y-79100465D01*
X136777998Y-79104429D01*
X136823571Y-79106768D01*
X136854446Y-79107169D01*
X136909981Y-79106783D01*
X136945033Y-79104975D01*
X136964262Y-79100773D01*
X136972330Y-79093203D01*
X136973901Y-79082218D01*
X136963121Y-79048381D01*
X136935980Y-79014940D01*
X136900277Y-78989272D01*
X136864560Y-78978772D01*
X136816048Y-78988086D01*
X136774053Y-79015013D01*
X136744936Y-79053827D01*
X136734990Y-79095413D01*
X136614421Y-79095413D01*
X136616599Y-79064236D01*
X136638055Y-78984949D01*
X136674470Y-78925263D01*
X136726297Y-78884549D01*
X136793990Y-78862179D01*
X136830662Y-78857871D01*
X136906581Y-78858970D01*
X136906581Y-78858970D01*
G37*
X136906581Y-78858970D02*
X136966685Y-78874597D01*
X137017021Y-78906848D01*
X137041393Y-78930940D01*
X137081345Y-78987895D01*
X137104242Y-79053965D01*
X137112108Y-79135182D01*
X137112148Y-79141748D01*
X137112218Y-79207763D01*
X136732264Y-79207763D01*
X136740363Y-79242342D01*
X136754987Y-79273659D01*
X136780581Y-79306291D01*
X136785935Y-79311500D01*
X136831943Y-79339694D01*
X136884410Y-79344475D01*
X136944803Y-79325926D01*
X136955040Y-79320931D01*
X136986439Y-79305745D01*
X137007470Y-79297094D01*
X137011139Y-79296293D01*
X137023948Y-79304063D01*
X137048378Y-79323072D01*
X137060779Y-79333460D01*
X137086476Y-79357321D01*
X137094915Y-79373077D01*
X137089058Y-79387571D01*
X137085928Y-79391534D01*
X137064725Y-79408879D01*
X137029738Y-79429959D01*
X137005337Y-79442265D01*
X136936072Y-79463946D01*
X136859388Y-79470971D01*
X136786765Y-79462647D01*
X136766426Y-79456686D01*
X136703476Y-79422952D01*
X136656815Y-79371045D01*
X136626173Y-79300459D01*
X136611282Y-79210692D01*
X136609647Y-79163753D01*
X136614421Y-79095413D01*
X136734990Y-79095413D01*
X136746652Y-79100465D01*
X136777998Y-79104429D01*
X136823571Y-79106768D01*
X136854446Y-79107169D01*
X136909981Y-79106783D01*
X136945033Y-79104975D01*
X136964262Y-79100773D01*
X136972330Y-79093203D01*
X136973901Y-79082218D01*
X136963121Y-79048381D01*
X136935980Y-79014940D01*
X136900277Y-78989272D01*
X136864560Y-78978772D01*
X136816048Y-78988086D01*
X136774053Y-79015013D01*
X136744936Y-79053827D01*
X136734990Y-79095413D01*
X136614421Y-79095413D01*
X136616599Y-79064236D01*
X136638055Y-78984949D01*
X136674470Y-78925263D01*
X136726297Y-78884549D01*
X136793990Y-78862179D01*
X136830662Y-78857871D01*
X136906581Y-78858970D01*
G36*
X136509255Y-78855486D02*
G01*
X136557595Y-78865015D01*
X136585114Y-78879125D01*
X136614064Y-78902568D01*
X136572876Y-78954571D01*
X136547482Y-78986064D01*
X136530238Y-79001428D01*
X136513102Y-79003776D01*
X136488027Y-78996217D01*
X136476257Y-78991941D01*
X136428270Y-78985631D01*
X136384324Y-78999156D01*
X136352060Y-79029710D01*
X136346819Y-79039452D01*
X136341112Y-79065258D01*
X136336706Y-79112817D01*
X136333811Y-79178758D01*
X136332631Y-79259710D01*
X136332614Y-79271226D01*
X136332614Y-79471822D01*
X136194297Y-79471822D01*
X136194297Y-78855683D01*
X136263456Y-78855683D01*
X136303333Y-78856725D01*
X136324107Y-78861358D01*
X136331789Y-78871849D01*
X136332614Y-78881745D01*
X136332614Y-78907806D01*
X136365745Y-78881745D01*
X136403735Y-78863965D01*
X136454770Y-78855174D01*
X136509255Y-78855486D01*
X136509255Y-78855486D01*
G37*
X136509255Y-78855486D02*
X136557595Y-78865015D01*
X136585114Y-78879125D01*
X136614064Y-78902568D01*
X136572876Y-78954571D01*
X136547482Y-78986064D01*
X136530238Y-79001428D01*
X136513102Y-79003776D01*
X136488027Y-78996217D01*
X136476257Y-78991941D01*
X136428270Y-78985631D01*
X136384324Y-78999156D01*
X136352060Y-79029710D01*
X136346819Y-79039452D01*
X136341112Y-79065258D01*
X136336706Y-79112817D01*
X136333811Y-79178758D01*
X136332631Y-79259710D01*
X136332614Y-79271226D01*
X136332614Y-79471822D01*
X136194297Y-79471822D01*
X136194297Y-78855683D01*
X136263456Y-78855683D01*
X136303333Y-78856725D01*
X136324107Y-78861358D01*
X136331789Y-78871849D01*
X136332614Y-78881745D01*
X136332614Y-78907806D01*
X136365745Y-78881745D01*
X136403735Y-78863965D01*
X136454770Y-78855174D01*
X136509255Y-78855486D01*
G36*
X135912411Y-78859417D02*
G01*
X135965411Y-78872290D01*
X135980731Y-78879110D01*
X136010428Y-78896974D01*
X136033220Y-78917093D01*
X136050083Y-78942962D01*
X136061998Y-78978073D01*
X136069942Y-79025920D01*
X136074894Y-79089996D01*
X136077831Y-79173794D01*
X136078947Y-79229768D01*
X136083052Y-79471822D01*
X136012932Y-79471822D01*
X135970393Y-79470038D01*
X135948476Y-79463942D01*
X135942812Y-79453706D01*
X135939821Y-79442637D01*
X135926451Y-79444754D01*
X135908233Y-79453629D01*
X135862624Y-79467233D01*
X135804007Y-79470899D01*
X135742354Y-79464903D01*
X135687638Y-79449521D01*
X135682730Y-79447386D01*
X135632723Y-79412255D01*
X135599756Y-79363419D01*
X135584587Y-79306333D01*
X135585746Y-79285824D01*
X135709508Y-79285824D01*
X135720413Y-79313425D01*
X135752745Y-79333204D01*
X135804910Y-79343819D01*
X135832787Y-79345228D01*
X135879247Y-79341620D01*
X135910129Y-79327597D01*
X135917664Y-79320931D01*
X135938076Y-79284666D01*
X135942812Y-79251773D01*
X135942812Y-79207763D01*
X135881513Y-79207763D01*
X135810256Y-79211395D01*
X135760276Y-79222818D01*
X135728696Y-79242824D01*
X135721626Y-79251743D01*
X135709508Y-79285824D01*
X135585746Y-79285824D01*
X135587971Y-79246456D01*
X135610663Y-79189244D01*
X135641624Y-79150580D01*
X135660376Y-79133864D01*
X135678733Y-79122878D01*
X135702619Y-79116180D01*
X135737957Y-79112326D01*
X135790669Y-79109873D01*
X135811577Y-79109168D01*
X135942812Y-79104879D01*
X135942620Y-79065158D01*
X135937537Y-79023405D01*
X135919162Y-78998158D01*
X135882039Y-78982030D01*
X135881043Y-78981742D01*
X135828410Y-78975400D01*
X135776906Y-78983684D01*
X135738630Y-79003827D01*
X135723272Y-79013773D01*
X135706730Y-79012397D01*
X135681275Y-78997987D01*
X135666328Y-78987817D01*
X135637091Y-78966088D01*
X135618980Y-78949800D01*
X135616074Y-78945137D01*
X135628040Y-78921005D01*
X135663396Y-78892185D01*
X135678753Y-78882461D01*
X135722901Y-78865714D01*
X135782398Y-78856227D01*
X135848487Y-78854095D01*
X135912411Y-78859417D01*
X135912411Y-78859417D01*
G37*
X135912411Y-78859417D02*
X135965411Y-78872290D01*
X135980731Y-78879110D01*
X136010428Y-78896974D01*
X136033220Y-78917093D01*
X136050083Y-78942962D01*
X136061998Y-78978073D01*
X136069942Y-79025920D01*
X136074894Y-79089996D01*
X136077831Y-79173794D01*
X136078947Y-79229768D01*
X136083052Y-79471822D01*
X136012932Y-79471822D01*
X135970393Y-79470038D01*
X135948476Y-79463942D01*
X135942812Y-79453706D01*
X135939821Y-79442637D01*
X135926451Y-79444754D01*
X135908233Y-79453629D01*
X135862624Y-79467233D01*
X135804007Y-79470899D01*
X135742354Y-79464903D01*
X135687638Y-79449521D01*
X135682730Y-79447386D01*
X135632723Y-79412255D01*
X135599756Y-79363419D01*
X135584587Y-79306333D01*
X135585746Y-79285824D01*
X135709508Y-79285824D01*
X135720413Y-79313425D01*
X135752745Y-79333204D01*
X135804910Y-79343819D01*
X135832787Y-79345228D01*
X135879247Y-79341620D01*
X135910129Y-79327597D01*
X135917664Y-79320931D01*
X135938076Y-79284666D01*
X135942812Y-79251773D01*
X135942812Y-79207763D01*
X135881513Y-79207763D01*
X135810256Y-79211395D01*
X135760276Y-79222818D01*
X135728696Y-79242824D01*
X135721626Y-79251743D01*
X135709508Y-79285824D01*
X135585746Y-79285824D01*
X135587971Y-79246456D01*
X135610663Y-79189244D01*
X135641624Y-79150580D01*
X135660376Y-79133864D01*
X135678733Y-79122878D01*
X135702619Y-79116180D01*
X135737957Y-79112326D01*
X135790669Y-79109873D01*
X135811577Y-79109168D01*
X135942812Y-79104879D01*
X135942620Y-79065158D01*
X135937537Y-79023405D01*
X135919162Y-78998158D01*
X135882039Y-78982030D01*
X135881043Y-78981742D01*
X135828410Y-78975400D01*
X135776906Y-78983684D01*
X135738630Y-79003827D01*
X135723272Y-79013773D01*
X135706730Y-79012397D01*
X135681275Y-78997987D01*
X135666328Y-78987817D01*
X135637091Y-78966088D01*
X135618980Y-78949800D01*
X135616074Y-78945137D01*
X135628040Y-78921005D01*
X135663396Y-78892185D01*
X135678753Y-78882461D01*
X135722901Y-78865714D01*
X135782398Y-78856227D01*
X135848487Y-78854095D01*
X135912411Y-78859417D01*
G36*
X135155524Y-78858237D02*
G01*
X135205255Y-78861971D01*
X135335291Y-79251773D01*
X135355678Y-79182614D01*
X135367946Y-79139874D01*
X135384085Y-79082115D01*
X135401512Y-79018625D01*
X135410726Y-78984570D01*
X135445388Y-78855683D01*
X135588391Y-78855683D01*
X135545646Y-78990857D01*
X135524596Y-79057342D01*
X135499167Y-79137539D01*
X135472610Y-79221193D01*
X135448902Y-79295782D01*
X135394902Y-79465535D01*
X135336598Y-79469328D01*
X135278295Y-79473122D01*
X135246679Y-79368734D01*
X135227182Y-79303889D01*
X135205904Y-79232400D01*
X135187308Y-79169263D01*
X135186574Y-79166750D01*
X135172684Y-79123969D01*
X135160429Y-79094779D01*
X135151846Y-79083741D01*
X135150082Y-79085018D01*
X135143891Y-79102130D01*
X135132128Y-79138787D01*
X135116225Y-79190378D01*
X135097614Y-79252294D01*
X135087543Y-79286352D01*
X135033007Y-79471822D01*
X134917264Y-79471822D01*
X134824737Y-79179471D01*
X134798744Y-79097462D01*
X134775066Y-79022987D01*
X134754820Y-78959544D01*
X134739126Y-78910632D01*
X134729102Y-78879749D01*
X134726055Y-78870726D01*
X134728467Y-78861487D01*
X134747408Y-78857441D01*
X134786823Y-78857846D01*
X134792993Y-78858152D01*
X134866086Y-78861971D01*
X134913957Y-79038010D01*
X134931553Y-79102211D01*
X134947277Y-79158649D01*
X134959746Y-79202422D01*
X134967574Y-79228630D01*
X134969020Y-79232903D01*
X134975014Y-79227990D01*
X134987101Y-79202532D01*
X135003893Y-79159997D01*
X135024003Y-79103850D01*
X135041003Y-79053130D01*
X135105794Y-78854504D01*
X135155524Y-78858237D01*
X135155524Y-78858237D01*
G37*
X135155524Y-78858237D02*
X135205255Y-78861971D01*
X135335291Y-79251773D01*
X135355678Y-79182614D01*
X135367946Y-79139874D01*
X135384085Y-79082115D01*
X135401512Y-79018625D01*
X135410726Y-78984570D01*
X135445388Y-78855683D01*
X135588391Y-78855683D01*
X135545646Y-78990857D01*
X135524596Y-79057342D01*
X135499167Y-79137539D01*
X135472610Y-79221193D01*
X135448902Y-79295782D01*
X135394902Y-79465535D01*
X135336598Y-79469328D01*
X135278295Y-79473122D01*
X135246679Y-79368734D01*
X135227182Y-79303889D01*
X135205904Y-79232400D01*
X135187308Y-79169263D01*
X135186574Y-79166750D01*
X135172684Y-79123969D01*
X135160429Y-79094779D01*
X135151846Y-79083741D01*
X135150082Y-79085018D01*
X135143891Y-79102130D01*
X135132128Y-79138787D01*
X135116225Y-79190378D01*
X135097614Y-79252294D01*
X135087543Y-79286352D01*
X135033007Y-79471822D01*
X134917264Y-79471822D01*
X134824737Y-79179471D01*
X134798744Y-79097462D01*
X134775066Y-79022987D01*
X134754820Y-78959544D01*
X134739126Y-78910632D01*
X134729102Y-78879749D01*
X134726055Y-78870726D01*
X134728467Y-78861487D01*
X134747408Y-78857441D01*
X134786823Y-78857846D01*
X134792993Y-78858152D01*
X134866086Y-78861971D01*
X134913957Y-79038010D01*
X134931553Y-79102211D01*
X134947277Y-79158649D01*
X134959746Y-79202422D01*
X134967574Y-79228630D01*
X134969020Y-79232903D01*
X134975014Y-79227990D01*
X134987101Y-79202532D01*
X135003893Y-79159997D01*
X135024003Y-79103850D01*
X135041003Y-79053130D01*
X135105794Y-78854504D01*
X135155524Y-78858237D01*
G36*
X134672812Y-79471822D02*
G01*
X134603654Y-79471822D01*
X134563512Y-79470645D01*
X134542606Y-79465772D01*
X134535078Y-79455186D01*
X134534495Y-79448029D01*
X134533226Y-79433676D01*
X134525221Y-79430923D01*
X134504185Y-79439771D01*
X134487827Y-79448029D01*
X134425023Y-79467597D01*
X134356752Y-79468729D01*
X134301248Y-79454135D01*
X134249562Y-79418877D01*
X134210162Y-79366835D01*
X134188587Y-79305450D01*
X134188038Y-79302018D01*
X134184833Y-79264571D01*
X134183239Y-79210813D01*
X134183367Y-79170155D01*
X134320721Y-79170155D01*
X134323903Y-79224194D01*
X134331141Y-79268735D01*
X134340940Y-79293888D01*
X134378011Y-79328260D01*
X134422026Y-79340582D01*
X134467416Y-79330618D01*
X134506203Y-79300895D01*
X134520892Y-79280905D01*
X134529481Y-79257050D01*
X134533504Y-79222230D01*
X134534495Y-79169930D01*
X134532722Y-79118139D01*
X134528037Y-79072634D01*
X134521397Y-79042181D01*
X134520290Y-79039452D01*
X134493509Y-79007000D01*
X134454421Y-78989183D01*
X134410685Y-78986306D01*
X134369962Y-78998674D01*
X134339913Y-79026593D01*
X134336796Y-79032148D01*
X134327039Y-79066022D01*
X134321723Y-79114728D01*
X134320721Y-79170155D01*
X134183367Y-79170155D01*
X134183432Y-79149540D01*
X134184336Y-79116563D01*
X134190486Y-79034981D01*
X134203267Y-78973730D01*
X134224529Y-78928449D01*
X134256122Y-78894779D01*
X134286793Y-78875014D01*
X134329646Y-78861120D01*
X134382944Y-78856354D01*
X134437520Y-78860236D01*
X134484208Y-78872282D01*
X134508876Y-78886693D01*
X134534495Y-78909878D01*
X134534495Y-78616773D01*
X134672812Y-78616773D01*
X134672812Y-79471822D01*
X134672812Y-79471822D01*
G37*
X134672812Y-79471822D02*
X134603654Y-79471822D01*
X134563512Y-79470645D01*
X134542606Y-79465772D01*
X134535078Y-79455186D01*
X134534495Y-79448029D01*
X134533226Y-79433676D01*
X134525221Y-79430923D01*
X134504185Y-79439771D01*
X134487827Y-79448029D01*
X134425023Y-79467597D01*
X134356752Y-79468729D01*
X134301248Y-79454135D01*
X134249562Y-79418877D01*
X134210162Y-79366835D01*
X134188587Y-79305450D01*
X134188038Y-79302018D01*
X134184833Y-79264571D01*
X134183239Y-79210813D01*
X134183367Y-79170155D01*
X134320721Y-79170155D01*
X134323903Y-79224194D01*
X134331141Y-79268735D01*
X134340940Y-79293888D01*
X134378011Y-79328260D01*
X134422026Y-79340582D01*
X134467416Y-79330618D01*
X134506203Y-79300895D01*
X134520892Y-79280905D01*
X134529481Y-79257050D01*
X134533504Y-79222230D01*
X134534495Y-79169930D01*
X134532722Y-79118139D01*
X134528037Y-79072634D01*
X134521397Y-79042181D01*
X134520290Y-79039452D01*
X134493509Y-79007000D01*
X134454421Y-78989183D01*
X134410685Y-78986306D01*
X134369962Y-78998674D01*
X134339913Y-79026593D01*
X134336796Y-79032148D01*
X134327039Y-79066022D01*
X134321723Y-79114728D01*
X134320721Y-79170155D01*
X134183367Y-79170155D01*
X134183432Y-79149540D01*
X134184336Y-79116563D01*
X134190486Y-79034981D01*
X134203267Y-78973730D01*
X134224529Y-78928449D01*
X134256122Y-78894779D01*
X134286793Y-78875014D01*
X134329646Y-78861120D01*
X134382944Y-78856354D01*
X134437520Y-78860236D01*
X134484208Y-78872282D01*
X134508876Y-78886693D01*
X134534495Y-78909878D01*
X134534495Y-78616773D01*
X134672812Y-78616773D01*
X134672812Y-79471822D01*
G36*
X133880644Y-78857020D02*
G01*
X133899461Y-78862660D01*
X133905527Y-78875053D01*
X133905782Y-78880647D01*
X133906871Y-78896230D01*
X133914368Y-78898676D01*
X133934619Y-78887993D01*
X133946649Y-78880694D01*
X133984600Y-78865063D01*
X134029928Y-78857334D01*
X134077456Y-78856740D01*
X134122005Y-78862513D01*
X134158398Y-78873884D01*
X134181457Y-78890088D01*
X134186004Y-78910355D01*
X134183709Y-78915843D01*
X134166980Y-78938626D01*
X134141037Y-78966647D01*
X134136345Y-78971177D01*
X134111617Y-78992005D01*
X134090282Y-78998735D01*
X134060445Y-78994038D01*
X134048492Y-78990917D01*
X134011295Y-78983421D01*
X133985141Y-78986792D01*
X133963054Y-78998681D01*
X133942822Y-79014635D01*
X133927921Y-79034700D01*
X133917566Y-79062702D01*
X133910971Y-79102467D01*
X133907351Y-79157823D01*
X133905922Y-79232594D01*
X133905782Y-79277740D01*
X133905782Y-79471822D01*
X133780040Y-79471822D01*
X133780040Y-78855683D01*
X133842911Y-78855683D01*
X133880644Y-78857020D01*
X133880644Y-78857020D01*
G37*
X133880644Y-78857020D02*
X133899461Y-78862660D01*
X133905527Y-78875053D01*
X133905782Y-78880647D01*
X133906871Y-78896230D01*
X133914368Y-78898676D01*
X133934619Y-78887993D01*
X133946649Y-78880694D01*
X133984600Y-78865063D01*
X134029928Y-78857334D01*
X134077456Y-78856740D01*
X134122005Y-78862513D01*
X134158398Y-78873884D01*
X134181457Y-78890088D01*
X134186004Y-78910355D01*
X134183709Y-78915843D01*
X134166980Y-78938626D01*
X134141037Y-78966647D01*
X134136345Y-78971177D01*
X134111617Y-78992005D01*
X134090282Y-78998735D01*
X134060445Y-78994038D01*
X134048492Y-78990917D01*
X134011295Y-78983421D01*
X133985141Y-78986792D01*
X133963054Y-78998681D01*
X133942822Y-79014635D01*
X133927921Y-79034700D01*
X133917566Y-79062702D01*
X133910971Y-79102467D01*
X133907351Y-79157823D01*
X133905922Y-79232594D01*
X133905782Y-79277740D01*
X133905782Y-79471822D01*
X133780040Y-79471822D01*
X133780040Y-78855683D01*
X133842911Y-78855683D01*
X133880644Y-78857020D01*
G36*
X133489790Y-78860555D02*
G01*
X133548945Y-78876339D01*
X133593977Y-78904948D01*
X133625754Y-78942419D01*
X133635634Y-78958411D01*
X133642927Y-78975163D01*
X133648026Y-78996592D01*
X133651321Y-79026616D01*
X133653203Y-79069154D01*
X133654063Y-79128122D01*
X133654293Y-79207440D01*
X133654297Y-79228484D01*
X133654297Y-79471822D01*
X133593941Y-79471822D01*
X133555443Y-79469126D01*
X133526977Y-79462295D01*
X133519845Y-79458083D01*
X133500348Y-79450813D01*
X133480434Y-79458083D01*
X133447647Y-79467160D01*
X133400022Y-79470813D01*
X133347236Y-79469228D01*
X133298964Y-79462589D01*
X133270782Y-79454072D01*
X133216247Y-79419063D01*
X133182165Y-79370479D01*
X133166843Y-79305882D01*
X133166701Y-79304223D01*
X133168045Y-79275566D01*
X133289644Y-79275566D01*
X133300274Y-79308161D01*
X133317590Y-79326505D01*
X133352348Y-79340379D01*
X133398227Y-79345917D01*
X133445012Y-79343191D01*
X133482486Y-79332274D01*
X133492985Y-79325269D01*
X133511332Y-79292904D01*
X133515980Y-79256111D01*
X133515980Y-79207763D01*
X133446418Y-79207763D01*
X133380333Y-79212850D01*
X133330236Y-79227263D01*
X133299071Y-79249729D01*
X133289644Y-79275566D01*
X133168045Y-79275566D01*
X133170013Y-79233647D01*
X133193290Y-79177845D01*
X133237052Y-79135647D01*
X133243101Y-79131808D01*
X133269093Y-79119309D01*
X133301265Y-79111740D01*
X133346240Y-79108061D01*
X133399669Y-79107216D01*
X133515980Y-79107169D01*
X133515980Y-79058411D01*
X133511047Y-79020581D01*
X133498457Y-78995236D01*
X133496983Y-78993887D01*
X133468966Y-78982800D01*
X133426674Y-78978503D01*
X133379936Y-78980615D01*
X133338582Y-78988756D01*
X133314043Y-79000965D01*
X133300747Y-79010746D01*
X133286706Y-79012613D01*
X133267329Y-79004600D01*
X133238024Y-78984739D01*
X133194197Y-78951063D01*
X133190175Y-78947909D01*
X133192236Y-78936236D01*
X133209432Y-78916822D01*
X133235567Y-78895248D01*
X133264448Y-78877096D01*
X133273522Y-78872809D01*
X133306620Y-78864256D01*
X133355120Y-78858155D01*
X133409305Y-78855708D01*
X133411839Y-78855703D01*
X133489790Y-78860555D01*
X133489790Y-78860555D01*
G37*
X133489790Y-78860555D02*
X133548945Y-78876339D01*
X133593977Y-78904948D01*
X133625754Y-78942419D01*
X133635634Y-78958411D01*
X133642927Y-78975163D01*
X133648026Y-78996592D01*
X133651321Y-79026616D01*
X133653203Y-79069154D01*
X133654063Y-79128122D01*
X133654293Y-79207440D01*
X133654297Y-79228484D01*
X133654297Y-79471822D01*
X133593941Y-79471822D01*
X133555443Y-79469126D01*
X133526977Y-79462295D01*
X133519845Y-79458083D01*
X133500348Y-79450813D01*
X133480434Y-79458083D01*
X133447647Y-79467160D01*
X133400022Y-79470813D01*
X133347236Y-79469228D01*
X133298964Y-79462589D01*
X133270782Y-79454072D01*
X133216247Y-79419063D01*
X133182165Y-79370479D01*
X133166843Y-79305882D01*
X133166701Y-79304223D01*
X133168045Y-79275566D01*
X133289644Y-79275566D01*
X133300274Y-79308161D01*
X133317590Y-79326505D01*
X133352348Y-79340379D01*
X133398227Y-79345917D01*
X133445012Y-79343191D01*
X133482486Y-79332274D01*
X133492985Y-79325269D01*
X133511332Y-79292904D01*
X133515980Y-79256111D01*
X133515980Y-79207763D01*
X133446418Y-79207763D01*
X133380333Y-79212850D01*
X133330236Y-79227263D01*
X133299071Y-79249729D01*
X133289644Y-79275566D01*
X133168045Y-79275566D01*
X133170013Y-79233647D01*
X133193290Y-79177845D01*
X133237052Y-79135647D01*
X133243101Y-79131808D01*
X133269093Y-79119309D01*
X133301265Y-79111740D01*
X133346240Y-79108061D01*
X133399669Y-79107216D01*
X133515980Y-79107169D01*
X133515980Y-79058411D01*
X133511047Y-79020581D01*
X133498457Y-78995236D01*
X133496983Y-78993887D01*
X133468966Y-78982800D01*
X133426674Y-78978503D01*
X133379936Y-78980615D01*
X133338582Y-78988756D01*
X133314043Y-79000965D01*
X133300747Y-79010746D01*
X133286706Y-79012613D01*
X133267329Y-79004600D01*
X133238024Y-78984739D01*
X133194197Y-78951063D01*
X133190175Y-78947909D01*
X133192236Y-78936236D01*
X133209432Y-78916822D01*
X133235567Y-78895248D01*
X133264448Y-78877096D01*
X133273522Y-78872809D01*
X133306620Y-78864256D01*
X133355120Y-78858155D01*
X133409305Y-78855708D01*
X133411839Y-78855703D01*
X133489790Y-78860555D01*
G36*
X132965241Y-77923184D02*
G01*
X132991753Y-77936282D01*
X133024447Y-77959106D01*
X133048275Y-77983996D01*
X133064594Y-78015249D01*
X133074760Y-78057166D01*
X133080128Y-78114044D01*
X133082056Y-78190184D01*
X133082169Y-78222917D01*
X133081839Y-78294656D01*
X133080473Y-78345927D01*
X133077500Y-78381404D01*
X133072351Y-78405763D01*
X133064457Y-78423680D01*
X133056243Y-78435902D01*
X133003813Y-78487905D01*
X132942070Y-78519184D01*
X132875464Y-78528592D01*
X132808442Y-78514980D01*
X132787208Y-78505354D01*
X132736376Y-78478859D01*
X132736376Y-78894052D01*
X132773475Y-78874868D01*
X132822357Y-78860025D01*
X132882439Y-78856222D01*
X132942436Y-78863243D01*
X132987744Y-78879013D01*
X133025325Y-78909047D01*
X133057436Y-78952024D01*
X133059850Y-78956436D01*
X133070033Y-78977221D01*
X133077470Y-78998170D01*
X133082589Y-79023548D01*
X133085819Y-79057618D01*
X133087587Y-79104641D01*
X133088323Y-79168882D01*
X133088456Y-79241176D01*
X133088456Y-79471822D01*
X132950139Y-79471822D01*
X132950139Y-79046533D01*
X132911451Y-79013979D01*
X132871262Y-78987940D01*
X132833203Y-78983205D01*
X132794934Y-78995389D01*
X132774538Y-79007320D01*
X132759358Y-79024313D01*
X132748562Y-79049995D01*
X132741317Y-79087991D01*
X132736792Y-79141926D01*
X132734156Y-79215425D01*
X132733228Y-79264347D01*
X132730089Y-79465535D01*
X132664074Y-79469336D01*
X132598060Y-79473136D01*
X132598060Y-78224650D01*
X132736376Y-78224650D01*
X132739903Y-78294254D01*
X132751785Y-78342569D01*
X132773980Y-78372631D01*
X132808441Y-78387471D01*
X132843258Y-78390436D01*
X132882671Y-78387028D01*
X132908829Y-78373617D01*
X132925186Y-78355896D01*
X132938063Y-78336835D01*
X132945728Y-78315601D01*
X132949139Y-78285849D01*
X132949251Y-78241236D01*
X132948103Y-78203880D01*
X132945468Y-78147604D01*
X132941544Y-78110658D01*
X132934937Y-78087223D01*
X132924251Y-78071480D01*
X132914167Y-78062380D01*
X132872030Y-78042537D01*
X132822160Y-78039332D01*
X132793524Y-78046168D01*
X132765172Y-78070464D01*
X132746391Y-78117728D01*
X132737288Y-78187624D01*
X132736376Y-78224650D01*
X132598060Y-78224650D01*
X132598060Y-77912614D01*
X132667218Y-77912614D01*
X132708740Y-77914256D01*
X132730162Y-77920087D01*
X132736374Y-77931461D01*
X132736376Y-77931798D01*
X132739258Y-77942938D01*
X132751970Y-77941673D01*
X132777243Y-77929433D01*
X132836131Y-77910707D01*
X132902385Y-77908739D01*
X132965241Y-77923184D01*
X132965241Y-77923184D01*
G37*
X132965241Y-77923184D02*
X132991753Y-77936282D01*
X133024447Y-77959106D01*
X133048275Y-77983996D01*
X133064594Y-78015249D01*
X133074760Y-78057166D01*
X133080128Y-78114044D01*
X133082056Y-78190184D01*
X133082169Y-78222917D01*
X133081839Y-78294656D01*
X133080473Y-78345927D01*
X133077500Y-78381404D01*
X133072351Y-78405763D01*
X133064457Y-78423680D01*
X133056243Y-78435902D01*
X133003813Y-78487905D01*
X132942070Y-78519184D01*
X132875464Y-78528592D01*
X132808442Y-78514980D01*
X132787208Y-78505354D01*
X132736376Y-78478859D01*
X132736376Y-78894052D01*
X132773475Y-78874868D01*
X132822357Y-78860025D01*
X132882439Y-78856222D01*
X132942436Y-78863243D01*
X132987744Y-78879013D01*
X133025325Y-78909047D01*
X133057436Y-78952024D01*
X133059850Y-78956436D01*
X133070033Y-78977221D01*
X133077470Y-78998170D01*
X133082589Y-79023548D01*
X133085819Y-79057618D01*
X133087587Y-79104641D01*
X133088323Y-79168882D01*
X133088456Y-79241176D01*
X133088456Y-79471822D01*
X132950139Y-79471822D01*
X132950139Y-79046533D01*
X132911451Y-79013979D01*
X132871262Y-78987940D01*
X132833203Y-78983205D01*
X132794934Y-78995389D01*
X132774538Y-79007320D01*
X132759358Y-79024313D01*
X132748562Y-79049995D01*
X132741317Y-79087991D01*
X132736792Y-79141926D01*
X132734156Y-79215425D01*
X132733228Y-79264347D01*
X132730089Y-79465535D01*
X132664074Y-79469336D01*
X132598060Y-79473136D01*
X132598060Y-78224650D01*
X132736376Y-78224650D01*
X132739903Y-78294254D01*
X132751785Y-78342569D01*
X132773980Y-78372631D01*
X132808441Y-78387471D01*
X132843258Y-78390436D01*
X132882671Y-78387028D01*
X132908829Y-78373617D01*
X132925186Y-78355896D01*
X132938063Y-78336835D01*
X132945728Y-78315601D01*
X132949139Y-78285849D01*
X132949251Y-78241236D01*
X132948103Y-78203880D01*
X132945468Y-78147604D01*
X132941544Y-78110658D01*
X132934937Y-78087223D01*
X132924251Y-78071480D01*
X132914167Y-78062380D01*
X132872030Y-78042537D01*
X132822160Y-78039332D01*
X132793524Y-78046168D01*
X132765172Y-78070464D01*
X132746391Y-78117728D01*
X132737288Y-78187624D01*
X132736376Y-78224650D01*
X132598060Y-78224650D01*
X132598060Y-77912614D01*
X132667218Y-77912614D01*
X132708740Y-77914256D01*
X132730162Y-77920087D01*
X132736374Y-77931461D01*
X132736376Y-77931798D01*
X132739258Y-77942938D01*
X132751970Y-77941673D01*
X132777243Y-77929433D01*
X132836131Y-77910707D01*
X132902385Y-77908739D01*
X132965241Y-77923184D01*
D11*
X163396000Y-105594000D02*
X163396000Y-105464000D01*
X163396000Y-105464000D02*
X168836000Y-105464000D01*
X168836000Y-105464000D02*
X168836000Y-105594000D01*
X163396000Y-108274000D02*
X163396000Y-108404000D01*
X163396000Y-108404000D02*
X168836000Y-108404000D01*
X168836000Y-108404000D02*
X168836000Y-108274000D01*
X164296000Y-105464000D02*
X164296000Y-108404000D01*
X164416000Y-105464000D02*
X164416000Y-108404000D01*
X164176000Y-105464000D02*
X164176000Y-108404000D01*
D10*
X132548380Y-97027904D02*
X133357904Y-97027904D01*
X133453142Y-96980285D01*
X133500761Y-96932666D01*
X133548380Y-96837428D01*
X133548380Y-96646952D01*
X133500761Y-96551714D01*
X133453142Y-96504095D01*
X133357904Y-96456476D01*
X132548380Y-96456476D01*
X133548380Y-95456476D02*
X133548380Y-96027904D01*
X133548380Y-95742190D02*
X132548380Y-95742190D01*
X132691238Y-95837428D01*
X132786476Y-95932666D01*
X132834095Y-96027904D01*
X102592285Y-77144571D02*
X102735142Y-77192190D01*
X102782761Y-77239809D01*
X102830380Y-77335047D01*
X102830380Y-77477904D01*
X102782761Y-77573142D01*
X102735142Y-77620761D01*
X102639904Y-77668380D01*
X102258952Y-77668380D01*
X102258952Y-76668380D01*
X102592285Y-76668380D01*
X102687523Y-76716000D01*
X102735142Y-76763619D01*
X102782761Y-76858857D01*
X102782761Y-76954095D01*
X102735142Y-77049333D01*
X102687523Y-77096952D01*
X102592285Y-77144571D01*
X102258952Y-77144571D01*
X103116095Y-76668380D02*
X103687523Y-76668380D01*
X103401809Y-77668380D02*
X103401809Y-76668380D01*
X103973238Y-76763619D02*
X104020857Y-76716000D01*
X104116095Y-76668380D01*
X104354190Y-76668380D01*
X104449428Y-76716000D01*
X104497047Y-76763619D01*
X104544666Y-76858857D01*
X104544666Y-76954095D01*
X104497047Y-77096952D01*
X103925619Y-77668380D01*
X104544666Y-77668380D01*
X165949333Y-87987142D02*
X165901714Y-88034761D01*
X165758857Y-88082380D01*
X165663619Y-88082380D01*
X165520761Y-88034761D01*
X165425523Y-87939523D01*
X165377904Y-87844285D01*
X165330285Y-87653809D01*
X165330285Y-87510952D01*
X165377904Y-87320476D01*
X165425523Y-87225238D01*
X165520761Y-87130000D01*
X165663619Y-87082380D01*
X165758857Y-87082380D01*
X165901714Y-87130000D01*
X165949333Y-87177619D01*
X166901714Y-88082380D02*
X166330285Y-88082380D01*
X166616000Y-88082380D02*
X166616000Y-87082380D01*
X166520761Y-87225238D01*
X166425523Y-87320476D01*
X166330285Y-87368095D01*
X165949333Y-111101142D02*
X165901714Y-111148761D01*
X165758857Y-111196380D01*
X165663619Y-111196380D01*
X165520761Y-111148761D01*
X165425523Y-111053523D01*
X165377904Y-110958285D01*
X165330285Y-110767809D01*
X165330285Y-110624952D01*
X165377904Y-110434476D01*
X165425523Y-110339238D01*
X165520761Y-110244000D01*
X165663619Y-110196380D01*
X165758857Y-110196380D01*
X165901714Y-110244000D01*
X165949333Y-110291619D01*
X166330285Y-110291619D02*
X166377904Y-110244000D01*
X166473142Y-110196380D01*
X166711238Y-110196380D01*
X166806476Y-110244000D01*
X166854095Y-110291619D01*
X166901714Y-110386857D01*
X166901714Y-110482095D01*
X166854095Y-110624952D01*
X166282666Y-111196380D01*
X166901714Y-111196380D01*
X176807904Y-86050380D02*
X176807904Y-85050380D01*
X177046000Y-85050380D01*
X177188857Y-85098000D01*
X177284095Y-85193238D01*
X177331714Y-85288476D01*
X177379333Y-85478952D01*
X177379333Y-85621809D01*
X177331714Y-85812285D01*
X177284095Y-85907523D01*
X177188857Y-86002761D01*
X177046000Y-86050380D01*
X176807904Y-86050380D01*
X178331714Y-86050380D02*
X177760285Y-86050380D01*
X178046000Y-86050380D02*
X178046000Y-85050380D01*
X177950761Y-85193238D01*
X177855523Y-85288476D01*
X177760285Y-85336095D01*
X177569904Y-106370380D02*
X177569904Y-105370380D01*
X177808000Y-105370380D01*
X177950857Y-105418000D01*
X178046095Y-105513238D01*
X178093714Y-105608476D01*
X178141333Y-105798952D01*
X178141333Y-105941809D01*
X178093714Y-106132285D01*
X178046095Y-106227523D01*
X177950857Y-106322761D01*
X177808000Y-106370380D01*
X177569904Y-106370380D01*
X178474666Y-105370380D02*
X179093714Y-105370380D01*
X178760380Y-105751333D01*
X178903238Y-105751333D01*
X178998476Y-105798952D01*
X179046095Y-105846571D01*
X179093714Y-105941809D01*
X179093714Y-106179904D01*
X179046095Y-106275142D01*
X178998476Y-106322761D01*
X178903238Y-106370380D01*
X178617523Y-106370380D01*
X178522285Y-106322761D01*
X178474666Y-106275142D01*
X173728095Y-104270380D02*
X173728095Y-103270380D01*
X174299523Y-104270380D02*
X173870952Y-103698952D01*
X174299523Y-103270380D02*
X173728095Y-103841809D01*
X177633333Y-89352380D02*
X177300000Y-88876190D01*
X177061904Y-89352380D02*
X177061904Y-88352380D01*
X177442857Y-88352380D01*
X177538095Y-88400000D01*
X177585714Y-88447619D01*
X177633333Y-88542857D01*
X177633333Y-88685714D01*
X177585714Y-88780952D01*
X177538095Y-88828571D01*
X177442857Y-88876190D01*
X177061904Y-88876190D01*
X178585714Y-89352380D02*
X178014285Y-89352380D01*
X178300000Y-89352380D02*
X178300000Y-88352380D01*
X178204761Y-88495238D01*
X178109523Y-88590476D01*
X178014285Y-88638095D01*
X177633333Y-92654380D02*
X177300000Y-92178190D01*
X177061904Y-92654380D02*
X177061904Y-91654380D01*
X177442857Y-91654380D01*
X177538095Y-91702000D01*
X177585714Y-91749619D01*
X177633333Y-91844857D01*
X177633333Y-91987714D01*
X177585714Y-92082952D01*
X177538095Y-92130571D01*
X177442857Y-92178190D01*
X177061904Y-92178190D01*
X178014285Y-91749619D02*
X178061904Y-91702000D01*
X178157142Y-91654380D01*
X178395238Y-91654380D01*
X178490476Y-91702000D01*
X178538095Y-91749619D01*
X178585714Y-91844857D01*
X178585714Y-91940095D01*
X178538095Y-92082952D01*
X177966666Y-92654380D01*
X178585714Y-92654380D01*
X173934380Y-99226666D02*
X173458190Y-99560000D01*
X173934380Y-99798095D02*
X172934380Y-99798095D01*
X172934380Y-99417142D01*
X172982000Y-99321904D01*
X173029619Y-99274285D01*
X173124857Y-99226666D01*
X173267714Y-99226666D01*
X173362952Y-99274285D01*
X173410571Y-99321904D01*
X173458190Y-99417142D01*
X173458190Y-99798095D01*
X172934380Y-98893333D02*
X172934380Y-98274285D01*
X173315333Y-98607619D01*
X173315333Y-98464761D01*
X173362952Y-98369523D01*
X173410571Y-98321904D01*
X173505809Y-98274285D01*
X173743904Y-98274285D01*
X173839142Y-98321904D01*
X173886761Y-98369523D01*
X173934380Y-98464761D01*
X173934380Y-98750476D01*
X173886761Y-98845714D01*
X173839142Y-98893333D01*
X165949333Y-91892380D02*
X165616000Y-91416190D01*
X165377904Y-91892380D02*
X165377904Y-90892380D01*
X165758857Y-90892380D01*
X165854095Y-90940000D01*
X165901714Y-90987619D01*
X165949333Y-91082857D01*
X165949333Y-91225714D01*
X165901714Y-91320952D01*
X165854095Y-91368571D01*
X165758857Y-91416190D01*
X165377904Y-91416190D01*
X166806476Y-91225714D02*
X166806476Y-91892380D01*
X166568380Y-90844761D02*
X166330285Y-91559047D01*
X166949333Y-91559047D01*
X125622666Y-107580261D02*
X125765523Y-107627880D01*
X126003619Y-107627880D01*
X126098857Y-107580261D01*
X126146476Y-107532642D01*
X126194095Y-107437404D01*
X126194095Y-107342166D01*
X126146476Y-107246928D01*
X126098857Y-107199309D01*
X126003619Y-107151690D01*
X125813142Y-107104071D01*
X125717904Y-107056452D01*
X125670285Y-107008833D01*
X125622666Y-106913595D01*
X125622666Y-106818357D01*
X125670285Y-106723119D01*
X125717904Y-106675500D01*
X125813142Y-106627880D01*
X126051238Y-106627880D01*
X126194095Y-106675500D01*
X126527428Y-106627880D02*
X126765523Y-107627880D01*
X126956000Y-106913595D01*
X127146476Y-107627880D01*
X127384571Y-106627880D01*
X128289333Y-107627880D02*
X127717904Y-107627880D01*
X128003619Y-107627880D02*
X128003619Y-106627880D01*
X127908380Y-106770738D01*
X127813142Y-106865976D01*
X127717904Y-106913595D01*
X165354095Y-98766380D02*
X165354095Y-99575904D01*
X165401714Y-99671142D01*
X165449333Y-99718761D01*
X165544571Y-99766380D01*
X165735047Y-99766380D01*
X165830285Y-99718761D01*
X165877904Y-99671142D01*
X165925523Y-99575904D01*
X165925523Y-98766380D01*
X166354095Y-98861619D02*
X166401714Y-98814000D01*
X166496952Y-98766380D01*
X166735047Y-98766380D01*
X166830285Y-98814000D01*
X166877904Y-98861619D01*
X166925523Y-98956857D01*
X166925523Y-99052095D01*
X166877904Y-99194952D01*
X166306476Y-99766380D01*
X166925523Y-99766380D01*
X177760380Y-100075904D02*
X178569904Y-100075904D01*
X178665142Y-100028285D01*
X178712761Y-99980666D01*
X178760380Y-99885428D01*
X178760380Y-99694952D01*
X178712761Y-99599714D01*
X178665142Y-99552095D01*
X178569904Y-99504476D01*
X177760380Y-99504476D01*
X177760380Y-99123523D02*
X177760380Y-98504476D01*
X178141333Y-98837809D01*
X178141333Y-98694952D01*
X178188952Y-98599714D01*
X178236571Y-98552095D01*
X178331809Y-98504476D01*
X178569904Y-98504476D01*
X178665142Y-98552095D01*
X178712761Y-98599714D01*
X178760380Y-98694952D01*
X178760380Y-98980666D01*
X178712761Y-99075904D01*
X178665142Y-99123523D01*
X165377904Y-104916380D02*
X165377904Y-103916380D01*
X165616000Y-103916380D01*
X165758857Y-103964000D01*
X165854095Y-104059238D01*
X165901714Y-104154476D01*
X165949333Y-104344952D01*
X165949333Y-104487809D01*
X165901714Y-104678285D01*
X165854095Y-104773523D01*
X165758857Y-104868761D01*
X165616000Y-104916380D01*
X165377904Y-104916380D01*
X166330285Y-104011619D02*
X166377904Y-103964000D01*
X166473142Y-103916380D01*
X166711238Y-103916380D01*
X166806476Y-103964000D01*
X166854095Y-104011619D01*
X166901714Y-104106857D01*
X166901714Y-104202095D01*
X166854095Y-104344952D01*
X166282666Y-104916380D01*
X166901714Y-104916380D01*
X162044095Y-105286380D02*
X162044095Y-104286380D01*
X162615523Y-105286380D02*
X162186952Y-104714952D01*
X162615523Y-104286380D02*
X162044095Y-104857809D01*
M02*
