%TF.GenerationSoftware,KiCad,Pcbnew,5.1.2*%
%TF.CreationDate,2019-07-27T12:22:43+10:00*%
%TF.ProjectId,bikePov,62696b65-506f-4762-9e6b-696361645f70,rev?*%
%TF.SameCoordinates,Original*%
%TF.FileFunction,Copper,L2,Bot*%
%TF.FilePolarity,Positive*%
%FSLAX46Y46*%
G04 Gerber Fmt 4.6, Leading zero omitted, Abs format (unit mm)*
G04 Created by KiCad (PCBNEW 5.1.2) date 2019-07-27 12:22:43*
%MOMM*%
%LPD*%
G04 APERTURE LIST*
%ADD10C,1.524000*%
%ADD11C,0.100000*%
%ADD12C,3.000000*%
%ADD13R,3.000000X3.000000*%
%ADD14R,1.700000X1.700000*%
%ADD15O,1.700000X1.700000*%
%ADD16C,1.600000*%
%ADD17R,2.200000X2.200000*%
%ADD18O,2.200000X2.200000*%
%ADD19O,1.600000X1.600000*%
%ADD20R,1.400000X1.400000*%
%ADD21C,1.400000*%
%ADD22R,1.600000X1.600000*%
%ADD23O,1.600000X1.100000*%
%ADD24R,1.600000X1.100000*%
%ADD25C,0.250000*%
G04 APERTURE END LIST*
D10*
X131572000Y-103632000D03*
D11*
G36*
X130818247Y-103520191D02*
G01*
X130832836Y-103446849D01*
X130854543Y-103375290D01*
X130883160Y-103306203D01*
X130918411Y-103240254D01*
X130959956Y-103178077D01*
X131007395Y-103120272D01*
X131060272Y-103067395D01*
X131118077Y-103019956D01*
X131180254Y-102978411D01*
X131246203Y-102943160D01*
X131315290Y-102914543D01*
X131386849Y-102892836D01*
X131460191Y-102878247D01*
X131534610Y-102870918D01*
X131609390Y-102870918D01*
X131683809Y-102878247D01*
X131757151Y-102892836D01*
X131828710Y-102914543D01*
X131897797Y-102943160D01*
X131963746Y-102978411D01*
X132025923Y-103019956D01*
X132083728Y-103067395D01*
X132136605Y-103120272D01*
X132184044Y-103178077D01*
X132225589Y-103240254D01*
X132260840Y-103306203D01*
X132289457Y-103375290D01*
X132311164Y-103446849D01*
X132325753Y-103520191D01*
X132333082Y-103594610D01*
X132333082Y-103669390D01*
X132325753Y-103743809D01*
X132322000Y-103762676D01*
X132322000Y-105632000D01*
X130822000Y-105632000D01*
X130822000Y-103762676D01*
X130818247Y-103743809D01*
X130810918Y-103669390D01*
X130810918Y-103594610D01*
X130818247Y-103520191D01*
X130818247Y-103520191D01*
G37*
D10*
X129032000Y-103632000D03*
D11*
G36*
X128278247Y-103520191D02*
G01*
X128292836Y-103446849D01*
X128314543Y-103375290D01*
X128343160Y-103306203D01*
X128378411Y-103240254D01*
X128419956Y-103178077D01*
X128467395Y-103120272D01*
X128520272Y-103067395D01*
X128578077Y-103019956D01*
X128640254Y-102978411D01*
X128706203Y-102943160D01*
X128775290Y-102914543D01*
X128846849Y-102892836D01*
X128920191Y-102878247D01*
X128994610Y-102870918D01*
X129069390Y-102870918D01*
X129143809Y-102878247D01*
X129217151Y-102892836D01*
X129288710Y-102914543D01*
X129357797Y-102943160D01*
X129423746Y-102978411D01*
X129485923Y-103019956D01*
X129543728Y-103067395D01*
X129596605Y-103120272D01*
X129644044Y-103178077D01*
X129685589Y-103240254D01*
X129720840Y-103306203D01*
X129749457Y-103375290D01*
X129771164Y-103446849D01*
X129785753Y-103520191D01*
X129793082Y-103594610D01*
X129793082Y-103669390D01*
X129785753Y-103743809D01*
X129782000Y-103762676D01*
X129782000Y-105632000D01*
X128282000Y-105632000D01*
X128282000Y-103762676D01*
X128278247Y-103743809D01*
X128270918Y-103669390D01*
X128270918Y-103594610D01*
X128278247Y-103520191D01*
X128278247Y-103520191D01*
G37*
D10*
X121412000Y-103632000D03*
D11*
G36*
X120658247Y-103520191D02*
G01*
X120672836Y-103446849D01*
X120694543Y-103375290D01*
X120723160Y-103306203D01*
X120758411Y-103240254D01*
X120799956Y-103178077D01*
X120847395Y-103120272D01*
X120900272Y-103067395D01*
X120958077Y-103019956D01*
X121020254Y-102978411D01*
X121086203Y-102943160D01*
X121155290Y-102914543D01*
X121226849Y-102892836D01*
X121300191Y-102878247D01*
X121374610Y-102870918D01*
X121449390Y-102870918D01*
X121523809Y-102878247D01*
X121597151Y-102892836D01*
X121668710Y-102914543D01*
X121737797Y-102943160D01*
X121803746Y-102978411D01*
X121865923Y-103019956D01*
X121923728Y-103067395D01*
X121976605Y-103120272D01*
X122024044Y-103178077D01*
X122065589Y-103240254D01*
X122100840Y-103306203D01*
X122129457Y-103375290D01*
X122151164Y-103446849D01*
X122165753Y-103520191D01*
X122173082Y-103594610D01*
X122173082Y-103669390D01*
X122165753Y-103743809D01*
X122162000Y-103762676D01*
X122162000Y-105632000D01*
X120662000Y-105632000D01*
X120662000Y-103762676D01*
X120658247Y-103743809D01*
X120650918Y-103669390D01*
X120650918Y-103594610D01*
X120658247Y-103520191D01*
X120658247Y-103520191D01*
G37*
D10*
X129032000Y-88392000D03*
D11*
G36*
X129785753Y-88503809D02*
G01*
X129771164Y-88577151D01*
X129749457Y-88648710D01*
X129720840Y-88717797D01*
X129685589Y-88783746D01*
X129644044Y-88845923D01*
X129596605Y-88903728D01*
X129543728Y-88956605D01*
X129485923Y-89004044D01*
X129423746Y-89045589D01*
X129357797Y-89080840D01*
X129288710Y-89109457D01*
X129217151Y-89131164D01*
X129143809Y-89145753D01*
X129069390Y-89153082D01*
X128994610Y-89153082D01*
X128920191Y-89145753D01*
X128846849Y-89131164D01*
X128775290Y-89109457D01*
X128706203Y-89080840D01*
X128640254Y-89045589D01*
X128578077Y-89004044D01*
X128520272Y-88956605D01*
X128467395Y-88903728D01*
X128419956Y-88845923D01*
X128378411Y-88783746D01*
X128343160Y-88717797D01*
X128314543Y-88648710D01*
X128292836Y-88577151D01*
X128278247Y-88503809D01*
X128270918Y-88429390D01*
X128270918Y-88354610D01*
X128278247Y-88280191D01*
X128282000Y-88261324D01*
X128282000Y-86392000D01*
X129782000Y-86392000D01*
X129782000Y-88261324D01*
X129785753Y-88280191D01*
X129793082Y-88354610D01*
X129793082Y-88429390D01*
X129785753Y-88503809D01*
X129785753Y-88503809D01*
G37*
D10*
X121412000Y-88392000D03*
D11*
G36*
X122165753Y-88503809D02*
G01*
X122151164Y-88577151D01*
X122129457Y-88648710D01*
X122100840Y-88717797D01*
X122065589Y-88783746D01*
X122024044Y-88845923D01*
X121976605Y-88903728D01*
X121923728Y-88956605D01*
X121865923Y-89004044D01*
X121803746Y-89045589D01*
X121737797Y-89080840D01*
X121668710Y-89109457D01*
X121597151Y-89131164D01*
X121523809Y-89145753D01*
X121449390Y-89153082D01*
X121374610Y-89153082D01*
X121300191Y-89145753D01*
X121226849Y-89131164D01*
X121155290Y-89109457D01*
X121086203Y-89080840D01*
X121020254Y-89045589D01*
X120958077Y-89004044D01*
X120900272Y-88956605D01*
X120847395Y-88903728D01*
X120799956Y-88845923D01*
X120758411Y-88783746D01*
X120723160Y-88717797D01*
X120694543Y-88648710D01*
X120672836Y-88577151D01*
X120658247Y-88503809D01*
X120650918Y-88429390D01*
X120650918Y-88354610D01*
X120658247Y-88280191D01*
X120662000Y-88261324D01*
X120662000Y-86392000D01*
X122162000Y-86392000D01*
X122162000Y-88261324D01*
X122165753Y-88280191D01*
X122173082Y-88354610D01*
X122173082Y-88429390D01*
X122165753Y-88503809D01*
X122165753Y-88503809D01*
G37*
D10*
X137795000Y-101600000D03*
D11*
G36*
X137683191Y-102353753D02*
G01*
X137664324Y-102350000D01*
X135795000Y-102350000D01*
X135795000Y-100850000D01*
X137664324Y-100850000D01*
X137683191Y-100846247D01*
X137757610Y-100838918D01*
X137832390Y-100838918D01*
X137906809Y-100846247D01*
X137980151Y-100860836D01*
X138051710Y-100882543D01*
X138120797Y-100911160D01*
X138186746Y-100946411D01*
X138248923Y-100987956D01*
X138306728Y-101035395D01*
X138359605Y-101088272D01*
X138407044Y-101146077D01*
X138448589Y-101208254D01*
X138483840Y-101274203D01*
X138512457Y-101343290D01*
X138534164Y-101414849D01*
X138548753Y-101488191D01*
X138556082Y-101562610D01*
X138556082Y-101637390D01*
X138548753Y-101711809D01*
X138534164Y-101785151D01*
X138512457Y-101856710D01*
X138483840Y-101925797D01*
X138448589Y-101991746D01*
X138407044Y-102053923D01*
X138359605Y-102111728D01*
X138306728Y-102164605D01*
X138248923Y-102212044D01*
X138186746Y-102253589D01*
X138120797Y-102288840D01*
X138051710Y-102317457D01*
X137980151Y-102339164D01*
X137906809Y-102353753D01*
X137832390Y-102361082D01*
X137757610Y-102361082D01*
X137683191Y-102353753D01*
X137683191Y-102353753D01*
G37*
D10*
X137795000Y-99060000D03*
D11*
G36*
X137683191Y-99813753D02*
G01*
X137664324Y-99810000D01*
X135795000Y-99810000D01*
X135795000Y-98310000D01*
X137664324Y-98310000D01*
X137683191Y-98306247D01*
X137757610Y-98298918D01*
X137832390Y-98298918D01*
X137906809Y-98306247D01*
X137980151Y-98320836D01*
X138051710Y-98342543D01*
X138120797Y-98371160D01*
X138186746Y-98406411D01*
X138248923Y-98447956D01*
X138306728Y-98495395D01*
X138359605Y-98548272D01*
X138407044Y-98606077D01*
X138448589Y-98668254D01*
X138483840Y-98734203D01*
X138512457Y-98803290D01*
X138534164Y-98874849D01*
X138548753Y-98948191D01*
X138556082Y-99022610D01*
X138556082Y-99097390D01*
X138548753Y-99171809D01*
X138534164Y-99245151D01*
X138512457Y-99316710D01*
X138483840Y-99385797D01*
X138448589Y-99451746D01*
X138407044Y-99513923D01*
X138359605Y-99571728D01*
X138306728Y-99624605D01*
X138248923Y-99672044D01*
X138186746Y-99713589D01*
X138120797Y-99748840D01*
X138051710Y-99777457D01*
X137980151Y-99799164D01*
X137906809Y-99813753D01*
X137832390Y-99821082D01*
X137757610Y-99821082D01*
X137683191Y-99813753D01*
X137683191Y-99813753D01*
G37*
D10*
X137795000Y-96520000D03*
D11*
G36*
X137683191Y-97273753D02*
G01*
X137664324Y-97270000D01*
X135795000Y-97270000D01*
X135795000Y-95770000D01*
X137664324Y-95770000D01*
X137683191Y-95766247D01*
X137757610Y-95758918D01*
X137832390Y-95758918D01*
X137906809Y-95766247D01*
X137980151Y-95780836D01*
X138051710Y-95802543D01*
X138120797Y-95831160D01*
X138186746Y-95866411D01*
X138248923Y-95907956D01*
X138306728Y-95955395D01*
X138359605Y-96008272D01*
X138407044Y-96066077D01*
X138448589Y-96128254D01*
X138483840Y-96194203D01*
X138512457Y-96263290D01*
X138534164Y-96334849D01*
X138548753Y-96408191D01*
X138556082Y-96482610D01*
X138556082Y-96557390D01*
X138548753Y-96631809D01*
X138534164Y-96705151D01*
X138512457Y-96776710D01*
X138483840Y-96845797D01*
X138448589Y-96911746D01*
X138407044Y-96973923D01*
X138359605Y-97031728D01*
X138306728Y-97084605D01*
X138248923Y-97132044D01*
X138186746Y-97173589D01*
X138120797Y-97208840D01*
X138051710Y-97237457D01*
X137980151Y-97259164D01*
X137906809Y-97273753D01*
X137832390Y-97281082D01*
X137757610Y-97281082D01*
X137683191Y-97273753D01*
X137683191Y-97273753D01*
G37*
D12*
X97282000Y-74231500D03*
D13*
X109982000Y-74231500D03*
D14*
X104267000Y-74295000D03*
D15*
X101727000Y-74295000D03*
D16*
X168656000Y-87630000D03*
X163656000Y-87630000D03*
X168576000Y-110744000D03*
X163576000Y-110744000D03*
D17*
X181610000Y-85598000D03*
D18*
X173990000Y-85598000D03*
X181610000Y-105918000D03*
D17*
X173990000Y-105918000D03*
D10*
X158115000Y-101600000D03*
D11*
G36*
X158226809Y-100846247D02*
G01*
X158245676Y-100850000D01*
X160115000Y-100850000D01*
X160115000Y-102350000D01*
X158245676Y-102350000D01*
X158226809Y-102353753D01*
X158152390Y-102361082D01*
X158077610Y-102361082D01*
X158003191Y-102353753D01*
X157929849Y-102339164D01*
X157858290Y-102317457D01*
X157789203Y-102288840D01*
X157723254Y-102253589D01*
X157661077Y-102212044D01*
X157603272Y-102164605D01*
X157550395Y-102111728D01*
X157502956Y-102053923D01*
X157461411Y-101991746D01*
X157426160Y-101925797D01*
X157397543Y-101856710D01*
X157375836Y-101785151D01*
X157361247Y-101711809D01*
X157353918Y-101637390D01*
X157353918Y-101562610D01*
X157361247Y-101488191D01*
X157375836Y-101414849D01*
X157397543Y-101343290D01*
X157426160Y-101274203D01*
X157461411Y-101208254D01*
X157502956Y-101146077D01*
X157550395Y-101088272D01*
X157603272Y-101035395D01*
X157661077Y-100987956D01*
X157723254Y-100946411D01*
X157789203Y-100911160D01*
X157858290Y-100882543D01*
X157929849Y-100860836D01*
X158003191Y-100846247D01*
X158077610Y-100838918D01*
X158152390Y-100838918D01*
X158226809Y-100846247D01*
X158226809Y-100846247D01*
G37*
D10*
X158115000Y-99060000D03*
D11*
G36*
X158226809Y-98306247D02*
G01*
X158245676Y-98310000D01*
X160115000Y-98310000D01*
X160115000Y-99810000D01*
X158245676Y-99810000D01*
X158226809Y-99813753D01*
X158152390Y-99821082D01*
X158077610Y-99821082D01*
X158003191Y-99813753D01*
X157929849Y-99799164D01*
X157858290Y-99777457D01*
X157789203Y-99748840D01*
X157723254Y-99713589D01*
X157661077Y-99672044D01*
X157603272Y-99624605D01*
X157550395Y-99571728D01*
X157502956Y-99513923D01*
X157461411Y-99451746D01*
X157426160Y-99385797D01*
X157397543Y-99316710D01*
X157375836Y-99245151D01*
X157361247Y-99171809D01*
X157353918Y-99097390D01*
X157353918Y-99022610D01*
X157361247Y-98948191D01*
X157375836Y-98874849D01*
X157397543Y-98803290D01*
X157426160Y-98734203D01*
X157461411Y-98668254D01*
X157502956Y-98606077D01*
X157550395Y-98548272D01*
X157603272Y-98495395D01*
X157661077Y-98447956D01*
X157723254Y-98406411D01*
X157789203Y-98371160D01*
X157858290Y-98342543D01*
X157929849Y-98320836D01*
X158003191Y-98306247D01*
X158077610Y-98298918D01*
X158152390Y-98298918D01*
X158226809Y-98306247D01*
X158226809Y-98306247D01*
G37*
D10*
X158115000Y-96520000D03*
D11*
G36*
X158226809Y-95766247D02*
G01*
X158245676Y-95770000D01*
X160115000Y-95770000D01*
X160115000Y-97270000D01*
X158245676Y-97270000D01*
X158226809Y-97273753D01*
X158152390Y-97281082D01*
X158077610Y-97281082D01*
X158003191Y-97273753D01*
X157929849Y-97259164D01*
X157858290Y-97237457D01*
X157789203Y-97208840D01*
X157723254Y-97173589D01*
X157661077Y-97132044D01*
X157603272Y-97084605D01*
X157550395Y-97031728D01*
X157502956Y-96973923D01*
X157461411Y-96911746D01*
X157426160Y-96845797D01*
X157397543Y-96776710D01*
X157375836Y-96705151D01*
X157361247Y-96631809D01*
X157353918Y-96557390D01*
X157353918Y-96482610D01*
X157361247Y-96408191D01*
X157375836Y-96334849D01*
X157397543Y-96263290D01*
X157426160Y-96194203D01*
X157461411Y-96128254D01*
X157502956Y-96066077D01*
X157550395Y-96008272D01*
X157603272Y-95955395D01*
X157661077Y-95907956D01*
X157723254Y-95866411D01*
X157789203Y-95831160D01*
X157858290Y-95802543D01*
X157929849Y-95780836D01*
X158003191Y-95766247D01*
X158077610Y-95758918D01*
X158152390Y-95758918D01*
X158226809Y-95766247D01*
X158226809Y-95766247D01*
G37*
D16*
X181610000Y-88900000D03*
D19*
X173990000Y-88900000D03*
X173990000Y-92202000D03*
D16*
X181610000Y-92202000D03*
D19*
X173482000Y-102870000D03*
D16*
X173482000Y-95250000D03*
D19*
X162306000Y-91440000D03*
D16*
X169926000Y-91440000D03*
D20*
X124206000Y-108775500D03*
D21*
X126706000Y-108775500D03*
X129206000Y-108775500D03*
X124206000Y-112075500D03*
X126706000Y-112075500D03*
X129206000Y-112075500D03*
D22*
X169926000Y-102870000D03*
D19*
X162306000Y-95250000D03*
X169926000Y-100330000D03*
X162306000Y-97790000D03*
X169926000Y-97790000D03*
X162306000Y-100330000D03*
X169926000Y-95250000D03*
X162306000Y-102870000D03*
D23*
X176339500Y-97790000D03*
X176339500Y-99060000D03*
D24*
X176339500Y-100330000D03*
D10*
X132397500Y-85852000D03*
D11*
G36*
X133151253Y-85963809D02*
G01*
X133147500Y-85982676D01*
X133147500Y-87852000D01*
X131647500Y-87852000D01*
X131647500Y-85982676D01*
X131643747Y-85963809D01*
X131636418Y-85889390D01*
X131636418Y-85814610D01*
X131643747Y-85740191D01*
X131658336Y-85666849D01*
X131680043Y-85595290D01*
X131708660Y-85526203D01*
X131743911Y-85460254D01*
X131785456Y-85398077D01*
X131832895Y-85340272D01*
X131885772Y-85287395D01*
X131943577Y-85239956D01*
X132005754Y-85198411D01*
X132071703Y-85163160D01*
X132140790Y-85134543D01*
X132212349Y-85112836D01*
X132285691Y-85098247D01*
X132360110Y-85090918D01*
X132434890Y-85090918D01*
X132509309Y-85098247D01*
X132582651Y-85112836D01*
X132654210Y-85134543D01*
X132723297Y-85163160D01*
X132789246Y-85198411D01*
X132851423Y-85239956D01*
X132909228Y-85287395D01*
X132962105Y-85340272D01*
X133009544Y-85398077D01*
X133051089Y-85460254D01*
X133086340Y-85526203D01*
X133114957Y-85595290D01*
X133136664Y-85666849D01*
X133151253Y-85740191D01*
X133158582Y-85814610D01*
X133158582Y-85889390D01*
X133151253Y-85963809D01*
X133151253Y-85963809D01*
G37*
D10*
X134937500Y-85852000D03*
D11*
G36*
X135691253Y-85963809D02*
G01*
X135687500Y-85982676D01*
X135687500Y-87852000D01*
X134187500Y-87852000D01*
X134187500Y-85982676D01*
X134183747Y-85963809D01*
X134176418Y-85889390D01*
X134176418Y-85814610D01*
X134183747Y-85740191D01*
X134198336Y-85666849D01*
X134220043Y-85595290D01*
X134248660Y-85526203D01*
X134283911Y-85460254D01*
X134325456Y-85398077D01*
X134372895Y-85340272D01*
X134425772Y-85287395D01*
X134483577Y-85239956D01*
X134545754Y-85198411D01*
X134611703Y-85163160D01*
X134680790Y-85134543D01*
X134752349Y-85112836D01*
X134825691Y-85098247D01*
X134900110Y-85090918D01*
X134974890Y-85090918D01*
X135049309Y-85098247D01*
X135122651Y-85112836D01*
X135194210Y-85134543D01*
X135263297Y-85163160D01*
X135329246Y-85198411D01*
X135391423Y-85239956D01*
X135449228Y-85287395D01*
X135502105Y-85340272D01*
X135549544Y-85398077D01*
X135591089Y-85460254D01*
X135626340Y-85526203D01*
X135654957Y-85595290D01*
X135676664Y-85666849D01*
X135691253Y-85740191D01*
X135698582Y-85814610D01*
X135698582Y-85889390D01*
X135691253Y-85963809D01*
X135691253Y-85963809D01*
G37*
D10*
X137477500Y-85852000D03*
D11*
G36*
X138231253Y-85963809D02*
G01*
X138227500Y-85982676D01*
X138227500Y-87852000D01*
X136727500Y-87852000D01*
X136727500Y-85982676D01*
X136723747Y-85963809D01*
X136716418Y-85889390D01*
X136716418Y-85814610D01*
X136723747Y-85740191D01*
X136738336Y-85666849D01*
X136760043Y-85595290D01*
X136788660Y-85526203D01*
X136823911Y-85460254D01*
X136865456Y-85398077D01*
X136912895Y-85340272D01*
X136965772Y-85287395D01*
X137023577Y-85239956D01*
X137085754Y-85198411D01*
X137151703Y-85163160D01*
X137220790Y-85134543D01*
X137292349Y-85112836D01*
X137365691Y-85098247D01*
X137440110Y-85090918D01*
X137514890Y-85090918D01*
X137589309Y-85098247D01*
X137662651Y-85112836D01*
X137734210Y-85134543D01*
X137803297Y-85163160D01*
X137869246Y-85198411D01*
X137931423Y-85239956D01*
X137989228Y-85287395D01*
X138042105Y-85340272D01*
X138089544Y-85398077D01*
X138131089Y-85460254D01*
X138166340Y-85526203D01*
X138194957Y-85595290D01*
X138216664Y-85666849D01*
X138231253Y-85740191D01*
X138238582Y-85814610D01*
X138238582Y-85889390D01*
X138231253Y-85963809D01*
X138231253Y-85963809D01*
G37*
D10*
X132334000Y-112268000D03*
D11*
G36*
X131580247Y-112156191D02*
G01*
X131584000Y-112137324D01*
X131584000Y-110268000D01*
X133084000Y-110268000D01*
X133084000Y-112137324D01*
X133087753Y-112156191D01*
X133095082Y-112230610D01*
X133095082Y-112305390D01*
X133087753Y-112379809D01*
X133073164Y-112453151D01*
X133051457Y-112524710D01*
X133022840Y-112593797D01*
X132987589Y-112659746D01*
X132946044Y-112721923D01*
X132898605Y-112779728D01*
X132845728Y-112832605D01*
X132787923Y-112880044D01*
X132725746Y-112921589D01*
X132659797Y-112956840D01*
X132590710Y-112985457D01*
X132519151Y-113007164D01*
X132445809Y-113021753D01*
X132371390Y-113029082D01*
X132296610Y-113029082D01*
X132222191Y-113021753D01*
X132148849Y-113007164D01*
X132077290Y-112985457D01*
X132008203Y-112956840D01*
X131942254Y-112921589D01*
X131880077Y-112880044D01*
X131822272Y-112832605D01*
X131769395Y-112779728D01*
X131721956Y-112721923D01*
X131680411Y-112659746D01*
X131645160Y-112593797D01*
X131616543Y-112524710D01*
X131594836Y-112453151D01*
X131580247Y-112379809D01*
X131572918Y-112305390D01*
X131572918Y-112230610D01*
X131580247Y-112156191D01*
X131580247Y-112156191D01*
G37*
D10*
X134874000Y-112268000D03*
D11*
G36*
X134120247Y-112156191D02*
G01*
X134124000Y-112137324D01*
X134124000Y-110268000D01*
X135624000Y-110268000D01*
X135624000Y-112137324D01*
X135627753Y-112156191D01*
X135635082Y-112230610D01*
X135635082Y-112305390D01*
X135627753Y-112379809D01*
X135613164Y-112453151D01*
X135591457Y-112524710D01*
X135562840Y-112593797D01*
X135527589Y-112659746D01*
X135486044Y-112721923D01*
X135438605Y-112779728D01*
X135385728Y-112832605D01*
X135327923Y-112880044D01*
X135265746Y-112921589D01*
X135199797Y-112956840D01*
X135130710Y-112985457D01*
X135059151Y-113007164D01*
X134985809Y-113021753D01*
X134911390Y-113029082D01*
X134836610Y-113029082D01*
X134762191Y-113021753D01*
X134688849Y-113007164D01*
X134617290Y-112985457D01*
X134548203Y-112956840D01*
X134482254Y-112921589D01*
X134420077Y-112880044D01*
X134362272Y-112832605D01*
X134309395Y-112779728D01*
X134261956Y-112721923D01*
X134220411Y-112659746D01*
X134185160Y-112593797D01*
X134156543Y-112524710D01*
X134134836Y-112453151D01*
X134120247Y-112379809D01*
X134112918Y-112305390D01*
X134112918Y-112230610D01*
X134120247Y-112156191D01*
X134120247Y-112156191D01*
G37*
D10*
X137414000Y-112268000D03*
D11*
G36*
X136660247Y-112156191D02*
G01*
X136664000Y-112137324D01*
X136664000Y-110268000D01*
X138164000Y-110268000D01*
X138164000Y-112137324D01*
X138167753Y-112156191D01*
X138175082Y-112230610D01*
X138175082Y-112305390D01*
X138167753Y-112379809D01*
X138153164Y-112453151D01*
X138131457Y-112524710D01*
X138102840Y-112593797D01*
X138067589Y-112659746D01*
X138026044Y-112721923D01*
X137978605Y-112779728D01*
X137925728Y-112832605D01*
X137867923Y-112880044D01*
X137805746Y-112921589D01*
X137739797Y-112956840D01*
X137670710Y-112985457D01*
X137599151Y-113007164D01*
X137525809Y-113021753D01*
X137451390Y-113029082D01*
X137376610Y-113029082D01*
X137302191Y-113021753D01*
X137228849Y-113007164D01*
X137157290Y-112985457D01*
X137088203Y-112956840D01*
X137022254Y-112921589D01*
X136960077Y-112880044D01*
X136902272Y-112832605D01*
X136849395Y-112779728D01*
X136801956Y-112721923D01*
X136760411Y-112659746D01*
X136725160Y-112593797D01*
X136696543Y-112524710D01*
X136674836Y-112453151D01*
X136660247Y-112379809D01*
X136652918Y-112305390D01*
X136652918Y-112230610D01*
X136660247Y-112156191D01*
X136660247Y-112156191D01*
G37*
D17*
X162306000Y-106934000D03*
D18*
X169926000Y-106934000D03*
D25*
X163576000Y-101600000D02*
X169926000Y-95250000D01*
X158115000Y-101600000D02*
X163576000Y-101600000D01*
X160020000Y-91440000D02*
X162306000Y-91440000D01*
X158115000Y-93345000D02*
X160020000Y-91440000D01*
X158115000Y-96520000D02*
X158115000Y-93345000D01*
X162306000Y-88980000D02*
X163656000Y-87630000D01*
X162306000Y-91440000D02*
X162306000Y-88980000D01*
X157508069Y-97126931D02*
X157444569Y-97126931D01*
X158115000Y-96520000D02*
X157508069Y-97126931D01*
X157444569Y-97126931D02*
X156591000Y-97980500D01*
X156591000Y-97980500D02*
X156591000Y-102108000D01*
X157353000Y-102870000D02*
X162306000Y-102870000D01*
X156591000Y-102108000D02*
X157353000Y-102870000D01*
X162306000Y-104001370D02*
X162306000Y-106934000D01*
X162306000Y-102870000D02*
X162306000Y-104001370D01*
X162306000Y-109474000D02*
X163576000Y-110744000D01*
X162306000Y-106934000D02*
X162306000Y-109474000D01*
X166560500Y-102870000D02*
X162306000Y-102870000D01*
X168338500Y-104648000D02*
X166560500Y-102870000D01*
X171704000Y-104648000D02*
X168338500Y-104648000D01*
X173482000Y-102870000D02*
X171704000Y-104648000D01*
X174281999Y-102070001D02*
X173482000Y-102870000D01*
X176022000Y-100330000D02*
X174281999Y-102070001D01*
X176339500Y-100330000D02*
X176022000Y-100330000D01*
X173482000Y-95250000D02*
X176339500Y-95250000D01*
X176339500Y-95250000D02*
X177800000Y-96710500D01*
X177800000Y-96710500D02*
X177800000Y-103505000D01*
X175387000Y-105918000D02*
X173990000Y-105918000D01*
X177800000Y-103505000D02*
X175387000Y-105918000D01*
X180810001Y-93001999D02*
X181610000Y-92202000D01*
X177800000Y-96012000D02*
X180810001Y-93001999D01*
X177800000Y-96710500D02*
X177800000Y-96012000D01*
X159385000Y-100330000D02*
X162306000Y-100330000D01*
X158115000Y-99060000D02*
X159385000Y-100330000D01*
X171761990Y-95954010D02*
X171761990Y-91128010D01*
X173190001Y-89699999D02*
X173990000Y-88900000D01*
X171761990Y-91128010D02*
X173190001Y-89699999D01*
X169926000Y-97790000D02*
X171761990Y-95954010D01*
X173990000Y-92202000D02*
X172212000Y-93980000D01*
X172212000Y-98044000D02*
X169926000Y-100330000D01*
X172212000Y-93980000D02*
X172212000Y-98044000D01*
X162306000Y-95250000D02*
X164211000Y-95250000D01*
X168021000Y-91440000D02*
X169926000Y-91440000D01*
X164211000Y-95250000D02*
X168021000Y-91440000D01*
M02*
