%TF.GenerationSoftware,KiCad,Pcbnew,5.1.2*%
%TF.CreationDate,2019-07-26T15:54:53+10:00*%
%TF.ProjectId,bike_pov,62696b65-5f70-46f7-962e-6b696361645f,rev?*%
%TF.SameCoordinates,Original*%
%TF.FileFunction,Profile,NP*%
%FSLAX46Y46*%
G04 Gerber Fmt 4.6, Leading zero omitted, Abs format (unit mm)*
G04 Created by KiCad (PCBNEW 5.1.2) date 2019-07-26 15:54:53*
%MOMM*%
%LPD*%
G04 APERTURE LIST*
%ADD10C,0.100000*%
G04 APERTURE END LIST*
D10*
X86360000Y-73025000D02*
X86360000Y-122888000D01*
X90424000Y-126952000D02*
G75*
G02X86360000Y-122888000I0J4064000D01*
G01*
X142875000Y-126952000D02*
X90424000Y-126952000D01*
X142875000Y-69009000D02*
X90424000Y-69009000D01*
X86360000Y-73073000D02*
G75*
G02X90424000Y-69009000I4064000J0D01*
G01*
X146939000Y-86233000D02*
X146939000Y-73073000D01*
X146939000Y-122888000D02*
X146939000Y-109728000D01*
X153040000Y-82170000D02*
X180850000Y-82170000D01*
X153040000Y-115950000D02*
X180850000Y-115950000D01*
X184900000Y-111890000D02*
X184900000Y-86220000D01*
X184900000Y-111887000D02*
G75*
G02X180836000Y-115951000I-4064000J0D01*
G01*
X180836000Y-82170000D02*
G75*
G02X184900000Y-86234000I0J-4064000D01*
G01*
X146939000Y-109728000D02*
G75*
G02X148971000Y-109728000I1016000J0D01*
G01*
X148971000Y-109728000D02*
X148971000Y-111887000D01*
X148971000Y-86233000D02*
G75*
G02X153035000Y-82169000I4064000J0D01*
G01*
X148971000Y-88392000D02*
X148971000Y-86233000D01*
X153035000Y-115951000D02*
G75*
G02X148971000Y-111887000I0J4064000D01*
G01*
X146939000Y-88392000D02*
X146939000Y-86233000D01*
X146939000Y-122888000D02*
G75*
G02X142875000Y-126952000I-4064000J0D01*
G01*
X148971000Y-88392000D02*
G75*
G02X146939000Y-88392000I-1016000J0D01*
G01*
X142875000Y-69009000D02*
G75*
G02X146939000Y-73073000I0J-4064000D01*
G01*
M02*
