%TF.GenerationSoftware,KiCad,Pcbnew,5.1.2*%
%TF.CreationDate,2019-07-26T15:54:52+10:00*%
%TF.ProjectId,bike_pov,62696b65-5f70-46f7-962e-6b696361645f,rev?*%
%TF.SameCoordinates,Original*%
%TF.FileFunction,Copper,L1,Top*%
%TF.FilePolarity,Positive*%
%FSLAX46Y46*%
G04 Gerber Fmt 4.6, Leading zero omitted, Abs format (unit mm)*
G04 Created by KiCad (PCBNEW 5.1.2) date 2019-07-26 15:54:52*
%MOMM*%
%LPD*%
G04 APERTURE LIST*
%ADD10C,1.524000*%
%ADD11C,0.100000*%
%ADD12C,3.000000*%
%ADD13R,3.000000X3.000000*%
%ADD14R,1.700000X1.700000*%
%ADD15O,1.700000X1.700000*%
%ADD16C,1.600000*%
%ADD17R,2.200000X2.200000*%
%ADD18O,2.200000X2.200000*%
%ADD19R,0.450000X1.380000*%
%ADD20R,1.475000X2.100000*%
%ADD21R,2.375000X1.900000*%
%ADD22R,1.175000X1.900000*%
%ADD23O,1.600000X1.600000*%
%ADD24R,1.400000X1.400000*%
%ADD25C,1.400000*%
%ADD26R,1.600000X1.600000*%
%ADD27O,1.600000X1.100000*%
%ADD28R,1.600000X1.100000*%
%ADD29C,0.400000*%
%ADD30C,0.250000*%
%ADD31C,0.254000*%
G04 APERTURE END LIST*
D10*
X137795000Y-101600000D03*
D11*
G36*
X137683191Y-102353753D02*
G01*
X137664324Y-102350000D01*
X135795000Y-102350000D01*
X135795000Y-100850000D01*
X137664324Y-100850000D01*
X137683191Y-100846247D01*
X137757610Y-100838918D01*
X137832390Y-100838918D01*
X137906809Y-100846247D01*
X137980151Y-100860836D01*
X138051710Y-100882543D01*
X138120797Y-100911160D01*
X138186746Y-100946411D01*
X138248923Y-100987956D01*
X138306728Y-101035395D01*
X138359605Y-101088272D01*
X138407044Y-101146077D01*
X138448589Y-101208254D01*
X138483840Y-101274203D01*
X138512457Y-101343290D01*
X138534164Y-101414849D01*
X138548753Y-101488191D01*
X138556082Y-101562610D01*
X138556082Y-101637390D01*
X138548753Y-101711809D01*
X138534164Y-101785151D01*
X138512457Y-101856710D01*
X138483840Y-101925797D01*
X138448589Y-101991746D01*
X138407044Y-102053923D01*
X138359605Y-102111728D01*
X138306728Y-102164605D01*
X138248923Y-102212044D01*
X138186746Y-102253589D01*
X138120797Y-102288840D01*
X138051710Y-102317457D01*
X137980151Y-102339164D01*
X137906809Y-102353753D01*
X137832390Y-102361082D01*
X137757610Y-102361082D01*
X137683191Y-102353753D01*
X137683191Y-102353753D01*
G37*
D10*
X137795000Y-99060000D03*
D11*
G36*
X137683191Y-99813753D02*
G01*
X137664324Y-99810000D01*
X135795000Y-99810000D01*
X135795000Y-98310000D01*
X137664324Y-98310000D01*
X137683191Y-98306247D01*
X137757610Y-98298918D01*
X137832390Y-98298918D01*
X137906809Y-98306247D01*
X137980151Y-98320836D01*
X138051710Y-98342543D01*
X138120797Y-98371160D01*
X138186746Y-98406411D01*
X138248923Y-98447956D01*
X138306728Y-98495395D01*
X138359605Y-98548272D01*
X138407044Y-98606077D01*
X138448589Y-98668254D01*
X138483840Y-98734203D01*
X138512457Y-98803290D01*
X138534164Y-98874849D01*
X138548753Y-98948191D01*
X138556082Y-99022610D01*
X138556082Y-99097390D01*
X138548753Y-99171809D01*
X138534164Y-99245151D01*
X138512457Y-99316710D01*
X138483840Y-99385797D01*
X138448589Y-99451746D01*
X138407044Y-99513923D01*
X138359605Y-99571728D01*
X138306728Y-99624605D01*
X138248923Y-99672044D01*
X138186746Y-99713589D01*
X138120797Y-99748840D01*
X138051710Y-99777457D01*
X137980151Y-99799164D01*
X137906809Y-99813753D01*
X137832390Y-99821082D01*
X137757610Y-99821082D01*
X137683191Y-99813753D01*
X137683191Y-99813753D01*
G37*
D10*
X137795000Y-96520000D03*
D11*
G36*
X137683191Y-97273753D02*
G01*
X137664324Y-97270000D01*
X135795000Y-97270000D01*
X135795000Y-95770000D01*
X137664324Y-95770000D01*
X137683191Y-95766247D01*
X137757610Y-95758918D01*
X137832390Y-95758918D01*
X137906809Y-95766247D01*
X137980151Y-95780836D01*
X138051710Y-95802543D01*
X138120797Y-95831160D01*
X138186746Y-95866411D01*
X138248923Y-95907956D01*
X138306728Y-95955395D01*
X138359605Y-96008272D01*
X138407044Y-96066077D01*
X138448589Y-96128254D01*
X138483840Y-96194203D01*
X138512457Y-96263290D01*
X138534164Y-96334849D01*
X138548753Y-96408191D01*
X138556082Y-96482610D01*
X138556082Y-96557390D01*
X138548753Y-96631809D01*
X138534164Y-96705151D01*
X138512457Y-96776710D01*
X138483840Y-96845797D01*
X138448589Y-96911746D01*
X138407044Y-96973923D01*
X138359605Y-97031728D01*
X138306728Y-97084605D01*
X138248923Y-97132044D01*
X138186746Y-97173589D01*
X138120797Y-97208840D01*
X138051710Y-97237457D01*
X137980151Y-97259164D01*
X137906809Y-97273753D01*
X137832390Y-97281082D01*
X137757610Y-97281082D01*
X137683191Y-97273753D01*
X137683191Y-97273753D01*
G37*
D10*
X131572000Y-103632000D03*
D11*
G36*
X130818247Y-103520191D02*
G01*
X130832836Y-103446849D01*
X130854543Y-103375290D01*
X130883160Y-103306203D01*
X130918411Y-103240254D01*
X130959956Y-103178077D01*
X131007395Y-103120272D01*
X131060272Y-103067395D01*
X131118077Y-103019956D01*
X131180254Y-102978411D01*
X131246203Y-102943160D01*
X131315290Y-102914543D01*
X131386849Y-102892836D01*
X131460191Y-102878247D01*
X131534610Y-102870918D01*
X131609390Y-102870918D01*
X131683809Y-102878247D01*
X131757151Y-102892836D01*
X131828710Y-102914543D01*
X131897797Y-102943160D01*
X131963746Y-102978411D01*
X132025923Y-103019956D01*
X132083728Y-103067395D01*
X132136605Y-103120272D01*
X132184044Y-103178077D01*
X132225589Y-103240254D01*
X132260840Y-103306203D01*
X132289457Y-103375290D01*
X132311164Y-103446849D01*
X132325753Y-103520191D01*
X132333082Y-103594610D01*
X132333082Y-103669390D01*
X132325753Y-103743809D01*
X132322000Y-103762676D01*
X132322000Y-105632000D01*
X130822000Y-105632000D01*
X130822000Y-103762676D01*
X130818247Y-103743809D01*
X130810918Y-103669390D01*
X130810918Y-103594610D01*
X130818247Y-103520191D01*
X130818247Y-103520191D01*
G37*
D10*
X129032000Y-103632000D03*
D11*
G36*
X128278247Y-103520191D02*
G01*
X128292836Y-103446849D01*
X128314543Y-103375290D01*
X128343160Y-103306203D01*
X128378411Y-103240254D01*
X128419956Y-103178077D01*
X128467395Y-103120272D01*
X128520272Y-103067395D01*
X128578077Y-103019956D01*
X128640254Y-102978411D01*
X128706203Y-102943160D01*
X128775290Y-102914543D01*
X128846849Y-102892836D01*
X128920191Y-102878247D01*
X128994610Y-102870918D01*
X129069390Y-102870918D01*
X129143809Y-102878247D01*
X129217151Y-102892836D01*
X129288710Y-102914543D01*
X129357797Y-102943160D01*
X129423746Y-102978411D01*
X129485923Y-103019956D01*
X129543728Y-103067395D01*
X129596605Y-103120272D01*
X129644044Y-103178077D01*
X129685589Y-103240254D01*
X129720840Y-103306203D01*
X129749457Y-103375290D01*
X129771164Y-103446849D01*
X129785753Y-103520191D01*
X129793082Y-103594610D01*
X129793082Y-103669390D01*
X129785753Y-103743809D01*
X129782000Y-103762676D01*
X129782000Y-105632000D01*
X128282000Y-105632000D01*
X128282000Y-103762676D01*
X128278247Y-103743809D01*
X128270918Y-103669390D01*
X128270918Y-103594610D01*
X128278247Y-103520191D01*
X128278247Y-103520191D01*
G37*
D10*
X121412000Y-103632000D03*
D11*
G36*
X120658247Y-103520191D02*
G01*
X120672836Y-103446849D01*
X120694543Y-103375290D01*
X120723160Y-103306203D01*
X120758411Y-103240254D01*
X120799956Y-103178077D01*
X120847395Y-103120272D01*
X120900272Y-103067395D01*
X120958077Y-103019956D01*
X121020254Y-102978411D01*
X121086203Y-102943160D01*
X121155290Y-102914543D01*
X121226849Y-102892836D01*
X121300191Y-102878247D01*
X121374610Y-102870918D01*
X121449390Y-102870918D01*
X121523809Y-102878247D01*
X121597151Y-102892836D01*
X121668710Y-102914543D01*
X121737797Y-102943160D01*
X121803746Y-102978411D01*
X121865923Y-103019956D01*
X121923728Y-103067395D01*
X121976605Y-103120272D01*
X122024044Y-103178077D01*
X122065589Y-103240254D01*
X122100840Y-103306203D01*
X122129457Y-103375290D01*
X122151164Y-103446849D01*
X122165753Y-103520191D01*
X122173082Y-103594610D01*
X122173082Y-103669390D01*
X122165753Y-103743809D01*
X122162000Y-103762676D01*
X122162000Y-105632000D01*
X120662000Y-105632000D01*
X120662000Y-103762676D01*
X120658247Y-103743809D01*
X120650918Y-103669390D01*
X120650918Y-103594610D01*
X120658247Y-103520191D01*
X120658247Y-103520191D01*
G37*
D10*
X129032000Y-88392000D03*
D11*
G36*
X129785753Y-88503809D02*
G01*
X129771164Y-88577151D01*
X129749457Y-88648710D01*
X129720840Y-88717797D01*
X129685589Y-88783746D01*
X129644044Y-88845923D01*
X129596605Y-88903728D01*
X129543728Y-88956605D01*
X129485923Y-89004044D01*
X129423746Y-89045589D01*
X129357797Y-89080840D01*
X129288710Y-89109457D01*
X129217151Y-89131164D01*
X129143809Y-89145753D01*
X129069390Y-89153082D01*
X128994610Y-89153082D01*
X128920191Y-89145753D01*
X128846849Y-89131164D01*
X128775290Y-89109457D01*
X128706203Y-89080840D01*
X128640254Y-89045589D01*
X128578077Y-89004044D01*
X128520272Y-88956605D01*
X128467395Y-88903728D01*
X128419956Y-88845923D01*
X128378411Y-88783746D01*
X128343160Y-88717797D01*
X128314543Y-88648710D01*
X128292836Y-88577151D01*
X128278247Y-88503809D01*
X128270918Y-88429390D01*
X128270918Y-88354610D01*
X128278247Y-88280191D01*
X128282000Y-88261324D01*
X128282000Y-86392000D01*
X129782000Y-86392000D01*
X129782000Y-88261324D01*
X129785753Y-88280191D01*
X129793082Y-88354610D01*
X129793082Y-88429390D01*
X129785753Y-88503809D01*
X129785753Y-88503809D01*
G37*
D10*
X121412000Y-88392000D03*
D11*
G36*
X122165753Y-88503809D02*
G01*
X122151164Y-88577151D01*
X122129457Y-88648710D01*
X122100840Y-88717797D01*
X122065589Y-88783746D01*
X122024044Y-88845923D01*
X121976605Y-88903728D01*
X121923728Y-88956605D01*
X121865923Y-89004044D01*
X121803746Y-89045589D01*
X121737797Y-89080840D01*
X121668710Y-89109457D01*
X121597151Y-89131164D01*
X121523809Y-89145753D01*
X121449390Y-89153082D01*
X121374610Y-89153082D01*
X121300191Y-89145753D01*
X121226849Y-89131164D01*
X121155290Y-89109457D01*
X121086203Y-89080840D01*
X121020254Y-89045589D01*
X120958077Y-89004044D01*
X120900272Y-88956605D01*
X120847395Y-88903728D01*
X120799956Y-88845923D01*
X120758411Y-88783746D01*
X120723160Y-88717797D01*
X120694543Y-88648710D01*
X120672836Y-88577151D01*
X120658247Y-88503809D01*
X120650918Y-88429390D01*
X120650918Y-88354610D01*
X120658247Y-88280191D01*
X120662000Y-88261324D01*
X120662000Y-86392000D01*
X122162000Y-86392000D01*
X122162000Y-88261324D01*
X122165753Y-88280191D01*
X122173082Y-88354610D01*
X122173082Y-88429390D01*
X122165753Y-88503809D01*
X122165753Y-88503809D01*
G37*
D12*
X97282000Y-74231500D03*
D13*
X109982000Y-74231500D03*
D14*
X104267000Y-74295000D03*
D15*
X101727000Y-74295000D03*
D16*
X168656000Y-87630000D03*
X163656000Y-87630000D03*
X168576000Y-110744000D03*
X163576000Y-110744000D03*
D17*
X181610000Y-85598000D03*
D18*
X173990000Y-85598000D03*
X181610000Y-105918000D03*
D17*
X173990000Y-105918000D03*
D10*
X158115000Y-101600000D03*
D11*
G36*
X158226809Y-100846247D02*
G01*
X158245676Y-100850000D01*
X160115000Y-100850000D01*
X160115000Y-102350000D01*
X158245676Y-102350000D01*
X158226809Y-102353753D01*
X158152390Y-102361082D01*
X158077610Y-102361082D01*
X158003191Y-102353753D01*
X157929849Y-102339164D01*
X157858290Y-102317457D01*
X157789203Y-102288840D01*
X157723254Y-102253589D01*
X157661077Y-102212044D01*
X157603272Y-102164605D01*
X157550395Y-102111728D01*
X157502956Y-102053923D01*
X157461411Y-101991746D01*
X157426160Y-101925797D01*
X157397543Y-101856710D01*
X157375836Y-101785151D01*
X157361247Y-101711809D01*
X157353918Y-101637390D01*
X157353918Y-101562610D01*
X157361247Y-101488191D01*
X157375836Y-101414849D01*
X157397543Y-101343290D01*
X157426160Y-101274203D01*
X157461411Y-101208254D01*
X157502956Y-101146077D01*
X157550395Y-101088272D01*
X157603272Y-101035395D01*
X157661077Y-100987956D01*
X157723254Y-100946411D01*
X157789203Y-100911160D01*
X157858290Y-100882543D01*
X157929849Y-100860836D01*
X158003191Y-100846247D01*
X158077610Y-100838918D01*
X158152390Y-100838918D01*
X158226809Y-100846247D01*
X158226809Y-100846247D01*
G37*
D10*
X158115000Y-99060000D03*
D11*
G36*
X158226809Y-98306247D02*
G01*
X158245676Y-98310000D01*
X160115000Y-98310000D01*
X160115000Y-99810000D01*
X158245676Y-99810000D01*
X158226809Y-99813753D01*
X158152390Y-99821082D01*
X158077610Y-99821082D01*
X158003191Y-99813753D01*
X157929849Y-99799164D01*
X157858290Y-99777457D01*
X157789203Y-99748840D01*
X157723254Y-99713589D01*
X157661077Y-99672044D01*
X157603272Y-99624605D01*
X157550395Y-99571728D01*
X157502956Y-99513923D01*
X157461411Y-99451746D01*
X157426160Y-99385797D01*
X157397543Y-99316710D01*
X157375836Y-99245151D01*
X157361247Y-99171809D01*
X157353918Y-99097390D01*
X157353918Y-99022610D01*
X157361247Y-98948191D01*
X157375836Y-98874849D01*
X157397543Y-98803290D01*
X157426160Y-98734203D01*
X157461411Y-98668254D01*
X157502956Y-98606077D01*
X157550395Y-98548272D01*
X157603272Y-98495395D01*
X157661077Y-98447956D01*
X157723254Y-98406411D01*
X157789203Y-98371160D01*
X157858290Y-98342543D01*
X157929849Y-98320836D01*
X158003191Y-98306247D01*
X158077610Y-98298918D01*
X158152390Y-98298918D01*
X158226809Y-98306247D01*
X158226809Y-98306247D01*
G37*
D10*
X158115000Y-96520000D03*
D11*
G36*
X158226809Y-95766247D02*
G01*
X158245676Y-95770000D01*
X160115000Y-95770000D01*
X160115000Y-97270000D01*
X158245676Y-97270000D01*
X158226809Y-97273753D01*
X158152390Y-97281082D01*
X158077610Y-97281082D01*
X158003191Y-97273753D01*
X157929849Y-97259164D01*
X157858290Y-97237457D01*
X157789203Y-97208840D01*
X157723254Y-97173589D01*
X157661077Y-97132044D01*
X157603272Y-97084605D01*
X157550395Y-97031728D01*
X157502956Y-96973923D01*
X157461411Y-96911746D01*
X157426160Y-96845797D01*
X157397543Y-96776710D01*
X157375836Y-96705151D01*
X157361247Y-96631809D01*
X157353918Y-96557390D01*
X157353918Y-96482610D01*
X157361247Y-96408191D01*
X157375836Y-96334849D01*
X157397543Y-96263290D01*
X157426160Y-96194203D01*
X157461411Y-96128254D01*
X157502956Y-96066077D01*
X157550395Y-96008272D01*
X157603272Y-95955395D01*
X157661077Y-95907956D01*
X157723254Y-95866411D01*
X157789203Y-95831160D01*
X157858290Y-95802543D01*
X157929849Y-95780836D01*
X158003191Y-95766247D01*
X158077610Y-95758918D01*
X158152390Y-95758918D01*
X158226809Y-95766247D01*
X158226809Y-95766247D01*
G37*
D19*
X176754000Y-109284000D03*
X177404000Y-109284000D03*
X178054000Y-109284000D03*
X178704000Y-109284000D03*
X179354000Y-109284000D03*
D20*
X175591500Y-109644000D03*
X180516500Y-109644000D03*
D21*
X175144000Y-111944000D03*
X180964000Y-111944000D03*
D22*
X177214000Y-111944000D03*
X178894000Y-111944000D03*
D16*
X181610000Y-88900000D03*
D23*
X173990000Y-88900000D03*
X173990000Y-92202000D03*
D16*
X181610000Y-92202000D03*
D23*
X173482000Y-102870000D03*
D16*
X173482000Y-95250000D03*
D23*
X162306000Y-91440000D03*
D16*
X169926000Y-91440000D03*
D24*
X124206000Y-108775500D03*
D25*
X126706000Y-108775500D03*
X129206000Y-108775500D03*
X124206000Y-112075500D03*
X126706000Y-112075500D03*
X129206000Y-112075500D03*
D26*
X169926000Y-102870000D03*
D23*
X162306000Y-95250000D03*
X169926000Y-100330000D03*
X162306000Y-97790000D03*
X169926000Y-97790000D03*
X162306000Y-100330000D03*
X169926000Y-95250000D03*
X162306000Y-102870000D03*
D27*
X176339500Y-97790000D03*
X176339500Y-99060000D03*
D28*
X176339500Y-100330000D03*
D10*
X132397500Y-85852000D03*
D11*
G36*
X133151253Y-85963809D02*
G01*
X133147500Y-85982676D01*
X133147500Y-87852000D01*
X131647500Y-87852000D01*
X131647500Y-85982676D01*
X131643747Y-85963809D01*
X131636418Y-85889390D01*
X131636418Y-85814610D01*
X131643747Y-85740191D01*
X131658336Y-85666849D01*
X131680043Y-85595290D01*
X131708660Y-85526203D01*
X131743911Y-85460254D01*
X131785456Y-85398077D01*
X131832895Y-85340272D01*
X131885772Y-85287395D01*
X131943577Y-85239956D01*
X132005754Y-85198411D01*
X132071703Y-85163160D01*
X132140790Y-85134543D01*
X132212349Y-85112836D01*
X132285691Y-85098247D01*
X132360110Y-85090918D01*
X132434890Y-85090918D01*
X132509309Y-85098247D01*
X132582651Y-85112836D01*
X132654210Y-85134543D01*
X132723297Y-85163160D01*
X132789246Y-85198411D01*
X132851423Y-85239956D01*
X132909228Y-85287395D01*
X132962105Y-85340272D01*
X133009544Y-85398077D01*
X133051089Y-85460254D01*
X133086340Y-85526203D01*
X133114957Y-85595290D01*
X133136664Y-85666849D01*
X133151253Y-85740191D01*
X133158582Y-85814610D01*
X133158582Y-85889390D01*
X133151253Y-85963809D01*
X133151253Y-85963809D01*
G37*
D10*
X134937500Y-85852000D03*
D11*
G36*
X135691253Y-85963809D02*
G01*
X135687500Y-85982676D01*
X135687500Y-87852000D01*
X134187500Y-87852000D01*
X134187500Y-85982676D01*
X134183747Y-85963809D01*
X134176418Y-85889390D01*
X134176418Y-85814610D01*
X134183747Y-85740191D01*
X134198336Y-85666849D01*
X134220043Y-85595290D01*
X134248660Y-85526203D01*
X134283911Y-85460254D01*
X134325456Y-85398077D01*
X134372895Y-85340272D01*
X134425772Y-85287395D01*
X134483577Y-85239956D01*
X134545754Y-85198411D01*
X134611703Y-85163160D01*
X134680790Y-85134543D01*
X134752349Y-85112836D01*
X134825691Y-85098247D01*
X134900110Y-85090918D01*
X134974890Y-85090918D01*
X135049309Y-85098247D01*
X135122651Y-85112836D01*
X135194210Y-85134543D01*
X135263297Y-85163160D01*
X135329246Y-85198411D01*
X135391423Y-85239956D01*
X135449228Y-85287395D01*
X135502105Y-85340272D01*
X135549544Y-85398077D01*
X135591089Y-85460254D01*
X135626340Y-85526203D01*
X135654957Y-85595290D01*
X135676664Y-85666849D01*
X135691253Y-85740191D01*
X135698582Y-85814610D01*
X135698582Y-85889390D01*
X135691253Y-85963809D01*
X135691253Y-85963809D01*
G37*
D10*
X137477500Y-85852000D03*
D11*
G36*
X138231253Y-85963809D02*
G01*
X138227500Y-85982676D01*
X138227500Y-87852000D01*
X136727500Y-87852000D01*
X136727500Y-85982676D01*
X136723747Y-85963809D01*
X136716418Y-85889390D01*
X136716418Y-85814610D01*
X136723747Y-85740191D01*
X136738336Y-85666849D01*
X136760043Y-85595290D01*
X136788660Y-85526203D01*
X136823911Y-85460254D01*
X136865456Y-85398077D01*
X136912895Y-85340272D01*
X136965772Y-85287395D01*
X137023577Y-85239956D01*
X137085754Y-85198411D01*
X137151703Y-85163160D01*
X137220790Y-85134543D01*
X137292349Y-85112836D01*
X137365691Y-85098247D01*
X137440110Y-85090918D01*
X137514890Y-85090918D01*
X137589309Y-85098247D01*
X137662651Y-85112836D01*
X137734210Y-85134543D01*
X137803297Y-85163160D01*
X137869246Y-85198411D01*
X137931423Y-85239956D01*
X137989228Y-85287395D01*
X138042105Y-85340272D01*
X138089544Y-85398077D01*
X138131089Y-85460254D01*
X138166340Y-85526203D01*
X138194957Y-85595290D01*
X138216664Y-85666849D01*
X138231253Y-85740191D01*
X138238582Y-85814610D01*
X138238582Y-85889390D01*
X138231253Y-85963809D01*
X138231253Y-85963809D01*
G37*
D10*
X132334000Y-112268000D03*
D11*
G36*
X131580247Y-112156191D02*
G01*
X131584000Y-112137324D01*
X131584000Y-110268000D01*
X133084000Y-110268000D01*
X133084000Y-112137324D01*
X133087753Y-112156191D01*
X133095082Y-112230610D01*
X133095082Y-112305390D01*
X133087753Y-112379809D01*
X133073164Y-112453151D01*
X133051457Y-112524710D01*
X133022840Y-112593797D01*
X132987589Y-112659746D01*
X132946044Y-112721923D01*
X132898605Y-112779728D01*
X132845728Y-112832605D01*
X132787923Y-112880044D01*
X132725746Y-112921589D01*
X132659797Y-112956840D01*
X132590710Y-112985457D01*
X132519151Y-113007164D01*
X132445809Y-113021753D01*
X132371390Y-113029082D01*
X132296610Y-113029082D01*
X132222191Y-113021753D01*
X132148849Y-113007164D01*
X132077290Y-112985457D01*
X132008203Y-112956840D01*
X131942254Y-112921589D01*
X131880077Y-112880044D01*
X131822272Y-112832605D01*
X131769395Y-112779728D01*
X131721956Y-112721923D01*
X131680411Y-112659746D01*
X131645160Y-112593797D01*
X131616543Y-112524710D01*
X131594836Y-112453151D01*
X131580247Y-112379809D01*
X131572918Y-112305390D01*
X131572918Y-112230610D01*
X131580247Y-112156191D01*
X131580247Y-112156191D01*
G37*
D10*
X134874000Y-112268000D03*
D11*
G36*
X134120247Y-112156191D02*
G01*
X134124000Y-112137324D01*
X134124000Y-110268000D01*
X135624000Y-110268000D01*
X135624000Y-112137324D01*
X135627753Y-112156191D01*
X135635082Y-112230610D01*
X135635082Y-112305390D01*
X135627753Y-112379809D01*
X135613164Y-112453151D01*
X135591457Y-112524710D01*
X135562840Y-112593797D01*
X135527589Y-112659746D01*
X135486044Y-112721923D01*
X135438605Y-112779728D01*
X135385728Y-112832605D01*
X135327923Y-112880044D01*
X135265746Y-112921589D01*
X135199797Y-112956840D01*
X135130710Y-112985457D01*
X135059151Y-113007164D01*
X134985809Y-113021753D01*
X134911390Y-113029082D01*
X134836610Y-113029082D01*
X134762191Y-113021753D01*
X134688849Y-113007164D01*
X134617290Y-112985457D01*
X134548203Y-112956840D01*
X134482254Y-112921589D01*
X134420077Y-112880044D01*
X134362272Y-112832605D01*
X134309395Y-112779728D01*
X134261956Y-112721923D01*
X134220411Y-112659746D01*
X134185160Y-112593797D01*
X134156543Y-112524710D01*
X134134836Y-112453151D01*
X134120247Y-112379809D01*
X134112918Y-112305390D01*
X134112918Y-112230610D01*
X134120247Y-112156191D01*
X134120247Y-112156191D01*
G37*
D10*
X137414000Y-112268000D03*
D11*
G36*
X136660247Y-112156191D02*
G01*
X136664000Y-112137324D01*
X136664000Y-110268000D01*
X138164000Y-110268000D01*
X138164000Y-112137324D01*
X138167753Y-112156191D01*
X138175082Y-112230610D01*
X138175082Y-112305390D01*
X138167753Y-112379809D01*
X138153164Y-112453151D01*
X138131457Y-112524710D01*
X138102840Y-112593797D01*
X138067589Y-112659746D01*
X138026044Y-112721923D01*
X137978605Y-112779728D01*
X137925728Y-112832605D01*
X137867923Y-112880044D01*
X137805746Y-112921589D01*
X137739797Y-112956840D01*
X137670710Y-112985457D01*
X137599151Y-113007164D01*
X137525809Y-113021753D01*
X137451390Y-113029082D01*
X137376610Y-113029082D01*
X137302191Y-113021753D01*
X137228849Y-113007164D01*
X137157290Y-112985457D01*
X137088203Y-112956840D01*
X137022254Y-112921589D01*
X136960077Y-112880044D01*
X136902272Y-112832605D01*
X136849395Y-112779728D01*
X136801956Y-112721923D01*
X136760411Y-112659746D01*
X136725160Y-112593797D01*
X136696543Y-112524710D01*
X136674836Y-112453151D01*
X136660247Y-112379809D01*
X136652918Y-112305390D01*
X136652918Y-112230610D01*
X136660247Y-112156191D01*
X136660247Y-112156191D01*
G37*
D17*
X162306000Y-106934000D03*
D18*
X169926000Y-106934000D03*
D29*
X104330500Y-74231500D02*
X104267000Y-74295000D01*
X109982000Y-74231500D02*
X104330500Y-74231500D01*
X124206000Y-107675500D02*
X124206000Y-108775500D01*
X124206000Y-95484000D02*
X124206000Y-107675500D01*
X104267000Y-75545000D02*
X124206000Y-95484000D01*
X104267000Y-74295000D02*
X104267000Y-75545000D01*
D30*
X179714000Y-109644000D02*
X179354000Y-109284000D01*
X180516500Y-109644000D02*
X179714000Y-109644000D01*
X178054000Y-92456000D02*
X178054000Y-109284000D01*
X181610000Y-88900000D02*
X178054000Y-92456000D01*
X181610000Y-87768630D02*
X181610000Y-85598000D01*
X181610000Y-88900000D02*
X181610000Y-87768630D01*
X175340000Y-105918000D02*
X173990000Y-105918000D01*
X177404000Y-107982000D02*
X175340000Y-105918000D01*
X177404000Y-109284000D02*
X177404000Y-107982000D01*
X101663500Y-74231500D02*
X101727000Y-74295000D01*
X97282000Y-74231500D02*
X101663500Y-74231500D01*
X116827498Y-103632000D02*
X120553669Y-103632000D01*
X120553669Y-103632000D02*
X121412000Y-103632000D01*
X101727000Y-88531502D02*
X116827498Y-103632000D01*
X101727000Y-74295000D02*
X101727000Y-88531502D01*
X131727069Y-112874931D02*
X132334000Y-112268000D01*
X122428000Y-113284000D02*
X131318000Y-113284000D01*
X131318000Y-113284000D02*
X131727069Y-112874931D01*
X121412000Y-103632000D02*
X121412000Y-112268000D01*
X121412000Y-112268000D02*
X122428000Y-113284000D01*
X136974290Y-102420710D02*
X137795000Y-101600000D01*
X133154710Y-106240290D02*
X136974290Y-102420710D01*
X133154710Y-111447290D02*
X133154710Y-106240290D01*
X132334000Y-112268000D02*
X133154710Y-111447290D01*
X136656790Y-86672710D02*
X137477500Y-85852000D01*
X136656790Y-87342345D02*
X136656790Y-86672710D01*
X135607135Y-88392000D02*
X136656790Y-87342345D01*
X129032000Y-88392000D02*
X135607135Y-88392000D01*
X136974290Y-100779290D02*
X133545290Y-100779290D01*
X137795000Y-101600000D02*
X136974290Y-100779290D01*
X129032000Y-96266000D02*
X129032000Y-88392000D01*
X133545290Y-100779290D02*
X129032000Y-96266000D01*
D29*
X137477500Y-85852000D02*
X137477500Y-85407500D01*
D30*
X137160000Y-96520000D02*
X137795000Y-96520000D01*
D29*
X138176000Y-84582000D02*
X139446000Y-85852000D01*
X121412000Y-88392000D02*
X125222000Y-84582000D01*
X139446000Y-110236000D02*
X137414000Y-112268000D01*
X139446000Y-95727331D02*
X139446000Y-94996000D01*
X138653331Y-96520000D02*
X139446000Y-95727331D01*
X137795000Y-96520000D02*
X138653331Y-96520000D01*
X139446000Y-85852000D02*
X139446000Y-94996000D01*
X138684000Y-96520000D02*
X139446000Y-97282000D01*
X137795000Y-96520000D02*
X138684000Y-96520000D01*
X139446000Y-94996000D02*
X139446000Y-97282000D01*
X139446000Y-97282000D02*
X139446000Y-110236000D01*
X131985831Y-84582000D02*
X131826000Y-84582000D01*
X132397500Y-84993669D02*
X131985831Y-84582000D01*
X125222000Y-84582000D02*
X131826000Y-84582000D01*
X132809169Y-84582000D02*
X132842000Y-84582000D01*
X132397500Y-85852000D02*
X132397500Y-84993669D01*
X131826000Y-84582000D02*
X132842000Y-84582000D01*
X132397500Y-84993669D02*
X132809169Y-84582000D01*
X132842000Y-84582000D02*
X138176000Y-84582000D01*
D30*
X174356998Y-97790000D02*
X175289500Y-97790000D01*
X175289500Y-97790000D02*
X176339500Y-97790000D01*
X171051001Y-94484003D02*
X174356998Y-97790000D01*
X171051001Y-92565001D02*
X171051001Y-94484003D01*
X169926000Y-91440000D02*
X171051001Y-92565001D01*
D29*
X126706000Y-105958000D02*
X129032000Y-103632000D01*
X126706000Y-108775500D02*
X126706000Y-105958000D01*
X131572000Y-103632000D02*
X129032000Y-103632000D01*
D30*
X176754000Y-108433998D02*
X176206502Y-107886500D01*
X176754000Y-109284000D02*
X176754000Y-108433998D01*
X171276000Y-106934000D02*
X169926000Y-106934000D01*
X172228500Y-107886500D02*
X171276000Y-106934000D01*
X176206502Y-107886500D02*
X172228500Y-107886500D01*
D31*
G36*
X173271946Y-84018558D02*
G01*
X172977609Y-84188992D01*
X172722178Y-84413573D01*
X172515469Y-84683671D01*
X172365425Y-84988906D01*
X172300825Y-85201878D01*
X172418875Y-85471000D01*
X173863000Y-85471000D01*
X173863000Y-85451000D01*
X174117000Y-85451000D01*
X174117000Y-85471000D01*
X175561125Y-85471000D01*
X175679175Y-85201878D01*
X175614575Y-84988906D01*
X175464531Y-84683671D01*
X175257822Y-84413573D01*
X175002391Y-84188992D01*
X174708054Y-84018558D01*
X174498127Y-83947000D01*
X180193789Y-83947000D01*
X180155506Y-83967463D01*
X180058815Y-84046815D01*
X179979463Y-84143506D01*
X179920498Y-84253820D01*
X179884188Y-84373518D01*
X179871928Y-84498000D01*
X179871928Y-86698000D01*
X179884188Y-86822482D01*
X179920498Y-86942180D01*
X179979463Y-87052494D01*
X180058815Y-87149185D01*
X180155506Y-87228537D01*
X180265820Y-87287502D01*
X180385518Y-87323812D01*
X180510000Y-87336072D01*
X180850000Y-87336072D01*
X180850000Y-87681957D01*
X180695241Y-87785363D01*
X180495363Y-87985241D01*
X180338320Y-88220273D01*
X180230147Y-88481426D01*
X180175000Y-88758665D01*
X180175000Y-89041335D01*
X180211312Y-89223885D01*
X177543003Y-91892196D01*
X177513999Y-91915999D01*
X177458871Y-91983174D01*
X177419026Y-92031724D01*
X177403557Y-92060665D01*
X177348454Y-92163754D01*
X177304997Y-92307015D01*
X177294000Y-92418668D01*
X177294000Y-92418678D01*
X177290324Y-92456000D01*
X177294000Y-92493322D01*
X177294000Y-96835202D01*
X177251036Y-96799942D01*
X177045174Y-96689906D01*
X176821800Y-96622147D01*
X176647707Y-96605000D01*
X176031293Y-96605000D01*
X175857200Y-96622147D01*
X175633826Y-96689906D01*
X175427964Y-96799942D01*
X175247525Y-96948025D01*
X175180250Y-97030000D01*
X174671800Y-97030000D01*
X174162778Y-96520978D01*
X174396759Y-96364637D01*
X174596637Y-96164759D01*
X174753680Y-95929727D01*
X174861853Y-95668574D01*
X174917000Y-95391335D01*
X174917000Y-95108665D01*
X174861853Y-94831426D01*
X174753680Y-94570273D01*
X174596637Y-94335241D01*
X174396759Y-94135363D01*
X174161727Y-93978320D01*
X173900574Y-93870147D01*
X173623335Y-93815000D01*
X173340665Y-93815000D01*
X173063426Y-93870147D01*
X172802273Y-93978320D01*
X172567241Y-94135363D01*
X172367363Y-94335241D01*
X172211022Y-94569223D01*
X171811001Y-94169202D01*
X171811001Y-92602326D01*
X171814677Y-92565001D01*
X171811001Y-92527676D01*
X171811001Y-92527668D01*
X171800004Y-92416015D01*
X171756547Y-92272754D01*
X171718728Y-92202000D01*
X172548057Y-92202000D01*
X172575764Y-92483309D01*
X172657818Y-92753808D01*
X172791068Y-93003101D01*
X172970392Y-93221608D01*
X173188899Y-93400932D01*
X173438192Y-93534182D01*
X173708691Y-93616236D01*
X173919508Y-93637000D01*
X174060492Y-93637000D01*
X174271309Y-93616236D01*
X174541808Y-93534182D01*
X174791101Y-93400932D01*
X175009608Y-93221608D01*
X175188932Y-93003101D01*
X175322182Y-92753808D01*
X175404236Y-92483309D01*
X175431943Y-92202000D01*
X175404236Y-91920691D01*
X175322182Y-91650192D01*
X175188932Y-91400899D01*
X175009608Y-91182392D01*
X174791101Y-91003068D01*
X174541808Y-90869818D01*
X174271309Y-90787764D01*
X174060492Y-90767000D01*
X173919508Y-90767000D01*
X173708691Y-90787764D01*
X173438192Y-90869818D01*
X173188899Y-91003068D01*
X172970392Y-91182392D01*
X172791068Y-91400899D01*
X172657818Y-91650192D01*
X172575764Y-91920691D01*
X172548057Y-92202000D01*
X171718728Y-92202000D01*
X171685975Y-92140725D01*
X171591002Y-92025000D01*
X171562005Y-92001203D01*
X171324688Y-91763886D01*
X171361000Y-91581335D01*
X171361000Y-91298665D01*
X171305853Y-91021426D01*
X171197680Y-90760273D01*
X171040637Y-90525241D01*
X170840759Y-90325363D01*
X170605727Y-90168320D01*
X170344574Y-90060147D01*
X170067335Y-90005000D01*
X169784665Y-90005000D01*
X169507426Y-90060147D01*
X169246273Y-90168320D01*
X169011241Y-90325363D01*
X168811363Y-90525241D01*
X168654320Y-90760273D01*
X168546147Y-91021426D01*
X168491000Y-91298665D01*
X168491000Y-91581335D01*
X168546147Y-91858574D01*
X168654320Y-92119727D01*
X168811363Y-92354759D01*
X169011241Y-92554637D01*
X169246273Y-92711680D01*
X169507426Y-92819853D01*
X169784665Y-92875000D01*
X170067335Y-92875000D01*
X170249886Y-92838688D01*
X170291001Y-92879803D01*
X170291002Y-93863807D01*
X170275040Y-93858091D01*
X170053000Y-93979376D01*
X170053000Y-95123000D01*
X170073000Y-95123000D01*
X170073000Y-95377000D01*
X170053000Y-95377000D01*
X170053000Y-95397000D01*
X169799000Y-95397000D01*
X169799000Y-95377000D01*
X168656085Y-95377000D01*
X168534096Y-95599039D01*
X168574754Y-95733087D01*
X168694963Y-95987420D01*
X168862481Y-96213414D01*
X169070869Y-96402385D01*
X169262682Y-96517421D01*
X169124899Y-96591068D01*
X168906392Y-96770392D01*
X168727068Y-96988899D01*
X168593818Y-97238192D01*
X168511764Y-97508691D01*
X168484057Y-97790000D01*
X168511764Y-98071309D01*
X168593818Y-98341808D01*
X168727068Y-98591101D01*
X168906392Y-98809608D01*
X169124899Y-98988932D01*
X169257858Y-99060000D01*
X169124899Y-99131068D01*
X168906392Y-99310392D01*
X168727068Y-99528899D01*
X168593818Y-99778192D01*
X168511764Y-100048691D01*
X168484057Y-100330000D01*
X168511764Y-100611309D01*
X168593818Y-100881808D01*
X168727068Y-101131101D01*
X168906392Y-101349608D01*
X169019482Y-101442419D01*
X169001518Y-101444188D01*
X168881820Y-101480498D01*
X168771506Y-101539463D01*
X168674815Y-101618815D01*
X168595463Y-101715506D01*
X168536498Y-101825820D01*
X168500188Y-101945518D01*
X168487928Y-102070000D01*
X168487928Y-103670000D01*
X168500188Y-103794482D01*
X168536498Y-103914180D01*
X168595463Y-104024494D01*
X168674815Y-104121185D01*
X168771506Y-104200537D01*
X168881820Y-104259502D01*
X169001518Y-104295812D01*
X169126000Y-104308072D01*
X170726000Y-104308072D01*
X170850482Y-104295812D01*
X170970180Y-104259502D01*
X171080494Y-104200537D01*
X171177185Y-104121185D01*
X171256537Y-104024494D01*
X171315502Y-103914180D01*
X171351812Y-103794482D01*
X171364072Y-103670000D01*
X171364072Y-102070000D01*
X171351812Y-101945518D01*
X171315502Y-101825820D01*
X171256537Y-101715506D01*
X171177185Y-101618815D01*
X171080494Y-101539463D01*
X170970180Y-101480498D01*
X170850482Y-101444188D01*
X170832518Y-101442419D01*
X170945608Y-101349608D01*
X171124932Y-101131101D01*
X171258182Y-100881808D01*
X171340236Y-100611309D01*
X171367943Y-100330000D01*
X171340236Y-100048691D01*
X171258182Y-99778192D01*
X171124932Y-99528899D01*
X170945608Y-99310392D01*
X170727101Y-99131068D01*
X170594142Y-99060000D01*
X170727101Y-98988932D01*
X170945608Y-98809608D01*
X171124932Y-98591101D01*
X171258182Y-98341808D01*
X171340236Y-98071309D01*
X171367943Y-97790000D01*
X171340236Y-97508691D01*
X171258182Y-97238192D01*
X171124932Y-96988899D01*
X170945608Y-96770392D01*
X170727101Y-96591068D01*
X170589318Y-96517421D01*
X170781131Y-96402385D01*
X170989519Y-96213414D01*
X171157037Y-95987420D01*
X171260569Y-95768372D01*
X173793199Y-98301003D01*
X173816997Y-98330001D01*
X173932722Y-98424974D01*
X174064751Y-98495546D01*
X174208012Y-98539003D01*
X174319665Y-98550000D01*
X174319673Y-98550000D01*
X174356998Y-98553676D01*
X174394323Y-98550000D01*
X175011949Y-98550000D01*
X174959570Y-98662232D01*
X174945697Y-98750256D01*
X175071139Y-98933000D01*
X175775270Y-98933000D01*
X175857200Y-98957853D01*
X176031293Y-98975000D01*
X176486500Y-98975000D01*
X176486500Y-99141928D01*
X175539500Y-99141928D01*
X175415018Y-99154188D01*
X175306851Y-99187000D01*
X175071139Y-99187000D01*
X174945697Y-99369744D01*
X174959570Y-99457768D01*
X174974555Y-99489877D01*
X174949998Y-99535820D01*
X174913688Y-99655518D01*
X174901428Y-99780000D01*
X174901428Y-100880000D01*
X174913688Y-101004482D01*
X174949998Y-101124180D01*
X175008963Y-101234494D01*
X175088315Y-101331185D01*
X175185006Y-101410537D01*
X175295320Y-101469502D01*
X175415018Y-101505812D01*
X175539500Y-101518072D01*
X177139500Y-101518072D01*
X177263982Y-101505812D01*
X177294001Y-101496706D01*
X177294001Y-106797199D01*
X175903804Y-105407003D01*
X175880001Y-105377999D01*
X175764276Y-105283026D01*
X175728072Y-105263674D01*
X175728072Y-104818000D01*
X175715812Y-104693518D01*
X175679502Y-104573820D01*
X175620537Y-104463506D01*
X175541185Y-104366815D01*
X175444494Y-104287463D01*
X175334180Y-104228498D01*
X175214482Y-104192188D01*
X175090000Y-104179928D01*
X174075442Y-104179928D01*
X174283101Y-104068932D01*
X174501608Y-103889608D01*
X174680932Y-103671101D01*
X174814182Y-103421808D01*
X174896236Y-103151309D01*
X174923943Y-102870000D01*
X174896236Y-102588691D01*
X174814182Y-102318192D01*
X174680932Y-102068899D01*
X174501608Y-101850392D01*
X174283101Y-101671068D01*
X174033808Y-101537818D01*
X173763309Y-101455764D01*
X173552492Y-101435000D01*
X173411508Y-101435000D01*
X173200691Y-101455764D01*
X172930192Y-101537818D01*
X172680899Y-101671068D01*
X172462392Y-101850392D01*
X172283068Y-102068899D01*
X172149818Y-102318192D01*
X172067764Y-102588691D01*
X172040057Y-102870000D01*
X172067764Y-103151309D01*
X172149818Y-103421808D01*
X172283068Y-103671101D01*
X172462392Y-103889608D01*
X172680899Y-104068932D01*
X172888782Y-104180048D01*
X172765518Y-104192188D01*
X172645820Y-104228498D01*
X172535506Y-104287463D01*
X172438815Y-104366815D01*
X172359463Y-104463506D01*
X172300498Y-104573820D01*
X172264188Y-104693518D01*
X172251928Y-104818000D01*
X172251928Y-106835126D01*
X171839803Y-106423002D01*
X171816001Y-106393999D01*
X171700276Y-106299026D01*
X171568247Y-106228454D01*
X171506095Y-106209601D01*
X171375579Y-105965422D01*
X171158766Y-105701234D01*
X170894578Y-105484421D01*
X170593168Y-105323314D01*
X170266119Y-105224105D01*
X170011225Y-105199000D01*
X169840775Y-105199000D01*
X169585881Y-105224105D01*
X169258832Y-105323314D01*
X168957422Y-105484421D01*
X168693234Y-105701234D01*
X168476421Y-105965422D01*
X168315314Y-106266832D01*
X168216105Y-106593881D01*
X168182606Y-106934000D01*
X168216105Y-107274119D01*
X168315314Y-107601168D01*
X168476421Y-107902578D01*
X168693234Y-108166766D01*
X168957422Y-108383579D01*
X169258832Y-108544686D01*
X169585881Y-108643895D01*
X169840775Y-108669000D01*
X170011225Y-108669000D01*
X170266119Y-108643895D01*
X170593168Y-108544686D01*
X170894578Y-108383579D01*
X171158766Y-108166766D01*
X171282812Y-108015615D01*
X171664705Y-108397508D01*
X171688499Y-108426501D01*
X171717492Y-108450295D01*
X171717496Y-108450299D01*
X171788185Y-108508311D01*
X171804224Y-108521474D01*
X171936253Y-108592046D01*
X172079514Y-108635503D01*
X172191167Y-108646500D01*
X172191176Y-108646500D01*
X172228499Y-108650176D01*
X172265822Y-108646500D01*
X174216139Y-108646500D01*
X174219000Y-109358250D01*
X174377750Y-109517000D01*
X175464500Y-109517000D01*
X175464500Y-109497000D01*
X175718500Y-109497000D01*
X175718500Y-109517000D01*
X175738500Y-109517000D01*
X175738500Y-109771000D01*
X175718500Y-109771000D01*
X175718500Y-109791000D01*
X175464500Y-109791000D01*
X175464500Y-109771000D01*
X174377750Y-109771000D01*
X174219000Y-109929750D01*
X174217283Y-110356816D01*
X173956500Y-110355928D01*
X173832018Y-110368188D01*
X173712320Y-110404498D01*
X173602006Y-110463463D01*
X173505315Y-110542815D01*
X173425963Y-110639506D01*
X173366998Y-110749820D01*
X173330688Y-110869518D01*
X173318428Y-110994000D01*
X173321500Y-111658250D01*
X173480250Y-111817000D01*
X175017000Y-111817000D01*
X175017000Y-111797000D01*
X175271000Y-111797000D01*
X175271000Y-111817000D01*
X177087000Y-111817000D01*
X177087000Y-111797000D01*
X177341000Y-111797000D01*
X177341000Y-111817000D01*
X178767000Y-111817000D01*
X178767000Y-111797000D01*
X179021000Y-111797000D01*
X179021000Y-111817000D01*
X180837000Y-111817000D01*
X180837000Y-111797000D01*
X181091000Y-111797000D01*
X181091000Y-111817000D01*
X182627750Y-111817000D01*
X182786500Y-111658250D01*
X182789572Y-110994000D01*
X182777312Y-110869518D01*
X182741002Y-110749820D01*
X182682037Y-110639506D01*
X182602685Y-110542815D01*
X182505994Y-110463463D01*
X182395680Y-110404498D01*
X182275982Y-110368188D01*
X182151500Y-110355928D01*
X181890717Y-110356816D01*
X181889000Y-109929750D01*
X181730250Y-109771000D01*
X180643500Y-109771000D01*
X180643500Y-109791000D01*
X180389500Y-109791000D01*
X180389500Y-109771000D01*
X180369500Y-109771000D01*
X180369500Y-109517000D01*
X180389500Y-109517000D01*
X180389500Y-108117750D01*
X180643500Y-108117750D01*
X180643500Y-109517000D01*
X181730250Y-109517000D01*
X181889000Y-109358250D01*
X181892072Y-108594000D01*
X181879812Y-108469518D01*
X181843502Y-108349820D01*
X181784537Y-108239506D01*
X181705185Y-108142815D01*
X181608494Y-108063463D01*
X181498180Y-108004498D01*
X181378482Y-107968188D01*
X181254000Y-107955928D01*
X180802250Y-107959000D01*
X180643500Y-108117750D01*
X180389500Y-108117750D01*
X180230750Y-107959000D01*
X179779000Y-107955928D01*
X179675666Y-107966105D01*
X179610750Y-107959000D01*
X179578503Y-107991247D01*
X179534820Y-108004498D01*
X179424506Y-108063463D01*
X179354000Y-108121326D01*
X179283494Y-108063463D01*
X179173180Y-108004498D01*
X179129497Y-107991247D01*
X179097250Y-107959000D01*
X179032334Y-107966105D01*
X178929000Y-107955928D01*
X178814000Y-107955928D01*
X178814000Y-106314122D01*
X179920825Y-106314122D01*
X179985425Y-106527094D01*
X180135469Y-106832329D01*
X180342178Y-107102427D01*
X180597609Y-107327008D01*
X180891946Y-107497442D01*
X181213877Y-107607179D01*
X181483000Y-107489600D01*
X181483000Y-106045000D01*
X180038875Y-106045000D01*
X179920825Y-106314122D01*
X178814000Y-106314122D01*
X178814000Y-105521878D01*
X179920825Y-105521878D01*
X180038875Y-105791000D01*
X181483000Y-105791000D01*
X181483000Y-104346400D01*
X181213877Y-104228821D01*
X180891946Y-104338558D01*
X180597609Y-104508992D01*
X180342178Y-104733573D01*
X180135469Y-105003671D01*
X179985425Y-105308906D01*
X179920825Y-105521878D01*
X178814000Y-105521878D01*
X178814000Y-92770801D01*
X181286115Y-90298688D01*
X181468665Y-90335000D01*
X181751335Y-90335000D01*
X182028574Y-90279853D01*
X182289727Y-90171680D01*
X182524759Y-90014637D01*
X182724637Y-89814759D01*
X182881680Y-89579727D01*
X182989853Y-89318574D01*
X183007000Y-89232371D01*
X183007000Y-91869629D01*
X182989853Y-91783426D01*
X182881680Y-91522273D01*
X182724637Y-91287241D01*
X182524759Y-91087363D01*
X182289727Y-90930320D01*
X182028574Y-90822147D01*
X181751335Y-90767000D01*
X181468665Y-90767000D01*
X181191426Y-90822147D01*
X180930273Y-90930320D01*
X180695241Y-91087363D01*
X180495363Y-91287241D01*
X180338320Y-91522273D01*
X180230147Y-91783426D01*
X180175000Y-92060665D01*
X180175000Y-92343335D01*
X180230147Y-92620574D01*
X180338320Y-92881727D01*
X180495363Y-93116759D01*
X180695241Y-93316637D01*
X180930273Y-93473680D01*
X181191426Y-93581853D01*
X181468665Y-93637000D01*
X181751335Y-93637000D01*
X182028574Y-93581853D01*
X182289727Y-93473680D01*
X182524759Y-93316637D01*
X182724637Y-93116759D01*
X182881680Y-92881727D01*
X182989853Y-92620574D01*
X183007000Y-92534371D01*
X183007000Y-104902364D01*
X182877822Y-104733573D01*
X182622391Y-104508992D01*
X182328054Y-104338558D01*
X182006123Y-104228821D01*
X181737000Y-104346400D01*
X181737000Y-105791000D01*
X181757000Y-105791000D01*
X181757000Y-106045000D01*
X181737000Y-106045000D01*
X181737000Y-107489600D01*
X182006123Y-107607179D01*
X182328054Y-107497442D01*
X182622391Y-107327008D01*
X182877822Y-107102427D01*
X183007000Y-106933636D01*
X183007000Y-114427000D01*
X157607000Y-114427000D01*
X157607000Y-112894000D01*
X173318428Y-112894000D01*
X173330688Y-113018482D01*
X173366998Y-113138180D01*
X173425963Y-113248494D01*
X173505315Y-113345185D01*
X173602006Y-113424537D01*
X173712320Y-113483502D01*
X173832018Y-113519812D01*
X173956500Y-113532072D01*
X174858250Y-113529000D01*
X175017000Y-113370250D01*
X175017000Y-112071000D01*
X175271000Y-112071000D01*
X175271000Y-113370250D01*
X175429750Y-113529000D01*
X176331500Y-113532072D01*
X176455982Y-113519812D01*
X176479000Y-113512830D01*
X176502018Y-113519812D01*
X176626500Y-113532072D01*
X176928250Y-113529000D01*
X177087000Y-113370250D01*
X177087000Y-112071000D01*
X177341000Y-112071000D01*
X177341000Y-113370250D01*
X177499750Y-113529000D01*
X177801500Y-113532072D01*
X177925982Y-113519812D01*
X178045680Y-113483502D01*
X178054000Y-113479055D01*
X178062320Y-113483502D01*
X178182018Y-113519812D01*
X178306500Y-113532072D01*
X178608250Y-113529000D01*
X178767000Y-113370250D01*
X178767000Y-112071000D01*
X179021000Y-112071000D01*
X179021000Y-113370250D01*
X179179750Y-113529000D01*
X179481500Y-113532072D01*
X179605982Y-113519812D01*
X179629000Y-113512830D01*
X179652018Y-113519812D01*
X179776500Y-113532072D01*
X180678250Y-113529000D01*
X180837000Y-113370250D01*
X180837000Y-112071000D01*
X181091000Y-112071000D01*
X181091000Y-113370250D01*
X181249750Y-113529000D01*
X182151500Y-113532072D01*
X182275982Y-113519812D01*
X182395680Y-113483502D01*
X182505994Y-113424537D01*
X182602685Y-113345185D01*
X182682037Y-113248494D01*
X182741002Y-113138180D01*
X182777312Y-113018482D01*
X182789572Y-112894000D01*
X182786500Y-112229750D01*
X182627750Y-112071000D01*
X181091000Y-112071000D01*
X180837000Y-112071000D01*
X179021000Y-112071000D01*
X178767000Y-112071000D01*
X177341000Y-112071000D01*
X177087000Y-112071000D01*
X175271000Y-112071000D01*
X175017000Y-112071000D01*
X173480250Y-112071000D01*
X173321500Y-112229750D01*
X173318428Y-112894000D01*
X157607000Y-112894000D01*
X157607000Y-110602665D01*
X162141000Y-110602665D01*
X162141000Y-110885335D01*
X162196147Y-111162574D01*
X162304320Y-111423727D01*
X162461363Y-111658759D01*
X162661241Y-111858637D01*
X162896273Y-112015680D01*
X163157426Y-112123853D01*
X163434665Y-112179000D01*
X163717335Y-112179000D01*
X163994574Y-112123853D01*
X164255727Y-112015680D01*
X164490759Y-111858637D01*
X164612694Y-111736702D01*
X167762903Y-111736702D01*
X167834486Y-111980671D01*
X168089996Y-112101571D01*
X168364184Y-112170300D01*
X168646512Y-112184217D01*
X168926130Y-112142787D01*
X169192292Y-112047603D01*
X169317514Y-111980671D01*
X169389097Y-111736702D01*
X168576000Y-110923605D01*
X167762903Y-111736702D01*
X164612694Y-111736702D01*
X164690637Y-111658759D01*
X164847680Y-111423727D01*
X164955853Y-111162574D01*
X165011000Y-110885335D01*
X165011000Y-110814512D01*
X167135783Y-110814512D01*
X167177213Y-111094130D01*
X167272397Y-111360292D01*
X167339329Y-111485514D01*
X167583298Y-111557097D01*
X168396395Y-110744000D01*
X168755605Y-110744000D01*
X169568702Y-111557097D01*
X169812671Y-111485514D01*
X169933571Y-111230004D01*
X170002300Y-110955816D01*
X170016217Y-110673488D01*
X169974787Y-110393870D01*
X169879603Y-110127708D01*
X169812671Y-110002486D01*
X169568702Y-109930903D01*
X168755605Y-110744000D01*
X168396395Y-110744000D01*
X167583298Y-109930903D01*
X167339329Y-110002486D01*
X167218429Y-110257996D01*
X167149700Y-110532184D01*
X167135783Y-110814512D01*
X165011000Y-110814512D01*
X165011000Y-110602665D01*
X164955853Y-110325426D01*
X164847680Y-110064273D01*
X164690637Y-109829241D01*
X164612694Y-109751298D01*
X167762903Y-109751298D01*
X168576000Y-110564395D01*
X169389097Y-109751298D01*
X169317514Y-109507329D01*
X169062004Y-109386429D01*
X168787816Y-109317700D01*
X168505488Y-109303783D01*
X168225870Y-109345213D01*
X167959708Y-109440397D01*
X167834486Y-109507329D01*
X167762903Y-109751298D01*
X164612694Y-109751298D01*
X164490759Y-109629363D01*
X164255727Y-109472320D01*
X163994574Y-109364147D01*
X163717335Y-109309000D01*
X163434665Y-109309000D01*
X163157426Y-109364147D01*
X162896273Y-109472320D01*
X162661241Y-109629363D01*
X162461363Y-109829241D01*
X162304320Y-110064273D01*
X162196147Y-110325426D01*
X162141000Y-110602665D01*
X157607000Y-110602665D01*
X157607000Y-108458000D01*
X157604560Y-108433224D01*
X157597333Y-108409399D01*
X157585597Y-108387443D01*
X157569803Y-108368197D01*
X155067000Y-105865394D01*
X155067000Y-105834000D01*
X160567928Y-105834000D01*
X160567928Y-108034000D01*
X160580188Y-108158482D01*
X160616498Y-108278180D01*
X160675463Y-108388494D01*
X160754815Y-108485185D01*
X160851506Y-108564537D01*
X160961820Y-108623502D01*
X161081518Y-108659812D01*
X161206000Y-108672072D01*
X163406000Y-108672072D01*
X163530482Y-108659812D01*
X163650180Y-108623502D01*
X163760494Y-108564537D01*
X163857185Y-108485185D01*
X163936537Y-108388494D01*
X163995502Y-108278180D01*
X164031812Y-108158482D01*
X164044072Y-108034000D01*
X164044072Y-105834000D01*
X164031812Y-105709518D01*
X163995502Y-105589820D01*
X163936537Y-105479506D01*
X163857185Y-105382815D01*
X163760494Y-105303463D01*
X163650180Y-105244498D01*
X163530482Y-105208188D01*
X163406000Y-105195928D01*
X161206000Y-105195928D01*
X161081518Y-105208188D01*
X160961820Y-105244498D01*
X160851506Y-105303463D01*
X160754815Y-105382815D01*
X160675463Y-105479506D01*
X160616498Y-105589820D01*
X160580188Y-105709518D01*
X160567928Y-105834000D01*
X155067000Y-105834000D01*
X155067000Y-96445311D01*
X156718597Y-96445311D01*
X156718597Y-96594689D01*
X156730857Y-96719170D01*
X156759999Y-96865678D01*
X156796310Y-96985379D01*
X156853475Y-97123386D01*
X156912438Y-97233696D01*
X156995428Y-97357900D01*
X157074781Y-97454593D01*
X157180407Y-97560219D01*
X157277100Y-97639572D01*
X157401304Y-97722562D01*
X157511614Y-97781525D01*
X157532074Y-97790000D01*
X157511614Y-97798475D01*
X157401304Y-97857438D01*
X157277100Y-97940428D01*
X157180407Y-98019781D01*
X157074781Y-98125407D01*
X156995428Y-98222100D01*
X156912438Y-98346304D01*
X156853475Y-98456614D01*
X156796310Y-98594621D01*
X156759999Y-98714322D01*
X156730857Y-98860830D01*
X156718597Y-98985311D01*
X156718597Y-99134689D01*
X156730857Y-99259170D01*
X156759999Y-99405678D01*
X156796310Y-99525379D01*
X156853475Y-99663386D01*
X156912438Y-99773696D01*
X156995428Y-99897900D01*
X157074781Y-99994593D01*
X157180407Y-100100219D01*
X157277100Y-100179572D01*
X157401304Y-100262562D01*
X157511614Y-100321525D01*
X157532074Y-100330000D01*
X157511614Y-100338475D01*
X157401304Y-100397438D01*
X157277100Y-100480428D01*
X157180407Y-100559781D01*
X157074781Y-100665407D01*
X156995428Y-100762100D01*
X156912438Y-100886304D01*
X156853475Y-100996614D01*
X156796310Y-101134621D01*
X156759999Y-101254322D01*
X156730857Y-101400830D01*
X156718597Y-101525311D01*
X156718597Y-101674689D01*
X156730857Y-101799170D01*
X156759999Y-101945678D01*
X156796310Y-102065379D01*
X156853475Y-102203386D01*
X156912438Y-102313696D01*
X156995428Y-102437900D01*
X157074781Y-102534593D01*
X157180407Y-102640219D01*
X157277100Y-102719572D01*
X157401304Y-102802562D01*
X157511614Y-102861525D01*
X157649621Y-102918690D01*
X157769322Y-102955001D01*
X157915830Y-102984143D01*
X158040311Y-102996403D01*
X158189689Y-102996403D01*
X158274277Y-102988072D01*
X160115000Y-102988072D01*
X160239482Y-102975812D01*
X160359180Y-102939502D01*
X160469494Y-102880537D01*
X160566185Y-102801185D01*
X160645537Y-102704494D01*
X160704502Y-102594180D01*
X160740812Y-102474482D01*
X160753072Y-102350000D01*
X160753072Y-100850000D01*
X160740812Y-100725518D01*
X160704502Y-100605820D01*
X160645537Y-100495506D01*
X160566185Y-100398815D01*
X160482333Y-100330000D01*
X160566185Y-100261185D01*
X160645537Y-100164494D01*
X160704502Y-100054180D01*
X160740812Y-99934482D01*
X160753072Y-99810000D01*
X160753072Y-98310000D01*
X160740812Y-98185518D01*
X160704502Y-98065820D01*
X160645537Y-97955506D01*
X160566185Y-97858815D01*
X160482333Y-97790000D01*
X160566185Y-97721185D01*
X160645537Y-97624494D01*
X160704502Y-97514180D01*
X160740812Y-97394482D01*
X160753072Y-97270000D01*
X160753072Y-95770000D01*
X160740812Y-95645518D01*
X160704502Y-95525820D01*
X160645537Y-95415506D01*
X160566185Y-95318815D01*
X160482334Y-95250000D01*
X160864057Y-95250000D01*
X160891764Y-95531309D01*
X160973818Y-95801808D01*
X161107068Y-96051101D01*
X161286392Y-96269608D01*
X161504899Y-96448932D01*
X161637858Y-96520000D01*
X161504899Y-96591068D01*
X161286392Y-96770392D01*
X161107068Y-96988899D01*
X160973818Y-97238192D01*
X160891764Y-97508691D01*
X160864057Y-97790000D01*
X160891764Y-98071309D01*
X160973818Y-98341808D01*
X161107068Y-98591101D01*
X161286392Y-98809608D01*
X161504899Y-98988932D01*
X161637858Y-99060000D01*
X161504899Y-99131068D01*
X161286392Y-99310392D01*
X161107068Y-99528899D01*
X160973818Y-99778192D01*
X160891764Y-100048691D01*
X160864057Y-100330000D01*
X160891764Y-100611309D01*
X160973818Y-100881808D01*
X161107068Y-101131101D01*
X161286392Y-101349608D01*
X161504899Y-101528932D01*
X161637858Y-101600000D01*
X161504899Y-101671068D01*
X161286392Y-101850392D01*
X161107068Y-102068899D01*
X160973818Y-102318192D01*
X160891764Y-102588691D01*
X160864057Y-102870000D01*
X160891764Y-103151309D01*
X160973818Y-103421808D01*
X161107068Y-103671101D01*
X161286392Y-103889608D01*
X161504899Y-104068932D01*
X161754192Y-104202182D01*
X162024691Y-104284236D01*
X162235508Y-104305000D01*
X162376492Y-104305000D01*
X162587309Y-104284236D01*
X162857808Y-104202182D01*
X163107101Y-104068932D01*
X163325608Y-103889608D01*
X163504932Y-103671101D01*
X163638182Y-103421808D01*
X163720236Y-103151309D01*
X163747943Y-102870000D01*
X163720236Y-102588691D01*
X163638182Y-102318192D01*
X163504932Y-102068899D01*
X163325608Y-101850392D01*
X163107101Y-101671068D01*
X162974142Y-101600000D01*
X163107101Y-101528932D01*
X163325608Y-101349608D01*
X163504932Y-101131101D01*
X163638182Y-100881808D01*
X163720236Y-100611309D01*
X163747943Y-100330000D01*
X163720236Y-100048691D01*
X163638182Y-99778192D01*
X163504932Y-99528899D01*
X163325608Y-99310392D01*
X163107101Y-99131068D01*
X162974142Y-99060000D01*
X163107101Y-98988932D01*
X163325608Y-98809608D01*
X163504932Y-98591101D01*
X163638182Y-98341808D01*
X163720236Y-98071309D01*
X163747943Y-97790000D01*
X163720236Y-97508691D01*
X163638182Y-97238192D01*
X163504932Y-96988899D01*
X163325608Y-96770392D01*
X163107101Y-96591068D01*
X162974142Y-96520000D01*
X163107101Y-96448932D01*
X163325608Y-96269608D01*
X163504932Y-96051101D01*
X163638182Y-95801808D01*
X163720236Y-95531309D01*
X163747943Y-95250000D01*
X163720236Y-94968691D01*
X163699691Y-94900961D01*
X168534096Y-94900961D01*
X168656085Y-95123000D01*
X169799000Y-95123000D01*
X169799000Y-93979376D01*
X169576960Y-93858091D01*
X169312119Y-93952930D01*
X169070869Y-94097615D01*
X168862481Y-94286586D01*
X168694963Y-94512580D01*
X168574754Y-94766913D01*
X168534096Y-94900961D01*
X163699691Y-94900961D01*
X163638182Y-94698192D01*
X163504932Y-94448899D01*
X163325608Y-94230392D01*
X163107101Y-94051068D01*
X162857808Y-93917818D01*
X162587309Y-93835764D01*
X162376492Y-93815000D01*
X162235508Y-93815000D01*
X162024691Y-93835764D01*
X161754192Y-93917818D01*
X161504899Y-94051068D01*
X161286392Y-94230392D01*
X161107068Y-94448899D01*
X160973818Y-94698192D01*
X160891764Y-94968691D01*
X160864057Y-95250000D01*
X160482334Y-95250000D01*
X160469494Y-95239463D01*
X160359180Y-95180498D01*
X160239482Y-95144188D01*
X160115000Y-95131928D01*
X158274277Y-95131928D01*
X158189689Y-95123597D01*
X158040311Y-95123597D01*
X157915830Y-95135857D01*
X157769322Y-95164999D01*
X157649621Y-95201310D01*
X157511614Y-95258475D01*
X157401304Y-95317438D01*
X157277100Y-95400428D01*
X157180407Y-95479781D01*
X157074781Y-95585407D01*
X156995428Y-95682100D01*
X156912438Y-95806304D01*
X156853475Y-95916614D01*
X156796310Y-96054621D01*
X156759999Y-96174322D01*
X156730857Y-96320830D01*
X156718597Y-96445311D01*
X155067000Y-96445311D01*
X155067000Y-92762606D01*
X156389606Y-91440000D01*
X160864057Y-91440000D01*
X160891764Y-91721309D01*
X160973818Y-91991808D01*
X161107068Y-92241101D01*
X161286392Y-92459608D01*
X161504899Y-92638932D01*
X161754192Y-92772182D01*
X162024691Y-92854236D01*
X162235508Y-92875000D01*
X162376492Y-92875000D01*
X162587309Y-92854236D01*
X162857808Y-92772182D01*
X163107101Y-92638932D01*
X163325608Y-92459608D01*
X163504932Y-92241101D01*
X163638182Y-91991808D01*
X163720236Y-91721309D01*
X163747943Y-91440000D01*
X163720236Y-91158691D01*
X163638182Y-90888192D01*
X163504932Y-90638899D01*
X163325608Y-90420392D01*
X163107101Y-90241068D01*
X162857808Y-90107818D01*
X162587309Y-90025764D01*
X162376492Y-90005000D01*
X162235508Y-90005000D01*
X162024691Y-90025764D01*
X161754192Y-90107818D01*
X161504899Y-90241068D01*
X161286392Y-90420392D01*
X161107068Y-90638899D01*
X160973818Y-90888192D01*
X160891764Y-91158691D01*
X160864057Y-91440000D01*
X156389606Y-91440000D01*
X157569803Y-90259803D01*
X157585597Y-90240557D01*
X157597333Y-90218601D01*
X157604560Y-90194776D01*
X157607000Y-90170000D01*
X157607000Y-87488665D01*
X162221000Y-87488665D01*
X162221000Y-87771335D01*
X162276147Y-88048574D01*
X162384320Y-88309727D01*
X162541363Y-88544759D01*
X162741241Y-88744637D01*
X162976273Y-88901680D01*
X163237426Y-89009853D01*
X163514665Y-89065000D01*
X163797335Y-89065000D01*
X164074574Y-89009853D01*
X164335727Y-88901680D01*
X164570759Y-88744637D01*
X164692694Y-88622702D01*
X167842903Y-88622702D01*
X167914486Y-88866671D01*
X168169996Y-88987571D01*
X168444184Y-89056300D01*
X168726512Y-89070217D01*
X169006130Y-89028787D01*
X169272292Y-88933603D01*
X169335159Y-88900000D01*
X172548057Y-88900000D01*
X172575764Y-89181309D01*
X172657818Y-89451808D01*
X172791068Y-89701101D01*
X172970392Y-89919608D01*
X173188899Y-90098932D01*
X173438192Y-90232182D01*
X173708691Y-90314236D01*
X173919508Y-90335000D01*
X174060492Y-90335000D01*
X174271309Y-90314236D01*
X174541808Y-90232182D01*
X174791101Y-90098932D01*
X175009608Y-89919608D01*
X175188932Y-89701101D01*
X175322182Y-89451808D01*
X175404236Y-89181309D01*
X175431943Y-88900000D01*
X175404236Y-88618691D01*
X175322182Y-88348192D01*
X175188932Y-88098899D01*
X175009608Y-87880392D01*
X174791101Y-87701068D01*
X174541808Y-87567818D01*
X174271309Y-87485764D01*
X174060492Y-87465000D01*
X173919508Y-87465000D01*
X173708691Y-87485764D01*
X173438192Y-87567818D01*
X173188899Y-87701068D01*
X172970392Y-87880392D01*
X172791068Y-88098899D01*
X172657818Y-88348192D01*
X172575764Y-88618691D01*
X172548057Y-88900000D01*
X169335159Y-88900000D01*
X169397514Y-88866671D01*
X169469097Y-88622702D01*
X168656000Y-87809605D01*
X167842903Y-88622702D01*
X164692694Y-88622702D01*
X164770637Y-88544759D01*
X164927680Y-88309727D01*
X165035853Y-88048574D01*
X165091000Y-87771335D01*
X165091000Y-87700512D01*
X167215783Y-87700512D01*
X167257213Y-87980130D01*
X167352397Y-88246292D01*
X167419329Y-88371514D01*
X167663298Y-88443097D01*
X168476395Y-87630000D01*
X168835605Y-87630000D01*
X169648702Y-88443097D01*
X169892671Y-88371514D01*
X170013571Y-88116004D01*
X170082300Y-87841816D01*
X170096217Y-87559488D01*
X170054787Y-87279870D01*
X169959603Y-87013708D01*
X169892671Y-86888486D01*
X169648702Y-86816903D01*
X168835605Y-87630000D01*
X168476395Y-87630000D01*
X167663298Y-86816903D01*
X167419329Y-86888486D01*
X167298429Y-87143996D01*
X167229700Y-87418184D01*
X167215783Y-87700512D01*
X165091000Y-87700512D01*
X165091000Y-87488665D01*
X165035853Y-87211426D01*
X164927680Y-86950273D01*
X164770637Y-86715241D01*
X164692694Y-86637298D01*
X167842903Y-86637298D01*
X168656000Y-87450395D01*
X169469097Y-86637298D01*
X169397514Y-86393329D01*
X169142004Y-86272429D01*
X168867816Y-86203700D01*
X168585488Y-86189783D01*
X168305870Y-86231213D01*
X168039708Y-86326397D01*
X167914486Y-86393329D01*
X167842903Y-86637298D01*
X164692694Y-86637298D01*
X164570759Y-86515363D01*
X164335727Y-86358320D01*
X164074574Y-86250147D01*
X163797335Y-86195000D01*
X163514665Y-86195000D01*
X163237426Y-86250147D01*
X162976273Y-86358320D01*
X162741241Y-86515363D01*
X162541363Y-86715241D01*
X162384320Y-86950273D01*
X162276147Y-87211426D01*
X162221000Y-87488665D01*
X157607000Y-87488665D01*
X157607000Y-85994122D01*
X172300825Y-85994122D01*
X172365425Y-86207094D01*
X172515469Y-86512329D01*
X172722178Y-86782427D01*
X172977609Y-87007008D01*
X173271946Y-87177442D01*
X173593877Y-87287179D01*
X173863000Y-87169600D01*
X173863000Y-85725000D01*
X174117000Y-85725000D01*
X174117000Y-87169600D01*
X174386123Y-87287179D01*
X174708054Y-87177442D01*
X175002391Y-87007008D01*
X175257822Y-86782427D01*
X175464531Y-86512329D01*
X175614575Y-86207094D01*
X175679175Y-85994122D01*
X175561125Y-85725000D01*
X174117000Y-85725000D01*
X173863000Y-85725000D01*
X172418875Y-85725000D01*
X172300825Y-85994122D01*
X157607000Y-85994122D01*
X157607000Y-83947000D01*
X173481873Y-83947000D01*
X173271946Y-84018558D01*
X173271946Y-84018558D01*
G37*
X173271946Y-84018558D02*
X172977609Y-84188992D01*
X172722178Y-84413573D01*
X172515469Y-84683671D01*
X172365425Y-84988906D01*
X172300825Y-85201878D01*
X172418875Y-85471000D01*
X173863000Y-85471000D01*
X173863000Y-85451000D01*
X174117000Y-85451000D01*
X174117000Y-85471000D01*
X175561125Y-85471000D01*
X175679175Y-85201878D01*
X175614575Y-84988906D01*
X175464531Y-84683671D01*
X175257822Y-84413573D01*
X175002391Y-84188992D01*
X174708054Y-84018558D01*
X174498127Y-83947000D01*
X180193789Y-83947000D01*
X180155506Y-83967463D01*
X180058815Y-84046815D01*
X179979463Y-84143506D01*
X179920498Y-84253820D01*
X179884188Y-84373518D01*
X179871928Y-84498000D01*
X179871928Y-86698000D01*
X179884188Y-86822482D01*
X179920498Y-86942180D01*
X179979463Y-87052494D01*
X180058815Y-87149185D01*
X180155506Y-87228537D01*
X180265820Y-87287502D01*
X180385518Y-87323812D01*
X180510000Y-87336072D01*
X180850000Y-87336072D01*
X180850000Y-87681957D01*
X180695241Y-87785363D01*
X180495363Y-87985241D01*
X180338320Y-88220273D01*
X180230147Y-88481426D01*
X180175000Y-88758665D01*
X180175000Y-89041335D01*
X180211312Y-89223885D01*
X177543003Y-91892196D01*
X177513999Y-91915999D01*
X177458871Y-91983174D01*
X177419026Y-92031724D01*
X177403557Y-92060665D01*
X177348454Y-92163754D01*
X177304997Y-92307015D01*
X177294000Y-92418668D01*
X177294000Y-92418678D01*
X177290324Y-92456000D01*
X177294000Y-92493322D01*
X177294000Y-96835202D01*
X177251036Y-96799942D01*
X177045174Y-96689906D01*
X176821800Y-96622147D01*
X176647707Y-96605000D01*
X176031293Y-96605000D01*
X175857200Y-96622147D01*
X175633826Y-96689906D01*
X175427964Y-96799942D01*
X175247525Y-96948025D01*
X175180250Y-97030000D01*
X174671800Y-97030000D01*
X174162778Y-96520978D01*
X174396759Y-96364637D01*
X174596637Y-96164759D01*
X174753680Y-95929727D01*
X174861853Y-95668574D01*
X174917000Y-95391335D01*
X174917000Y-95108665D01*
X174861853Y-94831426D01*
X174753680Y-94570273D01*
X174596637Y-94335241D01*
X174396759Y-94135363D01*
X174161727Y-93978320D01*
X173900574Y-93870147D01*
X173623335Y-93815000D01*
X173340665Y-93815000D01*
X173063426Y-93870147D01*
X172802273Y-93978320D01*
X172567241Y-94135363D01*
X172367363Y-94335241D01*
X172211022Y-94569223D01*
X171811001Y-94169202D01*
X171811001Y-92602326D01*
X171814677Y-92565001D01*
X171811001Y-92527676D01*
X171811001Y-92527668D01*
X171800004Y-92416015D01*
X171756547Y-92272754D01*
X171718728Y-92202000D01*
X172548057Y-92202000D01*
X172575764Y-92483309D01*
X172657818Y-92753808D01*
X172791068Y-93003101D01*
X172970392Y-93221608D01*
X173188899Y-93400932D01*
X173438192Y-93534182D01*
X173708691Y-93616236D01*
X173919508Y-93637000D01*
X174060492Y-93637000D01*
X174271309Y-93616236D01*
X174541808Y-93534182D01*
X174791101Y-93400932D01*
X175009608Y-93221608D01*
X175188932Y-93003101D01*
X175322182Y-92753808D01*
X175404236Y-92483309D01*
X175431943Y-92202000D01*
X175404236Y-91920691D01*
X175322182Y-91650192D01*
X175188932Y-91400899D01*
X175009608Y-91182392D01*
X174791101Y-91003068D01*
X174541808Y-90869818D01*
X174271309Y-90787764D01*
X174060492Y-90767000D01*
X173919508Y-90767000D01*
X173708691Y-90787764D01*
X173438192Y-90869818D01*
X173188899Y-91003068D01*
X172970392Y-91182392D01*
X172791068Y-91400899D01*
X172657818Y-91650192D01*
X172575764Y-91920691D01*
X172548057Y-92202000D01*
X171718728Y-92202000D01*
X171685975Y-92140725D01*
X171591002Y-92025000D01*
X171562005Y-92001203D01*
X171324688Y-91763886D01*
X171361000Y-91581335D01*
X171361000Y-91298665D01*
X171305853Y-91021426D01*
X171197680Y-90760273D01*
X171040637Y-90525241D01*
X170840759Y-90325363D01*
X170605727Y-90168320D01*
X170344574Y-90060147D01*
X170067335Y-90005000D01*
X169784665Y-90005000D01*
X169507426Y-90060147D01*
X169246273Y-90168320D01*
X169011241Y-90325363D01*
X168811363Y-90525241D01*
X168654320Y-90760273D01*
X168546147Y-91021426D01*
X168491000Y-91298665D01*
X168491000Y-91581335D01*
X168546147Y-91858574D01*
X168654320Y-92119727D01*
X168811363Y-92354759D01*
X169011241Y-92554637D01*
X169246273Y-92711680D01*
X169507426Y-92819853D01*
X169784665Y-92875000D01*
X170067335Y-92875000D01*
X170249886Y-92838688D01*
X170291001Y-92879803D01*
X170291002Y-93863807D01*
X170275040Y-93858091D01*
X170053000Y-93979376D01*
X170053000Y-95123000D01*
X170073000Y-95123000D01*
X170073000Y-95377000D01*
X170053000Y-95377000D01*
X170053000Y-95397000D01*
X169799000Y-95397000D01*
X169799000Y-95377000D01*
X168656085Y-95377000D01*
X168534096Y-95599039D01*
X168574754Y-95733087D01*
X168694963Y-95987420D01*
X168862481Y-96213414D01*
X169070869Y-96402385D01*
X169262682Y-96517421D01*
X169124899Y-96591068D01*
X168906392Y-96770392D01*
X168727068Y-96988899D01*
X168593818Y-97238192D01*
X168511764Y-97508691D01*
X168484057Y-97790000D01*
X168511764Y-98071309D01*
X168593818Y-98341808D01*
X168727068Y-98591101D01*
X168906392Y-98809608D01*
X169124899Y-98988932D01*
X169257858Y-99060000D01*
X169124899Y-99131068D01*
X168906392Y-99310392D01*
X168727068Y-99528899D01*
X168593818Y-99778192D01*
X168511764Y-100048691D01*
X168484057Y-100330000D01*
X168511764Y-100611309D01*
X168593818Y-100881808D01*
X168727068Y-101131101D01*
X168906392Y-101349608D01*
X169019482Y-101442419D01*
X169001518Y-101444188D01*
X168881820Y-101480498D01*
X168771506Y-101539463D01*
X168674815Y-101618815D01*
X168595463Y-101715506D01*
X168536498Y-101825820D01*
X168500188Y-101945518D01*
X168487928Y-102070000D01*
X168487928Y-103670000D01*
X168500188Y-103794482D01*
X168536498Y-103914180D01*
X168595463Y-104024494D01*
X168674815Y-104121185D01*
X168771506Y-104200537D01*
X168881820Y-104259502D01*
X169001518Y-104295812D01*
X169126000Y-104308072D01*
X170726000Y-104308072D01*
X170850482Y-104295812D01*
X170970180Y-104259502D01*
X171080494Y-104200537D01*
X171177185Y-104121185D01*
X171256537Y-104024494D01*
X171315502Y-103914180D01*
X171351812Y-103794482D01*
X171364072Y-103670000D01*
X171364072Y-102070000D01*
X171351812Y-101945518D01*
X171315502Y-101825820D01*
X171256537Y-101715506D01*
X171177185Y-101618815D01*
X171080494Y-101539463D01*
X170970180Y-101480498D01*
X170850482Y-101444188D01*
X170832518Y-101442419D01*
X170945608Y-101349608D01*
X171124932Y-101131101D01*
X171258182Y-100881808D01*
X171340236Y-100611309D01*
X171367943Y-100330000D01*
X171340236Y-100048691D01*
X171258182Y-99778192D01*
X171124932Y-99528899D01*
X170945608Y-99310392D01*
X170727101Y-99131068D01*
X170594142Y-99060000D01*
X170727101Y-98988932D01*
X170945608Y-98809608D01*
X171124932Y-98591101D01*
X171258182Y-98341808D01*
X171340236Y-98071309D01*
X171367943Y-97790000D01*
X171340236Y-97508691D01*
X171258182Y-97238192D01*
X171124932Y-96988899D01*
X170945608Y-96770392D01*
X170727101Y-96591068D01*
X170589318Y-96517421D01*
X170781131Y-96402385D01*
X170989519Y-96213414D01*
X171157037Y-95987420D01*
X171260569Y-95768372D01*
X173793199Y-98301003D01*
X173816997Y-98330001D01*
X173932722Y-98424974D01*
X174064751Y-98495546D01*
X174208012Y-98539003D01*
X174319665Y-98550000D01*
X174319673Y-98550000D01*
X174356998Y-98553676D01*
X174394323Y-98550000D01*
X175011949Y-98550000D01*
X174959570Y-98662232D01*
X174945697Y-98750256D01*
X175071139Y-98933000D01*
X175775270Y-98933000D01*
X175857200Y-98957853D01*
X176031293Y-98975000D01*
X176486500Y-98975000D01*
X176486500Y-99141928D01*
X175539500Y-99141928D01*
X175415018Y-99154188D01*
X175306851Y-99187000D01*
X175071139Y-99187000D01*
X174945697Y-99369744D01*
X174959570Y-99457768D01*
X174974555Y-99489877D01*
X174949998Y-99535820D01*
X174913688Y-99655518D01*
X174901428Y-99780000D01*
X174901428Y-100880000D01*
X174913688Y-101004482D01*
X174949998Y-101124180D01*
X175008963Y-101234494D01*
X175088315Y-101331185D01*
X175185006Y-101410537D01*
X175295320Y-101469502D01*
X175415018Y-101505812D01*
X175539500Y-101518072D01*
X177139500Y-101518072D01*
X177263982Y-101505812D01*
X177294001Y-101496706D01*
X177294001Y-106797199D01*
X175903804Y-105407003D01*
X175880001Y-105377999D01*
X175764276Y-105283026D01*
X175728072Y-105263674D01*
X175728072Y-104818000D01*
X175715812Y-104693518D01*
X175679502Y-104573820D01*
X175620537Y-104463506D01*
X175541185Y-104366815D01*
X175444494Y-104287463D01*
X175334180Y-104228498D01*
X175214482Y-104192188D01*
X175090000Y-104179928D01*
X174075442Y-104179928D01*
X174283101Y-104068932D01*
X174501608Y-103889608D01*
X174680932Y-103671101D01*
X174814182Y-103421808D01*
X174896236Y-103151309D01*
X174923943Y-102870000D01*
X174896236Y-102588691D01*
X174814182Y-102318192D01*
X174680932Y-102068899D01*
X174501608Y-101850392D01*
X174283101Y-101671068D01*
X174033808Y-101537818D01*
X173763309Y-101455764D01*
X173552492Y-101435000D01*
X173411508Y-101435000D01*
X173200691Y-101455764D01*
X172930192Y-101537818D01*
X172680899Y-101671068D01*
X172462392Y-101850392D01*
X172283068Y-102068899D01*
X172149818Y-102318192D01*
X172067764Y-102588691D01*
X172040057Y-102870000D01*
X172067764Y-103151309D01*
X172149818Y-103421808D01*
X172283068Y-103671101D01*
X172462392Y-103889608D01*
X172680899Y-104068932D01*
X172888782Y-104180048D01*
X172765518Y-104192188D01*
X172645820Y-104228498D01*
X172535506Y-104287463D01*
X172438815Y-104366815D01*
X172359463Y-104463506D01*
X172300498Y-104573820D01*
X172264188Y-104693518D01*
X172251928Y-104818000D01*
X172251928Y-106835126D01*
X171839803Y-106423002D01*
X171816001Y-106393999D01*
X171700276Y-106299026D01*
X171568247Y-106228454D01*
X171506095Y-106209601D01*
X171375579Y-105965422D01*
X171158766Y-105701234D01*
X170894578Y-105484421D01*
X170593168Y-105323314D01*
X170266119Y-105224105D01*
X170011225Y-105199000D01*
X169840775Y-105199000D01*
X169585881Y-105224105D01*
X169258832Y-105323314D01*
X168957422Y-105484421D01*
X168693234Y-105701234D01*
X168476421Y-105965422D01*
X168315314Y-106266832D01*
X168216105Y-106593881D01*
X168182606Y-106934000D01*
X168216105Y-107274119D01*
X168315314Y-107601168D01*
X168476421Y-107902578D01*
X168693234Y-108166766D01*
X168957422Y-108383579D01*
X169258832Y-108544686D01*
X169585881Y-108643895D01*
X169840775Y-108669000D01*
X170011225Y-108669000D01*
X170266119Y-108643895D01*
X170593168Y-108544686D01*
X170894578Y-108383579D01*
X171158766Y-108166766D01*
X171282812Y-108015615D01*
X171664705Y-108397508D01*
X171688499Y-108426501D01*
X171717492Y-108450295D01*
X171717496Y-108450299D01*
X171788185Y-108508311D01*
X171804224Y-108521474D01*
X171936253Y-108592046D01*
X172079514Y-108635503D01*
X172191167Y-108646500D01*
X172191176Y-108646500D01*
X172228499Y-108650176D01*
X172265822Y-108646500D01*
X174216139Y-108646500D01*
X174219000Y-109358250D01*
X174377750Y-109517000D01*
X175464500Y-109517000D01*
X175464500Y-109497000D01*
X175718500Y-109497000D01*
X175718500Y-109517000D01*
X175738500Y-109517000D01*
X175738500Y-109771000D01*
X175718500Y-109771000D01*
X175718500Y-109791000D01*
X175464500Y-109791000D01*
X175464500Y-109771000D01*
X174377750Y-109771000D01*
X174219000Y-109929750D01*
X174217283Y-110356816D01*
X173956500Y-110355928D01*
X173832018Y-110368188D01*
X173712320Y-110404498D01*
X173602006Y-110463463D01*
X173505315Y-110542815D01*
X173425963Y-110639506D01*
X173366998Y-110749820D01*
X173330688Y-110869518D01*
X173318428Y-110994000D01*
X173321500Y-111658250D01*
X173480250Y-111817000D01*
X175017000Y-111817000D01*
X175017000Y-111797000D01*
X175271000Y-111797000D01*
X175271000Y-111817000D01*
X177087000Y-111817000D01*
X177087000Y-111797000D01*
X177341000Y-111797000D01*
X177341000Y-111817000D01*
X178767000Y-111817000D01*
X178767000Y-111797000D01*
X179021000Y-111797000D01*
X179021000Y-111817000D01*
X180837000Y-111817000D01*
X180837000Y-111797000D01*
X181091000Y-111797000D01*
X181091000Y-111817000D01*
X182627750Y-111817000D01*
X182786500Y-111658250D01*
X182789572Y-110994000D01*
X182777312Y-110869518D01*
X182741002Y-110749820D01*
X182682037Y-110639506D01*
X182602685Y-110542815D01*
X182505994Y-110463463D01*
X182395680Y-110404498D01*
X182275982Y-110368188D01*
X182151500Y-110355928D01*
X181890717Y-110356816D01*
X181889000Y-109929750D01*
X181730250Y-109771000D01*
X180643500Y-109771000D01*
X180643500Y-109791000D01*
X180389500Y-109791000D01*
X180389500Y-109771000D01*
X180369500Y-109771000D01*
X180369500Y-109517000D01*
X180389500Y-109517000D01*
X180389500Y-108117750D01*
X180643500Y-108117750D01*
X180643500Y-109517000D01*
X181730250Y-109517000D01*
X181889000Y-109358250D01*
X181892072Y-108594000D01*
X181879812Y-108469518D01*
X181843502Y-108349820D01*
X181784537Y-108239506D01*
X181705185Y-108142815D01*
X181608494Y-108063463D01*
X181498180Y-108004498D01*
X181378482Y-107968188D01*
X181254000Y-107955928D01*
X180802250Y-107959000D01*
X180643500Y-108117750D01*
X180389500Y-108117750D01*
X180230750Y-107959000D01*
X179779000Y-107955928D01*
X179675666Y-107966105D01*
X179610750Y-107959000D01*
X179578503Y-107991247D01*
X179534820Y-108004498D01*
X179424506Y-108063463D01*
X179354000Y-108121326D01*
X179283494Y-108063463D01*
X179173180Y-108004498D01*
X179129497Y-107991247D01*
X179097250Y-107959000D01*
X179032334Y-107966105D01*
X178929000Y-107955928D01*
X178814000Y-107955928D01*
X178814000Y-106314122D01*
X179920825Y-106314122D01*
X179985425Y-106527094D01*
X180135469Y-106832329D01*
X180342178Y-107102427D01*
X180597609Y-107327008D01*
X180891946Y-107497442D01*
X181213877Y-107607179D01*
X181483000Y-107489600D01*
X181483000Y-106045000D01*
X180038875Y-106045000D01*
X179920825Y-106314122D01*
X178814000Y-106314122D01*
X178814000Y-105521878D01*
X179920825Y-105521878D01*
X180038875Y-105791000D01*
X181483000Y-105791000D01*
X181483000Y-104346400D01*
X181213877Y-104228821D01*
X180891946Y-104338558D01*
X180597609Y-104508992D01*
X180342178Y-104733573D01*
X180135469Y-105003671D01*
X179985425Y-105308906D01*
X179920825Y-105521878D01*
X178814000Y-105521878D01*
X178814000Y-92770801D01*
X181286115Y-90298688D01*
X181468665Y-90335000D01*
X181751335Y-90335000D01*
X182028574Y-90279853D01*
X182289727Y-90171680D01*
X182524759Y-90014637D01*
X182724637Y-89814759D01*
X182881680Y-89579727D01*
X182989853Y-89318574D01*
X183007000Y-89232371D01*
X183007000Y-91869629D01*
X182989853Y-91783426D01*
X182881680Y-91522273D01*
X182724637Y-91287241D01*
X182524759Y-91087363D01*
X182289727Y-90930320D01*
X182028574Y-90822147D01*
X181751335Y-90767000D01*
X181468665Y-90767000D01*
X181191426Y-90822147D01*
X180930273Y-90930320D01*
X180695241Y-91087363D01*
X180495363Y-91287241D01*
X180338320Y-91522273D01*
X180230147Y-91783426D01*
X180175000Y-92060665D01*
X180175000Y-92343335D01*
X180230147Y-92620574D01*
X180338320Y-92881727D01*
X180495363Y-93116759D01*
X180695241Y-93316637D01*
X180930273Y-93473680D01*
X181191426Y-93581853D01*
X181468665Y-93637000D01*
X181751335Y-93637000D01*
X182028574Y-93581853D01*
X182289727Y-93473680D01*
X182524759Y-93316637D01*
X182724637Y-93116759D01*
X182881680Y-92881727D01*
X182989853Y-92620574D01*
X183007000Y-92534371D01*
X183007000Y-104902364D01*
X182877822Y-104733573D01*
X182622391Y-104508992D01*
X182328054Y-104338558D01*
X182006123Y-104228821D01*
X181737000Y-104346400D01*
X181737000Y-105791000D01*
X181757000Y-105791000D01*
X181757000Y-106045000D01*
X181737000Y-106045000D01*
X181737000Y-107489600D01*
X182006123Y-107607179D01*
X182328054Y-107497442D01*
X182622391Y-107327008D01*
X182877822Y-107102427D01*
X183007000Y-106933636D01*
X183007000Y-114427000D01*
X157607000Y-114427000D01*
X157607000Y-112894000D01*
X173318428Y-112894000D01*
X173330688Y-113018482D01*
X173366998Y-113138180D01*
X173425963Y-113248494D01*
X173505315Y-113345185D01*
X173602006Y-113424537D01*
X173712320Y-113483502D01*
X173832018Y-113519812D01*
X173956500Y-113532072D01*
X174858250Y-113529000D01*
X175017000Y-113370250D01*
X175017000Y-112071000D01*
X175271000Y-112071000D01*
X175271000Y-113370250D01*
X175429750Y-113529000D01*
X176331500Y-113532072D01*
X176455982Y-113519812D01*
X176479000Y-113512830D01*
X176502018Y-113519812D01*
X176626500Y-113532072D01*
X176928250Y-113529000D01*
X177087000Y-113370250D01*
X177087000Y-112071000D01*
X177341000Y-112071000D01*
X177341000Y-113370250D01*
X177499750Y-113529000D01*
X177801500Y-113532072D01*
X177925982Y-113519812D01*
X178045680Y-113483502D01*
X178054000Y-113479055D01*
X178062320Y-113483502D01*
X178182018Y-113519812D01*
X178306500Y-113532072D01*
X178608250Y-113529000D01*
X178767000Y-113370250D01*
X178767000Y-112071000D01*
X179021000Y-112071000D01*
X179021000Y-113370250D01*
X179179750Y-113529000D01*
X179481500Y-113532072D01*
X179605982Y-113519812D01*
X179629000Y-113512830D01*
X179652018Y-113519812D01*
X179776500Y-113532072D01*
X180678250Y-113529000D01*
X180837000Y-113370250D01*
X180837000Y-112071000D01*
X181091000Y-112071000D01*
X181091000Y-113370250D01*
X181249750Y-113529000D01*
X182151500Y-113532072D01*
X182275982Y-113519812D01*
X182395680Y-113483502D01*
X182505994Y-113424537D01*
X182602685Y-113345185D01*
X182682037Y-113248494D01*
X182741002Y-113138180D01*
X182777312Y-113018482D01*
X182789572Y-112894000D01*
X182786500Y-112229750D01*
X182627750Y-112071000D01*
X181091000Y-112071000D01*
X180837000Y-112071000D01*
X179021000Y-112071000D01*
X178767000Y-112071000D01*
X177341000Y-112071000D01*
X177087000Y-112071000D01*
X175271000Y-112071000D01*
X175017000Y-112071000D01*
X173480250Y-112071000D01*
X173321500Y-112229750D01*
X173318428Y-112894000D01*
X157607000Y-112894000D01*
X157607000Y-110602665D01*
X162141000Y-110602665D01*
X162141000Y-110885335D01*
X162196147Y-111162574D01*
X162304320Y-111423727D01*
X162461363Y-111658759D01*
X162661241Y-111858637D01*
X162896273Y-112015680D01*
X163157426Y-112123853D01*
X163434665Y-112179000D01*
X163717335Y-112179000D01*
X163994574Y-112123853D01*
X164255727Y-112015680D01*
X164490759Y-111858637D01*
X164612694Y-111736702D01*
X167762903Y-111736702D01*
X167834486Y-111980671D01*
X168089996Y-112101571D01*
X168364184Y-112170300D01*
X168646512Y-112184217D01*
X168926130Y-112142787D01*
X169192292Y-112047603D01*
X169317514Y-111980671D01*
X169389097Y-111736702D01*
X168576000Y-110923605D01*
X167762903Y-111736702D01*
X164612694Y-111736702D01*
X164690637Y-111658759D01*
X164847680Y-111423727D01*
X164955853Y-111162574D01*
X165011000Y-110885335D01*
X165011000Y-110814512D01*
X167135783Y-110814512D01*
X167177213Y-111094130D01*
X167272397Y-111360292D01*
X167339329Y-111485514D01*
X167583298Y-111557097D01*
X168396395Y-110744000D01*
X168755605Y-110744000D01*
X169568702Y-111557097D01*
X169812671Y-111485514D01*
X169933571Y-111230004D01*
X170002300Y-110955816D01*
X170016217Y-110673488D01*
X169974787Y-110393870D01*
X169879603Y-110127708D01*
X169812671Y-110002486D01*
X169568702Y-109930903D01*
X168755605Y-110744000D01*
X168396395Y-110744000D01*
X167583298Y-109930903D01*
X167339329Y-110002486D01*
X167218429Y-110257996D01*
X167149700Y-110532184D01*
X167135783Y-110814512D01*
X165011000Y-110814512D01*
X165011000Y-110602665D01*
X164955853Y-110325426D01*
X164847680Y-110064273D01*
X164690637Y-109829241D01*
X164612694Y-109751298D01*
X167762903Y-109751298D01*
X168576000Y-110564395D01*
X169389097Y-109751298D01*
X169317514Y-109507329D01*
X169062004Y-109386429D01*
X168787816Y-109317700D01*
X168505488Y-109303783D01*
X168225870Y-109345213D01*
X167959708Y-109440397D01*
X167834486Y-109507329D01*
X167762903Y-109751298D01*
X164612694Y-109751298D01*
X164490759Y-109629363D01*
X164255727Y-109472320D01*
X163994574Y-109364147D01*
X163717335Y-109309000D01*
X163434665Y-109309000D01*
X163157426Y-109364147D01*
X162896273Y-109472320D01*
X162661241Y-109629363D01*
X162461363Y-109829241D01*
X162304320Y-110064273D01*
X162196147Y-110325426D01*
X162141000Y-110602665D01*
X157607000Y-110602665D01*
X157607000Y-108458000D01*
X157604560Y-108433224D01*
X157597333Y-108409399D01*
X157585597Y-108387443D01*
X157569803Y-108368197D01*
X155067000Y-105865394D01*
X155067000Y-105834000D01*
X160567928Y-105834000D01*
X160567928Y-108034000D01*
X160580188Y-108158482D01*
X160616498Y-108278180D01*
X160675463Y-108388494D01*
X160754815Y-108485185D01*
X160851506Y-108564537D01*
X160961820Y-108623502D01*
X161081518Y-108659812D01*
X161206000Y-108672072D01*
X163406000Y-108672072D01*
X163530482Y-108659812D01*
X163650180Y-108623502D01*
X163760494Y-108564537D01*
X163857185Y-108485185D01*
X163936537Y-108388494D01*
X163995502Y-108278180D01*
X164031812Y-108158482D01*
X164044072Y-108034000D01*
X164044072Y-105834000D01*
X164031812Y-105709518D01*
X163995502Y-105589820D01*
X163936537Y-105479506D01*
X163857185Y-105382815D01*
X163760494Y-105303463D01*
X163650180Y-105244498D01*
X163530482Y-105208188D01*
X163406000Y-105195928D01*
X161206000Y-105195928D01*
X161081518Y-105208188D01*
X160961820Y-105244498D01*
X160851506Y-105303463D01*
X160754815Y-105382815D01*
X160675463Y-105479506D01*
X160616498Y-105589820D01*
X160580188Y-105709518D01*
X160567928Y-105834000D01*
X155067000Y-105834000D01*
X155067000Y-96445311D01*
X156718597Y-96445311D01*
X156718597Y-96594689D01*
X156730857Y-96719170D01*
X156759999Y-96865678D01*
X156796310Y-96985379D01*
X156853475Y-97123386D01*
X156912438Y-97233696D01*
X156995428Y-97357900D01*
X157074781Y-97454593D01*
X157180407Y-97560219D01*
X157277100Y-97639572D01*
X157401304Y-97722562D01*
X157511614Y-97781525D01*
X157532074Y-97790000D01*
X157511614Y-97798475D01*
X157401304Y-97857438D01*
X157277100Y-97940428D01*
X157180407Y-98019781D01*
X157074781Y-98125407D01*
X156995428Y-98222100D01*
X156912438Y-98346304D01*
X156853475Y-98456614D01*
X156796310Y-98594621D01*
X156759999Y-98714322D01*
X156730857Y-98860830D01*
X156718597Y-98985311D01*
X156718597Y-99134689D01*
X156730857Y-99259170D01*
X156759999Y-99405678D01*
X156796310Y-99525379D01*
X156853475Y-99663386D01*
X156912438Y-99773696D01*
X156995428Y-99897900D01*
X157074781Y-99994593D01*
X157180407Y-100100219D01*
X157277100Y-100179572D01*
X157401304Y-100262562D01*
X157511614Y-100321525D01*
X157532074Y-100330000D01*
X157511614Y-100338475D01*
X157401304Y-100397438D01*
X157277100Y-100480428D01*
X157180407Y-100559781D01*
X157074781Y-100665407D01*
X156995428Y-100762100D01*
X156912438Y-100886304D01*
X156853475Y-100996614D01*
X156796310Y-101134621D01*
X156759999Y-101254322D01*
X156730857Y-101400830D01*
X156718597Y-101525311D01*
X156718597Y-101674689D01*
X156730857Y-101799170D01*
X156759999Y-101945678D01*
X156796310Y-102065379D01*
X156853475Y-102203386D01*
X156912438Y-102313696D01*
X156995428Y-102437900D01*
X157074781Y-102534593D01*
X157180407Y-102640219D01*
X157277100Y-102719572D01*
X157401304Y-102802562D01*
X157511614Y-102861525D01*
X157649621Y-102918690D01*
X157769322Y-102955001D01*
X157915830Y-102984143D01*
X158040311Y-102996403D01*
X158189689Y-102996403D01*
X158274277Y-102988072D01*
X160115000Y-102988072D01*
X160239482Y-102975812D01*
X160359180Y-102939502D01*
X160469494Y-102880537D01*
X160566185Y-102801185D01*
X160645537Y-102704494D01*
X160704502Y-102594180D01*
X160740812Y-102474482D01*
X160753072Y-102350000D01*
X160753072Y-100850000D01*
X160740812Y-100725518D01*
X160704502Y-100605820D01*
X160645537Y-100495506D01*
X160566185Y-100398815D01*
X160482333Y-100330000D01*
X160566185Y-100261185D01*
X160645537Y-100164494D01*
X160704502Y-100054180D01*
X160740812Y-99934482D01*
X160753072Y-99810000D01*
X160753072Y-98310000D01*
X160740812Y-98185518D01*
X160704502Y-98065820D01*
X160645537Y-97955506D01*
X160566185Y-97858815D01*
X160482333Y-97790000D01*
X160566185Y-97721185D01*
X160645537Y-97624494D01*
X160704502Y-97514180D01*
X160740812Y-97394482D01*
X160753072Y-97270000D01*
X160753072Y-95770000D01*
X160740812Y-95645518D01*
X160704502Y-95525820D01*
X160645537Y-95415506D01*
X160566185Y-95318815D01*
X160482334Y-95250000D01*
X160864057Y-95250000D01*
X160891764Y-95531309D01*
X160973818Y-95801808D01*
X161107068Y-96051101D01*
X161286392Y-96269608D01*
X161504899Y-96448932D01*
X161637858Y-96520000D01*
X161504899Y-96591068D01*
X161286392Y-96770392D01*
X161107068Y-96988899D01*
X160973818Y-97238192D01*
X160891764Y-97508691D01*
X160864057Y-97790000D01*
X160891764Y-98071309D01*
X160973818Y-98341808D01*
X161107068Y-98591101D01*
X161286392Y-98809608D01*
X161504899Y-98988932D01*
X161637858Y-99060000D01*
X161504899Y-99131068D01*
X161286392Y-99310392D01*
X161107068Y-99528899D01*
X160973818Y-99778192D01*
X160891764Y-100048691D01*
X160864057Y-100330000D01*
X160891764Y-100611309D01*
X160973818Y-100881808D01*
X161107068Y-101131101D01*
X161286392Y-101349608D01*
X161504899Y-101528932D01*
X161637858Y-101600000D01*
X161504899Y-101671068D01*
X161286392Y-101850392D01*
X161107068Y-102068899D01*
X160973818Y-102318192D01*
X160891764Y-102588691D01*
X160864057Y-102870000D01*
X160891764Y-103151309D01*
X160973818Y-103421808D01*
X161107068Y-103671101D01*
X161286392Y-103889608D01*
X161504899Y-104068932D01*
X161754192Y-104202182D01*
X162024691Y-104284236D01*
X162235508Y-104305000D01*
X162376492Y-104305000D01*
X162587309Y-104284236D01*
X162857808Y-104202182D01*
X163107101Y-104068932D01*
X163325608Y-103889608D01*
X163504932Y-103671101D01*
X163638182Y-103421808D01*
X163720236Y-103151309D01*
X163747943Y-102870000D01*
X163720236Y-102588691D01*
X163638182Y-102318192D01*
X163504932Y-102068899D01*
X163325608Y-101850392D01*
X163107101Y-101671068D01*
X162974142Y-101600000D01*
X163107101Y-101528932D01*
X163325608Y-101349608D01*
X163504932Y-101131101D01*
X163638182Y-100881808D01*
X163720236Y-100611309D01*
X163747943Y-100330000D01*
X163720236Y-100048691D01*
X163638182Y-99778192D01*
X163504932Y-99528899D01*
X163325608Y-99310392D01*
X163107101Y-99131068D01*
X162974142Y-99060000D01*
X163107101Y-98988932D01*
X163325608Y-98809608D01*
X163504932Y-98591101D01*
X163638182Y-98341808D01*
X163720236Y-98071309D01*
X163747943Y-97790000D01*
X163720236Y-97508691D01*
X163638182Y-97238192D01*
X163504932Y-96988899D01*
X163325608Y-96770392D01*
X163107101Y-96591068D01*
X162974142Y-96520000D01*
X163107101Y-96448932D01*
X163325608Y-96269608D01*
X163504932Y-96051101D01*
X163638182Y-95801808D01*
X163720236Y-95531309D01*
X163747943Y-95250000D01*
X163720236Y-94968691D01*
X163699691Y-94900961D01*
X168534096Y-94900961D01*
X168656085Y-95123000D01*
X169799000Y-95123000D01*
X169799000Y-93979376D01*
X169576960Y-93858091D01*
X169312119Y-93952930D01*
X169070869Y-94097615D01*
X168862481Y-94286586D01*
X168694963Y-94512580D01*
X168574754Y-94766913D01*
X168534096Y-94900961D01*
X163699691Y-94900961D01*
X163638182Y-94698192D01*
X163504932Y-94448899D01*
X163325608Y-94230392D01*
X163107101Y-94051068D01*
X162857808Y-93917818D01*
X162587309Y-93835764D01*
X162376492Y-93815000D01*
X162235508Y-93815000D01*
X162024691Y-93835764D01*
X161754192Y-93917818D01*
X161504899Y-94051068D01*
X161286392Y-94230392D01*
X161107068Y-94448899D01*
X160973818Y-94698192D01*
X160891764Y-94968691D01*
X160864057Y-95250000D01*
X160482334Y-95250000D01*
X160469494Y-95239463D01*
X160359180Y-95180498D01*
X160239482Y-95144188D01*
X160115000Y-95131928D01*
X158274277Y-95131928D01*
X158189689Y-95123597D01*
X158040311Y-95123597D01*
X157915830Y-95135857D01*
X157769322Y-95164999D01*
X157649621Y-95201310D01*
X157511614Y-95258475D01*
X157401304Y-95317438D01*
X157277100Y-95400428D01*
X157180407Y-95479781D01*
X157074781Y-95585407D01*
X156995428Y-95682100D01*
X156912438Y-95806304D01*
X156853475Y-95916614D01*
X156796310Y-96054621D01*
X156759999Y-96174322D01*
X156730857Y-96320830D01*
X156718597Y-96445311D01*
X155067000Y-96445311D01*
X155067000Y-92762606D01*
X156389606Y-91440000D01*
X160864057Y-91440000D01*
X160891764Y-91721309D01*
X160973818Y-91991808D01*
X161107068Y-92241101D01*
X161286392Y-92459608D01*
X161504899Y-92638932D01*
X161754192Y-92772182D01*
X162024691Y-92854236D01*
X162235508Y-92875000D01*
X162376492Y-92875000D01*
X162587309Y-92854236D01*
X162857808Y-92772182D01*
X163107101Y-92638932D01*
X163325608Y-92459608D01*
X163504932Y-92241101D01*
X163638182Y-91991808D01*
X163720236Y-91721309D01*
X163747943Y-91440000D01*
X163720236Y-91158691D01*
X163638182Y-90888192D01*
X163504932Y-90638899D01*
X163325608Y-90420392D01*
X163107101Y-90241068D01*
X162857808Y-90107818D01*
X162587309Y-90025764D01*
X162376492Y-90005000D01*
X162235508Y-90005000D01*
X162024691Y-90025764D01*
X161754192Y-90107818D01*
X161504899Y-90241068D01*
X161286392Y-90420392D01*
X161107068Y-90638899D01*
X160973818Y-90888192D01*
X160891764Y-91158691D01*
X160864057Y-91440000D01*
X156389606Y-91440000D01*
X157569803Y-90259803D01*
X157585597Y-90240557D01*
X157597333Y-90218601D01*
X157604560Y-90194776D01*
X157607000Y-90170000D01*
X157607000Y-87488665D01*
X162221000Y-87488665D01*
X162221000Y-87771335D01*
X162276147Y-88048574D01*
X162384320Y-88309727D01*
X162541363Y-88544759D01*
X162741241Y-88744637D01*
X162976273Y-88901680D01*
X163237426Y-89009853D01*
X163514665Y-89065000D01*
X163797335Y-89065000D01*
X164074574Y-89009853D01*
X164335727Y-88901680D01*
X164570759Y-88744637D01*
X164692694Y-88622702D01*
X167842903Y-88622702D01*
X167914486Y-88866671D01*
X168169996Y-88987571D01*
X168444184Y-89056300D01*
X168726512Y-89070217D01*
X169006130Y-89028787D01*
X169272292Y-88933603D01*
X169335159Y-88900000D01*
X172548057Y-88900000D01*
X172575764Y-89181309D01*
X172657818Y-89451808D01*
X172791068Y-89701101D01*
X172970392Y-89919608D01*
X173188899Y-90098932D01*
X173438192Y-90232182D01*
X173708691Y-90314236D01*
X173919508Y-90335000D01*
X174060492Y-90335000D01*
X174271309Y-90314236D01*
X174541808Y-90232182D01*
X174791101Y-90098932D01*
X175009608Y-89919608D01*
X175188932Y-89701101D01*
X175322182Y-89451808D01*
X175404236Y-89181309D01*
X175431943Y-88900000D01*
X175404236Y-88618691D01*
X175322182Y-88348192D01*
X175188932Y-88098899D01*
X175009608Y-87880392D01*
X174791101Y-87701068D01*
X174541808Y-87567818D01*
X174271309Y-87485764D01*
X174060492Y-87465000D01*
X173919508Y-87465000D01*
X173708691Y-87485764D01*
X173438192Y-87567818D01*
X173188899Y-87701068D01*
X172970392Y-87880392D01*
X172791068Y-88098899D01*
X172657818Y-88348192D01*
X172575764Y-88618691D01*
X172548057Y-88900000D01*
X169335159Y-88900000D01*
X169397514Y-88866671D01*
X169469097Y-88622702D01*
X168656000Y-87809605D01*
X167842903Y-88622702D01*
X164692694Y-88622702D01*
X164770637Y-88544759D01*
X164927680Y-88309727D01*
X165035853Y-88048574D01*
X165091000Y-87771335D01*
X165091000Y-87700512D01*
X167215783Y-87700512D01*
X167257213Y-87980130D01*
X167352397Y-88246292D01*
X167419329Y-88371514D01*
X167663298Y-88443097D01*
X168476395Y-87630000D01*
X168835605Y-87630000D01*
X169648702Y-88443097D01*
X169892671Y-88371514D01*
X170013571Y-88116004D01*
X170082300Y-87841816D01*
X170096217Y-87559488D01*
X170054787Y-87279870D01*
X169959603Y-87013708D01*
X169892671Y-86888486D01*
X169648702Y-86816903D01*
X168835605Y-87630000D01*
X168476395Y-87630000D01*
X167663298Y-86816903D01*
X167419329Y-86888486D01*
X167298429Y-87143996D01*
X167229700Y-87418184D01*
X167215783Y-87700512D01*
X165091000Y-87700512D01*
X165091000Y-87488665D01*
X165035853Y-87211426D01*
X164927680Y-86950273D01*
X164770637Y-86715241D01*
X164692694Y-86637298D01*
X167842903Y-86637298D01*
X168656000Y-87450395D01*
X169469097Y-86637298D01*
X169397514Y-86393329D01*
X169142004Y-86272429D01*
X168867816Y-86203700D01*
X168585488Y-86189783D01*
X168305870Y-86231213D01*
X168039708Y-86326397D01*
X167914486Y-86393329D01*
X167842903Y-86637298D01*
X164692694Y-86637298D01*
X164570759Y-86515363D01*
X164335727Y-86358320D01*
X164074574Y-86250147D01*
X163797335Y-86195000D01*
X163514665Y-86195000D01*
X163237426Y-86250147D01*
X162976273Y-86358320D01*
X162741241Y-86515363D01*
X162541363Y-86715241D01*
X162384320Y-86950273D01*
X162276147Y-87211426D01*
X162221000Y-87488665D01*
X157607000Y-87488665D01*
X157607000Y-85994122D01*
X172300825Y-85994122D01*
X172365425Y-86207094D01*
X172515469Y-86512329D01*
X172722178Y-86782427D01*
X172977609Y-87007008D01*
X173271946Y-87177442D01*
X173593877Y-87287179D01*
X173863000Y-87169600D01*
X173863000Y-85725000D01*
X174117000Y-85725000D01*
X174117000Y-87169600D01*
X174386123Y-87287179D01*
X174708054Y-87177442D01*
X175002391Y-87007008D01*
X175257822Y-86782427D01*
X175464531Y-86512329D01*
X175614575Y-86207094D01*
X175679175Y-85994122D01*
X175561125Y-85725000D01*
X174117000Y-85725000D01*
X173863000Y-85725000D01*
X172418875Y-85725000D01*
X172300825Y-85994122D01*
X157607000Y-85994122D01*
X157607000Y-83947000D01*
X173481873Y-83947000D01*
X173271946Y-84018558D01*
G36*
X144907000Y-80393768D02*
G01*
X144764201Y-80049021D01*
X144421114Y-79535554D01*
X143984446Y-79098886D01*
X143470979Y-78755799D01*
X142900446Y-78519476D01*
X142294771Y-78399000D01*
X141677229Y-78399000D01*
X141071554Y-78519476D01*
X140501021Y-78755799D01*
X139987554Y-79098886D01*
X139550886Y-79535554D01*
X139207799Y-80049021D01*
X138971476Y-80619554D01*
X138851000Y-81225229D01*
X138851000Y-81842771D01*
X138971476Y-82448446D01*
X139207799Y-83018979D01*
X139550886Y-83532446D01*
X139987554Y-83969114D01*
X140501021Y-84312201D01*
X141071554Y-84548524D01*
X141677229Y-84669000D01*
X142294771Y-84669000D01*
X142900446Y-84548524D01*
X143470979Y-84312201D01*
X143984446Y-83969114D01*
X144421114Y-83532446D01*
X144764201Y-83018979D01*
X144907000Y-82674232D01*
X144907000Y-115445768D01*
X144764201Y-115101021D01*
X144421114Y-114587554D01*
X143984446Y-114150886D01*
X143470979Y-113807799D01*
X142900446Y-113571476D01*
X142294771Y-113451000D01*
X141677229Y-113451000D01*
X141071554Y-113571476D01*
X140501021Y-113807799D01*
X139987554Y-114150886D01*
X139550886Y-114587554D01*
X139207799Y-115101021D01*
X138971476Y-115671554D01*
X138851000Y-116277229D01*
X138851000Y-116894771D01*
X138971476Y-117500446D01*
X139207799Y-118070979D01*
X139550886Y-118584446D01*
X139987554Y-119021114D01*
X140501021Y-119364201D01*
X141071554Y-119600524D01*
X141677229Y-119721000D01*
X142294771Y-119721000D01*
X142900446Y-119600524D01*
X143470979Y-119364201D01*
X143984446Y-119021114D01*
X144421114Y-118584446D01*
X144764201Y-118070979D01*
X144907000Y-117726232D01*
X144907000Y-124841000D01*
X88265000Y-124841000D01*
X88265000Y-116277229D01*
X124881000Y-116277229D01*
X124881000Y-116894771D01*
X125001476Y-117500446D01*
X125237799Y-118070979D01*
X125580886Y-118584446D01*
X126017554Y-119021114D01*
X126531021Y-119364201D01*
X127101554Y-119600524D01*
X127707229Y-119721000D01*
X128324771Y-119721000D01*
X128930446Y-119600524D01*
X129500979Y-119364201D01*
X130014446Y-119021114D01*
X130451114Y-118584446D01*
X130794201Y-118070979D01*
X131030524Y-117500446D01*
X131151000Y-116894771D01*
X131151000Y-116277229D01*
X131030524Y-115671554D01*
X130794201Y-115101021D01*
X130451114Y-114587554D01*
X130014446Y-114150886D01*
X129500979Y-113807799D01*
X128930446Y-113571476D01*
X128324771Y-113451000D01*
X127707229Y-113451000D01*
X127101554Y-113571476D01*
X126531021Y-113807799D01*
X126017554Y-114150886D01*
X125580886Y-114587554D01*
X125237799Y-115101021D01*
X125001476Y-115671554D01*
X124881000Y-116277229D01*
X88265000Y-116277229D01*
X88265000Y-112940919D01*
X90597000Y-112940919D01*
X90597000Y-113322081D01*
X90671361Y-113695919D01*
X90817225Y-114048066D01*
X91028987Y-114364991D01*
X91298509Y-114634513D01*
X91615434Y-114846275D01*
X91967581Y-114992139D01*
X92341419Y-115066500D01*
X92722581Y-115066500D01*
X93096419Y-114992139D01*
X93448566Y-114846275D01*
X93765491Y-114634513D01*
X94035013Y-114364991D01*
X94246775Y-114048066D01*
X94392639Y-113695919D01*
X94467000Y-113322081D01*
X94467000Y-112940919D01*
X94392639Y-112567081D01*
X94246775Y-112214934D01*
X94065753Y-111944014D01*
X122871000Y-111944014D01*
X122871000Y-112206986D01*
X122922304Y-112464905D01*
X123022939Y-112707859D01*
X123169038Y-112926513D01*
X123354987Y-113112462D01*
X123573641Y-113258561D01*
X123816595Y-113359196D01*
X124074514Y-113410500D01*
X124337486Y-113410500D01*
X124595405Y-113359196D01*
X124838359Y-113258561D01*
X125057013Y-113112462D01*
X125242962Y-112926513D01*
X125389061Y-112707859D01*
X125456000Y-112546254D01*
X125522939Y-112707859D01*
X125669038Y-112926513D01*
X125854987Y-113112462D01*
X126073641Y-113258561D01*
X126316595Y-113359196D01*
X126574514Y-113410500D01*
X126837486Y-113410500D01*
X127095405Y-113359196D01*
X127338359Y-113258561D01*
X127557013Y-113112462D01*
X127742962Y-112926513D01*
X127889061Y-112707859D01*
X127956000Y-112546254D01*
X128022939Y-112707859D01*
X128169038Y-112926513D01*
X128354987Y-113112462D01*
X128573641Y-113258561D01*
X128816595Y-113359196D01*
X129074514Y-113410500D01*
X129337486Y-113410500D01*
X129595405Y-113359196D01*
X129838359Y-113258561D01*
X130057013Y-113112462D01*
X130242962Y-112926513D01*
X130389061Y-112707859D01*
X130489696Y-112464905D01*
X130541000Y-112206986D01*
X130541000Y-111944014D01*
X130489696Y-111686095D01*
X130389061Y-111443141D01*
X130242962Y-111224487D01*
X130057013Y-111038538D01*
X129838359Y-110892439D01*
X129595405Y-110791804D01*
X129337486Y-110740500D01*
X129074514Y-110740500D01*
X128816595Y-110791804D01*
X128573641Y-110892439D01*
X128354987Y-111038538D01*
X128169038Y-111224487D01*
X128022939Y-111443141D01*
X127956000Y-111604746D01*
X127889061Y-111443141D01*
X127742962Y-111224487D01*
X127557013Y-111038538D01*
X127338359Y-110892439D01*
X127095405Y-110791804D01*
X126837486Y-110740500D01*
X126574514Y-110740500D01*
X126316595Y-110791804D01*
X126073641Y-110892439D01*
X125854987Y-111038538D01*
X125669038Y-111224487D01*
X125522939Y-111443141D01*
X125456000Y-111604746D01*
X125389061Y-111443141D01*
X125242962Y-111224487D01*
X125057013Y-111038538D01*
X124838359Y-110892439D01*
X124595405Y-110791804D01*
X124337486Y-110740500D01*
X124074514Y-110740500D01*
X123816595Y-110791804D01*
X123573641Y-110892439D01*
X123354987Y-111038538D01*
X123169038Y-111224487D01*
X123022939Y-111443141D01*
X122922304Y-111686095D01*
X122871000Y-111944014D01*
X94065753Y-111944014D01*
X94035013Y-111898009D01*
X93765491Y-111628487D01*
X93448566Y-111416725D01*
X93096419Y-111270861D01*
X92722581Y-111196500D01*
X92341419Y-111196500D01*
X91967581Y-111270861D01*
X91615434Y-111416725D01*
X91298509Y-111628487D01*
X91028987Y-111898009D01*
X90817225Y-112214934D01*
X90671361Y-112567081D01*
X90597000Y-112940919D01*
X88265000Y-112940919D01*
X88265000Y-103557311D01*
X120015597Y-103557311D01*
X120015597Y-103706689D01*
X120023928Y-103791277D01*
X120023928Y-105632000D01*
X120036188Y-105756482D01*
X120072498Y-105876180D01*
X120131463Y-105986494D01*
X120210815Y-106083185D01*
X120307506Y-106162537D01*
X120417820Y-106221502D01*
X120537518Y-106257812D01*
X120662000Y-106270072D01*
X122162000Y-106270072D01*
X122286482Y-106257812D01*
X122406180Y-106221502D01*
X122516494Y-106162537D01*
X122613185Y-106083185D01*
X122692537Y-105986494D01*
X122751502Y-105876180D01*
X122787812Y-105756482D01*
X122800072Y-105632000D01*
X122800072Y-103791277D01*
X122808403Y-103706689D01*
X122808403Y-103557311D01*
X122796143Y-103432830D01*
X122767001Y-103286322D01*
X122730690Y-103166621D01*
X122673525Y-103028614D01*
X122614562Y-102918304D01*
X122531572Y-102794100D01*
X122452219Y-102697407D01*
X122346593Y-102591781D01*
X122249900Y-102512428D01*
X122125696Y-102429438D01*
X122015386Y-102370475D01*
X121877379Y-102313310D01*
X121757678Y-102276999D01*
X121611170Y-102247857D01*
X121486689Y-102235597D01*
X121337311Y-102235597D01*
X121212830Y-102247857D01*
X121066322Y-102276999D01*
X120946621Y-102313310D01*
X120808614Y-102370475D01*
X120698304Y-102429438D01*
X120574100Y-102512428D01*
X120477407Y-102591781D01*
X120371781Y-102697407D01*
X120292428Y-102794100D01*
X120209438Y-102918304D01*
X120150475Y-103028614D01*
X120093310Y-103166621D01*
X120056999Y-103286322D01*
X120027857Y-103432830D01*
X120015597Y-103557311D01*
X88265000Y-103557311D01*
X88265000Y-98940919D01*
X112797000Y-98940919D01*
X112797000Y-99322081D01*
X112871361Y-99695919D01*
X113017225Y-100048066D01*
X113228987Y-100364991D01*
X113498509Y-100634513D01*
X113815434Y-100846275D01*
X114167581Y-100992139D01*
X114541419Y-101066500D01*
X114922581Y-101066500D01*
X115296419Y-100992139D01*
X115648566Y-100846275D01*
X115965491Y-100634513D01*
X116235013Y-100364991D01*
X116446775Y-100048066D01*
X116592639Y-99695919D01*
X116667000Y-99322081D01*
X116667000Y-98940919D01*
X116592639Y-98567081D01*
X116446775Y-98214934D01*
X116235013Y-97898009D01*
X115965491Y-97628487D01*
X115648566Y-97416725D01*
X115296419Y-97270861D01*
X114922581Y-97196500D01*
X114541419Y-97196500D01*
X114167581Y-97270861D01*
X113815434Y-97416725D01*
X113498509Y-97628487D01*
X113228987Y-97898009D01*
X113017225Y-98214934D01*
X112871361Y-98567081D01*
X112797000Y-98940919D01*
X88265000Y-98940919D01*
X88265000Y-84940919D01*
X90597000Y-84940919D01*
X90597000Y-85322081D01*
X90671361Y-85695919D01*
X90817225Y-86048066D01*
X91028987Y-86364991D01*
X91298509Y-86634513D01*
X91615434Y-86846275D01*
X91967581Y-86992139D01*
X92341419Y-87066500D01*
X92722581Y-87066500D01*
X93096419Y-86992139D01*
X93448566Y-86846275D01*
X93765491Y-86634513D01*
X94035013Y-86364991D01*
X94246775Y-86048066D01*
X94392639Y-85695919D01*
X94467000Y-85322081D01*
X94467000Y-84940919D01*
X94392639Y-84567081D01*
X94246775Y-84214934D01*
X94035013Y-83898009D01*
X93765491Y-83628487D01*
X93448566Y-83416725D01*
X93096419Y-83270861D01*
X92722581Y-83196500D01*
X92341419Y-83196500D01*
X91967581Y-83270861D01*
X91615434Y-83416725D01*
X91298509Y-83628487D01*
X91028987Y-83898009D01*
X90817225Y-84214934D01*
X90671361Y-84567081D01*
X90597000Y-84940919D01*
X88265000Y-84940919D01*
X88265000Y-75723153D01*
X95969952Y-75723153D01*
X96125962Y-76038714D01*
X96500745Y-76229520D01*
X96905551Y-76343544D01*
X97324824Y-76376402D01*
X97742451Y-76326834D01*
X98142383Y-76196743D01*
X98438038Y-76038714D01*
X98594048Y-75723153D01*
X97282000Y-74411105D01*
X95969952Y-75723153D01*
X88265000Y-75723153D01*
X88265000Y-74274324D01*
X95137098Y-74274324D01*
X95186666Y-74691951D01*
X95316757Y-75091883D01*
X95474786Y-75387538D01*
X95790347Y-75543548D01*
X97102395Y-74231500D01*
X97461605Y-74231500D01*
X98773653Y-75543548D01*
X99089214Y-75387538D01*
X99280020Y-75012755D01*
X99381666Y-74651890D01*
X100285524Y-74651890D01*
X100330175Y-74799099D01*
X100455359Y-75061920D01*
X100629412Y-75295269D01*
X100845645Y-75490178D01*
X101095748Y-75639157D01*
X101370109Y-75736481D01*
X101600000Y-75615814D01*
X101600000Y-74422000D01*
X100406845Y-74422000D01*
X100285524Y-74651890D01*
X99381666Y-74651890D01*
X99394044Y-74607949D01*
X99426902Y-74188676D01*
X99397163Y-73938110D01*
X100285524Y-73938110D01*
X100406845Y-74168000D01*
X101600000Y-74168000D01*
X101600000Y-72974186D01*
X101854000Y-72974186D01*
X101854000Y-74168000D01*
X101874000Y-74168000D01*
X101874000Y-74422000D01*
X101854000Y-74422000D01*
X101854000Y-75615814D01*
X102083891Y-75736481D01*
X102358252Y-75639157D01*
X102608355Y-75490178D01*
X102804502Y-75313374D01*
X102827498Y-75389180D01*
X102886463Y-75499494D01*
X102965815Y-75596185D01*
X103062506Y-75675537D01*
X103172820Y-75734502D01*
X103292518Y-75770812D01*
X103417000Y-75783072D01*
X103466646Y-75783072D01*
X103491828Y-75866086D01*
X103569364Y-76011145D01*
X103569365Y-76011146D01*
X103673710Y-76138291D01*
X103705574Y-76164441D01*
X123371000Y-95829868D01*
X123371001Y-107452878D01*
X123261820Y-107485998D01*
X123151506Y-107544963D01*
X123054815Y-107624315D01*
X122975463Y-107721006D01*
X122916498Y-107831320D01*
X122880188Y-107951018D01*
X122867928Y-108075500D01*
X122867928Y-109475500D01*
X122880188Y-109599982D01*
X122916498Y-109719680D01*
X122975463Y-109829994D01*
X123054815Y-109926685D01*
X123151506Y-110006037D01*
X123261820Y-110065002D01*
X123381518Y-110101312D01*
X123506000Y-110113572D01*
X124906000Y-110113572D01*
X125030482Y-110101312D01*
X125150180Y-110065002D01*
X125260494Y-110006037D01*
X125357185Y-109926685D01*
X125436537Y-109829994D01*
X125495502Y-109719680D01*
X125531812Y-109599982D01*
X125544072Y-109475500D01*
X125544072Y-109439487D01*
X125669038Y-109626513D01*
X125854987Y-109812462D01*
X126073641Y-109958561D01*
X126316595Y-110059196D01*
X126574514Y-110110500D01*
X126837486Y-110110500D01*
X127095405Y-110059196D01*
X127338359Y-109958561D01*
X127557013Y-109812462D01*
X127742962Y-109626513D01*
X127889061Y-109407859D01*
X127956000Y-109246254D01*
X128022939Y-109407859D01*
X128169038Y-109626513D01*
X128354987Y-109812462D01*
X128573641Y-109958561D01*
X128816595Y-110059196D01*
X129074514Y-110110500D01*
X129337486Y-110110500D01*
X129595405Y-110059196D01*
X129838359Y-109958561D01*
X130057013Y-109812462D01*
X130242962Y-109626513D01*
X130389061Y-109407859D01*
X130489696Y-109164905D01*
X130541000Y-108906986D01*
X130541000Y-108644014D01*
X130489696Y-108386095D01*
X130389061Y-108143141D01*
X130242962Y-107924487D01*
X130057013Y-107738538D01*
X129838359Y-107592439D01*
X129595405Y-107491804D01*
X129337486Y-107440500D01*
X129074514Y-107440500D01*
X128816595Y-107491804D01*
X128573641Y-107592439D01*
X128354987Y-107738538D01*
X128169038Y-107924487D01*
X128022939Y-108143141D01*
X127956000Y-108304746D01*
X127889061Y-108143141D01*
X127742962Y-107924487D01*
X127557013Y-107738538D01*
X127541000Y-107727839D01*
X127541000Y-106303867D01*
X127799653Y-106045214D01*
X127830815Y-106083185D01*
X127927506Y-106162537D01*
X128037820Y-106221502D01*
X128157518Y-106257812D01*
X128282000Y-106270072D01*
X129782000Y-106270072D01*
X129906482Y-106257812D01*
X130026180Y-106221502D01*
X130136494Y-106162537D01*
X130233185Y-106083185D01*
X130302000Y-105999333D01*
X130370815Y-106083185D01*
X130467506Y-106162537D01*
X130577820Y-106221502D01*
X130697518Y-106257812D01*
X130822000Y-106270072D01*
X132322000Y-106270072D01*
X132446482Y-106257812D01*
X132566180Y-106221502D01*
X132676494Y-106162537D01*
X132773185Y-106083185D01*
X132852537Y-105986494D01*
X132911502Y-105876180D01*
X132947812Y-105756482D01*
X132960072Y-105632000D01*
X132960072Y-103791277D01*
X132968403Y-103706689D01*
X132968403Y-103557311D01*
X132956143Y-103432830D01*
X132927001Y-103286322D01*
X132890690Y-103166621D01*
X132833525Y-103028614D01*
X132774562Y-102918304D01*
X132691572Y-102794100D01*
X132612219Y-102697407D01*
X132506593Y-102591781D01*
X132409900Y-102512428D01*
X132285696Y-102429438D01*
X132175386Y-102370475D01*
X132037379Y-102313310D01*
X131917678Y-102276999D01*
X131771170Y-102247857D01*
X131646689Y-102235597D01*
X131497311Y-102235597D01*
X131372830Y-102247857D01*
X131226322Y-102276999D01*
X131106621Y-102313310D01*
X130968614Y-102370475D01*
X130858304Y-102429438D01*
X130734100Y-102512428D01*
X130637407Y-102591781D01*
X130531781Y-102697407D01*
X130452428Y-102794100D01*
X130450490Y-102797000D01*
X130153510Y-102797000D01*
X130151572Y-102794100D01*
X130072219Y-102697407D01*
X129966593Y-102591781D01*
X129869900Y-102512428D01*
X129745696Y-102429438D01*
X129635386Y-102370475D01*
X129497379Y-102313310D01*
X129377678Y-102276999D01*
X129231170Y-102247857D01*
X129106689Y-102235597D01*
X128957311Y-102235597D01*
X128832830Y-102247857D01*
X128686322Y-102276999D01*
X128566621Y-102313310D01*
X128428614Y-102370475D01*
X128318304Y-102429438D01*
X128194100Y-102512428D01*
X128097407Y-102591781D01*
X127991781Y-102697407D01*
X127912428Y-102794100D01*
X127829438Y-102918304D01*
X127770475Y-103028614D01*
X127713310Y-103166621D01*
X127676999Y-103286322D01*
X127647857Y-103432830D01*
X127635597Y-103557311D01*
X127635597Y-103706689D01*
X127643928Y-103791277D01*
X127643928Y-103839204D01*
X126144574Y-105338559D01*
X126112710Y-105364709D01*
X126086562Y-105396571D01*
X126008364Y-105491855D01*
X125930828Y-105636914D01*
X125883082Y-105794312D01*
X125866960Y-105958000D01*
X125871001Y-105999028D01*
X125871000Y-107727838D01*
X125854987Y-107738538D01*
X125669038Y-107924487D01*
X125544072Y-108111513D01*
X125544072Y-108075500D01*
X125531812Y-107951018D01*
X125495502Y-107831320D01*
X125436537Y-107721006D01*
X125357185Y-107624315D01*
X125260494Y-107544963D01*
X125150180Y-107485998D01*
X125041000Y-107452879D01*
X125041000Y-95525015D01*
X125045040Y-95483999D01*
X125038294Y-95415506D01*
X125028918Y-95320311D01*
X124981172Y-95162913D01*
X124903636Y-95017854D01*
X124799291Y-94890709D01*
X124767428Y-94864560D01*
X118220179Y-88317311D01*
X120015597Y-88317311D01*
X120015597Y-88466689D01*
X120027857Y-88591170D01*
X120056999Y-88737678D01*
X120093310Y-88857379D01*
X120150475Y-88995386D01*
X120209438Y-89105696D01*
X120292428Y-89229900D01*
X120371781Y-89326593D01*
X120477407Y-89432219D01*
X120574100Y-89511572D01*
X120698304Y-89594562D01*
X120808614Y-89653525D01*
X120946621Y-89710690D01*
X121066322Y-89747001D01*
X121212830Y-89776143D01*
X121337311Y-89788403D01*
X121486689Y-89788403D01*
X121611170Y-89776143D01*
X121757678Y-89747001D01*
X121877379Y-89710690D01*
X122015386Y-89653525D01*
X122125696Y-89594562D01*
X122249900Y-89511572D01*
X122346593Y-89432219D01*
X122452219Y-89326593D01*
X122531572Y-89229900D01*
X122614562Y-89105696D01*
X122673525Y-88995386D01*
X122730690Y-88857379D01*
X122767001Y-88737678D01*
X122796143Y-88591170D01*
X122808403Y-88466689D01*
X122808403Y-88317311D01*
X127635597Y-88317311D01*
X127635597Y-88466689D01*
X127647857Y-88591170D01*
X127676999Y-88737678D01*
X127713310Y-88857379D01*
X127770475Y-88995386D01*
X127829438Y-89105696D01*
X127912428Y-89229900D01*
X127991781Y-89326593D01*
X128097407Y-89432219D01*
X128194100Y-89511572D01*
X128318304Y-89594562D01*
X128428614Y-89653525D01*
X128566621Y-89710690D01*
X128686322Y-89747001D01*
X128832830Y-89776143D01*
X128957311Y-89788403D01*
X129106689Y-89788403D01*
X129231170Y-89776143D01*
X129377678Y-89747001D01*
X129497379Y-89710690D01*
X129635386Y-89653525D01*
X129745696Y-89594562D01*
X129869900Y-89511572D01*
X129966593Y-89432219D01*
X130072219Y-89326593D01*
X130151572Y-89229900D01*
X130234562Y-89105696D01*
X130293525Y-88995386D01*
X130350690Y-88857379D01*
X130387001Y-88737678D01*
X130416143Y-88591170D01*
X130428403Y-88466689D01*
X130428403Y-88317311D01*
X130420072Y-88232723D01*
X130420072Y-86392000D01*
X130407812Y-86267518D01*
X130371502Y-86147820D01*
X130312537Y-86037506D01*
X130233185Y-85940815D01*
X130136494Y-85861463D01*
X130026180Y-85802498D01*
X129906482Y-85766188D01*
X129782000Y-85753928D01*
X128282000Y-85753928D01*
X128157518Y-85766188D01*
X128037820Y-85802498D01*
X127927506Y-85861463D01*
X127830815Y-85940815D01*
X127751463Y-86037506D01*
X127692498Y-86147820D01*
X127656188Y-86267518D01*
X127643928Y-86392000D01*
X127643928Y-88232723D01*
X127635597Y-88317311D01*
X122808403Y-88317311D01*
X122800072Y-88232723D01*
X122800072Y-88184795D01*
X125567869Y-85417000D01*
X131069595Y-85417000D01*
X131042499Y-85506322D01*
X131013357Y-85652830D01*
X131001097Y-85777311D01*
X131001097Y-85926689D01*
X131009428Y-86011277D01*
X131009428Y-87852000D01*
X131021688Y-87976482D01*
X131057998Y-88096180D01*
X131116963Y-88206494D01*
X131196315Y-88303185D01*
X131293006Y-88382537D01*
X131403320Y-88441502D01*
X131523018Y-88477812D01*
X131647500Y-88490072D01*
X133147500Y-88490072D01*
X133271982Y-88477812D01*
X133391680Y-88441502D01*
X133501994Y-88382537D01*
X133598685Y-88303185D01*
X133667500Y-88219333D01*
X133736315Y-88303185D01*
X133833006Y-88382537D01*
X133943320Y-88441502D01*
X134063018Y-88477812D01*
X134187500Y-88490072D01*
X135687500Y-88490072D01*
X135811982Y-88477812D01*
X135931680Y-88441502D01*
X136041994Y-88382537D01*
X136138685Y-88303185D01*
X136207500Y-88219333D01*
X136276315Y-88303185D01*
X136373006Y-88382537D01*
X136483320Y-88441502D01*
X136603018Y-88477812D01*
X136727500Y-88490072D01*
X138227500Y-88490072D01*
X138351982Y-88477812D01*
X138471680Y-88441502D01*
X138581994Y-88382537D01*
X138611000Y-88358732D01*
X138611001Y-94954972D01*
X138611000Y-94954982D01*
X138611000Y-95381463D01*
X138608403Y-95384060D01*
X138508696Y-95317438D01*
X138398386Y-95258475D01*
X138260379Y-95201310D01*
X138140678Y-95164999D01*
X137994170Y-95135857D01*
X137869689Y-95123597D01*
X137720311Y-95123597D01*
X137635723Y-95131928D01*
X135795000Y-95131928D01*
X135670518Y-95144188D01*
X135550820Y-95180498D01*
X135440506Y-95239463D01*
X135343815Y-95318815D01*
X135264463Y-95415506D01*
X135205498Y-95525820D01*
X135169188Y-95645518D01*
X135156928Y-95770000D01*
X135156928Y-97270000D01*
X135169188Y-97394482D01*
X135205498Y-97514180D01*
X135264463Y-97624494D01*
X135343815Y-97721185D01*
X135427667Y-97790000D01*
X135343815Y-97858815D01*
X135264463Y-97955506D01*
X135205498Y-98065820D01*
X135169188Y-98185518D01*
X135156928Y-98310000D01*
X135156928Y-99810000D01*
X135169188Y-99934482D01*
X135205498Y-100054180D01*
X135264463Y-100164494D01*
X135343815Y-100261185D01*
X135427667Y-100330000D01*
X135343815Y-100398815D01*
X135264463Y-100495506D01*
X135205498Y-100605820D01*
X135169188Y-100725518D01*
X135156928Y-100850000D01*
X135156928Y-102350000D01*
X135169188Y-102474482D01*
X135205498Y-102594180D01*
X135264463Y-102704494D01*
X135343815Y-102801185D01*
X135440506Y-102880537D01*
X135550820Y-102939502D01*
X135670518Y-102975812D01*
X135795000Y-102988072D01*
X137635723Y-102988072D01*
X137720311Y-102996403D01*
X137869689Y-102996403D01*
X137994170Y-102984143D01*
X138140678Y-102955001D01*
X138260379Y-102918690D01*
X138398386Y-102861525D01*
X138508696Y-102802562D01*
X138611000Y-102734205D01*
X138611001Y-109813381D01*
X138518494Y-109737463D01*
X138408180Y-109678498D01*
X138288482Y-109642188D01*
X138164000Y-109629928D01*
X136664000Y-109629928D01*
X136539518Y-109642188D01*
X136419820Y-109678498D01*
X136309506Y-109737463D01*
X136212815Y-109816815D01*
X136144000Y-109900667D01*
X136075185Y-109816815D01*
X135978494Y-109737463D01*
X135868180Y-109678498D01*
X135748482Y-109642188D01*
X135624000Y-109629928D01*
X134124000Y-109629928D01*
X133999518Y-109642188D01*
X133879820Y-109678498D01*
X133769506Y-109737463D01*
X133672815Y-109816815D01*
X133604000Y-109900667D01*
X133535185Y-109816815D01*
X133438494Y-109737463D01*
X133328180Y-109678498D01*
X133208482Y-109642188D01*
X133084000Y-109629928D01*
X131584000Y-109629928D01*
X131459518Y-109642188D01*
X131339820Y-109678498D01*
X131229506Y-109737463D01*
X131132815Y-109816815D01*
X131053463Y-109913506D01*
X130994498Y-110023820D01*
X130958188Y-110143518D01*
X130945928Y-110268000D01*
X130945928Y-112108723D01*
X130937597Y-112193311D01*
X130937597Y-112342689D01*
X130949857Y-112467170D01*
X130978999Y-112613678D01*
X131015310Y-112733379D01*
X131072475Y-112871386D01*
X131131438Y-112981696D01*
X131214428Y-113105900D01*
X131293781Y-113202593D01*
X131399407Y-113308219D01*
X131496100Y-113387572D01*
X131620304Y-113470562D01*
X131730614Y-113529525D01*
X131868621Y-113586690D01*
X131988322Y-113623001D01*
X132134830Y-113652143D01*
X132259311Y-113664403D01*
X132408689Y-113664403D01*
X132533170Y-113652143D01*
X132679678Y-113623001D01*
X132799379Y-113586690D01*
X132937386Y-113529525D01*
X133047696Y-113470562D01*
X133171900Y-113387572D01*
X133268593Y-113308219D01*
X133374219Y-113202593D01*
X133453572Y-113105900D01*
X133536562Y-112981696D01*
X133595525Y-112871386D01*
X133604000Y-112850926D01*
X133612475Y-112871386D01*
X133671438Y-112981696D01*
X133754428Y-113105900D01*
X133833781Y-113202593D01*
X133939407Y-113308219D01*
X134036100Y-113387572D01*
X134160304Y-113470562D01*
X134270614Y-113529525D01*
X134408621Y-113586690D01*
X134528322Y-113623001D01*
X134674830Y-113652143D01*
X134799311Y-113664403D01*
X134948689Y-113664403D01*
X135073170Y-113652143D01*
X135219678Y-113623001D01*
X135339379Y-113586690D01*
X135477386Y-113529525D01*
X135587696Y-113470562D01*
X135711900Y-113387572D01*
X135808593Y-113308219D01*
X135914219Y-113202593D01*
X135993572Y-113105900D01*
X136076562Y-112981696D01*
X136135525Y-112871386D01*
X136144000Y-112850926D01*
X136152475Y-112871386D01*
X136211438Y-112981696D01*
X136294428Y-113105900D01*
X136373781Y-113202593D01*
X136479407Y-113308219D01*
X136576100Y-113387572D01*
X136700304Y-113470562D01*
X136810614Y-113529525D01*
X136948621Y-113586690D01*
X137068322Y-113623001D01*
X137214830Y-113652143D01*
X137339311Y-113664403D01*
X137488689Y-113664403D01*
X137613170Y-113652143D01*
X137759678Y-113623001D01*
X137879379Y-113586690D01*
X138017386Y-113529525D01*
X138127696Y-113470562D01*
X138251900Y-113387572D01*
X138348593Y-113308219D01*
X138454219Y-113202593D01*
X138533572Y-113105900D01*
X138616562Y-112981696D01*
X138675525Y-112871386D01*
X138732690Y-112733379D01*
X138769001Y-112613678D01*
X138798143Y-112467170D01*
X138810403Y-112342689D01*
X138810403Y-112193311D01*
X138802072Y-112108723D01*
X138802072Y-112060796D01*
X140007432Y-110855437D01*
X140039291Y-110829291D01*
X140143636Y-110702146D01*
X140221172Y-110557087D01*
X140268918Y-110399689D01*
X140281000Y-110277019D01*
X140285040Y-110236000D01*
X140281000Y-110194982D01*
X140281000Y-97323018D01*
X140285040Y-97282000D01*
X140281000Y-97240981D01*
X140281000Y-95768348D01*
X140285040Y-95727332D01*
X140281000Y-95686316D01*
X140281000Y-85893015D01*
X140285040Y-85851999D01*
X140280164Y-85802498D01*
X140268918Y-85688311D01*
X140221172Y-85530913D01*
X140143636Y-85385854D01*
X140039291Y-85258709D01*
X140007428Y-85232560D01*
X138795446Y-84020579D01*
X138769291Y-83988709D01*
X138642146Y-83884364D01*
X138497087Y-83806828D01*
X138339689Y-83759082D01*
X138217019Y-83747000D01*
X138217018Y-83747000D01*
X138176000Y-83742960D01*
X138134982Y-83747000D01*
X132850187Y-83747000D01*
X132809169Y-83742960D01*
X132768150Y-83747000D01*
X132026849Y-83747000D01*
X131985831Y-83742960D01*
X131944813Y-83747000D01*
X130236560Y-83747000D01*
X130451114Y-83532446D01*
X130794201Y-83018979D01*
X131030524Y-82448446D01*
X131151000Y-81842771D01*
X131151000Y-81225229D01*
X131030524Y-80619554D01*
X130794201Y-80049021D01*
X130451114Y-79535554D01*
X130014446Y-79098886D01*
X129500979Y-78755799D01*
X128930446Y-78519476D01*
X128324771Y-78399000D01*
X127707229Y-78399000D01*
X127101554Y-78519476D01*
X126531021Y-78755799D01*
X126017554Y-79098886D01*
X125580886Y-79535554D01*
X125237799Y-80049021D01*
X125001476Y-80619554D01*
X124881000Y-81225229D01*
X124881000Y-81842771D01*
X125001476Y-82448446D01*
X125237799Y-83018979D01*
X125580886Y-83532446D01*
X125795440Y-83747000D01*
X125263018Y-83747000D01*
X125222000Y-83742960D01*
X125180982Y-83747000D01*
X125180981Y-83747000D01*
X125058311Y-83759082D01*
X124900913Y-83806828D01*
X124755854Y-83884364D01*
X124628709Y-83988709D01*
X124602563Y-84020568D01*
X122644347Y-85978786D01*
X122613185Y-85940815D01*
X122516494Y-85861463D01*
X122406180Y-85802498D01*
X122286482Y-85766188D01*
X122162000Y-85753928D01*
X120662000Y-85753928D01*
X120537518Y-85766188D01*
X120417820Y-85802498D01*
X120307506Y-85861463D01*
X120210815Y-85940815D01*
X120131463Y-86037506D01*
X120072498Y-86147820D01*
X120036188Y-86267518D01*
X120023928Y-86392000D01*
X120023928Y-88232723D01*
X120015597Y-88317311D01*
X118220179Y-88317311D01*
X105530214Y-75627347D01*
X105568185Y-75596185D01*
X105647537Y-75499494D01*
X105706502Y-75389180D01*
X105742812Y-75269482D01*
X105755072Y-75145000D01*
X105755072Y-75066500D01*
X107843928Y-75066500D01*
X107843928Y-75731500D01*
X107856188Y-75855982D01*
X107892498Y-75975680D01*
X107951463Y-76085994D01*
X108030815Y-76182685D01*
X108127506Y-76262037D01*
X108237820Y-76321002D01*
X108357518Y-76357312D01*
X108482000Y-76369572D01*
X111482000Y-76369572D01*
X111606482Y-76357312D01*
X111726180Y-76321002D01*
X111836494Y-76262037D01*
X111933185Y-76182685D01*
X112012537Y-76085994D01*
X112071502Y-75975680D01*
X112107812Y-75855982D01*
X112120072Y-75731500D01*
X112120072Y-72731500D01*
X112107812Y-72607018D01*
X112071502Y-72487320D01*
X112012537Y-72377006D01*
X111933185Y-72280315D01*
X111836494Y-72200963D01*
X111726180Y-72141998D01*
X111606482Y-72105688D01*
X111482000Y-72093428D01*
X108482000Y-72093428D01*
X108357518Y-72105688D01*
X108237820Y-72141998D01*
X108127506Y-72200963D01*
X108030815Y-72280315D01*
X107951463Y-72377006D01*
X107892498Y-72487320D01*
X107856188Y-72607018D01*
X107843928Y-72731500D01*
X107843928Y-73396500D01*
X105750295Y-73396500D01*
X105742812Y-73320518D01*
X105706502Y-73200820D01*
X105647537Y-73090506D01*
X105568185Y-72993815D01*
X105471494Y-72914463D01*
X105361180Y-72855498D01*
X105241482Y-72819188D01*
X105117000Y-72806928D01*
X103417000Y-72806928D01*
X103292518Y-72819188D01*
X103172820Y-72855498D01*
X103062506Y-72914463D01*
X102965815Y-72993815D01*
X102886463Y-73090506D01*
X102827498Y-73200820D01*
X102804502Y-73276626D01*
X102608355Y-73099822D01*
X102358252Y-72950843D01*
X102083891Y-72853519D01*
X101854000Y-72974186D01*
X101600000Y-72974186D01*
X101370109Y-72853519D01*
X101095748Y-72950843D01*
X100845645Y-73099822D01*
X100629412Y-73294731D01*
X100455359Y-73528080D01*
X100330175Y-73790901D01*
X100285524Y-73938110D01*
X99397163Y-73938110D01*
X99377334Y-73771049D01*
X99247243Y-73371117D01*
X99089214Y-73075462D01*
X98773653Y-72919452D01*
X97461605Y-74231500D01*
X97102395Y-74231500D01*
X95790347Y-72919452D01*
X95474786Y-73075462D01*
X95283980Y-73450245D01*
X95169956Y-73855051D01*
X95137098Y-74274324D01*
X88265000Y-74274324D01*
X88265000Y-72739847D01*
X95969952Y-72739847D01*
X97282000Y-74051895D01*
X98594048Y-72739847D01*
X98438038Y-72424286D01*
X98063255Y-72233480D01*
X97658449Y-72119456D01*
X97239176Y-72086598D01*
X96821549Y-72136166D01*
X96421617Y-72266257D01*
X96125962Y-72424286D01*
X95969952Y-72739847D01*
X88265000Y-72739847D01*
X88265000Y-70993000D01*
X144907000Y-70993000D01*
X144907000Y-80393768D01*
X144907000Y-80393768D01*
G37*
X144907000Y-80393768D02*
X144764201Y-80049021D01*
X144421114Y-79535554D01*
X143984446Y-79098886D01*
X143470979Y-78755799D01*
X142900446Y-78519476D01*
X142294771Y-78399000D01*
X141677229Y-78399000D01*
X141071554Y-78519476D01*
X140501021Y-78755799D01*
X139987554Y-79098886D01*
X139550886Y-79535554D01*
X139207799Y-80049021D01*
X138971476Y-80619554D01*
X138851000Y-81225229D01*
X138851000Y-81842771D01*
X138971476Y-82448446D01*
X139207799Y-83018979D01*
X139550886Y-83532446D01*
X139987554Y-83969114D01*
X140501021Y-84312201D01*
X141071554Y-84548524D01*
X141677229Y-84669000D01*
X142294771Y-84669000D01*
X142900446Y-84548524D01*
X143470979Y-84312201D01*
X143984446Y-83969114D01*
X144421114Y-83532446D01*
X144764201Y-83018979D01*
X144907000Y-82674232D01*
X144907000Y-115445768D01*
X144764201Y-115101021D01*
X144421114Y-114587554D01*
X143984446Y-114150886D01*
X143470979Y-113807799D01*
X142900446Y-113571476D01*
X142294771Y-113451000D01*
X141677229Y-113451000D01*
X141071554Y-113571476D01*
X140501021Y-113807799D01*
X139987554Y-114150886D01*
X139550886Y-114587554D01*
X139207799Y-115101021D01*
X138971476Y-115671554D01*
X138851000Y-116277229D01*
X138851000Y-116894771D01*
X138971476Y-117500446D01*
X139207799Y-118070979D01*
X139550886Y-118584446D01*
X139987554Y-119021114D01*
X140501021Y-119364201D01*
X141071554Y-119600524D01*
X141677229Y-119721000D01*
X142294771Y-119721000D01*
X142900446Y-119600524D01*
X143470979Y-119364201D01*
X143984446Y-119021114D01*
X144421114Y-118584446D01*
X144764201Y-118070979D01*
X144907000Y-117726232D01*
X144907000Y-124841000D01*
X88265000Y-124841000D01*
X88265000Y-116277229D01*
X124881000Y-116277229D01*
X124881000Y-116894771D01*
X125001476Y-117500446D01*
X125237799Y-118070979D01*
X125580886Y-118584446D01*
X126017554Y-119021114D01*
X126531021Y-119364201D01*
X127101554Y-119600524D01*
X127707229Y-119721000D01*
X128324771Y-119721000D01*
X128930446Y-119600524D01*
X129500979Y-119364201D01*
X130014446Y-119021114D01*
X130451114Y-118584446D01*
X130794201Y-118070979D01*
X131030524Y-117500446D01*
X131151000Y-116894771D01*
X131151000Y-116277229D01*
X131030524Y-115671554D01*
X130794201Y-115101021D01*
X130451114Y-114587554D01*
X130014446Y-114150886D01*
X129500979Y-113807799D01*
X128930446Y-113571476D01*
X128324771Y-113451000D01*
X127707229Y-113451000D01*
X127101554Y-113571476D01*
X126531021Y-113807799D01*
X126017554Y-114150886D01*
X125580886Y-114587554D01*
X125237799Y-115101021D01*
X125001476Y-115671554D01*
X124881000Y-116277229D01*
X88265000Y-116277229D01*
X88265000Y-112940919D01*
X90597000Y-112940919D01*
X90597000Y-113322081D01*
X90671361Y-113695919D01*
X90817225Y-114048066D01*
X91028987Y-114364991D01*
X91298509Y-114634513D01*
X91615434Y-114846275D01*
X91967581Y-114992139D01*
X92341419Y-115066500D01*
X92722581Y-115066500D01*
X93096419Y-114992139D01*
X93448566Y-114846275D01*
X93765491Y-114634513D01*
X94035013Y-114364991D01*
X94246775Y-114048066D01*
X94392639Y-113695919D01*
X94467000Y-113322081D01*
X94467000Y-112940919D01*
X94392639Y-112567081D01*
X94246775Y-112214934D01*
X94065753Y-111944014D01*
X122871000Y-111944014D01*
X122871000Y-112206986D01*
X122922304Y-112464905D01*
X123022939Y-112707859D01*
X123169038Y-112926513D01*
X123354987Y-113112462D01*
X123573641Y-113258561D01*
X123816595Y-113359196D01*
X124074514Y-113410500D01*
X124337486Y-113410500D01*
X124595405Y-113359196D01*
X124838359Y-113258561D01*
X125057013Y-113112462D01*
X125242962Y-112926513D01*
X125389061Y-112707859D01*
X125456000Y-112546254D01*
X125522939Y-112707859D01*
X125669038Y-112926513D01*
X125854987Y-113112462D01*
X126073641Y-113258561D01*
X126316595Y-113359196D01*
X126574514Y-113410500D01*
X126837486Y-113410500D01*
X127095405Y-113359196D01*
X127338359Y-113258561D01*
X127557013Y-113112462D01*
X127742962Y-112926513D01*
X127889061Y-112707859D01*
X127956000Y-112546254D01*
X128022939Y-112707859D01*
X128169038Y-112926513D01*
X128354987Y-113112462D01*
X128573641Y-113258561D01*
X128816595Y-113359196D01*
X129074514Y-113410500D01*
X129337486Y-113410500D01*
X129595405Y-113359196D01*
X129838359Y-113258561D01*
X130057013Y-113112462D01*
X130242962Y-112926513D01*
X130389061Y-112707859D01*
X130489696Y-112464905D01*
X130541000Y-112206986D01*
X130541000Y-111944014D01*
X130489696Y-111686095D01*
X130389061Y-111443141D01*
X130242962Y-111224487D01*
X130057013Y-111038538D01*
X129838359Y-110892439D01*
X129595405Y-110791804D01*
X129337486Y-110740500D01*
X129074514Y-110740500D01*
X128816595Y-110791804D01*
X128573641Y-110892439D01*
X128354987Y-111038538D01*
X128169038Y-111224487D01*
X128022939Y-111443141D01*
X127956000Y-111604746D01*
X127889061Y-111443141D01*
X127742962Y-111224487D01*
X127557013Y-111038538D01*
X127338359Y-110892439D01*
X127095405Y-110791804D01*
X126837486Y-110740500D01*
X126574514Y-110740500D01*
X126316595Y-110791804D01*
X126073641Y-110892439D01*
X125854987Y-111038538D01*
X125669038Y-111224487D01*
X125522939Y-111443141D01*
X125456000Y-111604746D01*
X125389061Y-111443141D01*
X125242962Y-111224487D01*
X125057013Y-111038538D01*
X124838359Y-110892439D01*
X124595405Y-110791804D01*
X124337486Y-110740500D01*
X124074514Y-110740500D01*
X123816595Y-110791804D01*
X123573641Y-110892439D01*
X123354987Y-111038538D01*
X123169038Y-111224487D01*
X123022939Y-111443141D01*
X122922304Y-111686095D01*
X122871000Y-111944014D01*
X94065753Y-111944014D01*
X94035013Y-111898009D01*
X93765491Y-111628487D01*
X93448566Y-111416725D01*
X93096419Y-111270861D01*
X92722581Y-111196500D01*
X92341419Y-111196500D01*
X91967581Y-111270861D01*
X91615434Y-111416725D01*
X91298509Y-111628487D01*
X91028987Y-111898009D01*
X90817225Y-112214934D01*
X90671361Y-112567081D01*
X90597000Y-112940919D01*
X88265000Y-112940919D01*
X88265000Y-103557311D01*
X120015597Y-103557311D01*
X120015597Y-103706689D01*
X120023928Y-103791277D01*
X120023928Y-105632000D01*
X120036188Y-105756482D01*
X120072498Y-105876180D01*
X120131463Y-105986494D01*
X120210815Y-106083185D01*
X120307506Y-106162537D01*
X120417820Y-106221502D01*
X120537518Y-106257812D01*
X120662000Y-106270072D01*
X122162000Y-106270072D01*
X122286482Y-106257812D01*
X122406180Y-106221502D01*
X122516494Y-106162537D01*
X122613185Y-106083185D01*
X122692537Y-105986494D01*
X122751502Y-105876180D01*
X122787812Y-105756482D01*
X122800072Y-105632000D01*
X122800072Y-103791277D01*
X122808403Y-103706689D01*
X122808403Y-103557311D01*
X122796143Y-103432830D01*
X122767001Y-103286322D01*
X122730690Y-103166621D01*
X122673525Y-103028614D01*
X122614562Y-102918304D01*
X122531572Y-102794100D01*
X122452219Y-102697407D01*
X122346593Y-102591781D01*
X122249900Y-102512428D01*
X122125696Y-102429438D01*
X122015386Y-102370475D01*
X121877379Y-102313310D01*
X121757678Y-102276999D01*
X121611170Y-102247857D01*
X121486689Y-102235597D01*
X121337311Y-102235597D01*
X121212830Y-102247857D01*
X121066322Y-102276999D01*
X120946621Y-102313310D01*
X120808614Y-102370475D01*
X120698304Y-102429438D01*
X120574100Y-102512428D01*
X120477407Y-102591781D01*
X120371781Y-102697407D01*
X120292428Y-102794100D01*
X120209438Y-102918304D01*
X120150475Y-103028614D01*
X120093310Y-103166621D01*
X120056999Y-103286322D01*
X120027857Y-103432830D01*
X120015597Y-103557311D01*
X88265000Y-103557311D01*
X88265000Y-98940919D01*
X112797000Y-98940919D01*
X112797000Y-99322081D01*
X112871361Y-99695919D01*
X113017225Y-100048066D01*
X113228987Y-100364991D01*
X113498509Y-100634513D01*
X113815434Y-100846275D01*
X114167581Y-100992139D01*
X114541419Y-101066500D01*
X114922581Y-101066500D01*
X115296419Y-100992139D01*
X115648566Y-100846275D01*
X115965491Y-100634513D01*
X116235013Y-100364991D01*
X116446775Y-100048066D01*
X116592639Y-99695919D01*
X116667000Y-99322081D01*
X116667000Y-98940919D01*
X116592639Y-98567081D01*
X116446775Y-98214934D01*
X116235013Y-97898009D01*
X115965491Y-97628487D01*
X115648566Y-97416725D01*
X115296419Y-97270861D01*
X114922581Y-97196500D01*
X114541419Y-97196500D01*
X114167581Y-97270861D01*
X113815434Y-97416725D01*
X113498509Y-97628487D01*
X113228987Y-97898009D01*
X113017225Y-98214934D01*
X112871361Y-98567081D01*
X112797000Y-98940919D01*
X88265000Y-98940919D01*
X88265000Y-84940919D01*
X90597000Y-84940919D01*
X90597000Y-85322081D01*
X90671361Y-85695919D01*
X90817225Y-86048066D01*
X91028987Y-86364991D01*
X91298509Y-86634513D01*
X91615434Y-86846275D01*
X91967581Y-86992139D01*
X92341419Y-87066500D01*
X92722581Y-87066500D01*
X93096419Y-86992139D01*
X93448566Y-86846275D01*
X93765491Y-86634513D01*
X94035013Y-86364991D01*
X94246775Y-86048066D01*
X94392639Y-85695919D01*
X94467000Y-85322081D01*
X94467000Y-84940919D01*
X94392639Y-84567081D01*
X94246775Y-84214934D01*
X94035013Y-83898009D01*
X93765491Y-83628487D01*
X93448566Y-83416725D01*
X93096419Y-83270861D01*
X92722581Y-83196500D01*
X92341419Y-83196500D01*
X91967581Y-83270861D01*
X91615434Y-83416725D01*
X91298509Y-83628487D01*
X91028987Y-83898009D01*
X90817225Y-84214934D01*
X90671361Y-84567081D01*
X90597000Y-84940919D01*
X88265000Y-84940919D01*
X88265000Y-75723153D01*
X95969952Y-75723153D01*
X96125962Y-76038714D01*
X96500745Y-76229520D01*
X96905551Y-76343544D01*
X97324824Y-76376402D01*
X97742451Y-76326834D01*
X98142383Y-76196743D01*
X98438038Y-76038714D01*
X98594048Y-75723153D01*
X97282000Y-74411105D01*
X95969952Y-75723153D01*
X88265000Y-75723153D01*
X88265000Y-74274324D01*
X95137098Y-74274324D01*
X95186666Y-74691951D01*
X95316757Y-75091883D01*
X95474786Y-75387538D01*
X95790347Y-75543548D01*
X97102395Y-74231500D01*
X97461605Y-74231500D01*
X98773653Y-75543548D01*
X99089214Y-75387538D01*
X99280020Y-75012755D01*
X99381666Y-74651890D01*
X100285524Y-74651890D01*
X100330175Y-74799099D01*
X100455359Y-75061920D01*
X100629412Y-75295269D01*
X100845645Y-75490178D01*
X101095748Y-75639157D01*
X101370109Y-75736481D01*
X101600000Y-75615814D01*
X101600000Y-74422000D01*
X100406845Y-74422000D01*
X100285524Y-74651890D01*
X99381666Y-74651890D01*
X99394044Y-74607949D01*
X99426902Y-74188676D01*
X99397163Y-73938110D01*
X100285524Y-73938110D01*
X100406845Y-74168000D01*
X101600000Y-74168000D01*
X101600000Y-72974186D01*
X101854000Y-72974186D01*
X101854000Y-74168000D01*
X101874000Y-74168000D01*
X101874000Y-74422000D01*
X101854000Y-74422000D01*
X101854000Y-75615814D01*
X102083891Y-75736481D01*
X102358252Y-75639157D01*
X102608355Y-75490178D01*
X102804502Y-75313374D01*
X102827498Y-75389180D01*
X102886463Y-75499494D01*
X102965815Y-75596185D01*
X103062506Y-75675537D01*
X103172820Y-75734502D01*
X103292518Y-75770812D01*
X103417000Y-75783072D01*
X103466646Y-75783072D01*
X103491828Y-75866086D01*
X103569364Y-76011145D01*
X103569365Y-76011146D01*
X103673710Y-76138291D01*
X103705574Y-76164441D01*
X123371000Y-95829868D01*
X123371001Y-107452878D01*
X123261820Y-107485998D01*
X123151506Y-107544963D01*
X123054815Y-107624315D01*
X122975463Y-107721006D01*
X122916498Y-107831320D01*
X122880188Y-107951018D01*
X122867928Y-108075500D01*
X122867928Y-109475500D01*
X122880188Y-109599982D01*
X122916498Y-109719680D01*
X122975463Y-109829994D01*
X123054815Y-109926685D01*
X123151506Y-110006037D01*
X123261820Y-110065002D01*
X123381518Y-110101312D01*
X123506000Y-110113572D01*
X124906000Y-110113572D01*
X125030482Y-110101312D01*
X125150180Y-110065002D01*
X125260494Y-110006037D01*
X125357185Y-109926685D01*
X125436537Y-109829994D01*
X125495502Y-109719680D01*
X125531812Y-109599982D01*
X125544072Y-109475500D01*
X125544072Y-109439487D01*
X125669038Y-109626513D01*
X125854987Y-109812462D01*
X126073641Y-109958561D01*
X126316595Y-110059196D01*
X126574514Y-110110500D01*
X126837486Y-110110500D01*
X127095405Y-110059196D01*
X127338359Y-109958561D01*
X127557013Y-109812462D01*
X127742962Y-109626513D01*
X127889061Y-109407859D01*
X127956000Y-109246254D01*
X128022939Y-109407859D01*
X128169038Y-109626513D01*
X128354987Y-109812462D01*
X128573641Y-109958561D01*
X128816595Y-110059196D01*
X129074514Y-110110500D01*
X129337486Y-110110500D01*
X129595405Y-110059196D01*
X129838359Y-109958561D01*
X130057013Y-109812462D01*
X130242962Y-109626513D01*
X130389061Y-109407859D01*
X130489696Y-109164905D01*
X130541000Y-108906986D01*
X130541000Y-108644014D01*
X130489696Y-108386095D01*
X130389061Y-108143141D01*
X130242962Y-107924487D01*
X130057013Y-107738538D01*
X129838359Y-107592439D01*
X129595405Y-107491804D01*
X129337486Y-107440500D01*
X129074514Y-107440500D01*
X128816595Y-107491804D01*
X128573641Y-107592439D01*
X128354987Y-107738538D01*
X128169038Y-107924487D01*
X128022939Y-108143141D01*
X127956000Y-108304746D01*
X127889061Y-108143141D01*
X127742962Y-107924487D01*
X127557013Y-107738538D01*
X127541000Y-107727839D01*
X127541000Y-106303867D01*
X127799653Y-106045214D01*
X127830815Y-106083185D01*
X127927506Y-106162537D01*
X128037820Y-106221502D01*
X128157518Y-106257812D01*
X128282000Y-106270072D01*
X129782000Y-106270072D01*
X129906482Y-106257812D01*
X130026180Y-106221502D01*
X130136494Y-106162537D01*
X130233185Y-106083185D01*
X130302000Y-105999333D01*
X130370815Y-106083185D01*
X130467506Y-106162537D01*
X130577820Y-106221502D01*
X130697518Y-106257812D01*
X130822000Y-106270072D01*
X132322000Y-106270072D01*
X132446482Y-106257812D01*
X132566180Y-106221502D01*
X132676494Y-106162537D01*
X132773185Y-106083185D01*
X132852537Y-105986494D01*
X132911502Y-105876180D01*
X132947812Y-105756482D01*
X132960072Y-105632000D01*
X132960072Y-103791277D01*
X132968403Y-103706689D01*
X132968403Y-103557311D01*
X132956143Y-103432830D01*
X132927001Y-103286322D01*
X132890690Y-103166621D01*
X132833525Y-103028614D01*
X132774562Y-102918304D01*
X132691572Y-102794100D01*
X132612219Y-102697407D01*
X132506593Y-102591781D01*
X132409900Y-102512428D01*
X132285696Y-102429438D01*
X132175386Y-102370475D01*
X132037379Y-102313310D01*
X131917678Y-102276999D01*
X131771170Y-102247857D01*
X131646689Y-102235597D01*
X131497311Y-102235597D01*
X131372830Y-102247857D01*
X131226322Y-102276999D01*
X131106621Y-102313310D01*
X130968614Y-102370475D01*
X130858304Y-102429438D01*
X130734100Y-102512428D01*
X130637407Y-102591781D01*
X130531781Y-102697407D01*
X130452428Y-102794100D01*
X130450490Y-102797000D01*
X130153510Y-102797000D01*
X130151572Y-102794100D01*
X130072219Y-102697407D01*
X129966593Y-102591781D01*
X129869900Y-102512428D01*
X129745696Y-102429438D01*
X129635386Y-102370475D01*
X129497379Y-102313310D01*
X129377678Y-102276999D01*
X129231170Y-102247857D01*
X129106689Y-102235597D01*
X128957311Y-102235597D01*
X128832830Y-102247857D01*
X128686322Y-102276999D01*
X128566621Y-102313310D01*
X128428614Y-102370475D01*
X128318304Y-102429438D01*
X128194100Y-102512428D01*
X128097407Y-102591781D01*
X127991781Y-102697407D01*
X127912428Y-102794100D01*
X127829438Y-102918304D01*
X127770475Y-103028614D01*
X127713310Y-103166621D01*
X127676999Y-103286322D01*
X127647857Y-103432830D01*
X127635597Y-103557311D01*
X127635597Y-103706689D01*
X127643928Y-103791277D01*
X127643928Y-103839204D01*
X126144574Y-105338559D01*
X126112710Y-105364709D01*
X126086562Y-105396571D01*
X126008364Y-105491855D01*
X125930828Y-105636914D01*
X125883082Y-105794312D01*
X125866960Y-105958000D01*
X125871001Y-105999028D01*
X125871000Y-107727838D01*
X125854987Y-107738538D01*
X125669038Y-107924487D01*
X125544072Y-108111513D01*
X125544072Y-108075500D01*
X125531812Y-107951018D01*
X125495502Y-107831320D01*
X125436537Y-107721006D01*
X125357185Y-107624315D01*
X125260494Y-107544963D01*
X125150180Y-107485998D01*
X125041000Y-107452879D01*
X125041000Y-95525015D01*
X125045040Y-95483999D01*
X125038294Y-95415506D01*
X125028918Y-95320311D01*
X124981172Y-95162913D01*
X124903636Y-95017854D01*
X124799291Y-94890709D01*
X124767428Y-94864560D01*
X118220179Y-88317311D01*
X120015597Y-88317311D01*
X120015597Y-88466689D01*
X120027857Y-88591170D01*
X120056999Y-88737678D01*
X120093310Y-88857379D01*
X120150475Y-88995386D01*
X120209438Y-89105696D01*
X120292428Y-89229900D01*
X120371781Y-89326593D01*
X120477407Y-89432219D01*
X120574100Y-89511572D01*
X120698304Y-89594562D01*
X120808614Y-89653525D01*
X120946621Y-89710690D01*
X121066322Y-89747001D01*
X121212830Y-89776143D01*
X121337311Y-89788403D01*
X121486689Y-89788403D01*
X121611170Y-89776143D01*
X121757678Y-89747001D01*
X121877379Y-89710690D01*
X122015386Y-89653525D01*
X122125696Y-89594562D01*
X122249900Y-89511572D01*
X122346593Y-89432219D01*
X122452219Y-89326593D01*
X122531572Y-89229900D01*
X122614562Y-89105696D01*
X122673525Y-88995386D01*
X122730690Y-88857379D01*
X122767001Y-88737678D01*
X122796143Y-88591170D01*
X122808403Y-88466689D01*
X122808403Y-88317311D01*
X127635597Y-88317311D01*
X127635597Y-88466689D01*
X127647857Y-88591170D01*
X127676999Y-88737678D01*
X127713310Y-88857379D01*
X127770475Y-88995386D01*
X127829438Y-89105696D01*
X127912428Y-89229900D01*
X127991781Y-89326593D01*
X128097407Y-89432219D01*
X128194100Y-89511572D01*
X128318304Y-89594562D01*
X128428614Y-89653525D01*
X128566621Y-89710690D01*
X128686322Y-89747001D01*
X128832830Y-89776143D01*
X128957311Y-89788403D01*
X129106689Y-89788403D01*
X129231170Y-89776143D01*
X129377678Y-89747001D01*
X129497379Y-89710690D01*
X129635386Y-89653525D01*
X129745696Y-89594562D01*
X129869900Y-89511572D01*
X129966593Y-89432219D01*
X130072219Y-89326593D01*
X130151572Y-89229900D01*
X130234562Y-89105696D01*
X130293525Y-88995386D01*
X130350690Y-88857379D01*
X130387001Y-88737678D01*
X130416143Y-88591170D01*
X130428403Y-88466689D01*
X130428403Y-88317311D01*
X130420072Y-88232723D01*
X130420072Y-86392000D01*
X130407812Y-86267518D01*
X130371502Y-86147820D01*
X130312537Y-86037506D01*
X130233185Y-85940815D01*
X130136494Y-85861463D01*
X130026180Y-85802498D01*
X129906482Y-85766188D01*
X129782000Y-85753928D01*
X128282000Y-85753928D01*
X128157518Y-85766188D01*
X128037820Y-85802498D01*
X127927506Y-85861463D01*
X127830815Y-85940815D01*
X127751463Y-86037506D01*
X127692498Y-86147820D01*
X127656188Y-86267518D01*
X127643928Y-86392000D01*
X127643928Y-88232723D01*
X127635597Y-88317311D01*
X122808403Y-88317311D01*
X122800072Y-88232723D01*
X122800072Y-88184795D01*
X125567869Y-85417000D01*
X131069595Y-85417000D01*
X131042499Y-85506322D01*
X131013357Y-85652830D01*
X131001097Y-85777311D01*
X131001097Y-85926689D01*
X131009428Y-86011277D01*
X131009428Y-87852000D01*
X131021688Y-87976482D01*
X131057998Y-88096180D01*
X131116963Y-88206494D01*
X131196315Y-88303185D01*
X131293006Y-88382537D01*
X131403320Y-88441502D01*
X131523018Y-88477812D01*
X131647500Y-88490072D01*
X133147500Y-88490072D01*
X133271982Y-88477812D01*
X133391680Y-88441502D01*
X133501994Y-88382537D01*
X133598685Y-88303185D01*
X133667500Y-88219333D01*
X133736315Y-88303185D01*
X133833006Y-88382537D01*
X133943320Y-88441502D01*
X134063018Y-88477812D01*
X134187500Y-88490072D01*
X135687500Y-88490072D01*
X135811982Y-88477812D01*
X135931680Y-88441502D01*
X136041994Y-88382537D01*
X136138685Y-88303185D01*
X136207500Y-88219333D01*
X136276315Y-88303185D01*
X136373006Y-88382537D01*
X136483320Y-88441502D01*
X136603018Y-88477812D01*
X136727500Y-88490072D01*
X138227500Y-88490072D01*
X138351982Y-88477812D01*
X138471680Y-88441502D01*
X138581994Y-88382537D01*
X138611000Y-88358732D01*
X138611001Y-94954972D01*
X138611000Y-94954982D01*
X138611000Y-95381463D01*
X138608403Y-95384060D01*
X138508696Y-95317438D01*
X138398386Y-95258475D01*
X138260379Y-95201310D01*
X138140678Y-95164999D01*
X137994170Y-95135857D01*
X137869689Y-95123597D01*
X137720311Y-95123597D01*
X137635723Y-95131928D01*
X135795000Y-95131928D01*
X135670518Y-95144188D01*
X135550820Y-95180498D01*
X135440506Y-95239463D01*
X135343815Y-95318815D01*
X135264463Y-95415506D01*
X135205498Y-95525820D01*
X135169188Y-95645518D01*
X135156928Y-95770000D01*
X135156928Y-97270000D01*
X135169188Y-97394482D01*
X135205498Y-97514180D01*
X135264463Y-97624494D01*
X135343815Y-97721185D01*
X135427667Y-97790000D01*
X135343815Y-97858815D01*
X135264463Y-97955506D01*
X135205498Y-98065820D01*
X135169188Y-98185518D01*
X135156928Y-98310000D01*
X135156928Y-99810000D01*
X135169188Y-99934482D01*
X135205498Y-100054180D01*
X135264463Y-100164494D01*
X135343815Y-100261185D01*
X135427667Y-100330000D01*
X135343815Y-100398815D01*
X135264463Y-100495506D01*
X135205498Y-100605820D01*
X135169188Y-100725518D01*
X135156928Y-100850000D01*
X135156928Y-102350000D01*
X135169188Y-102474482D01*
X135205498Y-102594180D01*
X135264463Y-102704494D01*
X135343815Y-102801185D01*
X135440506Y-102880537D01*
X135550820Y-102939502D01*
X135670518Y-102975812D01*
X135795000Y-102988072D01*
X137635723Y-102988072D01*
X137720311Y-102996403D01*
X137869689Y-102996403D01*
X137994170Y-102984143D01*
X138140678Y-102955001D01*
X138260379Y-102918690D01*
X138398386Y-102861525D01*
X138508696Y-102802562D01*
X138611000Y-102734205D01*
X138611001Y-109813381D01*
X138518494Y-109737463D01*
X138408180Y-109678498D01*
X138288482Y-109642188D01*
X138164000Y-109629928D01*
X136664000Y-109629928D01*
X136539518Y-109642188D01*
X136419820Y-109678498D01*
X136309506Y-109737463D01*
X136212815Y-109816815D01*
X136144000Y-109900667D01*
X136075185Y-109816815D01*
X135978494Y-109737463D01*
X135868180Y-109678498D01*
X135748482Y-109642188D01*
X135624000Y-109629928D01*
X134124000Y-109629928D01*
X133999518Y-109642188D01*
X133879820Y-109678498D01*
X133769506Y-109737463D01*
X133672815Y-109816815D01*
X133604000Y-109900667D01*
X133535185Y-109816815D01*
X133438494Y-109737463D01*
X133328180Y-109678498D01*
X133208482Y-109642188D01*
X133084000Y-109629928D01*
X131584000Y-109629928D01*
X131459518Y-109642188D01*
X131339820Y-109678498D01*
X131229506Y-109737463D01*
X131132815Y-109816815D01*
X131053463Y-109913506D01*
X130994498Y-110023820D01*
X130958188Y-110143518D01*
X130945928Y-110268000D01*
X130945928Y-112108723D01*
X130937597Y-112193311D01*
X130937597Y-112342689D01*
X130949857Y-112467170D01*
X130978999Y-112613678D01*
X131015310Y-112733379D01*
X131072475Y-112871386D01*
X131131438Y-112981696D01*
X131214428Y-113105900D01*
X131293781Y-113202593D01*
X131399407Y-113308219D01*
X131496100Y-113387572D01*
X131620304Y-113470562D01*
X131730614Y-113529525D01*
X131868621Y-113586690D01*
X131988322Y-113623001D01*
X132134830Y-113652143D01*
X132259311Y-113664403D01*
X132408689Y-113664403D01*
X132533170Y-113652143D01*
X132679678Y-113623001D01*
X132799379Y-113586690D01*
X132937386Y-113529525D01*
X133047696Y-113470562D01*
X133171900Y-113387572D01*
X133268593Y-113308219D01*
X133374219Y-113202593D01*
X133453572Y-113105900D01*
X133536562Y-112981696D01*
X133595525Y-112871386D01*
X133604000Y-112850926D01*
X133612475Y-112871386D01*
X133671438Y-112981696D01*
X133754428Y-113105900D01*
X133833781Y-113202593D01*
X133939407Y-113308219D01*
X134036100Y-113387572D01*
X134160304Y-113470562D01*
X134270614Y-113529525D01*
X134408621Y-113586690D01*
X134528322Y-113623001D01*
X134674830Y-113652143D01*
X134799311Y-113664403D01*
X134948689Y-113664403D01*
X135073170Y-113652143D01*
X135219678Y-113623001D01*
X135339379Y-113586690D01*
X135477386Y-113529525D01*
X135587696Y-113470562D01*
X135711900Y-113387572D01*
X135808593Y-113308219D01*
X135914219Y-113202593D01*
X135993572Y-113105900D01*
X136076562Y-112981696D01*
X136135525Y-112871386D01*
X136144000Y-112850926D01*
X136152475Y-112871386D01*
X136211438Y-112981696D01*
X136294428Y-113105900D01*
X136373781Y-113202593D01*
X136479407Y-113308219D01*
X136576100Y-113387572D01*
X136700304Y-113470562D01*
X136810614Y-113529525D01*
X136948621Y-113586690D01*
X137068322Y-113623001D01*
X137214830Y-113652143D01*
X137339311Y-113664403D01*
X137488689Y-113664403D01*
X137613170Y-113652143D01*
X137759678Y-113623001D01*
X137879379Y-113586690D01*
X138017386Y-113529525D01*
X138127696Y-113470562D01*
X138251900Y-113387572D01*
X138348593Y-113308219D01*
X138454219Y-113202593D01*
X138533572Y-113105900D01*
X138616562Y-112981696D01*
X138675525Y-112871386D01*
X138732690Y-112733379D01*
X138769001Y-112613678D01*
X138798143Y-112467170D01*
X138810403Y-112342689D01*
X138810403Y-112193311D01*
X138802072Y-112108723D01*
X138802072Y-112060796D01*
X140007432Y-110855437D01*
X140039291Y-110829291D01*
X140143636Y-110702146D01*
X140221172Y-110557087D01*
X140268918Y-110399689D01*
X140281000Y-110277019D01*
X140285040Y-110236000D01*
X140281000Y-110194982D01*
X140281000Y-97323018D01*
X140285040Y-97282000D01*
X140281000Y-97240981D01*
X140281000Y-95768348D01*
X140285040Y-95727332D01*
X140281000Y-95686316D01*
X140281000Y-85893015D01*
X140285040Y-85851999D01*
X140280164Y-85802498D01*
X140268918Y-85688311D01*
X140221172Y-85530913D01*
X140143636Y-85385854D01*
X140039291Y-85258709D01*
X140007428Y-85232560D01*
X138795446Y-84020579D01*
X138769291Y-83988709D01*
X138642146Y-83884364D01*
X138497087Y-83806828D01*
X138339689Y-83759082D01*
X138217019Y-83747000D01*
X138217018Y-83747000D01*
X138176000Y-83742960D01*
X138134982Y-83747000D01*
X132850187Y-83747000D01*
X132809169Y-83742960D01*
X132768150Y-83747000D01*
X132026849Y-83747000D01*
X131985831Y-83742960D01*
X131944813Y-83747000D01*
X130236560Y-83747000D01*
X130451114Y-83532446D01*
X130794201Y-83018979D01*
X131030524Y-82448446D01*
X131151000Y-81842771D01*
X131151000Y-81225229D01*
X131030524Y-80619554D01*
X130794201Y-80049021D01*
X130451114Y-79535554D01*
X130014446Y-79098886D01*
X129500979Y-78755799D01*
X128930446Y-78519476D01*
X128324771Y-78399000D01*
X127707229Y-78399000D01*
X127101554Y-78519476D01*
X126531021Y-78755799D01*
X126017554Y-79098886D01*
X125580886Y-79535554D01*
X125237799Y-80049021D01*
X125001476Y-80619554D01*
X124881000Y-81225229D01*
X124881000Y-81842771D01*
X125001476Y-82448446D01*
X125237799Y-83018979D01*
X125580886Y-83532446D01*
X125795440Y-83747000D01*
X125263018Y-83747000D01*
X125222000Y-83742960D01*
X125180982Y-83747000D01*
X125180981Y-83747000D01*
X125058311Y-83759082D01*
X124900913Y-83806828D01*
X124755854Y-83884364D01*
X124628709Y-83988709D01*
X124602563Y-84020568D01*
X122644347Y-85978786D01*
X122613185Y-85940815D01*
X122516494Y-85861463D01*
X122406180Y-85802498D01*
X122286482Y-85766188D01*
X122162000Y-85753928D01*
X120662000Y-85753928D01*
X120537518Y-85766188D01*
X120417820Y-85802498D01*
X120307506Y-85861463D01*
X120210815Y-85940815D01*
X120131463Y-86037506D01*
X120072498Y-86147820D01*
X120036188Y-86267518D01*
X120023928Y-86392000D01*
X120023928Y-88232723D01*
X120015597Y-88317311D01*
X118220179Y-88317311D01*
X105530214Y-75627347D01*
X105568185Y-75596185D01*
X105647537Y-75499494D01*
X105706502Y-75389180D01*
X105742812Y-75269482D01*
X105755072Y-75145000D01*
X105755072Y-75066500D01*
X107843928Y-75066500D01*
X107843928Y-75731500D01*
X107856188Y-75855982D01*
X107892498Y-75975680D01*
X107951463Y-76085994D01*
X108030815Y-76182685D01*
X108127506Y-76262037D01*
X108237820Y-76321002D01*
X108357518Y-76357312D01*
X108482000Y-76369572D01*
X111482000Y-76369572D01*
X111606482Y-76357312D01*
X111726180Y-76321002D01*
X111836494Y-76262037D01*
X111933185Y-76182685D01*
X112012537Y-76085994D01*
X112071502Y-75975680D01*
X112107812Y-75855982D01*
X112120072Y-75731500D01*
X112120072Y-72731500D01*
X112107812Y-72607018D01*
X112071502Y-72487320D01*
X112012537Y-72377006D01*
X111933185Y-72280315D01*
X111836494Y-72200963D01*
X111726180Y-72141998D01*
X111606482Y-72105688D01*
X111482000Y-72093428D01*
X108482000Y-72093428D01*
X108357518Y-72105688D01*
X108237820Y-72141998D01*
X108127506Y-72200963D01*
X108030815Y-72280315D01*
X107951463Y-72377006D01*
X107892498Y-72487320D01*
X107856188Y-72607018D01*
X107843928Y-72731500D01*
X107843928Y-73396500D01*
X105750295Y-73396500D01*
X105742812Y-73320518D01*
X105706502Y-73200820D01*
X105647537Y-73090506D01*
X105568185Y-72993815D01*
X105471494Y-72914463D01*
X105361180Y-72855498D01*
X105241482Y-72819188D01*
X105117000Y-72806928D01*
X103417000Y-72806928D01*
X103292518Y-72819188D01*
X103172820Y-72855498D01*
X103062506Y-72914463D01*
X102965815Y-72993815D01*
X102886463Y-73090506D01*
X102827498Y-73200820D01*
X102804502Y-73276626D01*
X102608355Y-73099822D01*
X102358252Y-72950843D01*
X102083891Y-72853519D01*
X101854000Y-72974186D01*
X101600000Y-72974186D01*
X101370109Y-72853519D01*
X101095748Y-72950843D01*
X100845645Y-73099822D01*
X100629412Y-73294731D01*
X100455359Y-73528080D01*
X100330175Y-73790901D01*
X100285524Y-73938110D01*
X99397163Y-73938110D01*
X99377334Y-73771049D01*
X99247243Y-73371117D01*
X99089214Y-73075462D01*
X98773653Y-72919452D01*
X97461605Y-74231500D01*
X97102395Y-74231500D01*
X95790347Y-72919452D01*
X95474786Y-73075462D01*
X95283980Y-73450245D01*
X95169956Y-73855051D01*
X95137098Y-74274324D01*
X88265000Y-74274324D01*
X88265000Y-72739847D01*
X95969952Y-72739847D01*
X97282000Y-74051895D01*
X98594048Y-72739847D01*
X98438038Y-72424286D01*
X98063255Y-72233480D01*
X97658449Y-72119456D01*
X97239176Y-72086598D01*
X96821549Y-72136166D01*
X96421617Y-72266257D01*
X96125962Y-72424286D01*
X95969952Y-72739847D01*
X88265000Y-72739847D01*
X88265000Y-70993000D01*
X144907000Y-70993000D01*
X144907000Y-80393768D01*
M02*
